M48
;DRILL file {PCBnew (2010-03-14)-final} date Sun 28 Apr 2013 07:56:12 PM ART
;FORMAT={-.-/ absolute / inch / decimal}
R,T
VER,1
FMAT,2
INCH,TZ
TCST,OFF
ICI,OFF
ATC,ON
T1C0.028
T2C0.032
T3C0.040
T4C0.118
T5C0.120
%
M47
G05
M72
T1
X4.697Y3.567
X4.804Y3.222
X4.852Y3.396
X4.852Y3.697
X4.866Y4.226
X5.020Y3.319
X5.023Y3.011
X5.109Y3.261
X5.142Y3.315
X5.183Y3.974
X5.199Y3.752
X5.201Y3.207
X5.218Y3.439
X5.224Y4.323
X5.249Y3.353
X5.313Y3.150
X5.360Y3.778
X5.376Y3.578
X5.380Y3.057
X5.400Y3.000
X5.414Y3.760
X5.415Y3.710
X5.439Y4.047
X5.455Y3.672
X5.463Y3.394
X5.474Y2.998
X5.488Y3.634
X5.530Y4.061
X5.558Y3.368
X5.563Y3.315
X5.587Y4.059
X5.622Y3.283
X5.632Y3.905
X5.633Y3.958
X5.667Y3.254
X5.709Y3.949
X5.726Y3.250
X5.761Y4.362
X5.791Y3.238
X5.797Y4.063
X5.809Y3.095
X5.854Y3.939
X5.867Y4.346
X5.934Y4.237
X5.947Y3.215
X5.982Y3.256
X6.016Y4.049
X6.024Y3.303
X6.102Y3.428
X6.152Y3.961
X6.157Y4.333
X6.195Y3.798
X6.195Y3.238
X6.225Y3.670
X6.323Y3.218
X6.325Y3.856
X6.325Y3.917
X6.370Y4.037
X6.405Y3.653
X6.523Y3.711
X6.533Y3.583
X6.661Y4.016
X6.779Y3.813
X6.909Y4.024
X6.972Y2.913
X6.986Y4.037
X7.169Y3.890
X7.220Y3.091
T2
X4.653Y3.935
X4.653Y4.135
X4.673Y2.950
X4.673Y3.150
X4.953Y3.935
X4.953Y4.135
X4.973Y2.950
X4.973Y3.150
X4.988Y3.400
X4.988Y3.600
X5.584Y3.062
X5.684Y2.962
X5.684Y3.062
T3
X4.686Y3.347
X4.686Y3.447
X5.087Y4.143
X5.087Y4.243
X5.101Y2.962
X5.101Y3.062
X5.187Y4.143
X5.187Y4.243
X5.201Y2.962
X5.201Y3.062
X5.287Y4.143
X5.287Y4.243
X5.301Y2.962
X5.301Y3.062
X5.387Y4.143
X5.387Y4.243
X5.487Y4.143
X5.487Y4.243
X5.587Y4.143
X5.587Y4.243
X5.687Y4.143
X5.687Y4.243
X6.024Y2.962
X6.024Y3.062
X6.024Y4.143
X6.024Y4.243
X6.124Y2.962
X6.124Y3.062
X6.124Y4.143
X6.124Y4.243
X6.224Y2.962
X6.224Y3.062
X6.224Y4.143
X6.224Y4.243
X6.324Y2.962
X6.324Y3.062
X6.324Y4.143
X6.324Y4.243
X6.424Y2.962
X6.424Y3.062
X6.424Y4.143
X6.424Y4.243
X6.694Y4.143
X6.694Y4.243
X6.794Y4.143
X6.794Y4.243
X6.894Y4.143
X6.894Y4.243
X6.994Y4.143
X6.994Y4.243
X7.094Y4.143
X7.094Y4.243
T4
X7.142Y2.957
T5
X4.677Y4.319
T0
M30
