G04 (created by PCBNEW-RS274X (2010-03-14)-final) date Sun 28 Apr 2013 07:55:46 PM ART*
G01*
G70*
G90*
%MOIN*%
G04 Gerber Fmt 3.4, Leading zero omitted, Abs format*
%FSLAX34Y34*%
G04 APERTURE LIST*
%ADD10C,0.006000*%
%ADD11C,0.015000*%
%ADD12R,0.060000X0.060000*%
%ADD13C,0.060000*%
%ADD14R,0.016000X0.060000*%
%ADD15R,0.060000X0.016000*%
%ADD16R,0.055000X0.055000*%
%ADD17C,0.055000*%
%ADD18R,0.025000X0.075000*%
%ADD19R,0.035000X0.055000*%
%ADD20R,0.055000X0.035000*%
%ADD21C,0.070000*%
%ADD22C,0.157500*%
%ADD23C,0.160000*%
%ADD24C,0.035000*%
%ADD25C,0.039400*%
%ADD26C,0.012500*%
%ADD27C,0.010000*%
G04 APERTURE END LIST*
G54D10*
G54D11*
X45708Y-28544D02*
X45708Y-44292D01*
X72479Y-28544D02*
X45708Y-28544D01*
X72479Y-28938D02*
X72479Y-28544D01*
X72479Y-44292D02*
X72479Y-28938D01*
X45708Y-44292D02*
X72479Y-44292D01*
G54D12*
X50869Y-42430D03*
G54D13*
X50869Y-41430D03*
X51869Y-42430D03*
X51869Y-41430D03*
X52869Y-42430D03*
X52869Y-41430D03*
X53869Y-42430D03*
X53869Y-41430D03*
X54869Y-42430D03*
X54869Y-41430D03*
X55869Y-42430D03*
X55869Y-41430D03*
X56869Y-42430D03*
X56869Y-41430D03*
G54D14*
X57912Y-33774D03*
X57597Y-33774D03*
X57282Y-33774D03*
X56967Y-33774D03*
X56652Y-33774D03*
X56337Y-33774D03*
X58227Y-33774D03*
X58542Y-33774D03*
X58857Y-33774D03*
X59172Y-33774D03*
X59487Y-33774D03*
X57912Y-38274D03*
X57597Y-38274D03*
X57282Y-38274D03*
X56967Y-38274D03*
X56652Y-38274D03*
X56337Y-38274D03*
X58227Y-38274D03*
X58542Y-38274D03*
X58857Y-38274D03*
X59172Y-38274D03*
X59487Y-38274D03*
G54D15*
X55662Y-36024D03*
X60162Y-36024D03*
X55662Y-36339D03*
X60162Y-36339D03*
X60162Y-36654D03*
X55662Y-36654D03*
X55662Y-36969D03*
X60162Y-36969D03*
X60162Y-37284D03*
X55662Y-37284D03*
X55662Y-37599D03*
X60162Y-37599D03*
X60162Y-35709D03*
X55662Y-35709D03*
X55662Y-35394D03*
X60162Y-35394D03*
X60162Y-35079D03*
X55662Y-35079D03*
X55662Y-34764D03*
X60162Y-34764D03*
X60162Y-34449D03*
X55662Y-34449D03*
G54D16*
X55837Y-30619D03*
G54D17*
X56837Y-30619D03*
X56837Y-29619D03*
X46727Y-31503D03*
X46727Y-29503D03*
X49727Y-31503D03*
X49727Y-29503D03*
X49530Y-39355D03*
X49530Y-41355D03*
X46530Y-39355D03*
X46530Y-41355D03*
G54D18*
X70292Y-33237D03*
X69792Y-33237D03*
X69292Y-33237D03*
X68792Y-33237D03*
X68292Y-33237D03*
X67792Y-33237D03*
X67292Y-33237D03*
X66792Y-33237D03*
X66792Y-37237D03*
X67292Y-37237D03*
X67792Y-37237D03*
X68292Y-37237D03*
X68792Y-37237D03*
X69292Y-37237D03*
X69792Y-37237D03*
X70292Y-37237D03*
G54D19*
X61592Y-35926D03*
X62342Y-35926D03*
G54D20*
X52637Y-36821D03*
X52637Y-37571D03*
X58700Y-29744D03*
X58700Y-30494D03*
X58650Y-41486D03*
X58650Y-42236D03*
G54D19*
X66555Y-31300D03*
X65805Y-31300D03*
X70886Y-38387D03*
X70136Y-38387D03*
X69705Y-31300D03*
X68955Y-31300D03*
X68130Y-31300D03*
X67380Y-31300D03*
X71279Y-31300D03*
X70529Y-31300D03*
G54D20*
X53001Y-35403D03*
X53001Y-36153D03*
G54D19*
X48435Y-37914D03*
X47685Y-37914D03*
X48435Y-35936D03*
X47685Y-35936D03*
G54D12*
X66936Y-42430D03*
G54D13*
X66936Y-41430D03*
X67936Y-42430D03*
X67936Y-41430D03*
X68936Y-42430D03*
X68936Y-41430D03*
X69936Y-42430D03*
X69936Y-41430D03*
X70936Y-42430D03*
X70936Y-41430D03*
G54D12*
X60243Y-42430D03*
G54D13*
X60243Y-41430D03*
X61243Y-42430D03*
X61243Y-41430D03*
X62243Y-42430D03*
X62243Y-41430D03*
X63243Y-42430D03*
X63243Y-41430D03*
X64243Y-42430D03*
X64243Y-41430D03*
G54D12*
X64243Y-29619D03*
G54D13*
X64243Y-30619D03*
X63243Y-29619D03*
X63243Y-30619D03*
X62243Y-29619D03*
X62243Y-30619D03*
X61243Y-29619D03*
X61243Y-30619D03*
X60243Y-29619D03*
X60243Y-30619D03*
G54D12*
X53007Y-29619D03*
G54D13*
X53007Y-30619D03*
X52007Y-29619D03*
X52007Y-30619D03*
X51007Y-29619D03*
X51007Y-30619D03*
G54D12*
X46859Y-33467D03*
G54D13*
X46859Y-34467D03*
G54D21*
X49881Y-36001D03*
X49881Y-34001D03*
G54D22*
X71416Y-29568D03*
G54D23*
X46771Y-43190D03*
G54D24*
X54626Y-33937D03*
G54D25*
X69723Y-29135D03*
X54743Y-29981D03*
X61948Y-37983D03*
X71693Y-38898D03*
X72204Y-30906D03*
X58089Y-30946D03*
X69094Y-40236D03*
X66614Y-40157D03*
X48661Y-42264D03*
X56673Y-32539D03*
X48040Y-32225D03*
X53996Y-30000D03*
G54D24*
X52489Y-33534D03*
G54D25*
X55580Y-33682D03*
X53130Y-31496D03*
G54D24*
X51091Y-32609D03*
G54D25*
X52244Y-43228D03*
G54D24*
X56220Y-32835D03*
X57607Y-43623D03*
G54D25*
X52008Y-32067D03*
X54390Y-40472D03*
X57264Y-32500D03*
X55295Y-40610D03*
G54D24*
X56328Y-39578D03*
G54D25*
X65335Y-35827D03*
G54D24*
X55630Y-33150D03*
X51417Y-33150D03*
G54D25*
X51831Y-39744D03*
X57087Y-39488D03*
G54D24*
X61516Y-39606D03*
X55866Y-40591D03*
X56318Y-39046D03*
G54D25*
X63248Y-39173D03*
G54D24*
X51987Y-37521D03*
G54D25*
X50196Y-33190D03*
X50235Y-30109D03*
X52184Y-34391D03*
G54D24*
X54152Y-37097D03*
G54D25*
X65235Y-37107D03*
X53799Y-30571D03*
X61022Y-34282D03*
X63228Y-32185D03*
X61949Y-32382D03*
X60236Y-33031D03*
X59823Y-32559D03*
X59469Y-32146D03*
G54D24*
X63248Y-38563D03*
G54D25*
X64055Y-36535D03*
G54D24*
X58542Y-39390D03*
X59339Y-42373D03*
G54D25*
X63701Y-40374D03*
X60157Y-40492D03*
X61575Y-43327D03*
X67794Y-38131D03*
X54143Y-37599D03*
X69862Y-40374D03*
X62253Y-36704D03*
G54D24*
X57972Y-40630D03*
G54D25*
X53601Y-37776D03*
G54D24*
X53759Y-35778D03*
G54D25*
X57912Y-32383D03*
X46969Y-35669D03*
X58670Y-43465D03*
X48524Y-36969D03*
G54D24*
X54546Y-36723D03*
G54D25*
X48524Y-33957D03*
G54D24*
X54881Y-36339D03*
G54D26*
X54380Y-35709D02*
X54517Y-35709D01*
X55662Y-35709D02*
X57066Y-35709D01*
X53542Y-36547D02*
X53316Y-36773D01*
X72083Y-31261D02*
X72083Y-37190D01*
X55662Y-35709D02*
X54517Y-35709D01*
X72083Y-31259D02*
X72085Y-31261D01*
X58542Y-36339D02*
X60162Y-36339D01*
X57824Y-29086D02*
X55638Y-29086D01*
X61445Y-36713D02*
X60992Y-36713D01*
X58227Y-33774D02*
X58227Y-32659D01*
X54626Y-33937D02*
X54743Y-33820D01*
X60992Y-36713D02*
X60618Y-36339D01*
X72083Y-31027D02*
X72083Y-31259D01*
X57912Y-36969D02*
X58542Y-36339D01*
X61948Y-37343D02*
X61948Y-37216D01*
X61948Y-37983D02*
X61948Y-37343D01*
X61948Y-37216D02*
X61445Y-36713D01*
X57844Y-29086D02*
X57824Y-29086D01*
X72083Y-37190D02*
X70886Y-38387D01*
X53048Y-37571D02*
X52637Y-37571D01*
X57066Y-35709D02*
X57912Y-35709D01*
X58227Y-34647D02*
X58227Y-33774D01*
X64961Y-32166D02*
X64961Y-34153D01*
X57912Y-35709D02*
X58542Y-36339D01*
X69723Y-29135D02*
X69674Y-29086D01*
X70292Y-37237D02*
X72036Y-37237D01*
X58700Y-29744D02*
X58502Y-29744D01*
X58227Y-32659D02*
X59232Y-31654D01*
X59232Y-31654D02*
X64449Y-31654D01*
X64449Y-31654D02*
X64961Y-32166D01*
X55638Y-29086D02*
X54743Y-29981D01*
X64961Y-34153D02*
X65925Y-35117D01*
X65925Y-35117D02*
X65925Y-35965D01*
X65925Y-35965D02*
X65296Y-36594D01*
X65296Y-36594D02*
X65040Y-36594D01*
X65040Y-36594D02*
X64685Y-36949D01*
X64685Y-36949D02*
X64685Y-37677D01*
X64685Y-37677D02*
X65335Y-38327D01*
X65335Y-38327D02*
X65335Y-43031D01*
X65335Y-43031D02*
X66202Y-43898D01*
X66202Y-43898D02*
X71319Y-43898D01*
X71319Y-43898D02*
X71693Y-43524D01*
X71693Y-43524D02*
X71693Y-38898D01*
X54743Y-33820D02*
X54743Y-29981D01*
X57066Y-35709D02*
X57165Y-35709D01*
X69674Y-29086D02*
X69045Y-29086D01*
X53542Y-36547D02*
X54380Y-35709D01*
X71281Y-38387D02*
X71693Y-38799D01*
X71693Y-38799D02*
X71693Y-38898D01*
X70886Y-38387D02*
X71281Y-38387D01*
X57912Y-38274D02*
X57912Y-36969D01*
X67991Y-29086D02*
X69045Y-29086D01*
X53316Y-36773D02*
X53316Y-37303D01*
X57824Y-29086D02*
X67991Y-29086D01*
X58502Y-29744D02*
X57844Y-29086D01*
X72204Y-30906D02*
X72083Y-31027D01*
X72036Y-37237D02*
X72083Y-37190D01*
X53316Y-37303D02*
X53048Y-37571D01*
X57165Y-35709D02*
X58227Y-34647D01*
X72085Y-31261D02*
X72083Y-31261D01*
X60618Y-36339D02*
X60162Y-36339D01*
X58089Y-30946D02*
X58541Y-30494D01*
X58541Y-30494D02*
X58700Y-30494D01*
X69292Y-40038D02*
X69094Y-40236D01*
X69292Y-39331D02*
X69292Y-40038D01*
X69292Y-37237D02*
X69292Y-39331D01*
X68792Y-37237D02*
X68792Y-39331D01*
X68268Y-40157D02*
X66614Y-40157D01*
X68792Y-39633D02*
X68268Y-40157D01*
X68792Y-39331D02*
X68792Y-39633D01*
X58857Y-38274D02*
X58857Y-39154D01*
X58916Y-41220D02*
X58650Y-41486D01*
X58916Y-39213D02*
X58916Y-39381D01*
X58857Y-39154D02*
X58916Y-39213D01*
X58916Y-39381D02*
X58916Y-41220D01*
X48060Y-32245D02*
X48060Y-38682D01*
X48040Y-32225D02*
X48060Y-32245D01*
X48060Y-39449D02*
X48060Y-41663D01*
X56967Y-32833D02*
X56673Y-32539D01*
X56967Y-33774D02*
X56967Y-32833D01*
X48060Y-38682D02*
X48060Y-39449D01*
X48060Y-41663D02*
X48661Y-42264D01*
X54252Y-34330D02*
X54252Y-31004D01*
X54252Y-30256D02*
X53996Y-30000D01*
X54686Y-34764D02*
X54252Y-34330D01*
X55662Y-34764D02*
X54686Y-34764D01*
X54252Y-31004D02*
X54252Y-30256D01*
X55662Y-34449D02*
X55662Y-33764D01*
X55662Y-33764D02*
X55580Y-33682D01*
X52499Y-32127D02*
X53130Y-31496D01*
X52499Y-32539D02*
X52499Y-32127D01*
X52489Y-33534D02*
X52499Y-33524D01*
X52499Y-33524D02*
X52499Y-32539D01*
X50079Y-43367D02*
X50590Y-43878D01*
X50855Y-39106D02*
X50079Y-39882D01*
X50855Y-38130D02*
X50855Y-39106D01*
X50590Y-43878D02*
X51732Y-43878D01*
X51732Y-43878D02*
X52244Y-43366D01*
X56652Y-33774D02*
X56652Y-33267D01*
X56652Y-33267D02*
X56220Y-32835D01*
X50855Y-32845D02*
X51091Y-32609D01*
X50855Y-38130D02*
X50855Y-32845D01*
X50079Y-39882D02*
X50079Y-43367D01*
X52244Y-43366D02*
X52244Y-43228D01*
X57597Y-38274D02*
X57597Y-43613D01*
X57597Y-43613D02*
X57607Y-43623D01*
X53878Y-40512D02*
X51554Y-38188D01*
X52008Y-32067D02*
X52036Y-32095D01*
X57597Y-33774D02*
X57597Y-32833D01*
X51554Y-33819D02*
X52036Y-33337D01*
X57597Y-32833D02*
X57264Y-32500D01*
X54350Y-40512D02*
X53878Y-40512D01*
X52036Y-32095D02*
X52036Y-33337D01*
X51554Y-38188D02*
X51554Y-33819D01*
X54390Y-40472D02*
X54350Y-40512D01*
X55295Y-40610D02*
X55059Y-40374D01*
X55059Y-40374D02*
X55059Y-38202D01*
X55059Y-38202D02*
X55662Y-37599D01*
X56967Y-38274D02*
X56967Y-38939D01*
X56967Y-38939D02*
X56328Y-39578D01*
X64587Y-35079D02*
X65335Y-35827D01*
X60787Y-35079D02*
X64587Y-35079D01*
X60787Y-35079D02*
X60162Y-35079D01*
X60954Y-35079D02*
X60787Y-35079D01*
X56024Y-33150D02*
X56337Y-33463D01*
X51417Y-33150D02*
X51170Y-33397D01*
X51170Y-38495D02*
X51170Y-33436D01*
X56337Y-33463D02*
X56337Y-33774D01*
X51170Y-33397D02*
X51170Y-33436D01*
X51170Y-39083D02*
X51170Y-38495D01*
X55630Y-33150D02*
X56024Y-33150D01*
X51831Y-39744D02*
X51170Y-39083D01*
X57282Y-38274D02*
X57282Y-39293D01*
X57282Y-39293D02*
X57087Y-39488D01*
X61515Y-38209D02*
X61515Y-39605D01*
X61515Y-38780D02*
X61515Y-38209D01*
X61515Y-37461D02*
X61515Y-37934D01*
X60162Y-36969D02*
X61023Y-36969D01*
X61023Y-36969D02*
X61515Y-37461D01*
X61515Y-38209D02*
X61515Y-37934D01*
X61515Y-39605D02*
X61516Y-39606D01*
X55866Y-40591D02*
X55869Y-40588D01*
X55869Y-40588D02*
X55869Y-38742D01*
X55869Y-38742D02*
X56337Y-38274D01*
X55869Y-38742D02*
X56337Y-38274D01*
X56652Y-38712D02*
X56318Y-39046D01*
X56652Y-38274D02*
X56652Y-38712D01*
X62794Y-38719D02*
X63248Y-39173D01*
X60162Y-35394D02*
X62715Y-35394D01*
X62794Y-38031D02*
X62794Y-38719D01*
X62794Y-38031D02*
X62794Y-35473D01*
X62715Y-35394D02*
X62794Y-35473D01*
X53001Y-35403D02*
X53001Y-35208D01*
X52637Y-36821D02*
X52234Y-36821D01*
X52234Y-36821D02*
X52036Y-37019D01*
X52036Y-37472D02*
X52036Y-37019D01*
X51987Y-37521D02*
X52036Y-37472D01*
X55662Y-35394D02*
X54133Y-35394D01*
X52589Y-35403D02*
X53001Y-35403D01*
X53010Y-35394D02*
X53001Y-35403D01*
X52332Y-35660D02*
X52589Y-35403D01*
X52332Y-36518D02*
X52332Y-36518D01*
X53001Y-35208D02*
X52184Y-34391D01*
X52332Y-36518D02*
X52332Y-35660D01*
X50235Y-33151D02*
X50235Y-30109D01*
X52332Y-36518D02*
X52334Y-36518D01*
X54133Y-35394D02*
X53010Y-35394D01*
X50196Y-33190D02*
X50235Y-33151D01*
X52334Y-36518D02*
X52637Y-36821D01*
X66201Y-36299D02*
X68150Y-36299D01*
X65393Y-37107D02*
X66201Y-36299D01*
X55662Y-36969D02*
X55127Y-36969D01*
X54999Y-37097D02*
X54152Y-37097D01*
X55127Y-36969D02*
X54999Y-37097D01*
X68150Y-36299D02*
X68292Y-36441D01*
X68292Y-36441D02*
X68292Y-37237D01*
X65235Y-37107D02*
X65393Y-37107D01*
X53840Y-30612D02*
X53799Y-30571D01*
X55662Y-35079D02*
X54327Y-35079D01*
X54327Y-35079D02*
X53840Y-34592D01*
X53840Y-31654D02*
X53840Y-30612D01*
X53840Y-34592D02*
X53840Y-31654D01*
X60540Y-34764D02*
X61022Y-34282D01*
X60162Y-34764D02*
X60540Y-34764D01*
X60162Y-34168D02*
X60491Y-33839D01*
X63243Y-32800D02*
X63243Y-32200D01*
X62204Y-33839D02*
X63243Y-32800D01*
X60491Y-33839D02*
X62204Y-33839D01*
X63243Y-32200D02*
X63228Y-32185D01*
X60162Y-34449D02*
X60162Y-34168D01*
X61181Y-33425D02*
X61949Y-32657D01*
X59487Y-33774D02*
X59680Y-33774D01*
X59680Y-33774D02*
X60029Y-33425D01*
X60029Y-33425D02*
X60256Y-33425D01*
X61949Y-32657D02*
X61949Y-32382D01*
X60256Y-33425D02*
X61181Y-33425D01*
X59172Y-33774D02*
X59172Y-33308D01*
X59449Y-33031D02*
X60236Y-33031D01*
X59172Y-33308D02*
X59449Y-33031D01*
X58857Y-33774D02*
X58857Y-33266D01*
X58857Y-33266D02*
X59564Y-32559D01*
X59564Y-32559D02*
X59823Y-32559D01*
X59469Y-32224D02*
X59469Y-32146D01*
X58542Y-33774D02*
X58542Y-33151D01*
X58542Y-33151D02*
X59469Y-32224D01*
X64055Y-36535D02*
X64035Y-36555D01*
X64035Y-37776D02*
X63248Y-38563D01*
X64035Y-36555D02*
X64035Y-37776D01*
X58542Y-38274D02*
X58542Y-39390D01*
X59172Y-40355D02*
X59172Y-42206D01*
X59172Y-38274D02*
X59172Y-40355D01*
X59172Y-42206D02*
X59339Y-42373D01*
X60825Y-37284D02*
X60934Y-37393D01*
X60934Y-39714D02*
X61594Y-40374D01*
X60162Y-37284D02*
X60825Y-37284D01*
X61594Y-40374D02*
X63701Y-40374D01*
X60934Y-37393D02*
X60934Y-39291D01*
X60934Y-39291D02*
X60934Y-39714D01*
X60157Y-40492D02*
X60157Y-37604D01*
X60162Y-40487D02*
X60162Y-40142D01*
X60157Y-40492D02*
X60162Y-40487D01*
X60162Y-37599D02*
X60162Y-40118D01*
X60157Y-37604D02*
X60162Y-37599D01*
X59704Y-42323D02*
X59704Y-42775D01*
X59487Y-40454D02*
X59487Y-41802D01*
X59704Y-42775D02*
X60256Y-43327D01*
X59704Y-42019D02*
X59704Y-42323D01*
X59487Y-38274D02*
X59487Y-40454D01*
X59487Y-41802D02*
X59704Y-42019D01*
X60256Y-43327D02*
X61575Y-43327D01*
X54862Y-37599D02*
X54143Y-37599D01*
X55177Y-37284D02*
X54862Y-37599D01*
X55662Y-37284D02*
X55177Y-37284D01*
X67794Y-38131D02*
X67792Y-38129D01*
X67792Y-38129D02*
X67792Y-37237D01*
X53830Y-36819D02*
X53601Y-37048D01*
X47637Y-42324D02*
X46771Y-43190D01*
X69792Y-35474D02*
X68778Y-34460D01*
X62007Y-36458D02*
X62253Y-36704D01*
X55235Y-35962D02*
X54485Y-35962D01*
X69792Y-37237D02*
X69792Y-35474D01*
X47637Y-37962D02*
X47685Y-37914D01*
X53001Y-36153D02*
X53384Y-36153D01*
X53795Y-36652D02*
X53795Y-36832D01*
X58346Y-31300D02*
X57912Y-31734D01*
X60906Y-31300D02*
X58346Y-31300D01*
X53384Y-36153D02*
X53759Y-35778D01*
X68955Y-31300D02*
X68955Y-30778D01*
X54485Y-35962D02*
X53830Y-36617D01*
X61623Y-36458D02*
X62233Y-36458D01*
X65805Y-33917D02*
X65805Y-31300D01*
X60162Y-36024D02*
X60815Y-36024D01*
X47637Y-41555D02*
X47637Y-42324D01*
X61249Y-36458D02*
X61623Y-36458D01*
X62342Y-36349D02*
X62342Y-35926D01*
X60815Y-36024D02*
X61249Y-36458D01*
X55662Y-36024D02*
X55297Y-36024D01*
X68621Y-30444D02*
X68542Y-30444D01*
X65805Y-31300D02*
X60906Y-31300D01*
X70136Y-38387D02*
X70136Y-40100D01*
X47637Y-41555D02*
X47637Y-37962D01*
X70540Y-30444D02*
X71416Y-29568D01*
X69792Y-37237D02*
X69792Y-38043D01*
X69792Y-38043D02*
X70136Y-38387D01*
X47685Y-37914D02*
X47685Y-35936D01*
X55297Y-36024D02*
X55235Y-35962D01*
X65304Y-31300D02*
X65315Y-31300D01*
X57912Y-31734D02*
X57912Y-32383D01*
X57912Y-33774D02*
X57912Y-32383D01*
X70136Y-40100D02*
X69862Y-40374D01*
X62233Y-36458D02*
X62342Y-36349D01*
X53830Y-36617D02*
X53795Y-36652D01*
X58227Y-38898D02*
X57972Y-39153D01*
X66189Y-30444D02*
X65805Y-30828D01*
X68542Y-30444D02*
X70540Y-30444D01*
X65805Y-30828D02*
X65805Y-31300D01*
X65315Y-31300D02*
X65805Y-31300D01*
X61623Y-36458D02*
X62007Y-36458D01*
X68542Y-30444D02*
X66189Y-30444D01*
X68955Y-30778D02*
X68621Y-30444D01*
X53601Y-37048D02*
X53601Y-37776D01*
X66348Y-34460D02*
X65805Y-33917D01*
X53830Y-36617D02*
X53830Y-36819D01*
X47685Y-35936D02*
X47236Y-35936D01*
X47236Y-35936D02*
X46969Y-35669D01*
X68778Y-34460D02*
X66348Y-34460D01*
X58227Y-38274D02*
X58227Y-38898D01*
X57972Y-39153D02*
X57972Y-40630D01*
X60162Y-35709D02*
X61375Y-35709D01*
X61375Y-35709D02*
X61592Y-35926D01*
X67380Y-31300D02*
X67380Y-31506D01*
X67380Y-31506D02*
X68292Y-32418D01*
X68292Y-32418D02*
X68292Y-33237D01*
X71279Y-31300D02*
X71279Y-31703D01*
X70292Y-32690D02*
X70292Y-33237D01*
X71279Y-31703D02*
X70292Y-32690D01*
X70529Y-31300D02*
X70529Y-31419D01*
X69292Y-32656D02*
X69292Y-33237D01*
X70529Y-31419D02*
X69292Y-32656D01*
X68130Y-31300D02*
X68130Y-31645D01*
X68792Y-32307D02*
X68792Y-33237D01*
X68130Y-31645D02*
X68792Y-32307D01*
X58670Y-43465D02*
X58650Y-43445D01*
X58650Y-43445D02*
X58650Y-42236D01*
X48435Y-37058D02*
X48435Y-37914D01*
X55038Y-36723D02*
X54546Y-36723D01*
X55662Y-36654D02*
X55107Y-36654D01*
X55107Y-36654D02*
X55038Y-36723D01*
X48524Y-36969D02*
X48435Y-37058D01*
X48435Y-34046D02*
X48435Y-35936D01*
X48524Y-33957D02*
X48435Y-34046D01*
X55662Y-36339D02*
X54881Y-36339D01*
X66555Y-31892D02*
X66555Y-31300D01*
X67361Y-32107D02*
X66770Y-32107D01*
X67792Y-32538D02*
X67361Y-32107D01*
X67792Y-33237D02*
X67792Y-32538D01*
X66770Y-32107D02*
X66555Y-31892D01*
X69705Y-31082D02*
X69705Y-31300D01*
X69999Y-30788D02*
X69705Y-31082D01*
X71612Y-30788D02*
X69999Y-30788D01*
X71830Y-31006D02*
X71612Y-30788D01*
X71830Y-31300D02*
X71830Y-31006D01*
X71830Y-31300D02*
X71830Y-33426D01*
X69792Y-34144D02*
X69792Y-33237D01*
X69989Y-34341D02*
X69792Y-34144D01*
X70915Y-34341D02*
X69989Y-34341D01*
X71830Y-33426D02*
X70915Y-34341D01*
G54D10*
G36*
X52848Y-31147D02*
X52752Y-31243D01*
X52684Y-31407D01*
X52684Y-31500D01*
X52377Y-31806D01*
X52261Y-31689D01*
X52097Y-31621D01*
X51920Y-31621D01*
X51756Y-31689D01*
X51630Y-31814D01*
X51562Y-31978D01*
X51562Y-32155D01*
X51630Y-32319D01*
X51724Y-32413D01*
X51724Y-32856D01*
X51658Y-32790D01*
X51502Y-32725D01*
X51516Y-32694D01*
X51516Y-32525D01*
X51452Y-32369D01*
X51332Y-32249D01*
X51315Y-32241D01*
X51315Y-30997D01*
X51007Y-30690D01*
X50699Y-30997D01*
X50726Y-31091D01*
X50928Y-31162D01*
X51141Y-31151D01*
X51288Y-31091D01*
X51315Y-30997D01*
X51315Y-32241D01*
X51176Y-32184D01*
X51007Y-32184D01*
X50851Y-32248D01*
X50731Y-32368D01*
X50666Y-32524D01*
X50666Y-32592D01*
X50634Y-32624D01*
X50567Y-32725D01*
X50547Y-32821D01*
X50547Y-30903D01*
X50629Y-30927D01*
X50901Y-30654D01*
X50936Y-30619D01*
X51007Y-30548D01*
X51042Y-30513D01*
X51315Y-30241D01*
X51288Y-30147D01*
X51222Y-30123D01*
X51318Y-30084D01*
X51472Y-29930D01*
X51507Y-29845D01*
X51542Y-29930D01*
X51696Y-30084D01*
X51780Y-30119D01*
X51696Y-30154D01*
X51542Y-30308D01*
X51504Y-30399D01*
X51479Y-30338D01*
X51385Y-30311D01*
X51078Y-30619D01*
X51385Y-30927D01*
X51479Y-30900D01*
X51502Y-30834D01*
X51542Y-30930D01*
X51696Y-31084D01*
X51898Y-31168D01*
X52116Y-31168D01*
X52318Y-31084D01*
X52472Y-30930D01*
X52507Y-30845D01*
X52542Y-30930D01*
X52696Y-31084D01*
X52848Y-31147D01*
X52848Y-31147D01*
G37*
G54D27*
X52848Y-31147D02*
X52752Y-31243D01*
X52684Y-31407D01*
X52684Y-31500D01*
X52377Y-31806D01*
X52261Y-31689D01*
X52097Y-31621D01*
X51920Y-31621D01*
X51756Y-31689D01*
X51630Y-31814D01*
X51562Y-31978D01*
X51562Y-32155D01*
X51630Y-32319D01*
X51724Y-32413D01*
X51724Y-32856D01*
X51658Y-32790D01*
X51502Y-32725D01*
X51516Y-32694D01*
X51516Y-32525D01*
X51452Y-32369D01*
X51332Y-32249D01*
X51315Y-32241D01*
X51315Y-30997D01*
X51007Y-30690D01*
X50699Y-30997D01*
X50726Y-31091D01*
X50928Y-31162D01*
X51141Y-31151D01*
X51288Y-31091D01*
X51315Y-30997D01*
X51315Y-32241D01*
X51176Y-32184D01*
X51007Y-32184D01*
X50851Y-32248D01*
X50731Y-32368D01*
X50666Y-32524D01*
X50666Y-32592D01*
X50634Y-32624D01*
X50567Y-32725D01*
X50547Y-32821D01*
X50547Y-30903D01*
X50629Y-30927D01*
X50901Y-30654D01*
X50936Y-30619D01*
X51007Y-30548D01*
X51042Y-30513D01*
X51315Y-30241D01*
X51288Y-30147D01*
X51222Y-30123D01*
X51318Y-30084D01*
X51472Y-29930D01*
X51507Y-29845D01*
X51542Y-29930D01*
X51696Y-30084D01*
X51780Y-30119D01*
X51696Y-30154D01*
X51542Y-30308D01*
X51504Y-30399D01*
X51479Y-30338D01*
X51385Y-30311D01*
X51078Y-30619D01*
X51385Y-30927D01*
X51479Y-30900D01*
X51502Y-30834D01*
X51542Y-30930D01*
X51696Y-31084D01*
X51898Y-31168D01*
X52116Y-31168D01*
X52318Y-31084D01*
X52472Y-30930D01*
X52507Y-30845D01*
X52542Y-30930D01*
X52696Y-31084D01*
X52848Y-31147D01*
G54D10*
G36*
X53051Y-36203D02*
X52951Y-36203D01*
X52951Y-36103D01*
X53051Y-36103D01*
X53051Y-36203D01*
X53051Y-36203D01*
G37*
G54D27*
X53051Y-36203D02*
X52951Y-36203D01*
X52951Y-36103D01*
X53051Y-36103D01*
X53051Y-36203D01*
G54D10*
G36*
X53941Y-35706D02*
X53526Y-36121D01*
X53526Y-36053D01*
X53514Y-36053D01*
X53526Y-36041D01*
X53525Y-35929D01*
X53487Y-35837D01*
X53428Y-35778D01*
X53487Y-35719D01*
X53492Y-35706D01*
X53941Y-35706D01*
X53941Y-35706D01*
G37*
G54D27*
X53941Y-35706D02*
X53526Y-36121D01*
X53526Y-36053D01*
X53514Y-36053D01*
X53526Y-36041D01*
X53525Y-35929D01*
X53487Y-35837D01*
X53428Y-35778D01*
X53487Y-35719D01*
X53492Y-35706D01*
X53941Y-35706D01*
G54D10*
G36*
X54919Y-37900D02*
X54838Y-37981D01*
X54771Y-38082D01*
X54746Y-38202D01*
X54747Y-38206D01*
X54747Y-40198D01*
X54643Y-40094D01*
X54479Y-40026D01*
X54302Y-40026D01*
X54138Y-40094D01*
X54031Y-40200D01*
X54007Y-40200D01*
X51866Y-38058D01*
X51866Y-37931D01*
X51902Y-37946D01*
X52071Y-37946D01*
X52169Y-37905D01*
X52221Y-37957D01*
X52312Y-37995D01*
X52411Y-37995D01*
X52961Y-37995D01*
X53053Y-37957D01*
X53123Y-37887D01*
X53131Y-37866D01*
X53167Y-37859D01*
X53168Y-37859D01*
X53269Y-37792D01*
X53537Y-37524D01*
X53604Y-37423D01*
X53604Y-37422D01*
X53628Y-37303D01*
X53629Y-37303D01*
X53628Y-37298D01*
X53628Y-36902D01*
X53760Y-36769D01*
X53762Y-36768D01*
X53763Y-36768D01*
X54510Y-36021D01*
X54517Y-36021D01*
X54598Y-36021D01*
X54521Y-36098D01*
X54456Y-36254D01*
X54456Y-36300D01*
X54306Y-36362D01*
X54186Y-36482D01*
X54121Y-36638D01*
X54121Y-36672D01*
X54068Y-36672D01*
X53912Y-36736D01*
X53792Y-36856D01*
X53727Y-37012D01*
X53727Y-37181D01*
X53786Y-37325D01*
X53765Y-37346D01*
X53697Y-37510D01*
X53697Y-37687D01*
X53765Y-37851D01*
X53890Y-37977D01*
X54054Y-38045D01*
X54231Y-38045D01*
X54395Y-37977D01*
X54461Y-37911D01*
X54857Y-37911D01*
X54862Y-37912D01*
X54862Y-37911D01*
X54919Y-37900D01*
X54919Y-37900D01*
G37*
G54D27*
X54919Y-37900D02*
X54838Y-37981D01*
X54771Y-38082D01*
X54746Y-38202D01*
X54747Y-38206D01*
X54747Y-40198D01*
X54643Y-40094D01*
X54479Y-40026D01*
X54302Y-40026D01*
X54138Y-40094D01*
X54031Y-40200D01*
X54007Y-40200D01*
X51866Y-38058D01*
X51866Y-37931D01*
X51902Y-37946D01*
X52071Y-37946D01*
X52169Y-37905D01*
X52221Y-37957D01*
X52312Y-37995D01*
X52411Y-37995D01*
X52961Y-37995D01*
X53053Y-37957D01*
X53123Y-37887D01*
X53131Y-37866D01*
X53167Y-37859D01*
X53168Y-37859D01*
X53269Y-37792D01*
X53537Y-37524D01*
X53604Y-37423D01*
X53604Y-37422D01*
X53628Y-37303D01*
X53629Y-37303D01*
X53628Y-37298D01*
X53628Y-36902D01*
X53760Y-36769D01*
X53762Y-36768D01*
X53763Y-36768D01*
X54510Y-36021D01*
X54517Y-36021D01*
X54598Y-36021D01*
X54521Y-36098D01*
X54456Y-36254D01*
X54456Y-36300D01*
X54306Y-36362D01*
X54186Y-36482D01*
X54121Y-36638D01*
X54121Y-36672D01*
X54068Y-36672D01*
X53912Y-36736D01*
X53792Y-36856D01*
X53727Y-37012D01*
X53727Y-37181D01*
X53786Y-37325D01*
X53765Y-37346D01*
X53697Y-37510D01*
X53697Y-37687D01*
X53765Y-37851D01*
X53890Y-37977D01*
X54054Y-38045D01*
X54231Y-38045D01*
X54395Y-37977D01*
X54461Y-37911D01*
X54857Y-37911D01*
X54862Y-37912D01*
X54862Y-37911D01*
X54919Y-37900D01*
G54D10*
G36*
X55413Y-28869D02*
X54747Y-29535D01*
X54655Y-29535D01*
X54491Y-29603D01*
X54365Y-29728D01*
X54361Y-29735D01*
X54249Y-29622D01*
X54085Y-29554D01*
X53908Y-29554D01*
X53744Y-29622D01*
X53618Y-29747D01*
X53556Y-29896D01*
X53556Y-29870D01*
X53556Y-29270D01*
X53518Y-29178D01*
X53448Y-29108D01*
X53357Y-29070D01*
X53258Y-29070D01*
X52658Y-29070D01*
X52566Y-29108D01*
X52496Y-29178D01*
X52458Y-29269D01*
X52458Y-29294D01*
X52318Y-29154D01*
X52116Y-29070D01*
X51898Y-29070D01*
X51696Y-29154D01*
X51542Y-29308D01*
X51507Y-29392D01*
X51472Y-29308D01*
X51318Y-29154D01*
X51116Y-29070D01*
X50898Y-29070D01*
X50696Y-29154D01*
X50542Y-29308D01*
X50458Y-29510D01*
X50458Y-29718D01*
X50324Y-29663D01*
X50229Y-29663D01*
X50252Y-29608D01*
X50252Y-29399D01*
X50172Y-29206D01*
X50025Y-29058D01*
X49832Y-28978D01*
X49623Y-28978D01*
X49430Y-29058D01*
X49282Y-29205D01*
X49202Y-29398D01*
X49202Y-29607D01*
X49282Y-29800D01*
X49429Y-29948D01*
X49622Y-30028D01*
X49789Y-30028D01*
X49789Y-30197D01*
X49857Y-30361D01*
X49923Y-30427D01*
X49923Y-31026D01*
X49801Y-30984D01*
X49597Y-30995D01*
X49460Y-31051D01*
X49437Y-31142D01*
X49692Y-31397D01*
X49727Y-31432D01*
X49798Y-31503D01*
X49727Y-31574D01*
X49692Y-31609D01*
X49656Y-31645D01*
X49656Y-31503D01*
X49366Y-31213D01*
X49275Y-31236D01*
X49208Y-31429D01*
X49219Y-31633D01*
X49275Y-31770D01*
X49366Y-31793D01*
X49656Y-31503D01*
X49656Y-31645D01*
X49437Y-31864D01*
X49460Y-31955D01*
X49653Y-32022D01*
X49857Y-32011D01*
X49923Y-31984D01*
X49923Y-32832D01*
X49818Y-32937D01*
X49750Y-33101D01*
X49750Y-33278D01*
X49801Y-33402D01*
X49762Y-33402D01*
X49542Y-33493D01*
X49373Y-33662D01*
X49282Y-33882D01*
X49282Y-34120D01*
X49373Y-34340D01*
X49542Y-34509D01*
X49762Y-34600D01*
X50000Y-34600D01*
X50220Y-34509D01*
X50389Y-34340D01*
X50480Y-34120D01*
X50480Y-33882D01*
X50389Y-33662D01*
X50339Y-33612D01*
X50448Y-33568D01*
X50543Y-33473D01*
X50543Y-38130D01*
X50543Y-38976D01*
X50480Y-39039D01*
X50480Y-36120D01*
X50480Y-35882D01*
X50389Y-35662D01*
X50220Y-35493D01*
X50000Y-35402D01*
X49762Y-35402D01*
X49542Y-35493D01*
X49373Y-35662D01*
X49282Y-35882D01*
X49282Y-36120D01*
X49373Y-36340D01*
X49542Y-36509D01*
X49762Y-36600D01*
X50000Y-36600D01*
X50220Y-36509D01*
X50389Y-36340D01*
X50480Y-36120D01*
X50480Y-39039D01*
X50027Y-39492D01*
X50049Y-39429D01*
X50038Y-39225D01*
X49982Y-39088D01*
X49891Y-39065D01*
X49820Y-39136D01*
X49820Y-38994D01*
X49797Y-38903D01*
X49604Y-38836D01*
X49400Y-38847D01*
X49263Y-38903D01*
X49240Y-38994D01*
X49530Y-39284D01*
X49820Y-38994D01*
X49820Y-39136D01*
X49636Y-39320D01*
X49601Y-39355D01*
X49530Y-39426D01*
X49495Y-39461D01*
X49459Y-39497D01*
X49459Y-39355D01*
X49169Y-39065D01*
X49078Y-39088D01*
X49011Y-39281D01*
X49022Y-39485D01*
X49078Y-39622D01*
X49169Y-39645D01*
X49459Y-39355D01*
X49459Y-39497D01*
X49240Y-39716D01*
X49263Y-39807D01*
X49456Y-39874D01*
X49660Y-39863D01*
X49780Y-39813D01*
X49766Y-39882D01*
X49767Y-39886D01*
X49767Y-40884D01*
X49635Y-40830D01*
X49426Y-40830D01*
X49233Y-40910D01*
X49085Y-41057D01*
X49005Y-41250D01*
X49005Y-41459D01*
X49085Y-41652D01*
X49232Y-41800D01*
X49425Y-41880D01*
X49634Y-41880D01*
X49767Y-41824D01*
X49767Y-43362D01*
X49766Y-43367D01*
X49791Y-43487D01*
X49858Y-43588D01*
X50237Y-43967D01*
X49107Y-43967D01*
X49107Y-42353D01*
X49107Y-42176D01*
X49039Y-42012D01*
X48914Y-41886D01*
X48750Y-41818D01*
X48656Y-41818D01*
X48372Y-41533D01*
X48372Y-39449D01*
X48372Y-38682D01*
X48372Y-38438D01*
X48659Y-38438D01*
X48751Y-38400D01*
X48821Y-38330D01*
X48859Y-38239D01*
X48859Y-38140D01*
X48859Y-37590D01*
X48821Y-37498D01*
X48751Y-37428D01*
X48747Y-37426D01*
X48747Y-37359D01*
X48776Y-37347D01*
X48902Y-37222D01*
X48970Y-37058D01*
X48970Y-36881D01*
X48902Y-36717D01*
X48777Y-36591D01*
X48613Y-36523D01*
X48436Y-36523D01*
X48372Y-36549D01*
X48372Y-36460D01*
X48659Y-36460D01*
X48751Y-36422D01*
X48821Y-36352D01*
X48859Y-36261D01*
X48859Y-36162D01*
X48859Y-35612D01*
X48821Y-35520D01*
X48751Y-35450D01*
X48747Y-35448D01*
X48747Y-34347D01*
X48776Y-34335D01*
X48902Y-34210D01*
X48970Y-34046D01*
X48970Y-33869D01*
X48902Y-33705D01*
X48777Y-33579D01*
X48613Y-33511D01*
X48436Y-33511D01*
X48372Y-33537D01*
X48372Y-32523D01*
X48418Y-32478D01*
X48486Y-32314D01*
X48486Y-32137D01*
X48418Y-31973D01*
X48293Y-31847D01*
X48129Y-31779D01*
X47952Y-31779D01*
X47788Y-31847D01*
X47662Y-31972D01*
X47594Y-32136D01*
X47594Y-32313D01*
X47662Y-32477D01*
X47748Y-32563D01*
X47748Y-35460D01*
X47735Y-35473D01*
X47735Y-35836D01*
X47735Y-35886D01*
X47735Y-35986D01*
X47735Y-36036D01*
X47735Y-36399D01*
X47748Y-36412D01*
X47748Y-37438D01*
X47735Y-37451D01*
X47735Y-37814D01*
X47735Y-37864D01*
X47735Y-37964D01*
X47735Y-38014D01*
X47735Y-38377D01*
X47748Y-38390D01*
X47748Y-38682D01*
X47748Y-39449D01*
X47748Y-41658D01*
X47747Y-41663D01*
X47772Y-41783D01*
X47839Y-41884D01*
X48215Y-42259D01*
X48215Y-42352D01*
X48283Y-42516D01*
X48408Y-42642D01*
X48572Y-42710D01*
X48749Y-42710D01*
X48913Y-42642D01*
X49039Y-42517D01*
X49107Y-42353D01*
X49107Y-43967D01*
X47801Y-43967D01*
X47801Y-43386D01*
X47798Y-42976D01*
X47648Y-42614D01*
X47635Y-42606D01*
X47635Y-38377D01*
X47635Y-37964D01*
X47635Y-37864D01*
X47635Y-37451D01*
X47635Y-36399D01*
X47635Y-35986D01*
X47635Y-35886D01*
X47635Y-35473D01*
X47573Y-35411D01*
X47461Y-35412D01*
X47408Y-35433D01*
X47408Y-33817D01*
X47408Y-33718D01*
X47408Y-33118D01*
X47370Y-33026D01*
X47300Y-32956D01*
X47252Y-32935D01*
X47252Y-29608D01*
X47252Y-29399D01*
X47172Y-29206D01*
X47025Y-29058D01*
X46832Y-28978D01*
X46623Y-28978D01*
X46430Y-29058D01*
X46282Y-29205D01*
X46202Y-29398D01*
X46202Y-29607D01*
X46282Y-29800D01*
X46429Y-29948D01*
X46622Y-30028D01*
X46831Y-30028D01*
X47024Y-29948D01*
X47172Y-29801D01*
X47252Y-29608D01*
X47252Y-32935D01*
X47246Y-32933D01*
X47246Y-31577D01*
X47235Y-31373D01*
X47179Y-31236D01*
X47088Y-31213D01*
X47017Y-31284D01*
X47017Y-31142D01*
X46994Y-31051D01*
X46801Y-30984D01*
X46597Y-30995D01*
X46460Y-31051D01*
X46437Y-31142D01*
X46727Y-31432D01*
X47017Y-31142D01*
X47017Y-31284D01*
X46798Y-31503D01*
X47088Y-31793D01*
X47179Y-31770D01*
X47246Y-31577D01*
X47246Y-32933D01*
X47209Y-32918D01*
X47110Y-32918D01*
X47017Y-32918D01*
X47017Y-31864D01*
X46727Y-31574D01*
X46656Y-31645D01*
X46656Y-31503D01*
X46366Y-31213D01*
X46275Y-31236D01*
X46208Y-31429D01*
X46219Y-31633D01*
X46275Y-31770D01*
X46366Y-31793D01*
X46656Y-31503D01*
X46656Y-31645D01*
X46437Y-31864D01*
X46460Y-31955D01*
X46653Y-32022D01*
X46857Y-32011D01*
X46994Y-31955D01*
X47017Y-31864D01*
X47017Y-32918D01*
X46510Y-32918D01*
X46418Y-32956D01*
X46348Y-33026D01*
X46310Y-33117D01*
X46310Y-33216D01*
X46310Y-33816D01*
X46348Y-33908D01*
X46418Y-33978D01*
X46509Y-34016D01*
X46571Y-34016D01*
X46551Y-34089D01*
X46859Y-34396D01*
X47167Y-34089D01*
X47146Y-34016D01*
X47208Y-34016D01*
X47300Y-33978D01*
X47370Y-33908D01*
X47408Y-33817D01*
X47408Y-35433D01*
X47402Y-35436D01*
X47402Y-34546D01*
X47391Y-34333D01*
X47331Y-34186D01*
X47237Y-34159D01*
X46930Y-34467D01*
X47237Y-34775D01*
X47331Y-34748D01*
X47402Y-34546D01*
X47402Y-35436D01*
X47369Y-35450D01*
X47299Y-35520D01*
X47261Y-35611D01*
X47261Y-35710D01*
X47260Y-35824D01*
X47322Y-35886D01*
X47635Y-35886D01*
X47635Y-35986D01*
X47322Y-35986D01*
X47260Y-36048D01*
X47261Y-36162D01*
X47261Y-36261D01*
X47299Y-36352D01*
X47369Y-36422D01*
X47461Y-36460D01*
X47573Y-36461D01*
X47635Y-36399D01*
X47635Y-37451D01*
X47573Y-37389D01*
X47461Y-37390D01*
X47369Y-37428D01*
X47299Y-37498D01*
X47261Y-37589D01*
X47261Y-37688D01*
X47260Y-37802D01*
X47322Y-37864D01*
X47635Y-37864D01*
X47635Y-37964D01*
X47322Y-37964D01*
X47260Y-38026D01*
X47261Y-38140D01*
X47261Y-38239D01*
X47299Y-38330D01*
X47369Y-38400D01*
X47461Y-38438D01*
X47573Y-38439D01*
X47635Y-38377D01*
X47635Y-42606D01*
X47504Y-42528D01*
X47433Y-42599D01*
X46842Y-43190D01*
X47504Y-43852D01*
X47648Y-43766D01*
X47801Y-43386D01*
X47801Y-43967D01*
X47406Y-43967D01*
X47433Y-43923D01*
X46806Y-43296D01*
X46771Y-43261D01*
X46700Y-43190D01*
X46771Y-43119D01*
X46806Y-43084D01*
X47433Y-42457D01*
X47347Y-42313D01*
X47167Y-42240D01*
X47167Y-34845D01*
X46859Y-34538D01*
X46788Y-34608D01*
X46788Y-34467D01*
X46481Y-34159D01*
X46387Y-34186D01*
X46316Y-34388D01*
X46327Y-34601D01*
X46387Y-34748D01*
X46481Y-34775D01*
X46788Y-34467D01*
X46788Y-34608D01*
X46551Y-34845D01*
X46578Y-34939D01*
X46780Y-35010D01*
X46993Y-34999D01*
X47140Y-34939D01*
X47167Y-34845D01*
X47167Y-42240D01*
X46967Y-42160D01*
X46557Y-42163D01*
X46195Y-42313D01*
X46135Y-42412D01*
X46086Y-42363D01*
X46033Y-42416D01*
X46033Y-41526D01*
X46085Y-41652D01*
X46232Y-41800D01*
X46425Y-41880D01*
X46634Y-41880D01*
X46827Y-41800D01*
X46975Y-41653D01*
X47055Y-41460D01*
X47055Y-41251D01*
X47049Y-41236D01*
X47049Y-39429D01*
X47038Y-39225D01*
X46982Y-39088D01*
X46891Y-39065D01*
X46820Y-39136D01*
X46820Y-38994D01*
X46797Y-38903D01*
X46604Y-38836D01*
X46400Y-38847D01*
X46263Y-38903D01*
X46240Y-38994D01*
X46530Y-39284D01*
X46820Y-38994D01*
X46820Y-39136D01*
X46601Y-39355D01*
X46891Y-39645D01*
X46982Y-39622D01*
X47049Y-39429D01*
X47049Y-41236D01*
X46975Y-41058D01*
X46828Y-40910D01*
X46820Y-40906D01*
X46820Y-39716D01*
X46530Y-39426D01*
X46240Y-39716D01*
X46263Y-39807D01*
X46456Y-39874D01*
X46660Y-39863D01*
X46797Y-39807D01*
X46820Y-39716D01*
X46820Y-40906D01*
X46635Y-40830D01*
X46426Y-40830D01*
X46233Y-40910D01*
X46085Y-41057D01*
X46033Y-41182D01*
X46033Y-39511D01*
X46078Y-39622D01*
X46169Y-39645D01*
X46459Y-39355D01*
X46169Y-39065D01*
X46078Y-39088D01*
X46033Y-39217D01*
X46033Y-29175D01*
X46492Y-28869D01*
X55413Y-28869D01*
X55413Y-28869D01*
G37*
G54D27*
X55413Y-28869D02*
X54747Y-29535D01*
X54655Y-29535D01*
X54491Y-29603D01*
X54365Y-29728D01*
X54361Y-29735D01*
X54249Y-29622D01*
X54085Y-29554D01*
X53908Y-29554D01*
X53744Y-29622D01*
X53618Y-29747D01*
X53556Y-29896D01*
X53556Y-29870D01*
X53556Y-29270D01*
X53518Y-29178D01*
X53448Y-29108D01*
X53357Y-29070D01*
X53258Y-29070D01*
X52658Y-29070D01*
X52566Y-29108D01*
X52496Y-29178D01*
X52458Y-29269D01*
X52458Y-29294D01*
X52318Y-29154D01*
X52116Y-29070D01*
X51898Y-29070D01*
X51696Y-29154D01*
X51542Y-29308D01*
X51507Y-29392D01*
X51472Y-29308D01*
X51318Y-29154D01*
X51116Y-29070D01*
X50898Y-29070D01*
X50696Y-29154D01*
X50542Y-29308D01*
X50458Y-29510D01*
X50458Y-29718D01*
X50324Y-29663D01*
X50229Y-29663D01*
X50252Y-29608D01*
X50252Y-29399D01*
X50172Y-29206D01*
X50025Y-29058D01*
X49832Y-28978D01*
X49623Y-28978D01*
X49430Y-29058D01*
X49282Y-29205D01*
X49202Y-29398D01*
X49202Y-29607D01*
X49282Y-29800D01*
X49429Y-29948D01*
X49622Y-30028D01*
X49789Y-30028D01*
X49789Y-30197D01*
X49857Y-30361D01*
X49923Y-30427D01*
X49923Y-31026D01*
X49801Y-30984D01*
X49597Y-30995D01*
X49460Y-31051D01*
X49437Y-31142D01*
X49692Y-31397D01*
X49727Y-31432D01*
X49798Y-31503D01*
X49727Y-31574D01*
X49692Y-31609D01*
X49656Y-31645D01*
X49656Y-31503D01*
X49366Y-31213D01*
X49275Y-31236D01*
X49208Y-31429D01*
X49219Y-31633D01*
X49275Y-31770D01*
X49366Y-31793D01*
X49656Y-31503D01*
X49656Y-31645D01*
X49437Y-31864D01*
X49460Y-31955D01*
X49653Y-32022D01*
X49857Y-32011D01*
X49923Y-31984D01*
X49923Y-32832D01*
X49818Y-32937D01*
X49750Y-33101D01*
X49750Y-33278D01*
X49801Y-33402D01*
X49762Y-33402D01*
X49542Y-33493D01*
X49373Y-33662D01*
X49282Y-33882D01*
X49282Y-34120D01*
X49373Y-34340D01*
X49542Y-34509D01*
X49762Y-34600D01*
X50000Y-34600D01*
X50220Y-34509D01*
X50389Y-34340D01*
X50480Y-34120D01*
X50480Y-33882D01*
X50389Y-33662D01*
X50339Y-33612D01*
X50448Y-33568D01*
X50543Y-33473D01*
X50543Y-38130D01*
X50543Y-38976D01*
X50480Y-39039D01*
X50480Y-36120D01*
X50480Y-35882D01*
X50389Y-35662D01*
X50220Y-35493D01*
X50000Y-35402D01*
X49762Y-35402D01*
X49542Y-35493D01*
X49373Y-35662D01*
X49282Y-35882D01*
X49282Y-36120D01*
X49373Y-36340D01*
X49542Y-36509D01*
X49762Y-36600D01*
X50000Y-36600D01*
X50220Y-36509D01*
X50389Y-36340D01*
X50480Y-36120D01*
X50480Y-39039D01*
X50027Y-39492D01*
X50049Y-39429D01*
X50038Y-39225D01*
X49982Y-39088D01*
X49891Y-39065D01*
X49820Y-39136D01*
X49820Y-38994D01*
X49797Y-38903D01*
X49604Y-38836D01*
X49400Y-38847D01*
X49263Y-38903D01*
X49240Y-38994D01*
X49530Y-39284D01*
X49820Y-38994D01*
X49820Y-39136D01*
X49636Y-39320D01*
X49601Y-39355D01*
X49530Y-39426D01*
X49495Y-39461D01*
X49459Y-39497D01*
X49459Y-39355D01*
X49169Y-39065D01*
X49078Y-39088D01*
X49011Y-39281D01*
X49022Y-39485D01*
X49078Y-39622D01*
X49169Y-39645D01*
X49459Y-39355D01*
X49459Y-39497D01*
X49240Y-39716D01*
X49263Y-39807D01*
X49456Y-39874D01*
X49660Y-39863D01*
X49780Y-39813D01*
X49766Y-39882D01*
X49767Y-39886D01*
X49767Y-40884D01*
X49635Y-40830D01*
X49426Y-40830D01*
X49233Y-40910D01*
X49085Y-41057D01*
X49005Y-41250D01*
X49005Y-41459D01*
X49085Y-41652D01*
X49232Y-41800D01*
X49425Y-41880D01*
X49634Y-41880D01*
X49767Y-41824D01*
X49767Y-43362D01*
X49766Y-43367D01*
X49791Y-43487D01*
X49858Y-43588D01*
X50237Y-43967D01*
X49107Y-43967D01*
X49107Y-42353D01*
X49107Y-42176D01*
X49039Y-42012D01*
X48914Y-41886D01*
X48750Y-41818D01*
X48656Y-41818D01*
X48372Y-41533D01*
X48372Y-39449D01*
X48372Y-38682D01*
X48372Y-38438D01*
X48659Y-38438D01*
X48751Y-38400D01*
X48821Y-38330D01*
X48859Y-38239D01*
X48859Y-38140D01*
X48859Y-37590D01*
X48821Y-37498D01*
X48751Y-37428D01*
X48747Y-37426D01*
X48747Y-37359D01*
X48776Y-37347D01*
X48902Y-37222D01*
X48970Y-37058D01*
X48970Y-36881D01*
X48902Y-36717D01*
X48777Y-36591D01*
X48613Y-36523D01*
X48436Y-36523D01*
X48372Y-36549D01*
X48372Y-36460D01*
X48659Y-36460D01*
X48751Y-36422D01*
X48821Y-36352D01*
X48859Y-36261D01*
X48859Y-36162D01*
X48859Y-35612D01*
X48821Y-35520D01*
X48751Y-35450D01*
X48747Y-35448D01*
X48747Y-34347D01*
X48776Y-34335D01*
X48902Y-34210D01*
X48970Y-34046D01*
X48970Y-33869D01*
X48902Y-33705D01*
X48777Y-33579D01*
X48613Y-33511D01*
X48436Y-33511D01*
X48372Y-33537D01*
X48372Y-32523D01*
X48418Y-32478D01*
X48486Y-32314D01*
X48486Y-32137D01*
X48418Y-31973D01*
X48293Y-31847D01*
X48129Y-31779D01*
X47952Y-31779D01*
X47788Y-31847D01*
X47662Y-31972D01*
X47594Y-32136D01*
X47594Y-32313D01*
X47662Y-32477D01*
X47748Y-32563D01*
X47748Y-35460D01*
X47735Y-35473D01*
X47735Y-35836D01*
X47735Y-35886D01*
X47735Y-35986D01*
X47735Y-36036D01*
X47735Y-36399D01*
X47748Y-36412D01*
X47748Y-37438D01*
X47735Y-37451D01*
X47735Y-37814D01*
X47735Y-37864D01*
X47735Y-37964D01*
X47735Y-38014D01*
X47735Y-38377D01*
X47748Y-38390D01*
X47748Y-38682D01*
X47748Y-39449D01*
X47748Y-41658D01*
X47747Y-41663D01*
X47772Y-41783D01*
X47839Y-41884D01*
X48215Y-42259D01*
X48215Y-42352D01*
X48283Y-42516D01*
X48408Y-42642D01*
X48572Y-42710D01*
X48749Y-42710D01*
X48913Y-42642D01*
X49039Y-42517D01*
X49107Y-42353D01*
X49107Y-43967D01*
X47801Y-43967D01*
X47801Y-43386D01*
X47798Y-42976D01*
X47648Y-42614D01*
X47635Y-42606D01*
X47635Y-38377D01*
X47635Y-37964D01*
X47635Y-37864D01*
X47635Y-37451D01*
X47635Y-36399D01*
X47635Y-35986D01*
X47635Y-35886D01*
X47635Y-35473D01*
X47573Y-35411D01*
X47461Y-35412D01*
X47408Y-35433D01*
X47408Y-33817D01*
X47408Y-33718D01*
X47408Y-33118D01*
X47370Y-33026D01*
X47300Y-32956D01*
X47252Y-32935D01*
X47252Y-29608D01*
X47252Y-29399D01*
X47172Y-29206D01*
X47025Y-29058D01*
X46832Y-28978D01*
X46623Y-28978D01*
X46430Y-29058D01*
X46282Y-29205D01*
X46202Y-29398D01*
X46202Y-29607D01*
X46282Y-29800D01*
X46429Y-29948D01*
X46622Y-30028D01*
X46831Y-30028D01*
X47024Y-29948D01*
X47172Y-29801D01*
X47252Y-29608D01*
X47252Y-32935D01*
X47246Y-32933D01*
X47246Y-31577D01*
X47235Y-31373D01*
X47179Y-31236D01*
X47088Y-31213D01*
X47017Y-31284D01*
X47017Y-31142D01*
X46994Y-31051D01*
X46801Y-30984D01*
X46597Y-30995D01*
X46460Y-31051D01*
X46437Y-31142D01*
X46727Y-31432D01*
X47017Y-31142D01*
X47017Y-31284D01*
X46798Y-31503D01*
X47088Y-31793D01*
X47179Y-31770D01*
X47246Y-31577D01*
X47246Y-32933D01*
X47209Y-32918D01*
X47110Y-32918D01*
X47017Y-32918D01*
X47017Y-31864D01*
X46727Y-31574D01*
X46656Y-31645D01*
X46656Y-31503D01*
X46366Y-31213D01*
X46275Y-31236D01*
X46208Y-31429D01*
X46219Y-31633D01*
X46275Y-31770D01*
X46366Y-31793D01*
X46656Y-31503D01*
X46656Y-31645D01*
X46437Y-31864D01*
X46460Y-31955D01*
X46653Y-32022D01*
X46857Y-32011D01*
X46994Y-31955D01*
X47017Y-31864D01*
X47017Y-32918D01*
X46510Y-32918D01*
X46418Y-32956D01*
X46348Y-33026D01*
X46310Y-33117D01*
X46310Y-33216D01*
X46310Y-33816D01*
X46348Y-33908D01*
X46418Y-33978D01*
X46509Y-34016D01*
X46571Y-34016D01*
X46551Y-34089D01*
X46859Y-34396D01*
X47167Y-34089D01*
X47146Y-34016D01*
X47208Y-34016D01*
X47300Y-33978D01*
X47370Y-33908D01*
X47408Y-33817D01*
X47408Y-35433D01*
X47402Y-35436D01*
X47402Y-34546D01*
X47391Y-34333D01*
X47331Y-34186D01*
X47237Y-34159D01*
X46930Y-34467D01*
X47237Y-34775D01*
X47331Y-34748D01*
X47402Y-34546D01*
X47402Y-35436D01*
X47369Y-35450D01*
X47299Y-35520D01*
X47261Y-35611D01*
X47261Y-35710D01*
X47260Y-35824D01*
X47322Y-35886D01*
X47635Y-35886D01*
X47635Y-35986D01*
X47322Y-35986D01*
X47260Y-36048D01*
X47261Y-36162D01*
X47261Y-36261D01*
X47299Y-36352D01*
X47369Y-36422D01*
X47461Y-36460D01*
X47573Y-36461D01*
X47635Y-36399D01*
X47635Y-37451D01*
X47573Y-37389D01*
X47461Y-37390D01*
X47369Y-37428D01*
X47299Y-37498D01*
X47261Y-37589D01*
X47261Y-37688D01*
X47260Y-37802D01*
X47322Y-37864D01*
X47635Y-37864D01*
X47635Y-37964D01*
X47322Y-37964D01*
X47260Y-38026D01*
X47261Y-38140D01*
X47261Y-38239D01*
X47299Y-38330D01*
X47369Y-38400D01*
X47461Y-38438D01*
X47573Y-38439D01*
X47635Y-38377D01*
X47635Y-42606D01*
X47504Y-42528D01*
X47433Y-42599D01*
X46842Y-43190D01*
X47504Y-43852D01*
X47648Y-43766D01*
X47801Y-43386D01*
X47801Y-43967D01*
X47406Y-43967D01*
X47433Y-43923D01*
X46806Y-43296D01*
X46771Y-43261D01*
X46700Y-43190D01*
X46771Y-43119D01*
X46806Y-43084D01*
X47433Y-42457D01*
X47347Y-42313D01*
X47167Y-42240D01*
X47167Y-34845D01*
X46859Y-34538D01*
X46788Y-34608D01*
X46788Y-34467D01*
X46481Y-34159D01*
X46387Y-34186D01*
X46316Y-34388D01*
X46327Y-34601D01*
X46387Y-34748D01*
X46481Y-34775D01*
X46788Y-34467D01*
X46788Y-34608D01*
X46551Y-34845D01*
X46578Y-34939D01*
X46780Y-35010D01*
X46993Y-34999D01*
X47140Y-34939D01*
X47167Y-34845D01*
X47167Y-42240D01*
X46967Y-42160D01*
X46557Y-42163D01*
X46195Y-42313D01*
X46135Y-42412D01*
X46086Y-42363D01*
X46033Y-42416D01*
X46033Y-41526D01*
X46085Y-41652D01*
X46232Y-41800D01*
X46425Y-41880D01*
X46634Y-41880D01*
X46827Y-41800D01*
X46975Y-41653D01*
X47055Y-41460D01*
X47055Y-41251D01*
X47049Y-41236D01*
X47049Y-39429D01*
X47038Y-39225D01*
X46982Y-39088D01*
X46891Y-39065D01*
X46820Y-39136D01*
X46820Y-38994D01*
X46797Y-38903D01*
X46604Y-38836D01*
X46400Y-38847D01*
X46263Y-38903D01*
X46240Y-38994D01*
X46530Y-39284D01*
X46820Y-38994D01*
X46820Y-39136D01*
X46601Y-39355D01*
X46891Y-39645D01*
X46982Y-39622D01*
X47049Y-39429D01*
X47049Y-41236D01*
X46975Y-41058D01*
X46828Y-40910D01*
X46820Y-40906D01*
X46820Y-39716D01*
X46530Y-39426D01*
X46240Y-39716D01*
X46263Y-39807D01*
X46456Y-39874D01*
X46660Y-39863D01*
X46797Y-39807D01*
X46820Y-39716D01*
X46820Y-40906D01*
X46635Y-40830D01*
X46426Y-40830D01*
X46233Y-40910D01*
X46085Y-41057D01*
X46033Y-41182D01*
X46033Y-39511D01*
X46078Y-39622D01*
X46169Y-39645D01*
X46459Y-39355D01*
X46169Y-39065D01*
X46078Y-39088D01*
X46033Y-39217D01*
X46033Y-29175D01*
X46492Y-28869D01*
X55413Y-28869D01*
G54D10*
G36*
X57285Y-42070D02*
X57180Y-41965D01*
X57088Y-41927D01*
X57150Y-41902D01*
X57177Y-41808D01*
X56869Y-41501D01*
X56561Y-41808D01*
X56588Y-41902D01*
X56653Y-41925D01*
X56558Y-41965D01*
X56404Y-42119D01*
X56369Y-42203D01*
X56334Y-42119D01*
X56180Y-41965D01*
X56095Y-41930D01*
X56180Y-41895D01*
X56334Y-41741D01*
X56371Y-41649D01*
X56397Y-41711D01*
X56491Y-41738D01*
X56798Y-41430D01*
X56491Y-41122D01*
X56397Y-41149D01*
X56373Y-41214D01*
X56334Y-41119D01*
X56180Y-40965D01*
X56118Y-40939D01*
X56226Y-40832D01*
X56291Y-40676D01*
X56291Y-40507D01*
X56227Y-40351D01*
X56181Y-40305D01*
X56181Y-39977D01*
X56243Y-40003D01*
X56412Y-40003D01*
X56568Y-39939D01*
X56688Y-39819D01*
X56717Y-39748D01*
X56834Y-39866D01*
X56998Y-39934D01*
X57175Y-39934D01*
X57285Y-39888D01*
X57285Y-41132D01*
X57247Y-41122D01*
X57177Y-41192D01*
X57177Y-41052D01*
X57150Y-40958D01*
X56948Y-40887D01*
X56735Y-40898D01*
X56588Y-40958D01*
X56561Y-41052D01*
X56869Y-41359D01*
X57177Y-41052D01*
X57177Y-41192D01*
X56940Y-41430D01*
X57247Y-41738D01*
X57285Y-41727D01*
X57285Y-42070D01*
X57285Y-42070D01*
G37*
G54D27*
X57285Y-42070D02*
X57180Y-41965D01*
X57088Y-41927D01*
X57150Y-41902D01*
X57177Y-41808D01*
X56869Y-41501D01*
X56561Y-41808D01*
X56588Y-41902D01*
X56653Y-41925D01*
X56558Y-41965D01*
X56404Y-42119D01*
X56369Y-42203D01*
X56334Y-42119D01*
X56180Y-41965D01*
X56095Y-41930D01*
X56180Y-41895D01*
X56334Y-41741D01*
X56371Y-41649D01*
X56397Y-41711D01*
X56491Y-41738D01*
X56798Y-41430D01*
X56491Y-41122D01*
X56397Y-41149D01*
X56373Y-41214D01*
X56334Y-41119D01*
X56180Y-40965D01*
X56118Y-40939D01*
X56226Y-40832D01*
X56291Y-40676D01*
X56291Y-40507D01*
X56227Y-40351D01*
X56181Y-40305D01*
X56181Y-39977D01*
X56243Y-40003D01*
X56412Y-40003D01*
X56568Y-39939D01*
X56688Y-39819D01*
X56717Y-39748D01*
X56834Y-39866D01*
X56998Y-39934D01*
X57175Y-39934D01*
X57285Y-39888D01*
X57285Y-41132D01*
X57247Y-41122D01*
X57177Y-41192D01*
X57177Y-41052D01*
X57150Y-40958D01*
X56948Y-40887D01*
X56735Y-40898D01*
X56588Y-40958D01*
X56561Y-41052D01*
X56869Y-41359D01*
X57177Y-41052D01*
X57177Y-41192D01*
X56940Y-41430D01*
X57247Y-41738D01*
X57285Y-41727D01*
X57285Y-42070D01*
G54D10*
G36*
X61265Y-36401D02*
X61121Y-36401D01*
X60839Y-36118D01*
X60738Y-36051D01*
X60618Y-36026D01*
X60613Y-36027D01*
X60552Y-36027D01*
X60545Y-36023D01*
X60552Y-36021D01*
X61168Y-36021D01*
X61168Y-36250D01*
X61206Y-36342D01*
X61265Y-36401D01*
X61265Y-36401D01*
G37*
G54D27*
X61265Y-36401D02*
X61121Y-36401D01*
X60839Y-36118D01*
X60738Y-36051D01*
X60618Y-36026D01*
X60613Y-36027D01*
X60552Y-36027D01*
X60545Y-36023D01*
X60552Y-36021D01*
X61168Y-36021D01*
X61168Y-36250D01*
X61206Y-36342D01*
X61265Y-36401D01*
G54D10*
G36*
X65829Y-43967D02*
X57864Y-43967D01*
X57967Y-43864D01*
X58032Y-43708D01*
X58032Y-43539D01*
X57968Y-43383D01*
X57909Y-43324D01*
X57909Y-38823D01*
X58041Y-38823D01*
X58069Y-38811D01*
X58098Y-38823D01*
X58125Y-38824D01*
X58187Y-38762D01*
X58187Y-38731D01*
X58203Y-38715D01*
X58227Y-38657D01*
X58230Y-38664D01*
X58230Y-39101D01*
X58182Y-39149D01*
X58117Y-39305D01*
X58117Y-39474D01*
X58181Y-39630D01*
X58301Y-39750D01*
X58457Y-39815D01*
X58604Y-39815D01*
X58604Y-41062D01*
X58326Y-41062D01*
X58234Y-41100D01*
X58164Y-41170D01*
X58126Y-41261D01*
X58126Y-41360D01*
X58126Y-41710D01*
X58164Y-41802D01*
X58223Y-41861D01*
X58164Y-41920D01*
X58126Y-42011D01*
X58126Y-42110D01*
X58126Y-42460D01*
X58164Y-42552D01*
X58234Y-42622D01*
X58325Y-42660D01*
X58338Y-42660D01*
X58338Y-43166D01*
X58292Y-43212D01*
X58224Y-43376D01*
X58224Y-43553D01*
X58292Y-43717D01*
X58417Y-43843D01*
X58581Y-43911D01*
X58758Y-43911D01*
X58922Y-43843D01*
X59048Y-43718D01*
X59116Y-43554D01*
X59116Y-43377D01*
X59048Y-43213D01*
X58962Y-43126D01*
X58962Y-42660D01*
X58974Y-42660D01*
X59010Y-42645D01*
X59098Y-42733D01*
X59254Y-42798D01*
X59395Y-42798D01*
X59416Y-42895D01*
X59483Y-42996D01*
X60033Y-43545D01*
X60035Y-43548D01*
X60136Y-43614D01*
X60137Y-43615D01*
X60256Y-43639D01*
X61256Y-43639D01*
X61322Y-43705D01*
X61486Y-43773D01*
X61663Y-43773D01*
X61827Y-43705D01*
X61953Y-43580D01*
X62021Y-43416D01*
X62021Y-43239D01*
X61953Y-43075D01*
X61828Y-42949D01*
X61664Y-42881D01*
X61568Y-42881D01*
X61708Y-42741D01*
X61743Y-42656D01*
X61778Y-42741D01*
X61932Y-42895D01*
X62134Y-42979D01*
X62352Y-42979D01*
X62554Y-42895D01*
X62708Y-42741D01*
X62743Y-42656D01*
X62778Y-42741D01*
X62932Y-42895D01*
X63134Y-42979D01*
X63352Y-42979D01*
X63554Y-42895D01*
X63708Y-42741D01*
X63743Y-42656D01*
X63778Y-42741D01*
X63932Y-42895D01*
X64134Y-42979D01*
X64352Y-42979D01*
X64554Y-42895D01*
X64708Y-42741D01*
X64792Y-42539D01*
X64792Y-42321D01*
X64786Y-42306D01*
X64786Y-41509D01*
X64775Y-41296D01*
X64715Y-41149D01*
X64621Y-41122D01*
X64551Y-41192D01*
X64551Y-41052D01*
X64524Y-40958D01*
X64322Y-40887D01*
X64109Y-40898D01*
X63962Y-40958D01*
X63935Y-41052D01*
X64243Y-41359D01*
X64551Y-41052D01*
X64551Y-41192D01*
X64314Y-41430D01*
X64621Y-41738D01*
X64715Y-41711D01*
X64786Y-41509D01*
X64786Y-42306D01*
X64708Y-42119D01*
X64554Y-41965D01*
X64462Y-41927D01*
X64524Y-41902D01*
X64551Y-41808D01*
X64243Y-41501D01*
X63935Y-41808D01*
X63962Y-41902D01*
X64027Y-41925D01*
X63932Y-41965D01*
X63778Y-42119D01*
X63743Y-42203D01*
X63708Y-42119D01*
X63554Y-41965D01*
X63469Y-41930D01*
X63554Y-41895D01*
X63708Y-41741D01*
X63745Y-41649D01*
X63771Y-41711D01*
X63865Y-41738D01*
X64172Y-41430D01*
X63865Y-41122D01*
X63771Y-41149D01*
X63747Y-41214D01*
X63708Y-41119D01*
X63554Y-40965D01*
X63352Y-40881D01*
X63134Y-40881D01*
X62932Y-40965D01*
X62778Y-41119D01*
X62743Y-41203D01*
X62708Y-41119D01*
X62554Y-40965D01*
X62352Y-40881D01*
X62134Y-40881D01*
X61932Y-40965D01*
X61778Y-41119D01*
X61743Y-41203D01*
X61708Y-41119D01*
X61554Y-40965D01*
X61352Y-40881D01*
X61134Y-40881D01*
X60932Y-40965D01*
X60778Y-41119D01*
X60740Y-41210D01*
X60715Y-41149D01*
X60621Y-41122D01*
X60314Y-41430D01*
X60621Y-41738D01*
X60715Y-41711D01*
X60738Y-41645D01*
X60778Y-41741D01*
X60932Y-41895D01*
X61016Y-41930D01*
X60932Y-41965D01*
X60792Y-42105D01*
X60792Y-42081D01*
X60754Y-41989D01*
X60684Y-41919D01*
X60593Y-41881D01*
X60530Y-41881D01*
X60551Y-41808D01*
X60278Y-41536D01*
X60243Y-41501D01*
X60172Y-41430D01*
X60137Y-41395D01*
X59865Y-41122D01*
X59799Y-41140D01*
X59799Y-40764D01*
X59904Y-40870D01*
X60039Y-40926D01*
X59962Y-40958D01*
X59935Y-41052D01*
X60243Y-41359D01*
X60551Y-41052D01*
X60524Y-40958D01*
X60346Y-40895D01*
X60409Y-40870D01*
X60535Y-40745D01*
X60603Y-40581D01*
X60603Y-40404D01*
X60535Y-40240D01*
X60474Y-40178D01*
X60474Y-40142D01*
X60471Y-40130D01*
X60474Y-40118D01*
X60474Y-37928D01*
X60511Y-37928D01*
X60603Y-37890D01*
X60622Y-37871D01*
X60622Y-39291D01*
X60622Y-39709D01*
X60621Y-39714D01*
X60646Y-39834D01*
X60713Y-39935D01*
X61371Y-40592D01*
X61373Y-40595D01*
X61433Y-40635D01*
X61474Y-40662D01*
X61475Y-40662D01*
X61594Y-40686D01*
X63382Y-40686D01*
X63448Y-40752D01*
X63612Y-40820D01*
X63789Y-40820D01*
X63953Y-40752D01*
X64079Y-40627D01*
X64147Y-40463D01*
X64147Y-40286D01*
X64079Y-40122D01*
X63954Y-39996D01*
X63790Y-39928D01*
X63613Y-39928D01*
X63449Y-39996D01*
X63382Y-40062D01*
X61723Y-40062D01*
X61665Y-40004D01*
X61756Y-39967D01*
X61876Y-39847D01*
X61941Y-39691D01*
X61941Y-39522D01*
X61877Y-39366D01*
X61827Y-39316D01*
X61827Y-38780D01*
X61827Y-38415D01*
X61859Y-38429D01*
X62036Y-38429D01*
X62200Y-38361D01*
X62326Y-38236D01*
X62394Y-38072D01*
X62394Y-37895D01*
X62326Y-37731D01*
X62260Y-37664D01*
X62260Y-37343D01*
X62260Y-37216D01*
X62236Y-37097D01*
X62236Y-37096D01*
X62209Y-37055D01*
X62169Y-36995D01*
X62166Y-36993D01*
X61666Y-36492D01*
X61602Y-36450D01*
X61816Y-36450D01*
X61908Y-36412D01*
X61967Y-36353D01*
X62026Y-36412D01*
X62118Y-36450D01*
X62230Y-36451D01*
X62292Y-36389D01*
X62292Y-36026D01*
X62292Y-35976D01*
X62292Y-35876D01*
X62392Y-35876D01*
X62392Y-35976D01*
X62392Y-36026D01*
X62392Y-36389D01*
X62454Y-36451D01*
X62482Y-36450D01*
X62482Y-38031D01*
X62482Y-38714D01*
X62481Y-38719D01*
X62506Y-38839D01*
X62573Y-38940D01*
X62802Y-39169D01*
X62802Y-39261D01*
X62870Y-39425D01*
X62995Y-39551D01*
X63159Y-39619D01*
X63336Y-39619D01*
X63500Y-39551D01*
X63626Y-39426D01*
X63694Y-39262D01*
X63694Y-39085D01*
X63626Y-38921D01*
X63558Y-38853D01*
X63608Y-38804D01*
X63673Y-38648D01*
X63673Y-38579D01*
X64253Y-37998D01*
X64255Y-37997D01*
X64256Y-37997D01*
X64322Y-37896D01*
X64323Y-37895D01*
X64341Y-37801D01*
X64347Y-37777D01*
X64346Y-37776D01*
X64347Y-37776D01*
X64347Y-36873D01*
X64407Y-36813D01*
X64397Y-36829D01*
X64372Y-36949D01*
X64373Y-36953D01*
X64373Y-37672D01*
X64372Y-37677D01*
X64397Y-37797D01*
X64464Y-37898D01*
X65023Y-38456D01*
X65023Y-43026D01*
X65022Y-43031D01*
X65047Y-43151D01*
X65114Y-43252D01*
X65829Y-43967D01*
X65829Y-43967D01*
G37*
G54D27*
X65829Y-43967D02*
X57864Y-43967D01*
X57967Y-43864D01*
X58032Y-43708D01*
X58032Y-43539D01*
X57968Y-43383D01*
X57909Y-43324D01*
X57909Y-38823D01*
X58041Y-38823D01*
X58069Y-38811D01*
X58098Y-38823D01*
X58125Y-38824D01*
X58187Y-38762D01*
X58187Y-38731D01*
X58203Y-38715D01*
X58227Y-38657D01*
X58230Y-38664D01*
X58230Y-39101D01*
X58182Y-39149D01*
X58117Y-39305D01*
X58117Y-39474D01*
X58181Y-39630D01*
X58301Y-39750D01*
X58457Y-39815D01*
X58604Y-39815D01*
X58604Y-41062D01*
X58326Y-41062D01*
X58234Y-41100D01*
X58164Y-41170D01*
X58126Y-41261D01*
X58126Y-41360D01*
X58126Y-41710D01*
X58164Y-41802D01*
X58223Y-41861D01*
X58164Y-41920D01*
X58126Y-42011D01*
X58126Y-42110D01*
X58126Y-42460D01*
X58164Y-42552D01*
X58234Y-42622D01*
X58325Y-42660D01*
X58338Y-42660D01*
X58338Y-43166D01*
X58292Y-43212D01*
X58224Y-43376D01*
X58224Y-43553D01*
X58292Y-43717D01*
X58417Y-43843D01*
X58581Y-43911D01*
X58758Y-43911D01*
X58922Y-43843D01*
X59048Y-43718D01*
X59116Y-43554D01*
X59116Y-43377D01*
X59048Y-43213D01*
X58962Y-43126D01*
X58962Y-42660D01*
X58974Y-42660D01*
X59010Y-42645D01*
X59098Y-42733D01*
X59254Y-42798D01*
X59395Y-42798D01*
X59416Y-42895D01*
X59483Y-42996D01*
X60033Y-43545D01*
X60035Y-43548D01*
X60136Y-43614D01*
X60137Y-43615D01*
X60256Y-43639D01*
X61256Y-43639D01*
X61322Y-43705D01*
X61486Y-43773D01*
X61663Y-43773D01*
X61827Y-43705D01*
X61953Y-43580D01*
X62021Y-43416D01*
X62021Y-43239D01*
X61953Y-43075D01*
X61828Y-42949D01*
X61664Y-42881D01*
X61568Y-42881D01*
X61708Y-42741D01*
X61743Y-42656D01*
X61778Y-42741D01*
X61932Y-42895D01*
X62134Y-42979D01*
X62352Y-42979D01*
X62554Y-42895D01*
X62708Y-42741D01*
X62743Y-42656D01*
X62778Y-42741D01*
X62932Y-42895D01*
X63134Y-42979D01*
X63352Y-42979D01*
X63554Y-42895D01*
X63708Y-42741D01*
X63743Y-42656D01*
X63778Y-42741D01*
X63932Y-42895D01*
X64134Y-42979D01*
X64352Y-42979D01*
X64554Y-42895D01*
X64708Y-42741D01*
X64792Y-42539D01*
X64792Y-42321D01*
X64786Y-42306D01*
X64786Y-41509D01*
X64775Y-41296D01*
X64715Y-41149D01*
X64621Y-41122D01*
X64551Y-41192D01*
X64551Y-41052D01*
X64524Y-40958D01*
X64322Y-40887D01*
X64109Y-40898D01*
X63962Y-40958D01*
X63935Y-41052D01*
X64243Y-41359D01*
X64551Y-41052D01*
X64551Y-41192D01*
X64314Y-41430D01*
X64621Y-41738D01*
X64715Y-41711D01*
X64786Y-41509D01*
X64786Y-42306D01*
X64708Y-42119D01*
X64554Y-41965D01*
X64462Y-41927D01*
X64524Y-41902D01*
X64551Y-41808D01*
X64243Y-41501D01*
X63935Y-41808D01*
X63962Y-41902D01*
X64027Y-41925D01*
X63932Y-41965D01*
X63778Y-42119D01*
X63743Y-42203D01*
X63708Y-42119D01*
X63554Y-41965D01*
X63469Y-41930D01*
X63554Y-41895D01*
X63708Y-41741D01*
X63745Y-41649D01*
X63771Y-41711D01*
X63865Y-41738D01*
X64172Y-41430D01*
X63865Y-41122D01*
X63771Y-41149D01*
X63747Y-41214D01*
X63708Y-41119D01*
X63554Y-40965D01*
X63352Y-40881D01*
X63134Y-40881D01*
X62932Y-40965D01*
X62778Y-41119D01*
X62743Y-41203D01*
X62708Y-41119D01*
X62554Y-40965D01*
X62352Y-40881D01*
X62134Y-40881D01*
X61932Y-40965D01*
X61778Y-41119D01*
X61743Y-41203D01*
X61708Y-41119D01*
X61554Y-40965D01*
X61352Y-40881D01*
X61134Y-40881D01*
X60932Y-40965D01*
X60778Y-41119D01*
X60740Y-41210D01*
X60715Y-41149D01*
X60621Y-41122D01*
X60314Y-41430D01*
X60621Y-41738D01*
X60715Y-41711D01*
X60738Y-41645D01*
X60778Y-41741D01*
X60932Y-41895D01*
X61016Y-41930D01*
X60932Y-41965D01*
X60792Y-42105D01*
X60792Y-42081D01*
X60754Y-41989D01*
X60684Y-41919D01*
X60593Y-41881D01*
X60530Y-41881D01*
X60551Y-41808D01*
X60278Y-41536D01*
X60243Y-41501D01*
X60172Y-41430D01*
X60137Y-41395D01*
X59865Y-41122D01*
X59799Y-41140D01*
X59799Y-40764D01*
X59904Y-40870D01*
X60039Y-40926D01*
X59962Y-40958D01*
X59935Y-41052D01*
X60243Y-41359D01*
X60551Y-41052D01*
X60524Y-40958D01*
X60346Y-40895D01*
X60409Y-40870D01*
X60535Y-40745D01*
X60603Y-40581D01*
X60603Y-40404D01*
X60535Y-40240D01*
X60474Y-40178D01*
X60474Y-40142D01*
X60471Y-40130D01*
X60474Y-40118D01*
X60474Y-37928D01*
X60511Y-37928D01*
X60603Y-37890D01*
X60622Y-37871D01*
X60622Y-39291D01*
X60622Y-39709D01*
X60621Y-39714D01*
X60646Y-39834D01*
X60713Y-39935D01*
X61371Y-40592D01*
X61373Y-40595D01*
X61433Y-40635D01*
X61474Y-40662D01*
X61475Y-40662D01*
X61594Y-40686D01*
X63382Y-40686D01*
X63448Y-40752D01*
X63612Y-40820D01*
X63789Y-40820D01*
X63953Y-40752D01*
X64079Y-40627D01*
X64147Y-40463D01*
X64147Y-40286D01*
X64079Y-40122D01*
X63954Y-39996D01*
X63790Y-39928D01*
X63613Y-39928D01*
X63449Y-39996D01*
X63382Y-40062D01*
X61723Y-40062D01*
X61665Y-40004D01*
X61756Y-39967D01*
X61876Y-39847D01*
X61941Y-39691D01*
X61941Y-39522D01*
X61877Y-39366D01*
X61827Y-39316D01*
X61827Y-38780D01*
X61827Y-38415D01*
X61859Y-38429D01*
X62036Y-38429D01*
X62200Y-38361D01*
X62326Y-38236D01*
X62394Y-38072D01*
X62394Y-37895D01*
X62326Y-37731D01*
X62260Y-37664D01*
X62260Y-37343D01*
X62260Y-37216D01*
X62236Y-37097D01*
X62236Y-37096D01*
X62209Y-37055D01*
X62169Y-36995D01*
X62166Y-36993D01*
X61666Y-36492D01*
X61602Y-36450D01*
X61816Y-36450D01*
X61908Y-36412D01*
X61967Y-36353D01*
X62026Y-36412D01*
X62118Y-36450D01*
X62230Y-36451D01*
X62292Y-36389D01*
X62292Y-36026D01*
X62292Y-35976D01*
X62292Y-35876D01*
X62392Y-35876D01*
X62392Y-35976D01*
X62392Y-36026D01*
X62392Y-36389D01*
X62454Y-36451D01*
X62482Y-36450D01*
X62482Y-38031D01*
X62482Y-38714D01*
X62481Y-38719D01*
X62506Y-38839D01*
X62573Y-38940D01*
X62802Y-39169D01*
X62802Y-39261D01*
X62870Y-39425D01*
X62995Y-39551D01*
X63159Y-39619D01*
X63336Y-39619D01*
X63500Y-39551D01*
X63626Y-39426D01*
X63694Y-39262D01*
X63694Y-39085D01*
X63626Y-38921D01*
X63558Y-38853D01*
X63608Y-38804D01*
X63673Y-38648D01*
X63673Y-38579D01*
X64253Y-37998D01*
X64255Y-37997D01*
X64256Y-37997D01*
X64322Y-37896D01*
X64323Y-37895D01*
X64341Y-37801D01*
X64347Y-37777D01*
X64346Y-37776D01*
X64347Y-37776D01*
X64347Y-36873D01*
X64407Y-36813D01*
X64397Y-36829D01*
X64372Y-36949D01*
X64373Y-36953D01*
X64373Y-37672D01*
X64372Y-37677D01*
X64397Y-37797D01*
X64464Y-37898D01*
X65023Y-38456D01*
X65023Y-43026D01*
X65022Y-43031D01*
X65047Y-43151D01*
X65114Y-43252D01*
X65829Y-43967D01*
G54D10*
G36*
X71771Y-36925D02*
X70666Y-36925D01*
X70666Y-36813D01*
X70628Y-36721D01*
X70558Y-36651D01*
X70467Y-36613D01*
X70368Y-36613D01*
X70118Y-36613D01*
X70042Y-36644D01*
X69966Y-36613D01*
X69904Y-36612D01*
X69842Y-36674D01*
X69842Y-37137D01*
X69842Y-37187D01*
X69842Y-37287D01*
X69842Y-37337D01*
X69842Y-37800D01*
X69904Y-37862D01*
X69966Y-37861D01*
X70041Y-37829D01*
X70117Y-37861D01*
X70216Y-37861D01*
X70466Y-37861D01*
X70558Y-37823D01*
X70628Y-37753D01*
X70666Y-37662D01*
X70666Y-37563D01*
X70666Y-37549D01*
X71282Y-37549D01*
X70968Y-37863D01*
X70662Y-37863D01*
X70570Y-37901D01*
X70511Y-37960D01*
X70452Y-37901D01*
X70360Y-37863D01*
X70248Y-37862D01*
X70186Y-37924D01*
X70186Y-38287D01*
X70186Y-38337D01*
X70186Y-38437D01*
X70186Y-38487D01*
X70186Y-38850D01*
X70248Y-38912D01*
X70360Y-38911D01*
X70452Y-38873D01*
X70511Y-38814D01*
X70570Y-38873D01*
X70661Y-38911D01*
X70760Y-38911D01*
X71110Y-38911D01*
X71202Y-38873D01*
X71247Y-38828D01*
X71247Y-38986D01*
X71315Y-39150D01*
X71381Y-39216D01*
X71381Y-41099D01*
X71247Y-40965D01*
X71045Y-40881D01*
X70827Y-40881D01*
X70625Y-40965D01*
X70471Y-41119D01*
X70436Y-41203D01*
X70401Y-41119D01*
X70247Y-40965D01*
X70086Y-40898D01*
X70086Y-38850D01*
X70086Y-38437D01*
X70086Y-38337D01*
X70086Y-37924D01*
X70024Y-37862D01*
X69912Y-37863D01*
X69820Y-37901D01*
X69750Y-37971D01*
X69712Y-38062D01*
X69712Y-38161D01*
X69711Y-38275D01*
X69773Y-38337D01*
X70086Y-38337D01*
X70086Y-38437D01*
X69773Y-38437D01*
X69711Y-38499D01*
X69712Y-38613D01*
X69712Y-38712D01*
X69750Y-38803D01*
X69820Y-38873D01*
X69912Y-38911D01*
X70024Y-38912D01*
X70086Y-38850D01*
X70086Y-40898D01*
X70045Y-40881D01*
X69827Y-40881D01*
X69625Y-40965D01*
X69471Y-41119D01*
X69436Y-41203D01*
X69401Y-41119D01*
X69247Y-40965D01*
X69045Y-40881D01*
X68827Y-40881D01*
X68625Y-40965D01*
X68471Y-41119D01*
X68436Y-41203D01*
X68401Y-41119D01*
X68247Y-40965D01*
X68045Y-40881D01*
X67827Y-40881D01*
X67625Y-40965D01*
X67471Y-41119D01*
X67436Y-41203D01*
X67401Y-41119D01*
X67247Y-40965D01*
X67045Y-40881D01*
X66827Y-40881D01*
X66625Y-40965D01*
X66471Y-41119D01*
X66387Y-41321D01*
X66387Y-41539D01*
X66471Y-41741D01*
X66611Y-41881D01*
X66587Y-41881D01*
X66495Y-41919D01*
X66425Y-41989D01*
X66387Y-42080D01*
X66387Y-42179D01*
X66387Y-42779D01*
X66425Y-42871D01*
X66495Y-42941D01*
X66586Y-42979D01*
X66685Y-42979D01*
X67285Y-42979D01*
X67377Y-42941D01*
X67447Y-42871D01*
X67485Y-42780D01*
X67485Y-42755D01*
X67625Y-42895D01*
X67827Y-42979D01*
X68045Y-42979D01*
X68247Y-42895D01*
X68401Y-42741D01*
X68436Y-42656D01*
X68471Y-42741D01*
X68625Y-42895D01*
X68827Y-42979D01*
X69045Y-42979D01*
X69247Y-42895D01*
X69401Y-42741D01*
X69436Y-42656D01*
X69471Y-42741D01*
X69625Y-42895D01*
X69827Y-42979D01*
X70045Y-42979D01*
X70247Y-42895D01*
X70401Y-42741D01*
X70438Y-42649D01*
X70464Y-42711D01*
X70558Y-42738D01*
X70865Y-42430D01*
X70558Y-42122D01*
X70464Y-42149D01*
X70440Y-42214D01*
X70401Y-42119D01*
X70247Y-41965D01*
X70162Y-41930D01*
X70247Y-41895D01*
X70401Y-41741D01*
X70436Y-41656D01*
X70471Y-41741D01*
X70625Y-41895D01*
X70716Y-41932D01*
X70655Y-41958D01*
X70628Y-42052D01*
X70936Y-42359D01*
X71244Y-42052D01*
X71217Y-41958D01*
X71151Y-41934D01*
X71247Y-41895D01*
X71381Y-41761D01*
X71381Y-42141D01*
X71314Y-42122D01*
X71007Y-42430D01*
X71314Y-42738D01*
X71381Y-42718D01*
X71381Y-43394D01*
X71244Y-43531D01*
X71244Y-42808D01*
X70936Y-42501D01*
X70628Y-42808D01*
X70655Y-42902D01*
X70857Y-42973D01*
X71070Y-42962D01*
X71217Y-42902D01*
X71244Y-42808D01*
X71244Y-43531D01*
X71189Y-43586D01*
X66332Y-43586D01*
X65647Y-42901D01*
X65647Y-38327D01*
X65623Y-38208D01*
X65623Y-38207D01*
X65596Y-38166D01*
X65556Y-38106D01*
X65553Y-38104D01*
X64997Y-37547D01*
X64997Y-37491D01*
X65146Y-37553D01*
X65323Y-37553D01*
X65487Y-37485D01*
X65613Y-37360D01*
X65634Y-37306D01*
X66330Y-36611D01*
X67980Y-36611D01*
X67980Y-36618D01*
X67967Y-36613D01*
X67868Y-36613D01*
X67618Y-36613D01*
X67542Y-36644D01*
X67467Y-36613D01*
X67368Y-36613D01*
X67118Y-36613D01*
X67042Y-36644D01*
X66967Y-36613D01*
X66868Y-36613D01*
X66618Y-36613D01*
X66526Y-36651D01*
X66456Y-36721D01*
X66418Y-36812D01*
X66418Y-36911D01*
X66418Y-37661D01*
X66456Y-37753D01*
X66526Y-37823D01*
X66617Y-37861D01*
X66716Y-37861D01*
X66966Y-37861D01*
X67041Y-37829D01*
X67117Y-37861D01*
X67216Y-37861D01*
X67433Y-37861D01*
X67416Y-37878D01*
X67348Y-38042D01*
X67348Y-38219D01*
X67416Y-38383D01*
X67541Y-38509D01*
X67705Y-38577D01*
X67882Y-38577D01*
X68046Y-38509D01*
X68172Y-38384D01*
X68240Y-38220D01*
X68240Y-38043D01*
X68172Y-37879D01*
X68154Y-37861D01*
X68216Y-37861D01*
X68466Y-37861D01*
X68480Y-37855D01*
X68480Y-39331D01*
X68480Y-39503D01*
X68138Y-39845D01*
X66932Y-39845D01*
X66867Y-39779D01*
X66703Y-39711D01*
X66526Y-39711D01*
X66362Y-39779D01*
X66236Y-39904D01*
X66168Y-40068D01*
X66168Y-40245D01*
X66236Y-40409D01*
X66361Y-40535D01*
X66525Y-40603D01*
X66702Y-40603D01*
X66866Y-40535D01*
X66932Y-40469D01*
X68263Y-40469D01*
X68268Y-40470D01*
X68268Y-40469D01*
X68387Y-40445D01*
X68388Y-40445D01*
X68489Y-40378D01*
X68648Y-40219D01*
X68648Y-40324D01*
X68716Y-40488D01*
X68841Y-40614D01*
X69005Y-40682D01*
X69182Y-40682D01*
X69346Y-40614D01*
X69472Y-40489D01*
X69540Y-40325D01*
X69540Y-40218D01*
X69540Y-40217D01*
X69580Y-40158D01*
X69580Y-40157D01*
X69604Y-40038D01*
X69605Y-40038D01*
X69604Y-40033D01*
X69604Y-39331D01*
X69604Y-37855D01*
X69618Y-37861D01*
X69680Y-37862D01*
X69742Y-37800D01*
X69742Y-37337D01*
X69742Y-37287D01*
X69742Y-37187D01*
X69742Y-37137D01*
X69742Y-36674D01*
X69680Y-36612D01*
X69618Y-36613D01*
X69542Y-36644D01*
X69467Y-36613D01*
X69368Y-36613D01*
X69118Y-36613D01*
X69042Y-36644D01*
X68967Y-36613D01*
X68868Y-36613D01*
X68618Y-36613D01*
X68604Y-36618D01*
X68604Y-36441D01*
X68603Y-36440D01*
X68604Y-36440D01*
X68598Y-36416D01*
X68580Y-36322D01*
X68579Y-36321D01*
X68513Y-36220D01*
X68510Y-36218D01*
X68371Y-36078D01*
X68270Y-36011D01*
X68150Y-35986D01*
X68145Y-35987D01*
X66232Y-35987D01*
X66237Y-35965D01*
X66237Y-35117D01*
X66213Y-34998D01*
X66213Y-34997D01*
X66186Y-34956D01*
X66146Y-34896D01*
X66143Y-34894D01*
X65755Y-34505D01*
X65755Y-31763D01*
X65755Y-31350D01*
X65755Y-31250D01*
X65755Y-30837D01*
X65693Y-30775D01*
X65581Y-30776D01*
X65489Y-30814D01*
X65419Y-30884D01*
X65381Y-30975D01*
X65381Y-31074D01*
X65380Y-31188D01*
X65442Y-31250D01*
X65755Y-31250D01*
X65755Y-31350D01*
X65442Y-31350D01*
X65380Y-31412D01*
X65381Y-31526D01*
X65381Y-31625D01*
X65419Y-31716D01*
X65489Y-31786D01*
X65581Y-31824D01*
X65693Y-31825D01*
X65755Y-31763D01*
X65755Y-34505D01*
X65273Y-34023D01*
X65273Y-32166D01*
X65249Y-32047D01*
X65249Y-32046D01*
X65182Y-31945D01*
X64670Y-31433D01*
X64569Y-31366D01*
X64449Y-31341D01*
X64444Y-31342D01*
X60551Y-31342D01*
X60551Y-30997D01*
X60243Y-30690D01*
X60172Y-30760D01*
X60172Y-30619D01*
X59865Y-30311D01*
X59771Y-30338D01*
X59700Y-30540D01*
X59711Y-30753D01*
X59771Y-30900D01*
X59865Y-30927D01*
X60172Y-30619D01*
X60172Y-30760D01*
X59935Y-30997D01*
X59962Y-31091D01*
X60164Y-31162D01*
X60377Y-31151D01*
X60524Y-31091D01*
X60551Y-30997D01*
X60551Y-31342D01*
X59232Y-31342D01*
X59112Y-31366D01*
X59071Y-31392D01*
X59011Y-31433D01*
X59009Y-31435D01*
X58006Y-32438D01*
X57939Y-32539D01*
X57914Y-32659D01*
X57915Y-32663D01*
X57915Y-33383D01*
X57911Y-33390D01*
X57909Y-33383D01*
X57909Y-32833D01*
X57908Y-32832D01*
X57909Y-32832D01*
X57903Y-32808D01*
X57885Y-32714D01*
X57884Y-32713D01*
X57818Y-32612D01*
X57815Y-32610D01*
X57710Y-32504D01*
X57710Y-32412D01*
X57642Y-32248D01*
X57517Y-32122D01*
X57353Y-32054D01*
X57176Y-32054D01*
X57012Y-32122D01*
X56949Y-32184D01*
X56926Y-32161D01*
X56762Y-32093D01*
X56585Y-32093D01*
X56421Y-32161D01*
X56295Y-32286D01*
X56243Y-32410D01*
X56136Y-32410D01*
X55980Y-32474D01*
X55860Y-32594D01*
X55795Y-32750D01*
X55795Y-32758D01*
X55787Y-32754D01*
X55787Y-31082D01*
X55787Y-30669D01*
X55787Y-30569D01*
X55787Y-30156D01*
X55725Y-30094D01*
X55513Y-30095D01*
X55421Y-30133D01*
X55351Y-30203D01*
X55313Y-30294D01*
X55313Y-30393D01*
X55312Y-30507D01*
X55374Y-30569D01*
X55787Y-30569D01*
X55787Y-30669D01*
X55374Y-30669D01*
X55312Y-30731D01*
X55313Y-30845D01*
X55313Y-30944D01*
X55351Y-31035D01*
X55421Y-31105D01*
X55513Y-31143D01*
X55725Y-31144D01*
X55787Y-31082D01*
X55787Y-32754D01*
X55715Y-32725D01*
X55546Y-32725D01*
X55390Y-32789D01*
X55270Y-32909D01*
X55205Y-33065D01*
X55205Y-33234D01*
X55260Y-33370D01*
X55202Y-33429D01*
X55134Y-33593D01*
X55134Y-33770D01*
X55202Y-33934D01*
X55327Y-34060D01*
X55350Y-34069D01*
X55350Y-34120D01*
X55313Y-34120D01*
X55221Y-34158D01*
X55151Y-34228D01*
X55113Y-34319D01*
X55113Y-34418D01*
X55113Y-34452D01*
X54815Y-34452D01*
X54720Y-34357D01*
X54866Y-34298D01*
X54986Y-34178D01*
X55051Y-34022D01*
X55051Y-33853D01*
X55049Y-33848D01*
X55055Y-33820D01*
X55055Y-30299D01*
X55121Y-30234D01*
X55189Y-30070D01*
X55189Y-29976D01*
X55767Y-29398D01*
X56360Y-29398D01*
X56312Y-29514D01*
X56312Y-29723D01*
X56392Y-29916D01*
X56539Y-30064D01*
X56672Y-30119D01*
X56540Y-30174D01*
X56392Y-30321D01*
X56361Y-30393D01*
X56361Y-30294D01*
X56323Y-30203D01*
X56253Y-30133D01*
X56161Y-30095D01*
X55949Y-30094D01*
X55887Y-30156D01*
X55887Y-30519D01*
X55887Y-30569D01*
X55887Y-30669D01*
X55887Y-30719D01*
X55887Y-31082D01*
X55949Y-31144D01*
X56161Y-31143D01*
X56253Y-31105D01*
X56323Y-31035D01*
X56361Y-30944D01*
X56361Y-30845D01*
X56361Y-30841D01*
X56392Y-30916D01*
X56539Y-31064D01*
X56732Y-31144D01*
X56941Y-31144D01*
X57134Y-31064D01*
X57282Y-30917D01*
X57362Y-30724D01*
X57362Y-30515D01*
X57282Y-30322D01*
X57135Y-30174D01*
X57001Y-30118D01*
X57134Y-30064D01*
X57282Y-29917D01*
X57362Y-29724D01*
X57362Y-29515D01*
X57313Y-29398D01*
X57714Y-29398D01*
X58176Y-29859D01*
X58176Y-29968D01*
X58214Y-30060D01*
X58273Y-30119D01*
X58214Y-30178D01*
X58176Y-30269D01*
X58176Y-30368D01*
X58176Y-30417D01*
X58093Y-30500D01*
X58001Y-30500D01*
X57837Y-30568D01*
X57711Y-30693D01*
X57643Y-30857D01*
X57643Y-31034D01*
X57711Y-31198D01*
X57836Y-31324D01*
X58000Y-31392D01*
X58177Y-31392D01*
X58341Y-31324D01*
X58467Y-31199D01*
X58535Y-31035D01*
X58535Y-30941D01*
X58558Y-30918D01*
X59024Y-30918D01*
X59116Y-30880D01*
X59186Y-30810D01*
X59224Y-30719D01*
X59224Y-30620D01*
X59224Y-30270D01*
X59186Y-30178D01*
X59127Y-30119D01*
X59186Y-30060D01*
X59224Y-29969D01*
X59224Y-29870D01*
X59224Y-29520D01*
X59186Y-29428D01*
X59156Y-29398D01*
X59740Y-29398D01*
X59694Y-29510D01*
X59694Y-29728D01*
X59778Y-29930D01*
X59932Y-30084D01*
X60023Y-30121D01*
X59962Y-30147D01*
X59935Y-30241D01*
X60243Y-30548D01*
X60551Y-30241D01*
X60524Y-30147D01*
X60458Y-30123D01*
X60554Y-30084D01*
X60708Y-29930D01*
X60743Y-29845D01*
X60778Y-29930D01*
X60932Y-30084D01*
X61016Y-30119D01*
X60932Y-30154D01*
X60778Y-30308D01*
X60740Y-30399D01*
X60715Y-30338D01*
X60621Y-30311D01*
X60314Y-30619D01*
X60621Y-30927D01*
X60715Y-30900D01*
X60738Y-30834D01*
X60778Y-30930D01*
X60932Y-31084D01*
X61134Y-31168D01*
X61352Y-31168D01*
X61554Y-31084D01*
X61708Y-30930D01*
X61743Y-30845D01*
X61778Y-30930D01*
X61932Y-31084D01*
X62134Y-31168D01*
X62352Y-31168D01*
X62554Y-31084D01*
X62708Y-30930D01*
X62743Y-30845D01*
X62778Y-30930D01*
X62932Y-31084D01*
X63134Y-31168D01*
X63352Y-31168D01*
X63554Y-31084D01*
X63708Y-30930D01*
X63743Y-30845D01*
X63778Y-30930D01*
X63932Y-31084D01*
X64134Y-31168D01*
X64352Y-31168D01*
X64554Y-31084D01*
X64708Y-30930D01*
X64792Y-30728D01*
X64792Y-30510D01*
X64708Y-30308D01*
X64568Y-30168D01*
X64592Y-30168D01*
X64684Y-30130D01*
X64754Y-30060D01*
X64792Y-29969D01*
X64792Y-29870D01*
X64792Y-29398D01*
X67991Y-29398D01*
X69045Y-29398D01*
X69355Y-29398D01*
X69470Y-29513D01*
X69634Y-29581D01*
X69811Y-29581D01*
X69975Y-29513D01*
X70101Y-29388D01*
X70169Y-29224D01*
X70169Y-29047D01*
X70101Y-28883D01*
X70087Y-28869D01*
X70622Y-28869D01*
X70599Y-28892D01*
X70648Y-28941D01*
X70550Y-29000D01*
X70398Y-29375D01*
X70402Y-29779D01*
X70550Y-30136D01*
X70693Y-30221D01*
X71310Y-29603D01*
X71345Y-29568D01*
X71416Y-29497D01*
X71487Y-29568D01*
X71416Y-29639D01*
X71345Y-29709D01*
X70763Y-30291D01*
X70848Y-30434D01*
X70951Y-30476D01*
X69999Y-30476D01*
X69998Y-30476D01*
X69974Y-30481D01*
X69880Y-30500D01*
X69778Y-30567D01*
X69776Y-30569D01*
X69569Y-30776D01*
X69481Y-30776D01*
X69389Y-30814D01*
X69330Y-30873D01*
X69271Y-30814D01*
X69179Y-30776D01*
X69067Y-30775D01*
X69005Y-30837D01*
X69005Y-31200D01*
X69005Y-31250D01*
X69005Y-31350D01*
X69005Y-31400D01*
X69005Y-31763D01*
X69067Y-31825D01*
X69179Y-31824D01*
X69271Y-31786D01*
X69330Y-31727D01*
X69389Y-31786D01*
X69480Y-31824D01*
X69579Y-31824D01*
X69682Y-31824D01*
X69104Y-32402D01*
X69104Y-32307D01*
X69080Y-32188D01*
X69080Y-32187D01*
X69053Y-32146D01*
X69013Y-32086D01*
X69010Y-32084D01*
X68750Y-31824D01*
X68843Y-31825D01*
X68905Y-31763D01*
X68905Y-31400D01*
X68905Y-31350D01*
X68905Y-31250D01*
X68905Y-31200D01*
X68905Y-30837D01*
X68843Y-30775D01*
X68731Y-30776D01*
X68639Y-30814D01*
X68569Y-30884D01*
X68542Y-30947D01*
X68516Y-30884D01*
X68446Y-30814D01*
X68355Y-30776D01*
X68256Y-30776D01*
X67906Y-30776D01*
X67814Y-30814D01*
X67755Y-30873D01*
X67696Y-30814D01*
X67605Y-30776D01*
X67506Y-30776D01*
X67156Y-30776D01*
X67064Y-30814D01*
X66994Y-30884D01*
X66967Y-30947D01*
X66941Y-30884D01*
X66871Y-30814D01*
X66780Y-30776D01*
X66681Y-30776D01*
X66331Y-30776D01*
X66239Y-30814D01*
X66180Y-30873D01*
X66121Y-30814D01*
X66029Y-30776D01*
X65917Y-30775D01*
X65855Y-30837D01*
X65855Y-31200D01*
X65855Y-31250D01*
X65855Y-31350D01*
X65855Y-31400D01*
X65855Y-31763D01*
X65917Y-31825D01*
X66029Y-31824D01*
X66121Y-31786D01*
X66180Y-31727D01*
X66239Y-31786D01*
X66243Y-31787D01*
X66243Y-31887D01*
X66242Y-31892D01*
X66267Y-32012D01*
X66334Y-32113D01*
X66549Y-32328D01*
X66650Y-32395D01*
X66651Y-32395D01*
X66770Y-32420D01*
X66770Y-32419D01*
X66774Y-32419D01*
X67231Y-32419D01*
X67425Y-32613D01*
X67368Y-32613D01*
X67118Y-32613D01*
X67042Y-32644D01*
X66967Y-32613D01*
X66868Y-32613D01*
X66618Y-32613D01*
X66526Y-32651D01*
X66456Y-32721D01*
X66418Y-32812D01*
X66418Y-32911D01*
X66418Y-33661D01*
X66456Y-33753D01*
X66526Y-33823D01*
X66617Y-33861D01*
X66716Y-33861D01*
X66966Y-33861D01*
X67041Y-33829D01*
X67117Y-33861D01*
X67216Y-33861D01*
X67466Y-33861D01*
X67541Y-33829D01*
X67617Y-33861D01*
X67716Y-33861D01*
X67966Y-33861D01*
X68041Y-33829D01*
X68117Y-33861D01*
X68216Y-33861D01*
X68466Y-33861D01*
X68541Y-33829D01*
X68617Y-33861D01*
X68716Y-33861D01*
X68966Y-33861D01*
X69041Y-33829D01*
X69117Y-33861D01*
X69216Y-33861D01*
X69466Y-33861D01*
X69480Y-33855D01*
X69480Y-34139D01*
X69479Y-34144D01*
X69504Y-34264D01*
X69571Y-34365D01*
X69766Y-34559D01*
X69768Y-34562D01*
X69869Y-34628D01*
X69870Y-34629D01*
X69989Y-34653D01*
X70910Y-34653D01*
X70915Y-34654D01*
X70915Y-34653D01*
X71034Y-34629D01*
X71035Y-34629D01*
X71136Y-34562D01*
X71771Y-33927D01*
X71771Y-36925D01*
X71771Y-36925D01*
G37*
G54D27*
X71771Y-36925D02*
X70666Y-36925D01*
X70666Y-36813D01*
X70628Y-36721D01*
X70558Y-36651D01*
X70467Y-36613D01*
X70368Y-36613D01*
X70118Y-36613D01*
X70042Y-36644D01*
X69966Y-36613D01*
X69904Y-36612D01*
X69842Y-36674D01*
X69842Y-37137D01*
X69842Y-37187D01*
X69842Y-37287D01*
X69842Y-37337D01*
X69842Y-37800D01*
X69904Y-37862D01*
X69966Y-37861D01*
X70041Y-37829D01*
X70117Y-37861D01*
X70216Y-37861D01*
X70466Y-37861D01*
X70558Y-37823D01*
X70628Y-37753D01*
X70666Y-37662D01*
X70666Y-37563D01*
X70666Y-37549D01*
X71282Y-37549D01*
X70968Y-37863D01*
X70662Y-37863D01*
X70570Y-37901D01*
X70511Y-37960D01*
X70452Y-37901D01*
X70360Y-37863D01*
X70248Y-37862D01*
X70186Y-37924D01*
X70186Y-38287D01*
X70186Y-38337D01*
X70186Y-38437D01*
X70186Y-38487D01*
X70186Y-38850D01*
X70248Y-38912D01*
X70360Y-38911D01*
X70452Y-38873D01*
X70511Y-38814D01*
X70570Y-38873D01*
X70661Y-38911D01*
X70760Y-38911D01*
X71110Y-38911D01*
X71202Y-38873D01*
X71247Y-38828D01*
X71247Y-38986D01*
X71315Y-39150D01*
X71381Y-39216D01*
X71381Y-41099D01*
X71247Y-40965D01*
X71045Y-40881D01*
X70827Y-40881D01*
X70625Y-40965D01*
X70471Y-41119D01*
X70436Y-41203D01*
X70401Y-41119D01*
X70247Y-40965D01*
X70086Y-40898D01*
X70086Y-38850D01*
X70086Y-38437D01*
X70086Y-38337D01*
X70086Y-37924D01*
X70024Y-37862D01*
X69912Y-37863D01*
X69820Y-37901D01*
X69750Y-37971D01*
X69712Y-38062D01*
X69712Y-38161D01*
X69711Y-38275D01*
X69773Y-38337D01*
X70086Y-38337D01*
X70086Y-38437D01*
X69773Y-38437D01*
X69711Y-38499D01*
X69712Y-38613D01*
X69712Y-38712D01*
X69750Y-38803D01*
X69820Y-38873D01*
X69912Y-38911D01*
X70024Y-38912D01*
X70086Y-38850D01*
X70086Y-40898D01*
X70045Y-40881D01*
X69827Y-40881D01*
X69625Y-40965D01*
X69471Y-41119D01*
X69436Y-41203D01*
X69401Y-41119D01*
X69247Y-40965D01*
X69045Y-40881D01*
X68827Y-40881D01*
X68625Y-40965D01*
X68471Y-41119D01*
X68436Y-41203D01*
X68401Y-41119D01*
X68247Y-40965D01*
X68045Y-40881D01*
X67827Y-40881D01*
X67625Y-40965D01*
X67471Y-41119D01*
X67436Y-41203D01*
X67401Y-41119D01*
X67247Y-40965D01*
X67045Y-40881D01*
X66827Y-40881D01*
X66625Y-40965D01*
X66471Y-41119D01*
X66387Y-41321D01*
X66387Y-41539D01*
X66471Y-41741D01*
X66611Y-41881D01*
X66587Y-41881D01*
X66495Y-41919D01*
X66425Y-41989D01*
X66387Y-42080D01*
X66387Y-42179D01*
X66387Y-42779D01*
X66425Y-42871D01*
X66495Y-42941D01*
X66586Y-42979D01*
X66685Y-42979D01*
X67285Y-42979D01*
X67377Y-42941D01*
X67447Y-42871D01*
X67485Y-42780D01*
X67485Y-42755D01*
X67625Y-42895D01*
X67827Y-42979D01*
X68045Y-42979D01*
X68247Y-42895D01*
X68401Y-42741D01*
X68436Y-42656D01*
X68471Y-42741D01*
X68625Y-42895D01*
X68827Y-42979D01*
X69045Y-42979D01*
X69247Y-42895D01*
X69401Y-42741D01*
X69436Y-42656D01*
X69471Y-42741D01*
X69625Y-42895D01*
X69827Y-42979D01*
X70045Y-42979D01*
X70247Y-42895D01*
X70401Y-42741D01*
X70438Y-42649D01*
X70464Y-42711D01*
X70558Y-42738D01*
X70865Y-42430D01*
X70558Y-42122D01*
X70464Y-42149D01*
X70440Y-42214D01*
X70401Y-42119D01*
X70247Y-41965D01*
X70162Y-41930D01*
X70247Y-41895D01*
X70401Y-41741D01*
X70436Y-41656D01*
X70471Y-41741D01*
X70625Y-41895D01*
X70716Y-41932D01*
X70655Y-41958D01*
X70628Y-42052D01*
X70936Y-42359D01*
X71244Y-42052D01*
X71217Y-41958D01*
X71151Y-41934D01*
X71247Y-41895D01*
X71381Y-41761D01*
X71381Y-42141D01*
X71314Y-42122D01*
X71007Y-42430D01*
X71314Y-42738D01*
X71381Y-42718D01*
X71381Y-43394D01*
X71244Y-43531D01*
X71244Y-42808D01*
X70936Y-42501D01*
X70628Y-42808D01*
X70655Y-42902D01*
X70857Y-42973D01*
X71070Y-42962D01*
X71217Y-42902D01*
X71244Y-42808D01*
X71244Y-43531D01*
X71189Y-43586D01*
X66332Y-43586D01*
X65647Y-42901D01*
X65647Y-38327D01*
X65623Y-38208D01*
X65623Y-38207D01*
X65596Y-38166D01*
X65556Y-38106D01*
X65553Y-38104D01*
X64997Y-37547D01*
X64997Y-37491D01*
X65146Y-37553D01*
X65323Y-37553D01*
X65487Y-37485D01*
X65613Y-37360D01*
X65634Y-37306D01*
X66330Y-36611D01*
X67980Y-36611D01*
X67980Y-36618D01*
X67967Y-36613D01*
X67868Y-36613D01*
X67618Y-36613D01*
X67542Y-36644D01*
X67467Y-36613D01*
X67368Y-36613D01*
X67118Y-36613D01*
X67042Y-36644D01*
X66967Y-36613D01*
X66868Y-36613D01*
X66618Y-36613D01*
X66526Y-36651D01*
X66456Y-36721D01*
X66418Y-36812D01*
X66418Y-36911D01*
X66418Y-37661D01*
X66456Y-37753D01*
X66526Y-37823D01*
X66617Y-37861D01*
X66716Y-37861D01*
X66966Y-37861D01*
X67041Y-37829D01*
X67117Y-37861D01*
X67216Y-37861D01*
X67433Y-37861D01*
X67416Y-37878D01*
X67348Y-38042D01*
X67348Y-38219D01*
X67416Y-38383D01*
X67541Y-38509D01*
X67705Y-38577D01*
X67882Y-38577D01*
X68046Y-38509D01*
X68172Y-38384D01*
X68240Y-38220D01*
X68240Y-38043D01*
X68172Y-37879D01*
X68154Y-37861D01*
X68216Y-37861D01*
X68466Y-37861D01*
X68480Y-37855D01*
X68480Y-39331D01*
X68480Y-39503D01*
X68138Y-39845D01*
X66932Y-39845D01*
X66867Y-39779D01*
X66703Y-39711D01*
X66526Y-39711D01*
X66362Y-39779D01*
X66236Y-39904D01*
X66168Y-40068D01*
X66168Y-40245D01*
X66236Y-40409D01*
X66361Y-40535D01*
X66525Y-40603D01*
X66702Y-40603D01*
X66866Y-40535D01*
X66932Y-40469D01*
X68263Y-40469D01*
X68268Y-40470D01*
X68268Y-40469D01*
X68387Y-40445D01*
X68388Y-40445D01*
X68489Y-40378D01*
X68648Y-40219D01*
X68648Y-40324D01*
X68716Y-40488D01*
X68841Y-40614D01*
X69005Y-40682D01*
X69182Y-40682D01*
X69346Y-40614D01*
X69472Y-40489D01*
X69540Y-40325D01*
X69540Y-40218D01*
X69540Y-40217D01*
X69580Y-40158D01*
X69580Y-40157D01*
X69604Y-40038D01*
X69605Y-40038D01*
X69604Y-40033D01*
X69604Y-39331D01*
X69604Y-37855D01*
X69618Y-37861D01*
X69680Y-37862D01*
X69742Y-37800D01*
X69742Y-37337D01*
X69742Y-37287D01*
X69742Y-37187D01*
X69742Y-37137D01*
X69742Y-36674D01*
X69680Y-36612D01*
X69618Y-36613D01*
X69542Y-36644D01*
X69467Y-36613D01*
X69368Y-36613D01*
X69118Y-36613D01*
X69042Y-36644D01*
X68967Y-36613D01*
X68868Y-36613D01*
X68618Y-36613D01*
X68604Y-36618D01*
X68604Y-36441D01*
X68603Y-36440D01*
X68604Y-36440D01*
X68598Y-36416D01*
X68580Y-36322D01*
X68579Y-36321D01*
X68513Y-36220D01*
X68510Y-36218D01*
X68371Y-36078D01*
X68270Y-36011D01*
X68150Y-35986D01*
X68145Y-35987D01*
X66232Y-35987D01*
X66237Y-35965D01*
X66237Y-35117D01*
X66213Y-34998D01*
X66213Y-34997D01*
X66186Y-34956D01*
X66146Y-34896D01*
X66143Y-34894D01*
X65755Y-34505D01*
X65755Y-31763D01*
X65755Y-31350D01*
X65755Y-31250D01*
X65755Y-30837D01*
X65693Y-30775D01*
X65581Y-30776D01*
X65489Y-30814D01*
X65419Y-30884D01*
X65381Y-30975D01*
X65381Y-31074D01*
X65380Y-31188D01*
X65442Y-31250D01*
X65755Y-31250D01*
X65755Y-31350D01*
X65442Y-31350D01*
X65380Y-31412D01*
X65381Y-31526D01*
X65381Y-31625D01*
X65419Y-31716D01*
X65489Y-31786D01*
X65581Y-31824D01*
X65693Y-31825D01*
X65755Y-31763D01*
X65755Y-34505D01*
X65273Y-34023D01*
X65273Y-32166D01*
X65249Y-32047D01*
X65249Y-32046D01*
X65182Y-31945D01*
X64670Y-31433D01*
X64569Y-31366D01*
X64449Y-31341D01*
X64444Y-31342D01*
X60551Y-31342D01*
X60551Y-30997D01*
X60243Y-30690D01*
X60172Y-30760D01*
X60172Y-30619D01*
X59865Y-30311D01*
X59771Y-30338D01*
X59700Y-30540D01*
X59711Y-30753D01*
X59771Y-30900D01*
X59865Y-30927D01*
X60172Y-30619D01*
X60172Y-30760D01*
X59935Y-30997D01*
X59962Y-31091D01*
X60164Y-31162D01*
X60377Y-31151D01*
X60524Y-31091D01*
X60551Y-30997D01*
X60551Y-31342D01*
X59232Y-31342D01*
X59112Y-31366D01*
X59071Y-31392D01*
X59011Y-31433D01*
X59009Y-31435D01*
X58006Y-32438D01*
X57939Y-32539D01*
X57914Y-32659D01*
X57915Y-32663D01*
X57915Y-33383D01*
X57911Y-33390D01*
X57909Y-33383D01*
X57909Y-32833D01*
X57908Y-32832D01*
X57909Y-32832D01*
X57903Y-32808D01*
X57885Y-32714D01*
X57884Y-32713D01*
X57818Y-32612D01*
X57815Y-32610D01*
X57710Y-32504D01*
X57710Y-32412D01*
X57642Y-32248D01*
X57517Y-32122D01*
X57353Y-32054D01*
X57176Y-32054D01*
X57012Y-32122D01*
X56949Y-32184D01*
X56926Y-32161D01*
X56762Y-32093D01*
X56585Y-32093D01*
X56421Y-32161D01*
X56295Y-32286D01*
X56243Y-32410D01*
X56136Y-32410D01*
X55980Y-32474D01*
X55860Y-32594D01*
X55795Y-32750D01*
X55795Y-32758D01*
X55787Y-32754D01*
X55787Y-31082D01*
X55787Y-30669D01*
X55787Y-30569D01*
X55787Y-30156D01*
X55725Y-30094D01*
X55513Y-30095D01*
X55421Y-30133D01*
X55351Y-30203D01*
X55313Y-30294D01*
X55313Y-30393D01*
X55312Y-30507D01*
X55374Y-30569D01*
X55787Y-30569D01*
X55787Y-30669D01*
X55374Y-30669D01*
X55312Y-30731D01*
X55313Y-30845D01*
X55313Y-30944D01*
X55351Y-31035D01*
X55421Y-31105D01*
X55513Y-31143D01*
X55725Y-31144D01*
X55787Y-31082D01*
X55787Y-32754D01*
X55715Y-32725D01*
X55546Y-32725D01*
X55390Y-32789D01*
X55270Y-32909D01*
X55205Y-33065D01*
X55205Y-33234D01*
X55260Y-33370D01*
X55202Y-33429D01*
X55134Y-33593D01*
X55134Y-33770D01*
X55202Y-33934D01*
X55327Y-34060D01*
X55350Y-34069D01*
X55350Y-34120D01*
X55313Y-34120D01*
X55221Y-34158D01*
X55151Y-34228D01*
X55113Y-34319D01*
X55113Y-34418D01*
X55113Y-34452D01*
X54815Y-34452D01*
X54720Y-34357D01*
X54866Y-34298D01*
X54986Y-34178D01*
X55051Y-34022D01*
X55051Y-33853D01*
X55049Y-33848D01*
X55055Y-33820D01*
X55055Y-30299D01*
X55121Y-30234D01*
X55189Y-30070D01*
X55189Y-29976D01*
X55767Y-29398D01*
X56360Y-29398D01*
X56312Y-29514D01*
X56312Y-29723D01*
X56392Y-29916D01*
X56539Y-30064D01*
X56672Y-30119D01*
X56540Y-30174D01*
X56392Y-30321D01*
X56361Y-30393D01*
X56361Y-30294D01*
X56323Y-30203D01*
X56253Y-30133D01*
X56161Y-30095D01*
X55949Y-30094D01*
X55887Y-30156D01*
X55887Y-30519D01*
X55887Y-30569D01*
X55887Y-30669D01*
X55887Y-30719D01*
X55887Y-31082D01*
X55949Y-31144D01*
X56161Y-31143D01*
X56253Y-31105D01*
X56323Y-31035D01*
X56361Y-30944D01*
X56361Y-30845D01*
X56361Y-30841D01*
X56392Y-30916D01*
X56539Y-31064D01*
X56732Y-31144D01*
X56941Y-31144D01*
X57134Y-31064D01*
X57282Y-30917D01*
X57362Y-30724D01*
X57362Y-30515D01*
X57282Y-30322D01*
X57135Y-30174D01*
X57001Y-30118D01*
X57134Y-30064D01*
X57282Y-29917D01*
X57362Y-29724D01*
X57362Y-29515D01*
X57313Y-29398D01*
X57714Y-29398D01*
X58176Y-29859D01*
X58176Y-29968D01*
X58214Y-30060D01*
X58273Y-30119D01*
X58214Y-30178D01*
X58176Y-30269D01*
X58176Y-30368D01*
X58176Y-30417D01*
X58093Y-30500D01*
X58001Y-30500D01*
X57837Y-30568D01*
X57711Y-30693D01*
X57643Y-30857D01*
X57643Y-31034D01*
X57711Y-31198D01*
X57836Y-31324D01*
X58000Y-31392D01*
X58177Y-31392D01*
X58341Y-31324D01*
X58467Y-31199D01*
X58535Y-31035D01*
X58535Y-30941D01*
X58558Y-30918D01*
X59024Y-30918D01*
X59116Y-30880D01*
X59186Y-30810D01*
X59224Y-30719D01*
X59224Y-30620D01*
X59224Y-30270D01*
X59186Y-30178D01*
X59127Y-30119D01*
X59186Y-30060D01*
X59224Y-29969D01*
X59224Y-29870D01*
X59224Y-29520D01*
X59186Y-29428D01*
X59156Y-29398D01*
X59740Y-29398D01*
X59694Y-29510D01*
X59694Y-29728D01*
X59778Y-29930D01*
X59932Y-30084D01*
X60023Y-30121D01*
X59962Y-30147D01*
X59935Y-30241D01*
X60243Y-30548D01*
X60551Y-30241D01*
X60524Y-30147D01*
X60458Y-30123D01*
X60554Y-30084D01*
X60708Y-29930D01*
X60743Y-29845D01*
X60778Y-29930D01*
X60932Y-30084D01*
X61016Y-30119D01*
X60932Y-30154D01*
X60778Y-30308D01*
X60740Y-30399D01*
X60715Y-30338D01*
X60621Y-30311D01*
X60314Y-30619D01*
X60621Y-30927D01*
X60715Y-30900D01*
X60738Y-30834D01*
X60778Y-30930D01*
X60932Y-31084D01*
X61134Y-31168D01*
X61352Y-31168D01*
X61554Y-31084D01*
X61708Y-30930D01*
X61743Y-30845D01*
X61778Y-30930D01*
X61932Y-31084D01*
X62134Y-31168D01*
X62352Y-31168D01*
X62554Y-31084D01*
X62708Y-30930D01*
X62743Y-30845D01*
X62778Y-30930D01*
X62932Y-31084D01*
X63134Y-31168D01*
X63352Y-31168D01*
X63554Y-31084D01*
X63708Y-30930D01*
X63743Y-30845D01*
X63778Y-30930D01*
X63932Y-31084D01*
X64134Y-31168D01*
X64352Y-31168D01*
X64554Y-31084D01*
X64708Y-30930D01*
X64792Y-30728D01*
X64792Y-30510D01*
X64708Y-30308D01*
X64568Y-30168D01*
X64592Y-30168D01*
X64684Y-30130D01*
X64754Y-30060D01*
X64792Y-29969D01*
X64792Y-29870D01*
X64792Y-29398D01*
X67991Y-29398D01*
X69045Y-29398D01*
X69355Y-29398D01*
X69470Y-29513D01*
X69634Y-29581D01*
X69811Y-29581D01*
X69975Y-29513D01*
X70101Y-29388D01*
X70169Y-29224D01*
X70169Y-29047D01*
X70101Y-28883D01*
X70087Y-28869D01*
X70622Y-28869D01*
X70599Y-28892D01*
X70648Y-28941D01*
X70550Y-29000D01*
X70398Y-29375D01*
X70402Y-29779D01*
X70550Y-30136D01*
X70693Y-30221D01*
X71310Y-29603D01*
X71345Y-29568D01*
X71416Y-29497D01*
X71487Y-29568D01*
X71416Y-29639D01*
X71345Y-29709D01*
X70763Y-30291D01*
X70848Y-30434D01*
X70951Y-30476D01*
X69999Y-30476D01*
X69998Y-30476D01*
X69974Y-30481D01*
X69880Y-30500D01*
X69778Y-30567D01*
X69776Y-30569D01*
X69569Y-30776D01*
X69481Y-30776D01*
X69389Y-30814D01*
X69330Y-30873D01*
X69271Y-30814D01*
X69179Y-30776D01*
X69067Y-30775D01*
X69005Y-30837D01*
X69005Y-31200D01*
X69005Y-31250D01*
X69005Y-31350D01*
X69005Y-31400D01*
X69005Y-31763D01*
X69067Y-31825D01*
X69179Y-31824D01*
X69271Y-31786D01*
X69330Y-31727D01*
X69389Y-31786D01*
X69480Y-31824D01*
X69579Y-31824D01*
X69682Y-31824D01*
X69104Y-32402D01*
X69104Y-32307D01*
X69080Y-32188D01*
X69080Y-32187D01*
X69053Y-32146D01*
X69013Y-32086D01*
X69010Y-32084D01*
X68750Y-31824D01*
X68843Y-31825D01*
X68905Y-31763D01*
X68905Y-31400D01*
X68905Y-31350D01*
X68905Y-31250D01*
X68905Y-31200D01*
X68905Y-30837D01*
X68843Y-30775D01*
X68731Y-30776D01*
X68639Y-30814D01*
X68569Y-30884D01*
X68542Y-30947D01*
X68516Y-30884D01*
X68446Y-30814D01*
X68355Y-30776D01*
X68256Y-30776D01*
X67906Y-30776D01*
X67814Y-30814D01*
X67755Y-30873D01*
X67696Y-30814D01*
X67605Y-30776D01*
X67506Y-30776D01*
X67156Y-30776D01*
X67064Y-30814D01*
X66994Y-30884D01*
X66967Y-30947D01*
X66941Y-30884D01*
X66871Y-30814D01*
X66780Y-30776D01*
X66681Y-30776D01*
X66331Y-30776D01*
X66239Y-30814D01*
X66180Y-30873D01*
X66121Y-30814D01*
X66029Y-30776D01*
X65917Y-30775D01*
X65855Y-30837D01*
X65855Y-31200D01*
X65855Y-31250D01*
X65855Y-31350D01*
X65855Y-31400D01*
X65855Y-31763D01*
X65917Y-31825D01*
X66029Y-31824D01*
X66121Y-31786D01*
X66180Y-31727D01*
X66239Y-31786D01*
X66243Y-31787D01*
X66243Y-31887D01*
X66242Y-31892D01*
X66267Y-32012D01*
X66334Y-32113D01*
X66549Y-32328D01*
X66650Y-32395D01*
X66651Y-32395D01*
X66770Y-32420D01*
X66770Y-32419D01*
X66774Y-32419D01*
X67231Y-32419D01*
X67425Y-32613D01*
X67368Y-32613D01*
X67118Y-32613D01*
X67042Y-32644D01*
X66967Y-32613D01*
X66868Y-32613D01*
X66618Y-32613D01*
X66526Y-32651D01*
X66456Y-32721D01*
X66418Y-32812D01*
X66418Y-32911D01*
X66418Y-33661D01*
X66456Y-33753D01*
X66526Y-33823D01*
X66617Y-33861D01*
X66716Y-33861D01*
X66966Y-33861D01*
X67041Y-33829D01*
X67117Y-33861D01*
X67216Y-33861D01*
X67466Y-33861D01*
X67541Y-33829D01*
X67617Y-33861D01*
X67716Y-33861D01*
X67966Y-33861D01*
X68041Y-33829D01*
X68117Y-33861D01*
X68216Y-33861D01*
X68466Y-33861D01*
X68541Y-33829D01*
X68617Y-33861D01*
X68716Y-33861D01*
X68966Y-33861D01*
X69041Y-33829D01*
X69117Y-33861D01*
X69216Y-33861D01*
X69466Y-33861D01*
X69480Y-33855D01*
X69480Y-34139D01*
X69479Y-34144D01*
X69504Y-34264D01*
X69571Y-34365D01*
X69766Y-34559D01*
X69768Y-34562D01*
X69869Y-34628D01*
X69870Y-34629D01*
X69989Y-34653D01*
X70910Y-34653D01*
X70915Y-34654D01*
X70915Y-34653D01*
X71034Y-34629D01*
X71035Y-34629D01*
X71136Y-34562D01*
X71771Y-33927D01*
X71771Y-36925D01*
M02*
