M48
;DRILL file {Pcbnew (2013-mar-13)-testing} date Sun 26 May 2013 07:24:40 PM ART
;FORMAT={-:-/ absolute / inch / decimal}
FMAT,2
INCH,TZ
T1C0.020
T2C0.025
T3C0.028
T4C0.032
T5C0.039
T6C0.040
T7C0.060
T8C0.070
%
G90
G05
M72
T1
X7.2335Y-5.7843
X7.2335Y-5.8843
X7.2335Y-5.9843
X7.2335Y-6.0843
X7.2335Y-6.1843
X7.3335Y-5.7843
X7.3335Y-5.8843
X7.3335Y-5.9843
X7.3335Y-6.0843
T2
X4.6575Y-2.0315
X4.874Y-2.0315
X7.2825Y-5.6122
X7.5256Y-5.6132
T3
X5.4961Y-1.9685
X5.4961Y-2.4685
X6.1161Y-1.9685
X6.2404Y-1.4292
X6.2404Y-1.6492
X6.2404Y-1.7842
X6.2411Y-1.9685
X6.3661Y-1.9685
X6.8304Y-1.4292
X6.8304Y-1.7842
X6.8661Y-1.9685
X6.8661Y-2.4685
X6.8661Y-2.4685
T4
X4.9181Y-6.0236
X4.9181Y-6.3386
X5.2165Y-1.4407
X5.2165Y-1.5907
X5.2165Y-1.8291
X5.2165Y-2.0291
X5.2165Y-2.3069
X5.2165Y-2.4569
X5.3181Y-6.0236
X5.3181Y-6.3386
X5.3346Y-1.8291
X5.3346Y-2.0291
X5.5012Y-6.0236
X5.5012Y-6.3386
X5.5087Y-1.6535
X5.5087Y-1.811
X5.6012Y-6.0236
X5.6012Y-6.3386
X5.9087Y-1.6535
X5.9087Y-1.811
X6.8898Y-5.548
X6.8898Y-5.948
T5
X3.2283Y-3.787
X3.2283Y-3.887
X3.2283Y-3.987
X3.2283Y-4.087
X4.4307Y-6.1024
X4.6638Y-2.4016
X5.7555Y-1.2992
X5.7555Y-6.6929
X5.8555Y-1.2992
X5.8555Y-6.6929
X5.9555Y-1.2992
X5.9555Y-6.6929
X6.0555Y-1.2992
X6.0555Y-6.6929
X6.2098Y-5.7524
X6.2098Y-5.8524
X6.2098Y-5.9524
X6.2098Y-6.0524
X6.2098Y-6.1524
X6.2098Y-6.2524
X6.2098Y-6.3524
X6.2098Y-6.4524
X6.3098Y-5.7524
X6.3098Y-5.8524
X6.3098Y-5.9524
X6.3098Y-6.0524
X6.3098Y-6.1524
X6.3098Y-6.2524
X6.3098Y-6.3524
X6.4567Y-5.863
X6.4567Y-6.263
X6.5748Y-5.4693
X6.5748Y-5.8693
X6.6535Y-6.0598
X6.6535Y-6.4598
X6.7717Y-5.7449
X6.7717Y-6.1449
X6.8898Y-6.0598
X6.8898Y-6.4598
X7.0079Y-5.548
X7.0079Y-5.948
X7.0473Y-2.4016
X7.2047Y-2.4016
X7.5197Y-2.4016
X7.6771Y-2.4016
X7.9922Y-2.4016
X8.1496Y-2.4016
T6
X6.3098Y-6.4524
X7.3335Y-6.1843
T7
X4.2307Y-6.1024
X4.8638Y-2.4016
T8
X7.0866Y-1.5717
X7.0866Y-1.7717
X7.0866Y-1.9717
T0
M30
