G04 (created by PCBNEW (2013-mar-13)-testing) date Sun 19 May 2013 06:27:47 PM ART*
%MOIN*%
G04 Gerber Fmt 3.4, Leading zero omitted, Abs format*
%FSLAX34Y34*%
G01*
G70*
G90*
G04 APERTURE LIST*
%ADD10C,0.005906*%
%ADD11C,0.015000*%
%ADD12R,0.060000X0.060000*%
%ADD13C,0.060000*%
%ADD14R,0.055000X0.055000*%
%ADD15C,0.055000*%
%ADD16C,0.059100*%
%ADD17C,0.165000*%
%ADD18R,0.100000X0.100000*%
%ADD19C,0.100000*%
%ADD20C,0.160000*%
%ADD21C,0.045000*%
%ADD22C,0.013000*%
%ADD23C,0.019000*%
%ADD24C,0.010000*%
G04 APERTURE END LIST*
G54D10*
G54D11*
X53937Y-30709D02*
X54331Y-30709D01*
X53937Y-14567D02*
X53937Y-30709D01*
X77559Y-14567D02*
X53937Y-14567D01*
X77559Y-30709D02*
X77559Y-14567D01*
X54331Y-30709D02*
X77559Y-30709D01*
G54D12*
X68154Y-28846D03*
G54D13*
X68154Y-27846D03*
X69154Y-28846D03*
X69154Y-27846D03*
X70154Y-28846D03*
X70154Y-27846D03*
X71154Y-28846D03*
X71154Y-27846D03*
X72154Y-28846D03*
X72154Y-27846D03*
X73154Y-28846D03*
X73154Y-27846D03*
X74154Y-28846D03*
X74154Y-27846D03*
G54D14*
X57736Y-24409D03*
G54D15*
X58736Y-24409D03*
X59736Y-24409D03*
X60736Y-24409D03*
X61736Y-24409D03*
X62736Y-24409D03*
G54D14*
X68366Y-24409D03*
G54D15*
X69366Y-24409D03*
X70366Y-24409D03*
X71366Y-24409D03*
X72366Y-24409D03*
X73366Y-24409D03*
G54D16*
X62244Y-17835D03*
X61575Y-19842D03*
X60905Y-17835D03*
X63583Y-17835D03*
X62913Y-19843D03*
X60236Y-19843D03*
X58897Y-19843D03*
X59567Y-17835D03*
G54D17*
X60236Y-10237D03*
G54D16*
X56890Y-17835D03*
X57559Y-19842D03*
X58228Y-17835D03*
X72874Y-17835D03*
X72205Y-19842D03*
X71535Y-17835D03*
X74213Y-17835D03*
X73543Y-19843D03*
X70866Y-19843D03*
X69527Y-19843D03*
X70197Y-17835D03*
G54D17*
X70866Y-10237D03*
G54D16*
X67520Y-17835D03*
X68189Y-19842D03*
X68858Y-17835D03*
G54D14*
X63780Y-21547D03*
G54D15*
X63780Y-22547D03*
G54D14*
X61417Y-21547D03*
G54D15*
X61417Y-22547D03*
X58661Y-22547D03*
X58661Y-21547D03*
X56693Y-22547D03*
X56693Y-21547D03*
G54D14*
X72047Y-21547D03*
G54D15*
X72047Y-22547D03*
G54D14*
X74409Y-21547D03*
G54D15*
X74409Y-22547D03*
X69291Y-22547D03*
X69291Y-21547D03*
X67323Y-22547D03*
X67323Y-21547D03*
G54D18*
X61236Y-27953D03*
G54D19*
X59236Y-27953D03*
G54D20*
X76378Y-15748D03*
X76378Y-29528D03*
X55118Y-29528D03*
X55118Y-15748D03*
G54D21*
X65890Y-26640D03*
X65880Y-21270D03*
X66360Y-21600D03*
X66370Y-27810D03*
X65350Y-21870D03*
X65390Y-26040D03*
X62150Y-20770D03*
X70850Y-20750D03*
G54D22*
X73660Y-25000D02*
X73660Y-28352D01*
X74060Y-23640D02*
X74060Y-24090D01*
X60736Y-24409D02*
X60736Y-24264D01*
X67150Y-25410D02*
X70820Y-25410D01*
X70820Y-25410D02*
X71366Y-24864D01*
X71366Y-24864D02*
X71366Y-24409D01*
X73850Y-23430D02*
X74060Y-23640D01*
X71570Y-23430D02*
X73850Y-23430D01*
X71366Y-23634D02*
X71570Y-23430D01*
X73660Y-28352D02*
X74154Y-28846D01*
X74060Y-24090D02*
X74060Y-24600D01*
X71366Y-24409D02*
X71366Y-23634D01*
X60736Y-24264D02*
X61120Y-23880D01*
X61120Y-23880D02*
X65620Y-23880D01*
X65620Y-23880D02*
X67150Y-25410D01*
X74060Y-24600D02*
X73660Y-25000D01*
G54D23*
X56693Y-22547D02*
X56922Y-22547D01*
X56922Y-22547D02*
X57559Y-23184D01*
X57559Y-19842D02*
X57559Y-23184D01*
X57559Y-23184D02*
X57559Y-24232D01*
X57559Y-24232D02*
X57736Y-24409D01*
X59633Y-22547D02*
X58661Y-22547D01*
X64500Y-22000D02*
X64460Y-22040D01*
X62913Y-19843D02*
X62913Y-20393D01*
X64500Y-21040D02*
X64500Y-22000D01*
X60140Y-22040D02*
X59633Y-22547D01*
X61390Y-22040D02*
X60140Y-22040D01*
X63250Y-20730D02*
X64190Y-20730D01*
X62913Y-20393D02*
X63250Y-20730D01*
X58736Y-22622D02*
X58661Y-22547D01*
X64460Y-22040D02*
X61390Y-22040D01*
X58736Y-24409D02*
X58736Y-22622D01*
X64190Y-20730D02*
X64500Y-21040D01*
G54D22*
X68650Y-29350D02*
X69154Y-28846D01*
X57820Y-29350D02*
X68650Y-29350D01*
X55810Y-27340D02*
X57820Y-29350D01*
X55810Y-17610D02*
X55810Y-27340D01*
X56430Y-16990D02*
X55810Y-17610D01*
X58190Y-16990D02*
X56430Y-16990D01*
X58897Y-17697D02*
X58190Y-16990D01*
X58897Y-19843D02*
X58897Y-17697D01*
X57957Y-29057D02*
X67943Y-29057D01*
X67943Y-29057D02*
X68154Y-28846D01*
X56100Y-27200D02*
X57957Y-29057D01*
X56100Y-17800D02*
X56100Y-27200D01*
X57320Y-17270D02*
X56630Y-17270D01*
X57885Y-17835D02*
X57320Y-17270D01*
X58228Y-17835D02*
X57885Y-17835D01*
X56630Y-17270D02*
X56100Y-17800D01*
X70890Y-25920D02*
X71660Y-26690D01*
X72154Y-28846D02*
X72154Y-28544D01*
X71660Y-28070D02*
X71660Y-27240D01*
X72154Y-28544D02*
X71860Y-28250D01*
X71760Y-28170D02*
X71660Y-28070D01*
X71780Y-28170D02*
X71760Y-28170D01*
X66848Y-25920D02*
X70890Y-25920D01*
X71660Y-27240D02*
X71660Y-26690D01*
X61736Y-24409D02*
X61736Y-24486D01*
X65888Y-24960D02*
X66848Y-25920D01*
X61736Y-24486D02*
X62210Y-24960D01*
X62210Y-24960D02*
X65888Y-24960D01*
X71860Y-28250D02*
X71780Y-28170D01*
X71870Y-24040D02*
X71870Y-24020D01*
X65693Y-24409D02*
X66946Y-25662D01*
X71870Y-24892D02*
X71870Y-24130D01*
X72660Y-25660D02*
X72660Y-28352D01*
X62736Y-24409D02*
X65693Y-24409D01*
X67160Y-25662D02*
X71100Y-25662D01*
X71100Y-25662D02*
X71870Y-24892D01*
X66946Y-25662D02*
X67160Y-25662D01*
X72080Y-23810D02*
X72610Y-23810D01*
X72860Y-25460D02*
X72660Y-25660D01*
X71870Y-24020D02*
X72080Y-23810D01*
X71870Y-24130D02*
X71870Y-24040D01*
X72610Y-23810D02*
X72860Y-24060D01*
X72660Y-28352D02*
X73154Y-28846D01*
X72860Y-24060D02*
X72860Y-25460D01*
X59567Y-17835D02*
X59567Y-17557D01*
X69360Y-29640D02*
X70154Y-28846D01*
X57690Y-29640D02*
X69360Y-29640D01*
X55530Y-27480D02*
X57690Y-29640D01*
X55530Y-17500D02*
X55530Y-27480D01*
X56330Y-16700D02*
X55530Y-17500D01*
X58710Y-16700D02*
X56330Y-16700D01*
X59567Y-17557D02*
X58710Y-16700D01*
X55250Y-17390D02*
X55250Y-27750D01*
X56230Y-16410D02*
X55250Y-17390D01*
X57460Y-29960D02*
X70040Y-29960D01*
X62244Y-17835D02*
X62244Y-17604D01*
X55250Y-27750D02*
X57460Y-29960D01*
X62244Y-17604D02*
X61050Y-16410D01*
X61050Y-16410D02*
X56230Y-16410D01*
X70040Y-29960D02*
X71154Y-28846D01*
G54D23*
X67323Y-22547D02*
X67947Y-22547D01*
X67947Y-22547D02*
X68189Y-22789D01*
X68189Y-19842D02*
X68189Y-22789D01*
X68189Y-22789D02*
X68189Y-24232D01*
X68189Y-24232D02*
X68366Y-24409D01*
X75040Y-21970D02*
X74970Y-22040D01*
X75040Y-21120D02*
X75040Y-21970D01*
X73543Y-19843D02*
X73543Y-20413D01*
X69798Y-22040D02*
X69291Y-22547D01*
X74970Y-22040D02*
X69798Y-22040D01*
X73960Y-20830D02*
X74750Y-20830D01*
X74750Y-20830D02*
X75040Y-21120D01*
X69366Y-22622D02*
X69291Y-22547D01*
X69366Y-24409D02*
X69366Y-22622D01*
X73543Y-20413D02*
X73960Y-20830D01*
G54D22*
X69527Y-19843D02*
X69527Y-17197D01*
X69154Y-27334D02*
X69154Y-27846D01*
X68790Y-26970D02*
X69154Y-27334D01*
X66220Y-26970D02*
X68790Y-26970D01*
X65890Y-26640D02*
X66220Y-26970D01*
X65880Y-18210D02*
X65880Y-21270D01*
X67210Y-16880D02*
X65880Y-18210D01*
X69210Y-16880D02*
X67210Y-16880D01*
X69527Y-17197D02*
X69210Y-16880D01*
X68582Y-17132D02*
X67314Y-17132D01*
X66370Y-27810D02*
X66406Y-27846D01*
X66406Y-27846D02*
X68154Y-27846D01*
X68858Y-17835D02*
X68858Y-17408D01*
X66320Y-21560D02*
X66360Y-21600D01*
X67314Y-17132D02*
X66320Y-18126D01*
X66320Y-18126D02*
X66320Y-21560D01*
X68858Y-17408D02*
X68582Y-17132D01*
X72154Y-27846D02*
X72154Y-24621D01*
X72154Y-24621D02*
X72366Y-24409D01*
X73154Y-27846D02*
X73154Y-24621D01*
X73154Y-24621D02*
X73366Y-24409D01*
X65350Y-18070D02*
X65350Y-21870D01*
X66920Y-16500D02*
X65350Y-18070D01*
X69300Y-16500D02*
X66920Y-16500D01*
X70197Y-17397D02*
X69300Y-16500D01*
X70197Y-17835D02*
X70197Y-17397D01*
X70154Y-27134D02*
X70154Y-27846D01*
X69350Y-26330D02*
X70154Y-27134D01*
X66260Y-26330D02*
X69350Y-26330D01*
X65390Y-26040D02*
X65970Y-26040D01*
X65970Y-26040D02*
X66260Y-26330D01*
X75810Y-17770D02*
X74900Y-16860D01*
X74900Y-16860D02*
X73849Y-16860D01*
X71910Y-29390D02*
X74540Y-29390D01*
X73849Y-16860D02*
X72874Y-17835D01*
X71154Y-27846D02*
X71154Y-28134D01*
X75810Y-28120D02*
X75810Y-17770D01*
X71650Y-29130D02*
X71910Y-29390D01*
X71154Y-28134D02*
X71650Y-28630D01*
X71650Y-28630D02*
X71650Y-29130D01*
X74540Y-29390D02*
X75810Y-28120D01*
G54D23*
X68650Y-23380D02*
X68870Y-23600D01*
X75352Y-18002D02*
X75352Y-22218D01*
X68870Y-23600D02*
X68870Y-24710D01*
X68800Y-20260D02*
X68650Y-20410D01*
X67635Y-19515D02*
X67880Y-19270D01*
X74409Y-27591D02*
X74154Y-27846D01*
X68430Y-19270D02*
X68800Y-19640D01*
X75023Y-22547D02*
X74409Y-22547D01*
X69900Y-25030D02*
X70366Y-24564D01*
X67560Y-22050D02*
X67850Y-21760D01*
X68870Y-24710D02*
X69190Y-25030D01*
X74409Y-22547D02*
X74409Y-27591D01*
X68650Y-20410D02*
X68650Y-23380D01*
X68800Y-19640D02*
X68800Y-20260D01*
X73940Y-17220D02*
X74570Y-17220D01*
X75352Y-22218D02*
X75023Y-22547D01*
X67880Y-19270D02*
X68430Y-19270D01*
X74570Y-17220D02*
X75352Y-18002D01*
X69190Y-25030D02*
X69900Y-25030D01*
X71535Y-17835D02*
X71535Y-18393D01*
X65493Y-22547D02*
X65990Y-22050D01*
X65990Y-22050D02*
X67560Y-22050D01*
X64270Y-22547D02*
X65493Y-22547D01*
X67850Y-21760D02*
X67850Y-20800D01*
X67850Y-20800D02*
X67635Y-20585D01*
X67635Y-20585D02*
X67635Y-19515D01*
X70366Y-24564D02*
X70366Y-24409D01*
X63000Y-18460D02*
X63000Y-17600D01*
X64593Y-22547D02*
X64270Y-22547D01*
X72982Y-18818D02*
X73670Y-18130D01*
X62652Y-18808D02*
X63000Y-18460D01*
X63330Y-17270D02*
X63940Y-17270D01*
X64270Y-22547D02*
X63780Y-22547D01*
X74409Y-22547D02*
X72047Y-22547D01*
X64870Y-22270D02*
X64593Y-22547D01*
X59736Y-27453D02*
X59236Y-27953D01*
X60905Y-17835D02*
X60905Y-18463D01*
X73670Y-17490D02*
X73940Y-17220D01*
X71960Y-18818D02*
X72982Y-18818D01*
X64870Y-18200D02*
X64870Y-22270D01*
X73670Y-18130D02*
X73670Y-17490D01*
X63780Y-22547D02*
X61417Y-22547D01*
X61417Y-22547D02*
X60453Y-22547D01*
X59736Y-23264D02*
X59736Y-24409D01*
X60453Y-22547D02*
X59736Y-23264D01*
X63000Y-17600D02*
X63330Y-17270D01*
X70366Y-23559D02*
X70366Y-24409D01*
X71378Y-22547D02*
X70366Y-23559D01*
X72047Y-22547D02*
X71378Y-22547D01*
X63940Y-17270D02*
X64870Y-18200D01*
X59736Y-24409D02*
X59736Y-27453D01*
X60905Y-18463D02*
X61250Y-18808D01*
X61250Y-18808D02*
X62652Y-18808D01*
X71535Y-18393D02*
X71960Y-18818D01*
X58661Y-21547D02*
X59183Y-21547D01*
X63583Y-18637D02*
X63583Y-17835D01*
X63100Y-19120D02*
X63583Y-18637D01*
X59850Y-19120D02*
X63100Y-19120D01*
X59570Y-19400D02*
X59850Y-19120D01*
X59570Y-21160D02*
X59570Y-19400D01*
X59183Y-21547D02*
X59570Y-21160D01*
X56693Y-21547D02*
X56693Y-18032D01*
X56693Y-18032D02*
X56890Y-17835D01*
X70710Y-19130D02*
X73980Y-19130D01*
X69291Y-21547D02*
X69291Y-21309D01*
X74213Y-18897D02*
X74213Y-17835D01*
X69291Y-21309D02*
X70210Y-20390D01*
X73980Y-19130D02*
X74213Y-18897D01*
X70210Y-19630D02*
X70710Y-19130D01*
X70210Y-20390D02*
X70210Y-19630D01*
X67323Y-21547D02*
X67323Y-18032D01*
X67323Y-18032D02*
X67520Y-17835D01*
X59240Y-26100D02*
X59240Y-26885D01*
X59240Y-26885D02*
X59200Y-26925D01*
X61236Y-27953D02*
X61236Y-28589D01*
X61236Y-28589D02*
X61050Y-28775D01*
X58230Y-23600D02*
X57940Y-23310D01*
X57940Y-23310D02*
X57940Y-22460D01*
X58230Y-24970D02*
X58230Y-23600D01*
X59240Y-25980D02*
X58230Y-24970D01*
X72047Y-21437D02*
X72047Y-21547D01*
X70850Y-20750D02*
X71360Y-20750D01*
X61417Y-21547D02*
X61417Y-21503D01*
X71360Y-20750D02*
X72047Y-21437D01*
X58500Y-27625D02*
X59200Y-26925D01*
X60103Y-21547D02*
X61417Y-21547D01*
X59240Y-26100D02*
X59240Y-25980D01*
X61417Y-21503D02*
X62150Y-20770D01*
X60872Y-21547D02*
X61417Y-21547D01*
X61050Y-28775D02*
X58900Y-28775D01*
X58900Y-28775D02*
X58500Y-28375D01*
X70866Y-20256D02*
X71360Y-20750D01*
X70866Y-19843D02*
X70866Y-20256D01*
X57940Y-22460D02*
X58360Y-22040D01*
X58360Y-22040D02*
X59610Y-22040D01*
X59610Y-22040D02*
X60103Y-21547D01*
X60236Y-20911D02*
X60872Y-21547D01*
X58500Y-28375D02*
X58500Y-27625D01*
X63780Y-21547D02*
X61417Y-21547D01*
X74409Y-21547D02*
X72047Y-21547D01*
X60236Y-19843D02*
X60236Y-20911D01*
G54D10*
G36*
X67844Y-22202D02*
X67720Y-22202D01*
X67621Y-22102D01*
X67487Y-22046D01*
X67620Y-21992D01*
X67768Y-21845D01*
X67844Y-21661D01*
X67844Y-22202D01*
X67844Y-22202D01*
G37*
G54D24*
X67844Y-22202D02*
X67720Y-22202D01*
X67621Y-22102D01*
X67487Y-22046D01*
X67620Y-21992D01*
X67768Y-21845D01*
X67844Y-21661D01*
X67844Y-22202D01*
G54D10*
G36*
X69790Y-20322D02*
X69047Y-21065D01*
X69033Y-21085D01*
X68994Y-21102D01*
X68846Y-21249D01*
X68766Y-21442D01*
X68766Y-21651D01*
X68846Y-21844D01*
X68993Y-21992D01*
X69126Y-22047D01*
X68994Y-22102D01*
X68846Y-22249D01*
X68766Y-22442D01*
X68766Y-22651D01*
X68846Y-22844D01*
X68993Y-22992D01*
X69021Y-23003D01*
X69021Y-24011D01*
X68921Y-24111D01*
X68890Y-24185D01*
X68890Y-24085D01*
X68852Y-23993D01*
X68782Y-23923D01*
X68691Y-23885D01*
X68592Y-23885D01*
X68534Y-23885D01*
X68534Y-22789D01*
X68534Y-20266D01*
X68650Y-20150D01*
X68733Y-19950D01*
X68733Y-19734D01*
X68650Y-19534D01*
X68497Y-19381D01*
X68297Y-19298D01*
X68081Y-19298D01*
X67881Y-19381D01*
X67728Y-19534D01*
X67668Y-19678D01*
X67668Y-18362D01*
X67828Y-18296D01*
X67981Y-18143D01*
X68064Y-17943D01*
X68064Y-17727D01*
X67981Y-17527D01*
X67901Y-17447D01*
X68451Y-17447D01*
X68464Y-17460D01*
X68397Y-17527D01*
X68314Y-17727D01*
X68314Y-17943D01*
X68397Y-18143D01*
X68550Y-18296D01*
X68750Y-18379D01*
X68966Y-18379D01*
X69166Y-18296D01*
X69212Y-18250D01*
X69212Y-19389D01*
X69066Y-19535D01*
X68983Y-19735D01*
X68983Y-19951D01*
X69066Y-20151D01*
X69219Y-20304D01*
X69419Y-20387D01*
X69635Y-20387D01*
X69790Y-20322D01*
X69790Y-20322D01*
G37*
G54D24*
X69790Y-20322D02*
X69047Y-21065D01*
X69033Y-21085D01*
X68994Y-21102D01*
X68846Y-21249D01*
X68766Y-21442D01*
X68766Y-21651D01*
X68846Y-21844D01*
X68993Y-21992D01*
X69126Y-22047D01*
X68994Y-22102D01*
X68846Y-22249D01*
X68766Y-22442D01*
X68766Y-22651D01*
X68846Y-22844D01*
X68993Y-22992D01*
X69021Y-23003D01*
X69021Y-24011D01*
X68921Y-24111D01*
X68890Y-24185D01*
X68890Y-24085D01*
X68852Y-23993D01*
X68782Y-23923D01*
X68691Y-23885D01*
X68592Y-23885D01*
X68534Y-23885D01*
X68534Y-22789D01*
X68534Y-20266D01*
X68650Y-20150D01*
X68733Y-19950D01*
X68733Y-19734D01*
X68650Y-19534D01*
X68497Y-19381D01*
X68297Y-19298D01*
X68081Y-19298D01*
X67881Y-19381D01*
X67728Y-19534D01*
X67668Y-19678D01*
X67668Y-18362D01*
X67828Y-18296D01*
X67981Y-18143D01*
X68064Y-17943D01*
X68064Y-17727D01*
X67981Y-17527D01*
X67901Y-17447D01*
X68451Y-17447D01*
X68464Y-17460D01*
X68397Y-17527D01*
X68314Y-17727D01*
X68314Y-17943D01*
X68397Y-18143D01*
X68550Y-18296D01*
X68750Y-18379D01*
X68966Y-18379D01*
X69166Y-18296D01*
X69212Y-18250D01*
X69212Y-19389D01*
X69066Y-19535D01*
X68983Y-19735D01*
X68983Y-19951D01*
X69066Y-20151D01*
X69219Y-20304D01*
X69419Y-20387D01*
X69635Y-20387D01*
X69790Y-20322D01*
G54D10*
G36*
X77234Y-30384D02*
X76966Y-30384D01*
X77040Y-30261D01*
X76378Y-29599D01*
X76307Y-29670D01*
X76307Y-29528D01*
X75645Y-28866D01*
X75501Y-28952D01*
X75348Y-29332D01*
X75351Y-29742D01*
X75501Y-30104D01*
X75645Y-30190D01*
X76307Y-29528D01*
X76307Y-29670D01*
X75716Y-30261D01*
X75789Y-30384D01*
X56148Y-30384D01*
X55706Y-30384D01*
X55780Y-30261D01*
X55118Y-29599D01*
X54456Y-30261D01*
X54529Y-30384D01*
X54331Y-30384D01*
X54262Y-30384D01*
X54262Y-30116D01*
X54385Y-30190D01*
X55047Y-29528D01*
X54385Y-28866D01*
X54262Y-28939D01*
X54262Y-16336D01*
X54385Y-16410D01*
X55047Y-15748D01*
X54385Y-15086D01*
X54262Y-15159D01*
X54262Y-14892D01*
X54529Y-14892D01*
X54456Y-15015D01*
X55118Y-15677D01*
X55780Y-15015D01*
X55706Y-14892D01*
X75789Y-14892D01*
X75716Y-15015D01*
X76378Y-15677D01*
X77040Y-15015D01*
X76966Y-14892D01*
X77234Y-14892D01*
X77234Y-15159D01*
X77111Y-15086D01*
X76449Y-15748D01*
X77111Y-16410D01*
X77234Y-16336D01*
X77234Y-28939D01*
X77111Y-28866D01*
X77040Y-28937D01*
X77040Y-28795D01*
X77040Y-16481D01*
X76378Y-15819D01*
X76307Y-15890D01*
X76307Y-15748D01*
X75645Y-15086D01*
X75501Y-15172D01*
X75348Y-15552D01*
X75351Y-15962D01*
X75501Y-16324D01*
X75645Y-16410D01*
X76307Y-15748D01*
X76307Y-15890D01*
X75716Y-16481D01*
X75802Y-16625D01*
X76182Y-16778D01*
X76592Y-16775D01*
X76954Y-16625D01*
X77040Y-16481D01*
X77040Y-28795D01*
X76954Y-28651D01*
X76574Y-28498D01*
X76164Y-28501D01*
X76125Y-28517D01*
X76125Y-28120D01*
X76125Y-17770D01*
X76124Y-17769D01*
X76125Y-17769D01*
X76101Y-17649D01*
X76033Y-17547D01*
X76030Y-17545D01*
X75123Y-16637D01*
X75021Y-16569D01*
X74900Y-16545D01*
X73849Y-16545D01*
X73848Y-16545D01*
X73728Y-16569D01*
X73626Y-16637D01*
X73624Y-16639D01*
X72972Y-17291D01*
X72766Y-17291D01*
X72566Y-17374D01*
X72413Y-17527D01*
X72330Y-17727D01*
X72330Y-17943D01*
X72413Y-18143D01*
X72566Y-18296D01*
X72766Y-18379D01*
X72982Y-18379D01*
X73182Y-18296D01*
X73335Y-18143D01*
X73418Y-17943D01*
X73418Y-17736D01*
X73979Y-17175D01*
X74769Y-17175D01*
X75495Y-17900D01*
X75495Y-27989D01*
X75385Y-28099D01*
X75385Y-21970D01*
X75385Y-21120D01*
X75359Y-20988D01*
X75284Y-20876D01*
X74994Y-20586D01*
X74882Y-20511D01*
X74750Y-20485D01*
X74102Y-20485D01*
X73888Y-20270D01*
X73888Y-20267D01*
X74004Y-20151D01*
X74087Y-19951D01*
X74087Y-19735D01*
X74004Y-19535D01*
X73944Y-19475D01*
X73980Y-19475D01*
X74112Y-19449D01*
X74224Y-19374D01*
X74457Y-19141D01*
X74532Y-19030D01*
X74532Y-19029D01*
X74558Y-18897D01*
X74558Y-18259D01*
X74674Y-18143D01*
X74757Y-17943D01*
X74757Y-17727D01*
X74674Y-17527D01*
X74521Y-17374D01*
X74321Y-17291D01*
X74105Y-17291D01*
X73905Y-17374D01*
X73752Y-17527D01*
X73669Y-17727D01*
X73669Y-17943D01*
X73752Y-18143D01*
X73868Y-18259D01*
X73868Y-18754D01*
X73837Y-18785D01*
X72075Y-18785D01*
X72075Y-17913D01*
X72063Y-17701D01*
X72003Y-17556D01*
X71910Y-17531D01*
X71839Y-17602D01*
X71839Y-17460D01*
X71814Y-17367D01*
X71613Y-17295D01*
X71401Y-17307D01*
X71256Y-17367D01*
X71231Y-17460D01*
X71535Y-17764D01*
X71839Y-17460D01*
X71839Y-17602D01*
X71606Y-17835D01*
X71910Y-18139D01*
X72003Y-18114D01*
X72075Y-17913D01*
X72075Y-18785D01*
X71839Y-18785D01*
X71839Y-18210D01*
X71535Y-17906D01*
X71464Y-17977D01*
X71464Y-17835D01*
X71160Y-17531D01*
X71067Y-17556D01*
X70995Y-17757D01*
X71007Y-17969D01*
X71067Y-18114D01*
X71160Y-18139D01*
X71464Y-17835D01*
X71464Y-17977D01*
X71231Y-18210D01*
X71256Y-18303D01*
X71457Y-18375D01*
X71669Y-18363D01*
X71814Y-18303D01*
X71839Y-18210D01*
X71839Y-18785D01*
X70710Y-18785D01*
X70578Y-18811D01*
X70466Y-18886D01*
X69966Y-19386D01*
X69915Y-19462D01*
X69842Y-19389D01*
X69842Y-18249D01*
X69889Y-18296D01*
X70089Y-18379D01*
X70305Y-18379D01*
X70505Y-18296D01*
X70658Y-18143D01*
X70741Y-17943D01*
X70741Y-17727D01*
X70658Y-17527D01*
X70508Y-17377D01*
X70488Y-17276D01*
X70420Y-17174D01*
X70417Y-17172D01*
X69523Y-16277D01*
X69421Y-16209D01*
X69300Y-16185D01*
X66920Y-16185D01*
X66799Y-16209D01*
X66697Y-16277D01*
X65127Y-17847D01*
X65059Y-17949D01*
X65035Y-18070D01*
X65035Y-21513D01*
X64948Y-21601D01*
X64875Y-21775D01*
X64875Y-21964D01*
X64947Y-22139D01*
X65081Y-22272D01*
X65255Y-22345D01*
X65444Y-22345D01*
X65619Y-22273D01*
X65752Y-22139D01*
X65825Y-21965D01*
X65825Y-21776D01*
X65812Y-21745D01*
X65905Y-21745D01*
X65957Y-21869D01*
X66091Y-22002D01*
X66265Y-22075D01*
X66454Y-22075D01*
X66629Y-22003D01*
X66762Y-21869D01*
X66825Y-21717D01*
X66878Y-21844D01*
X67025Y-21992D01*
X67158Y-22047D01*
X67026Y-22102D01*
X66878Y-22249D01*
X66798Y-22442D01*
X66798Y-22651D01*
X66878Y-22844D01*
X67025Y-22992D01*
X67218Y-23072D01*
X67427Y-23072D01*
X67620Y-22992D01*
X67720Y-22892D01*
X67804Y-22892D01*
X67844Y-22932D01*
X67844Y-24079D01*
X67842Y-24084D01*
X67842Y-24183D01*
X67842Y-24733D01*
X67880Y-24825D01*
X67950Y-24895D01*
X68041Y-24933D01*
X68140Y-24933D01*
X68690Y-24933D01*
X68782Y-24895D01*
X68852Y-24825D01*
X68890Y-24734D01*
X68890Y-24635D01*
X68890Y-24631D01*
X68921Y-24706D01*
X69068Y-24854D01*
X69261Y-24934D01*
X69470Y-24934D01*
X69663Y-24854D01*
X69811Y-24707D01*
X69869Y-24566D01*
X69914Y-24676D01*
X70005Y-24699D01*
X70295Y-24409D01*
X70005Y-24119D01*
X69914Y-24142D01*
X69872Y-24260D01*
X69811Y-24112D01*
X69711Y-24011D01*
X69711Y-22869D01*
X69736Y-22845D01*
X69816Y-22652D01*
X69816Y-22510D01*
X69941Y-22385D01*
X71558Y-22385D01*
X71528Y-22473D01*
X71539Y-22677D01*
X71595Y-22814D01*
X71686Y-22837D01*
X71941Y-22582D01*
X71976Y-22547D01*
X72047Y-22476D01*
X72118Y-22547D01*
X72153Y-22582D01*
X72408Y-22837D01*
X72499Y-22814D01*
X72566Y-22621D01*
X72555Y-22417D01*
X72541Y-22385D01*
X73920Y-22385D01*
X73890Y-22473D01*
X73901Y-22677D01*
X73957Y-22814D01*
X74048Y-22837D01*
X74303Y-22582D01*
X74338Y-22547D01*
X74409Y-22476D01*
X74480Y-22547D01*
X74515Y-22582D01*
X74770Y-22837D01*
X74861Y-22814D01*
X74928Y-22621D01*
X74917Y-22417D01*
X74903Y-22385D01*
X74970Y-22385D01*
X75102Y-22359D01*
X75214Y-22284D01*
X75283Y-22215D01*
X75283Y-22214D01*
X75284Y-22214D01*
X75358Y-22103D01*
X75359Y-22102D01*
X75384Y-21971D01*
X75385Y-21970D01*
X75385Y-28099D01*
X74703Y-28781D01*
X74703Y-28737D01*
X74699Y-28727D01*
X74699Y-22908D01*
X74409Y-22618D01*
X74119Y-22908D01*
X74142Y-22999D01*
X74335Y-23066D01*
X74539Y-23055D01*
X74676Y-22999D01*
X74699Y-22908D01*
X74699Y-28727D01*
X74697Y-28722D01*
X74697Y-27925D01*
X74686Y-27712D01*
X74626Y-27565D01*
X74532Y-27538D01*
X74225Y-27846D01*
X74532Y-28154D01*
X74626Y-28127D01*
X74697Y-27925D01*
X74697Y-28722D01*
X74619Y-28535D01*
X74465Y-28381D01*
X74373Y-28343D01*
X74435Y-28318D01*
X74462Y-28224D01*
X74189Y-27952D01*
X74154Y-27917D01*
X74083Y-27846D01*
X74154Y-27775D01*
X74189Y-27740D01*
X74462Y-27468D01*
X74435Y-27374D01*
X74233Y-27303D01*
X74020Y-27314D01*
X73975Y-27332D01*
X73975Y-25130D01*
X74280Y-24824D01*
X74282Y-24823D01*
X74283Y-24823D01*
X74351Y-24721D01*
X74375Y-24600D01*
X74375Y-24090D01*
X74375Y-23640D01*
X74374Y-23639D01*
X74375Y-23639D01*
X74351Y-23519D01*
X74283Y-23417D01*
X74280Y-23415D01*
X74073Y-23207D01*
X73971Y-23139D01*
X73850Y-23115D01*
X72337Y-23115D01*
X72337Y-22908D01*
X72047Y-22618D01*
X71757Y-22908D01*
X71780Y-22999D01*
X71973Y-23066D01*
X72177Y-23055D01*
X72314Y-22999D01*
X72337Y-22908D01*
X72337Y-23115D01*
X71570Y-23115D01*
X71449Y-23139D01*
X71347Y-23207D01*
X71345Y-23209D01*
X71143Y-23411D01*
X71075Y-23513D01*
X71051Y-23634D01*
X71051Y-23981D01*
X70921Y-24111D01*
X70862Y-24251D01*
X70818Y-24142D01*
X70727Y-24119D01*
X70656Y-24190D01*
X70656Y-24048D01*
X70633Y-23957D01*
X70440Y-23890D01*
X70236Y-23901D01*
X70099Y-23957D01*
X70076Y-24048D01*
X70366Y-24338D01*
X70656Y-24048D01*
X70656Y-24190D01*
X70437Y-24409D01*
X70727Y-24699D01*
X70818Y-24676D01*
X70859Y-24557D01*
X70921Y-24706D01*
X70999Y-24784D01*
X70689Y-25095D01*
X70656Y-25095D01*
X70656Y-24770D01*
X70366Y-24480D01*
X70076Y-24770D01*
X70099Y-24861D01*
X70292Y-24928D01*
X70496Y-24917D01*
X70633Y-24861D01*
X70656Y-24770D01*
X70656Y-25095D01*
X67280Y-25095D01*
X65843Y-23657D01*
X65741Y-23589D01*
X65620Y-23565D01*
X64070Y-23565D01*
X64070Y-22908D01*
X63780Y-22618D01*
X63490Y-22908D01*
X63513Y-22999D01*
X63706Y-23066D01*
X63910Y-23055D01*
X64047Y-22999D01*
X64070Y-22908D01*
X64070Y-23565D01*
X61707Y-23565D01*
X61707Y-22908D01*
X61417Y-22618D01*
X61127Y-22908D01*
X61150Y-22999D01*
X61343Y-23066D01*
X61547Y-23055D01*
X61684Y-22999D01*
X61707Y-22908D01*
X61707Y-23565D01*
X61120Y-23565D01*
X60999Y-23589D01*
X60897Y-23657D01*
X60670Y-23884D01*
X60632Y-23884D01*
X60439Y-23964D01*
X60291Y-24111D01*
X60232Y-24251D01*
X60188Y-24142D01*
X60097Y-24119D01*
X60026Y-24190D01*
X60026Y-24048D01*
X60003Y-23957D01*
X59810Y-23890D01*
X59606Y-23901D01*
X59469Y-23957D01*
X59446Y-24048D01*
X59736Y-24338D01*
X60026Y-24048D01*
X60026Y-24190D01*
X59807Y-24409D01*
X60097Y-24699D01*
X60188Y-24676D01*
X60229Y-24557D01*
X60291Y-24706D01*
X60438Y-24854D01*
X60631Y-24934D01*
X60840Y-24934D01*
X61033Y-24854D01*
X61181Y-24707D01*
X61236Y-24573D01*
X61291Y-24706D01*
X61438Y-24854D01*
X61631Y-24934D01*
X61738Y-24934D01*
X61987Y-25183D01*
X62089Y-25251D01*
X62090Y-25251D01*
X62210Y-25275D01*
X65757Y-25275D01*
X66497Y-26015D01*
X66391Y-26015D01*
X66193Y-25817D01*
X66091Y-25749D01*
X65970Y-25725D01*
X65746Y-25725D01*
X65659Y-25638D01*
X65485Y-25565D01*
X65296Y-25565D01*
X65121Y-25637D01*
X64988Y-25771D01*
X64915Y-25945D01*
X64915Y-26134D01*
X64987Y-26309D01*
X65121Y-26442D01*
X65295Y-26515D01*
X65427Y-26515D01*
X65415Y-26545D01*
X65415Y-26734D01*
X65487Y-26909D01*
X65621Y-27042D01*
X65795Y-27115D01*
X65919Y-27115D01*
X65995Y-27190D01*
X65997Y-27193D01*
X66099Y-27261D01*
X66220Y-27285D01*
X68659Y-27285D01*
X68799Y-27424D01*
X68689Y-27535D01*
X68654Y-27619D01*
X68619Y-27535D01*
X68465Y-27381D01*
X68263Y-27297D01*
X68045Y-27297D01*
X67843Y-27381D01*
X67693Y-27531D01*
X66762Y-27531D01*
X66639Y-27408D01*
X66465Y-27335D01*
X66276Y-27335D01*
X66101Y-27407D01*
X65968Y-27541D01*
X65895Y-27715D01*
X65895Y-27904D01*
X65967Y-28079D01*
X66101Y-28212D01*
X66275Y-28285D01*
X66464Y-28285D01*
X66639Y-28213D01*
X66690Y-28161D01*
X67693Y-28161D01*
X67829Y-28297D01*
X67805Y-28297D01*
X67713Y-28335D01*
X67643Y-28405D01*
X67605Y-28496D01*
X67605Y-28595D01*
X67605Y-28742D01*
X61540Y-28742D01*
X61555Y-28721D01*
X61558Y-28702D01*
X61785Y-28702D01*
X61877Y-28664D01*
X61947Y-28594D01*
X61985Y-28503D01*
X61985Y-28404D01*
X61985Y-27404D01*
X61947Y-27312D01*
X61877Y-27242D01*
X61786Y-27204D01*
X61687Y-27204D01*
X60687Y-27204D01*
X60595Y-27242D01*
X60525Y-27312D01*
X60487Y-27403D01*
X60487Y-27502D01*
X60487Y-28430D01*
X60026Y-28430D01*
X60026Y-24770D01*
X59736Y-24480D01*
X59446Y-24770D01*
X59469Y-24861D01*
X59662Y-24928D01*
X59866Y-24917D01*
X60003Y-24861D01*
X60026Y-24770D01*
X60026Y-28430D01*
X59975Y-28430D01*
X59838Y-28430D01*
X59846Y-28422D01*
X59805Y-28381D01*
X59870Y-28353D01*
X59975Y-28080D01*
X59967Y-27788D01*
X59870Y-27553D01*
X59756Y-27503D01*
X59307Y-27953D01*
X59236Y-28024D01*
X59165Y-27953D01*
X59236Y-27882D01*
X59271Y-27847D01*
X59686Y-27433D01*
X59636Y-27319D01*
X59389Y-27224D01*
X59443Y-27170D01*
X59443Y-27169D01*
X59444Y-27169D01*
X59484Y-27129D01*
X59559Y-27018D01*
X59559Y-27017D01*
X59585Y-26885D01*
X59585Y-26100D01*
X59585Y-25980D01*
X59559Y-25848D01*
X59484Y-25736D01*
X58682Y-24934D01*
X58840Y-24934D01*
X59033Y-24854D01*
X59181Y-24707D01*
X59239Y-24566D01*
X59284Y-24676D01*
X59375Y-24699D01*
X59665Y-24409D01*
X59375Y-24119D01*
X59284Y-24142D01*
X59242Y-24260D01*
X59181Y-24112D01*
X59081Y-24011D01*
X59081Y-22892D01*
X59633Y-22892D01*
X59765Y-22866D01*
X59877Y-22791D01*
X60283Y-22385D01*
X60928Y-22385D01*
X60898Y-22473D01*
X60909Y-22677D01*
X60965Y-22814D01*
X61056Y-22837D01*
X61311Y-22582D01*
X61346Y-22547D01*
X61417Y-22476D01*
X61488Y-22547D01*
X61523Y-22582D01*
X61778Y-22837D01*
X61869Y-22814D01*
X61936Y-22621D01*
X61925Y-22417D01*
X61911Y-22385D01*
X63291Y-22385D01*
X63261Y-22473D01*
X63272Y-22677D01*
X63328Y-22814D01*
X63419Y-22837D01*
X63674Y-22582D01*
X63709Y-22547D01*
X63780Y-22476D01*
X63851Y-22547D01*
X63886Y-22582D01*
X64141Y-22837D01*
X64232Y-22814D01*
X64299Y-22621D01*
X64288Y-22417D01*
X64274Y-22385D01*
X64460Y-22385D01*
X64592Y-22359D01*
X64704Y-22284D01*
X64744Y-22244D01*
X64819Y-22133D01*
X64819Y-22132D01*
X64845Y-22000D01*
X64845Y-21040D01*
X64819Y-20908D01*
X64819Y-20907D01*
X64744Y-20796D01*
X64434Y-20486D01*
X64322Y-20411D01*
X64190Y-20385D01*
X63393Y-20385D01*
X63266Y-20258D01*
X63374Y-20151D01*
X63457Y-19951D01*
X63457Y-19735D01*
X63374Y-19535D01*
X63259Y-19420D01*
X63344Y-19364D01*
X63827Y-18881D01*
X63902Y-18769D01*
X63928Y-18637D01*
X63928Y-18259D01*
X64044Y-18143D01*
X64127Y-17943D01*
X64127Y-17727D01*
X64044Y-17527D01*
X63891Y-17374D01*
X63691Y-17291D01*
X63475Y-17291D01*
X63275Y-17374D01*
X63122Y-17527D01*
X63039Y-17727D01*
X63039Y-17943D01*
X63122Y-18143D01*
X63238Y-18259D01*
X63238Y-18494D01*
X62957Y-18775D01*
X61445Y-18775D01*
X61445Y-17913D01*
X61433Y-17701D01*
X61373Y-17556D01*
X61280Y-17531D01*
X61209Y-17602D01*
X61209Y-17460D01*
X61184Y-17367D01*
X60983Y-17295D01*
X60771Y-17307D01*
X60626Y-17367D01*
X60601Y-17460D01*
X60905Y-17764D01*
X61209Y-17460D01*
X61209Y-17602D01*
X60976Y-17835D01*
X61280Y-18139D01*
X61373Y-18114D01*
X61445Y-17913D01*
X61445Y-18775D01*
X61209Y-18775D01*
X61209Y-18210D01*
X60905Y-17906D01*
X60834Y-17977D01*
X60834Y-17835D01*
X60530Y-17531D01*
X60437Y-17556D01*
X60365Y-17757D01*
X60377Y-17969D01*
X60437Y-18114D01*
X60530Y-18139D01*
X60834Y-17835D01*
X60834Y-17977D01*
X60601Y-18210D01*
X60626Y-18303D01*
X60827Y-18375D01*
X61039Y-18363D01*
X61184Y-18303D01*
X61209Y-18210D01*
X61209Y-18775D01*
X59850Y-18775D01*
X59718Y-18801D01*
X59606Y-18876D01*
X59605Y-18876D01*
X59605Y-18877D01*
X59326Y-19156D01*
X59251Y-19268D01*
X59225Y-19400D01*
X59225Y-19402D01*
X59212Y-19389D01*
X59212Y-18249D01*
X59259Y-18296D01*
X59459Y-18379D01*
X59675Y-18379D01*
X59875Y-18296D01*
X60028Y-18143D01*
X60111Y-17943D01*
X60111Y-17727D01*
X60028Y-17527D01*
X59875Y-17374D01*
X59794Y-17340D01*
X59793Y-17339D01*
X59790Y-17334D01*
X59787Y-17332D01*
X59180Y-16725D01*
X60919Y-16725D01*
X61765Y-17570D01*
X61700Y-17727D01*
X61700Y-17943D01*
X61783Y-18143D01*
X61936Y-18296D01*
X62136Y-18379D01*
X62352Y-18379D01*
X62552Y-18296D01*
X62705Y-18143D01*
X62788Y-17943D01*
X62788Y-17727D01*
X62705Y-17527D01*
X62552Y-17374D01*
X62393Y-17308D01*
X61273Y-16187D01*
X61171Y-16119D01*
X61050Y-16095D01*
X56230Y-16095D01*
X56229Y-16095D01*
X56109Y-16119D01*
X56065Y-16147D01*
X56148Y-15944D01*
X56145Y-15534D01*
X55995Y-15172D01*
X55851Y-15086D01*
X55224Y-15713D01*
X55189Y-15748D01*
X55118Y-15819D01*
X55083Y-15854D01*
X54456Y-16481D01*
X54542Y-16625D01*
X54922Y-16778D01*
X55332Y-16775D01*
X55481Y-16713D01*
X55027Y-17167D01*
X54959Y-17269D01*
X54935Y-17390D01*
X54935Y-27750D01*
X54959Y-27871D01*
X55027Y-27973D01*
X55779Y-28724D01*
X55753Y-28750D01*
X55694Y-28651D01*
X55314Y-28498D01*
X54904Y-28501D01*
X54542Y-28651D01*
X54456Y-28795D01*
X55083Y-29422D01*
X55118Y-29457D01*
X55189Y-29528D01*
X55224Y-29563D01*
X55851Y-30190D01*
X55995Y-30104D01*
X56148Y-29724D01*
X56145Y-29314D01*
X55995Y-28952D01*
X55895Y-28892D01*
X55921Y-28866D01*
X57235Y-30180D01*
X57237Y-30183D01*
X57339Y-30251D01*
X57340Y-30251D01*
X57460Y-30275D01*
X70040Y-30275D01*
X70160Y-30251D01*
X70161Y-30251D01*
X70263Y-30183D01*
X71050Y-29395D01*
X71263Y-29395D01*
X71413Y-29332D01*
X71427Y-29353D01*
X71685Y-29610D01*
X71687Y-29613D01*
X71789Y-29681D01*
X71910Y-29705D01*
X74540Y-29705D01*
X74660Y-29681D01*
X74661Y-29681D01*
X74763Y-29613D01*
X76033Y-28343D01*
X76101Y-28241D01*
X76101Y-28240D01*
X76125Y-28120D01*
X76125Y-28517D01*
X75802Y-28651D01*
X75716Y-28795D01*
X76378Y-29457D01*
X77040Y-28795D01*
X77040Y-28937D01*
X76449Y-29528D01*
X77111Y-30190D01*
X77234Y-30116D01*
X77234Y-30384D01*
X77234Y-30384D01*
G37*
G54D24*
X77234Y-30384D02*
X76966Y-30384D01*
X77040Y-30261D01*
X76378Y-29599D01*
X76307Y-29670D01*
X76307Y-29528D01*
X75645Y-28866D01*
X75501Y-28952D01*
X75348Y-29332D01*
X75351Y-29742D01*
X75501Y-30104D01*
X75645Y-30190D01*
X76307Y-29528D01*
X76307Y-29670D01*
X75716Y-30261D01*
X75789Y-30384D01*
X56148Y-30384D01*
X55706Y-30384D01*
X55780Y-30261D01*
X55118Y-29599D01*
X54456Y-30261D01*
X54529Y-30384D01*
X54331Y-30384D01*
X54262Y-30384D01*
X54262Y-30116D01*
X54385Y-30190D01*
X55047Y-29528D01*
X54385Y-28866D01*
X54262Y-28939D01*
X54262Y-16336D01*
X54385Y-16410D01*
X55047Y-15748D01*
X54385Y-15086D01*
X54262Y-15159D01*
X54262Y-14892D01*
X54529Y-14892D01*
X54456Y-15015D01*
X55118Y-15677D01*
X55780Y-15015D01*
X55706Y-14892D01*
X75789Y-14892D01*
X75716Y-15015D01*
X76378Y-15677D01*
X77040Y-15015D01*
X76966Y-14892D01*
X77234Y-14892D01*
X77234Y-15159D01*
X77111Y-15086D01*
X76449Y-15748D01*
X77111Y-16410D01*
X77234Y-16336D01*
X77234Y-28939D01*
X77111Y-28866D01*
X77040Y-28937D01*
X77040Y-28795D01*
X77040Y-16481D01*
X76378Y-15819D01*
X76307Y-15890D01*
X76307Y-15748D01*
X75645Y-15086D01*
X75501Y-15172D01*
X75348Y-15552D01*
X75351Y-15962D01*
X75501Y-16324D01*
X75645Y-16410D01*
X76307Y-15748D01*
X76307Y-15890D01*
X75716Y-16481D01*
X75802Y-16625D01*
X76182Y-16778D01*
X76592Y-16775D01*
X76954Y-16625D01*
X77040Y-16481D01*
X77040Y-28795D01*
X76954Y-28651D01*
X76574Y-28498D01*
X76164Y-28501D01*
X76125Y-28517D01*
X76125Y-28120D01*
X76125Y-17770D01*
X76124Y-17769D01*
X76125Y-17769D01*
X76101Y-17649D01*
X76033Y-17547D01*
X76030Y-17545D01*
X75123Y-16637D01*
X75021Y-16569D01*
X74900Y-16545D01*
X73849Y-16545D01*
X73848Y-16545D01*
X73728Y-16569D01*
X73626Y-16637D01*
X73624Y-16639D01*
X72972Y-17291D01*
X72766Y-17291D01*
X72566Y-17374D01*
X72413Y-17527D01*
X72330Y-17727D01*
X72330Y-17943D01*
X72413Y-18143D01*
X72566Y-18296D01*
X72766Y-18379D01*
X72982Y-18379D01*
X73182Y-18296D01*
X73335Y-18143D01*
X73418Y-17943D01*
X73418Y-17736D01*
X73979Y-17175D01*
X74769Y-17175D01*
X75495Y-17900D01*
X75495Y-27989D01*
X75385Y-28099D01*
X75385Y-21970D01*
X75385Y-21120D01*
X75359Y-20988D01*
X75284Y-20876D01*
X74994Y-20586D01*
X74882Y-20511D01*
X74750Y-20485D01*
X74102Y-20485D01*
X73888Y-20270D01*
X73888Y-20267D01*
X74004Y-20151D01*
X74087Y-19951D01*
X74087Y-19735D01*
X74004Y-19535D01*
X73944Y-19475D01*
X73980Y-19475D01*
X74112Y-19449D01*
X74224Y-19374D01*
X74457Y-19141D01*
X74532Y-19030D01*
X74532Y-19029D01*
X74558Y-18897D01*
X74558Y-18259D01*
X74674Y-18143D01*
X74757Y-17943D01*
X74757Y-17727D01*
X74674Y-17527D01*
X74521Y-17374D01*
X74321Y-17291D01*
X74105Y-17291D01*
X73905Y-17374D01*
X73752Y-17527D01*
X73669Y-17727D01*
X73669Y-17943D01*
X73752Y-18143D01*
X73868Y-18259D01*
X73868Y-18754D01*
X73837Y-18785D01*
X72075Y-18785D01*
X72075Y-17913D01*
X72063Y-17701D01*
X72003Y-17556D01*
X71910Y-17531D01*
X71839Y-17602D01*
X71839Y-17460D01*
X71814Y-17367D01*
X71613Y-17295D01*
X71401Y-17307D01*
X71256Y-17367D01*
X71231Y-17460D01*
X71535Y-17764D01*
X71839Y-17460D01*
X71839Y-17602D01*
X71606Y-17835D01*
X71910Y-18139D01*
X72003Y-18114D01*
X72075Y-17913D01*
X72075Y-18785D01*
X71839Y-18785D01*
X71839Y-18210D01*
X71535Y-17906D01*
X71464Y-17977D01*
X71464Y-17835D01*
X71160Y-17531D01*
X71067Y-17556D01*
X70995Y-17757D01*
X71007Y-17969D01*
X71067Y-18114D01*
X71160Y-18139D01*
X71464Y-17835D01*
X71464Y-17977D01*
X71231Y-18210D01*
X71256Y-18303D01*
X71457Y-18375D01*
X71669Y-18363D01*
X71814Y-18303D01*
X71839Y-18210D01*
X71839Y-18785D01*
X70710Y-18785D01*
X70578Y-18811D01*
X70466Y-18886D01*
X69966Y-19386D01*
X69915Y-19462D01*
X69842Y-19389D01*
X69842Y-18249D01*
X69889Y-18296D01*
X70089Y-18379D01*
X70305Y-18379D01*
X70505Y-18296D01*
X70658Y-18143D01*
X70741Y-17943D01*
X70741Y-17727D01*
X70658Y-17527D01*
X70508Y-17377D01*
X70488Y-17276D01*
X70420Y-17174D01*
X70417Y-17172D01*
X69523Y-16277D01*
X69421Y-16209D01*
X69300Y-16185D01*
X66920Y-16185D01*
X66799Y-16209D01*
X66697Y-16277D01*
X65127Y-17847D01*
X65059Y-17949D01*
X65035Y-18070D01*
X65035Y-21513D01*
X64948Y-21601D01*
X64875Y-21775D01*
X64875Y-21964D01*
X64947Y-22139D01*
X65081Y-22272D01*
X65255Y-22345D01*
X65444Y-22345D01*
X65619Y-22273D01*
X65752Y-22139D01*
X65825Y-21965D01*
X65825Y-21776D01*
X65812Y-21745D01*
X65905Y-21745D01*
X65957Y-21869D01*
X66091Y-22002D01*
X66265Y-22075D01*
X66454Y-22075D01*
X66629Y-22003D01*
X66762Y-21869D01*
X66825Y-21717D01*
X66878Y-21844D01*
X67025Y-21992D01*
X67158Y-22047D01*
X67026Y-22102D01*
X66878Y-22249D01*
X66798Y-22442D01*
X66798Y-22651D01*
X66878Y-22844D01*
X67025Y-22992D01*
X67218Y-23072D01*
X67427Y-23072D01*
X67620Y-22992D01*
X67720Y-22892D01*
X67804Y-22892D01*
X67844Y-22932D01*
X67844Y-24079D01*
X67842Y-24084D01*
X67842Y-24183D01*
X67842Y-24733D01*
X67880Y-24825D01*
X67950Y-24895D01*
X68041Y-24933D01*
X68140Y-24933D01*
X68690Y-24933D01*
X68782Y-24895D01*
X68852Y-24825D01*
X68890Y-24734D01*
X68890Y-24635D01*
X68890Y-24631D01*
X68921Y-24706D01*
X69068Y-24854D01*
X69261Y-24934D01*
X69470Y-24934D01*
X69663Y-24854D01*
X69811Y-24707D01*
X69869Y-24566D01*
X69914Y-24676D01*
X70005Y-24699D01*
X70295Y-24409D01*
X70005Y-24119D01*
X69914Y-24142D01*
X69872Y-24260D01*
X69811Y-24112D01*
X69711Y-24011D01*
X69711Y-22869D01*
X69736Y-22845D01*
X69816Y-22652D01*
X69816Y-22510D01*
X69941Y-22385D01*
X71558Y-22385D01*
X71528Y-22473D01*
X71539Y-22677D01*
X71595Y-22814D01*
X71686Y-22837D01*
X71941Y-22582D01*
X71976Y-22547D01*
X72047Y-22476D01*
X72118Y-22547D01*
X72153Y-22582D01*
X72408Y-22837D01*
X72499Y-22814D01*
X72566Y-22621D01*
X72555Y-22417D01*
X72541Y-22385D01*
X73920Y-22385D01*
X73890Y-22473D01*
X73901Y-22677D01*
X73957Y-22814D01*
X74048Y-22837D01*
X74303Y-22582D01*
X74338Y-22547D01*
X74409Y-22476D01*
X74480Y-22547D01*
X74515Y-22582D01*
X74770Y-22837D01*
X74861Y-22814D01*
X74928Y-22621D01*
X74917Y-22417D01*
X74903Y-22385D01*
X74970Y-22385D01*
X75102Y-22359D01*
X75214Y-22284D01*
X75283Y-22215D01*
X75283Y-22214D01*
X75284Y-22214D01*
X75358Y-22103D01*
X75359Y-22102D01*
X75384Y-21971D01*
X75385Y-21970D01*
X75385Y-28099D01*
X74703Y-28781D01*
X74703Y-28737D01*
X74699Y-28727D01*
X74699Y-22908D01*
X74409Y-22618D01*
X74119Y-22908D01*
X74142Y-22999D01*
X74335Y-23066D01*
X74539Y-23055D01*
X74676Y-22999D01*
X74699Y-22908D01*
X74699Y-28727D01*
X74697Y-28722D01*
X74697Y-27925D01*
X74686Y-27712D01*
X74626Y-27565D01*
X74532Y-27538D01*
X74225Y-27846D01*
X74532Y-28154D01*
X74626Y-28127D01*
X74697Y-27925D01*
X74697Y-28722D01*
X74619Y-28535D01*
X74465Y-28381D01*
X74373Y-28343D01*
X74435Y-28318D01*
X74462Y-28224D01*
X74189Y-27952D01*
X74154Y-27917D01*
X74083Y-27846D01*
X74154Y-27775D01*
X74189Y-27740D01*
X74462Y-27468D01*
X74435Y-27374D01*
X74233Y-27303D01*
X74020Y-27314D01*
X73975Y-27332D01*
X73975Y-25130D01*
X74280Y-24824D01*
X74282Y-24823D01*
X74283Y-24823D01*
X74351Y-24721D01*
X74375Y-24600D01*
X74375Y-24090D01*
X74375Y-23640D01*
X74374Y-23639D01*
X74375Y-23639D01*
X74351Y-23519D01*
X74283Y-23417D01*
X74280Y-23415D01*
X74073Y-23207D01*
X73971Y-23139D01*
X73850Y-23115D01*
X72337Y-23115D01*
X72337Y-22908D01*
X72047Y-22618D01*
X71757Y-22908D01*
X71780Y-22999D01*
X71973Y-23066D01*
X72177Y-23055D01*
X72314Y-22999D01*
X72337Y-22908D01*
X72337Y-23115D01*
X71570Y-23115D01*
X71449Y-23139D01*
X71347Y-23207D01*
X71345Y-23209D01*
X71143Y-23411D01*
X71075Y-23513D01*
X71051Y-23634D01*
X71051Y-23981D01*
X70921Y-24111D01*
X70862Y-24251D01*
X70818Y-24142D01*
X70727Y-24119D01*
X70656Y-24190D01*
X70656Y-24048D01*
X70633Y-23957D01*
X70440Y-23890D01*
X70236Y-23901D01*
X70099Y-23957D01*
X70076Y-24048D01*
X70366Y-24338D01*
X70656Y-24048D01*
X70656Y-24190D01*
X70437Y-24409D01*
X70727Y-24699D01*
X70818Y-24676D01*
X70859Y-24557D01*
X70921Y-24706D01*
X70999Y-24784D01*
X70689Y-25095D01*
X70656Y-25095D01*
X70656Y-24770D01*
X70366Y-24480D01*
X70076Y-24770D01*
X70099Y-24861D01*
X70292Y-24928D01*
X70496Y-24917D01*
X70633Y-24861D01*
X70656Y-24770D01*
X70656Y-25095D01*
X67280Y-25095D01*
X65843Y-23657D01*
X65741Y-23589D01*
X65620Y-23565D01*
X64070Y-23565D01*
X64070Y-22908D01*
X63780Y-22618D01*
X63490Y-22908D01*
X63513Y-22999D01*
X63706Y-23066D01*
X63910Y-23055D01*
X64047Y-22999D01*
X64070Y-22908D01*
X64070Y-23565D01*
X61707Y-23565D01*
X61707Y-22908D01*
X61417Y-22618D01*
X61127Y-22908D01*
X61150Y-22999D01*
X61343Y-23066D01*
X61547Y-23055D01*
X61684Y-22999D01*
X61707Y-22908D01*
X61707Y-23565D01*
X61120Y-23565D01*
X60999Y-23589D01*
X60897Y-23657D01*
X60670Y-23884D01*
X60632Y-23884D01*
X60439Y-23964D01*
X60291Y-24111D01*
X60232Y-24251D01*
X60188Y-24142D01*
X60097Y-24119D01*
X60026Y-24190D01*
X60026Y-24048D01*
X60003Y-23957D01*
X59810Y-23890D01*
X59606Y-23901D01*
X59469Y-23957D01*
X59446Y-24048D01*
X59736Y-24338D01*
X60026Y-24048D01*
X60026Y-24190D01*
X59807Y-24409D01*
X60097Y-24699D01*
X60188Y-24676D01*
X60229Y-24557D01*
X60291Y-24706D01*
X60438Y-24854D01*
X60631Y-24934D01*
X60840Y-24934D01*
X61033Y-24854D01*
X61181Y-24707D01*
X61236Y-24573D01*
X61291Y-24706D01*
X61438Y-24854D01*
X61631Y-24934D01*
X61738Y-24934D01*
X61987Y-25183D01*
X62089Y-25251D01*
X62090Y-25251D01*
X62210Y-25275D01*
X65757Y-25275D01*
X66497Y-26015D01*
X66391Y-26015D01*
X66193Y-25817D01*
X66091Y-25749D01*
X65970Y-25725D01*
X65746Y-25725D01*
X65659Y-25638D01*
X65485Y-25565D01*
X65296Y-25565D01*
X65121Y-25637D01*
X64988Y-25771D01*
X64915Y-25945D01*
X64915Y-26134D01*
X64987Y-26309D01*
X65121Y-26442D01*
X65295Y-26515D01*
X65427Y-26515D01*
X65415Y-26545D01*
X65415Y-26734D01*
X65487Y-26909D01*
X65621Y-27042D01*
X65795Y-27115D01*
X65919Y-27115D01*
X65995Y-27190D01*
X65997Y-27193D01*
X66099Y-27261D01*
X66220Y-27285D01*
X68659Y-27285D01*
X68799Y-27424D01*
X68689Y-27535D01*
X68654Y-27619D01*
X68619Y-27535D01*
X68465Y-27381D01*
X68263Y-27297D01*
X68045Y-27297D01*
X67843Y-27381D01*
X67693Y-27531D01*
X66762Y-27531D01*
X66639Y-27408D01*
X66465Y-27335D01*
X66276Y-27335D01*
X66101Y-27407D01*
X65968Y-27541D01*
X65895Y-27715D01*
X65895Y-27904D01*
X65967Y-28079D01*
X66101Y-28212D01*
X66275Y-28285D01*
X66464Y-28285D01*
X66639Y-28213D01*
X66690Y-28161D01*
X67693Y-28161D01*
X67829Y-28297D01*
X67805Y-28297D01*
X67713Y-28335D01*
X67643Y-28405D01*
X67605Y-28496D01*
X67605Y-28595D01*
X67605Y-28742D01*
X61540Y-28742D01*
X61555Y-28721D01*
X61558Y-28702D01*
X61785Y-28702D01*
X61877Y-28664D01*
X61947Y-28594D01*
X61985Y-28503D01*
X61985Y-28404D01*
X61985Y-27404D01*
X61947Y-27312D01*
X61877Y-27242D01*
X61786Y-27204D01*
X61687Y-27204D01*
X60687Y-27204D01*
X60595Y-27242D01*
X60525Y-27312D01*
X60487Y-27403D01*
X60487Y-27502D01*
X60487Y-28430D01*
X60026Y-28430D01*
X60026Y-24770D01*
X59736Y-24480D01*
X59446Y-24770D01*
X59469Y-24861D01*
X59662Y-24928D01*
X59866Y-24917D01*
X60003Y-24861D01*
X60026Y-24770D01*
X60026Y-28430D01*
X59975Y-28430D01*
X59838Y-28430D01*
X59846Y-28422D01*
X59805Y-28381D01*
X59870Y-28353D01*
X59975Y-28080D01*
X59967Y-27788D01*
X59870Y-27553D01*
X59756Y-27503D01*
X59307Y-27953D01*
X59236Y-28024D01*
X59165Y-27953D01*
X59236Y-27882D01*
X59271Y-27847D01*
X59686Y-27433D01*
X59636Y-27319D01*
X59389Y-27224D01*
X59443Y-27170D01*
X59443Y-27169D01*
X59444Y-27169D01*
X59484Y-27129D01*
X59559Y-27018D01*
X59559Y-27017D01*
X59585Y-26885D01*
X59585Y-26100D01*
X59585Y-25980D01*
X59559Y-25848D01*
X59484Y-25736D01*
X58682Y-24934D01*
X58840Y-24934D01*
X59033Y-24854D01*
X59181Y-24707D01*
X59239Y-24566D01*
X59284Y-24676D01*
X59375Y-24699D01*
X59665Y-24409D01*
X59375Y-24119D01*
X59284Y-24142D01*
X59242Y-24260D01*
X59181Y-24112D01*
X59081Y-24011D01*
X59081Y-22892D01*
X59633Y-22892D01*
X59765Y-22866D01*
X59877Y-22791D01*
X60283Y-22385D01*
X60928Y-22385D01*
X60898Y-22473D01*
X60909Y-22677D01*
X60965Y-22814D01*
X61056Y-22837D01*
X61311Y-22582D01*
X61346Y-22547D01*
X61417Y-22476D01*
X61488Y-22547D01*
X61523Y-22582D01*
X61778Y-22837D01*
X61869Y-22814D01*
X61936Y-22621D01*
X61925Y-22417D01*
X61911Y-22385D01*
X63291Y-22385D01*
X63261Y-22473D01*
X63272Y-22677D01*
X63328Y-22814D01*
X63419Y-22837D01*
X63674Y-22582D01*
X63709Y-22547D01*
X63780Y-22476D01*
X63851Y-22547D01*
X63886Y-22582D01*
X64141Y-22837D01*
X64232Y-22814D01*
X64299Y-22621D01*
X64288Y-22417D01*
X64274Y-22385D01*
X64460Y-22385D01*
X64592Y-22359D01*
X64704Y-22284D01*
X64744Y-22244D01*
X64819Y-22133D01*
X64819Y-22132D01*
X64845Y-22000D01*
X64845Y-21040D01*
X64819Y-20908D01*
X64819Y-20907D01*
X64744Y-20796D01*
X64434Y-20486D01*
X64322Y-20411D01*
X64190Y-20385D01*
X63393Y-20385D01*
X63266Y-20258D01*
X63374Y-20151D01*
X63457Y-19951D01*
X63457Y-19735D01*
X63374Y-19535D01*
X63259Y-19420D01*
X63344Y-19364D01*
X63827Y-18881D01*
X63902Y-18769D01*
X63928Y-18637D01*
X63928Y-18259D01*
X64044Y-18143D01*
X64127Y-17943D01*
X64127Y-17727D01*
X64044Y-17527D01*
X63891Y-17374D01*
X63691Y-17291D01*
X63475Y-17291D01*
X63275Y-17374D01*
X63122Y-17527D01*
X63039Y-17727D01*
X63039Y-17943D01*
X63122Y-18143D01*
X63238Y-18259D01*
X63238Y-18494D01*
X62957Y-18775D01*
X61445Y-18775D01*
X61445Y-17913D01*
X61433Y-17701D01*
X61373Y-17556D01*
X61280Y-17531D01*
X61209Y-17602D01*
X61209Y-17460D01*
X61184Y-17367D01*
X60983Y-17295D01*
X60771Y-17307D01*
X60626Y-17367D01*
X60601Y-17460D01*
X60905Y-17764D01*
X61209Y-17460D01*
X61209Y-17602D01*
X60976Y-17835D01*
X61280Y-18139D01*
X61373Y-18114D01*
X61445Y-17913D01*
X61445Y-18775D01*
X61209Y-18775D01*
X61209Y-18210D01*
X60905Y-17906D01*
X60834Y-17977D01*
X60834Y-17835D01*
X60530Y-17531D01*
X60437Y-17556D01*
X60365Y-17757D01*
X60377Y-17969D01*
X60437Y-18114D01*
X60530Y-18139D01*
X60834Y-17835D01*
X60834Y-17977D01*
X60601Y-18210D01*
X60626Y-18303D01*
X60827Y-18375D01*
X61039Y-18363D01*
X61184Y-18303D01*
X61209Y-18210D01*
X61209Y-18775D01*
X59850Y-18775D01*
X59718Y-18801D01*
X59606Y-18876D01*
X59605Y-18876D01*
X59605Y-18877D01*
X59326Y-19156D01*
X59251Y-19268D01*
X59225Y-19400D01*
X59225Y-19402D01*
X59212Y-19389D01*
X59212Y-18249D01*
X59259Y-18296D01*
X59459Y-18379D01*
X59675Y-18379D01*
X59875Y-18296D01*
X60028Y-18143D01*
X60111Y-17943D01*
X60111Y-17727D01*
X60028Y-17527D01*
X59875Y-17374D01*
X59794Y-17340D01*
X59793Y-17339D01*
X59790Y-17334D01*
X59787Y-17332D01*
X59180Y-16725D01*
X60919Y-16725D01*
X61765Y-17570D01*
X61700Y-17727D01*
X61700Y-17943D01*
X61783Y-18143D01*
X61936Y-18296D01*
X62136Y-18379D01*
X62352Y-18379D01*
X62552Y-18296D01*
X62705Y-18143D01*
X62788Y-17943D01*
X62788Y-17727D01*
X62705Y-17527D01*
X62552Y-17374D01*
X62393Y-17308D01*
X61273Y-16187D01*
X61171Y-16119D01*
X61050Y-16095D01*
X56230Y-16095D01*
X56229Y-16095D01*
X56109Y-16119D01*
X56065Y-16147D01*
X56148Y-15944D01*
X56145Y-15534D01*
X55995Y-15172D01*
X55851Y-15086D01*
X55224Y-15713D01*
X55189Y-15748D01*
X55118Y-15819D01*
X55083Y-15854D01*
X54456Y-16481D01*
X54542Y-16625D01*
X54922Y-16778D01*
X55332Y-16775D01*
X55481Y-16713D01*
X55027Y-17167D01*
X54959Y-17269D01*
X54935Y-17390D01*
X54935Y-27750D01*
X54959Y-27871D01*
X55027Y-27973D01*
X55779Y-28724D01*
X55753Y-28750D01*
X55694Y-28651D01*
X55314Y-28498D01*
X54904Y-28501D01*
X54542Y-28651D01*
X54456Y-28795D01*
X55083Y-29422D01*
X55118Y-29457D01*
X55189Y-29528D01*
X55224Y-29563D01*
X55851Y-30190D01*
X55995Y-30104D01*
X56148Y-29724D01*
X56145Y-29314D01*
X55995Y-28952D01*
X55895Y-28892D01*
X55921Y-28866D01*
X57235Y-30180D01*
X57237Y-30183D01*
X57339Y-30251D01*
X57340Y-30251D01*
X57460Y-30275D01*
X70040Y-30275D01*
X70160Y-30251D01*
X70161Y-30251D01*
X70263Y-30183D01*
X71050Y-29395D01*
X71263Y-29395D01*
X71413Y-29332D01*
X71427Y-29353D01*
X71685Y-29610D01*
X71687Y-29613D01*
X71789Y-29681D01*
X71910Y-29705D01*
X74540Y-29705D01*
X74660Y-29681D01*
X74661Y-29681D01*
X74763Y-29613D01*
X76033Y-28343D01*
X76101Y-28241D01*
X76101Y-28240D01*
X76125Y-28120D01*
X76125Y-28517D01*
X75802Y-28651D01*
X75716Y-28795D01*
X76378Y-29457D01*
X77040Y-28795D01*
X77040Y-28937D01*
X76449Y-29528D01*
X77111Y-30190D01*
X77234Y-30116D01*
X77234Y-30384D01*
M02*
