M48
;DRILL file {Pcbnew (2013-mar-13)-testing} date Sun 19 May 2013 06:28:26 PM ART
;FORMAT={-:-/ absolute / inch / decimal}
FMAT,2
INCH,TZ
T1C0.032
T2C0.035
T3C0.039
T4C0.040
T5C0.060
T6C0.120
T7C0.150
%
G90
G05
M72
T1
X5.6693Y-2.1547
X5.6693Y-2.2547
X5.7736Y-2.4409
X5.8661Y-2.1547
X5.8661Y-2.2547
X5.8736Y-2.4409
X5.9736Y-2.4409
X6.0736Y-2.4409
X6.1417Y-2.1547
X6.1417Y-2.2547
X6.1736Y-2.4409
X6.2736Y-2.4409
X6.378Y-2.1547
X6.378Y-2.2547
X6.7323Y-2.1547
X6.7323Y-2.2547
X6.8366Y-2.4409
X6.9291Y-2.1547
X6.9291Y-2.2547
X6.9366Y-2.4409
X7.0366Y-2.4409
X7.1366Y-2.4409
X7.2047Y-2.1547
X7.2047Y-2.2547
X7.2366Y-2.4409
X7.3366Y-2.4409
X7.4409Y-2.1547
X7.4409Y-2.2547
T2
X6.215Y-2.077
X6.535Y-2.187
X6.539Y-2.604
X6.588Y-2.127
X6.589Y-2.664
X6.636Y-2.16
X6.637Y-2.781
X7.085Y-2.075
T3
X5.689Y-1.7835
X5.7559Y-1.9842
X5.8228Y-1.7835
X5.8897Y-1.9843
X5.9567Y-1.7835
X6.0236Y-1.9843
X6.0905Y-1.7835
X6.1575Y-1.9842
X6.2244Y-1.7835
X6.2913Y-1.9843
X6.3583Y-1.7835
X6.752Y-1.7835
X6.8189Y-1.9842
X6.8858Y-1.7835
X6.9527Y-1.9843
X7.0197Y-1.7835
X7.0866Y-1.9843
X7.1535Y-1.7835
X7.2205Y-1.9842
X7.2874Y-1.7835
X7.3543Y-1.9843
X7.4213Y-1.7835
T4
X6.8154Y-2.7846
X6.8154Y-2.8846
X6.9154Y-2.7846
X6.9154Y-2.8846
X7.0154Y-2.7846
X7.0154Y-2.8846
X7.1154Y-2.7846
X7.1154Y-2.8846
X7.2154Y-2.7846
X7.2154Y-2.8846
X7.3154Y-2.7846
X7.3154Y-2.8846
X7.4154Y-2.7846
X7.4154Y-2.8846
T5
X5.9236Y-2.7953
X6.1236Y-2.7953
T6
X5.5118Y-1.5748
X5.5118Y-2.9528
X7.6378Y-1.5748
X7.6378Y-2.9528
T7
X6.0236Y-1.0237
X7.0866Y-1.0237
T0
M30
