G04 (created by PCBNEW (2013-mar-13)-testing) date Sun 26 May 2013 10:53:20 PM ART*
%MOIN*%
G04 Gerber Fmt 3.4, Leading zero omitted, Abs format*
%FSLAX34Y34*%
G01*
G70*
G90*
G04 APERTURE LIST*
%ADD10C,0.005906*%
%ADD11R,0.060000X0.060000*%
%ADD12C,0.060000*%
%ADD13C,0.050000*%
%ADD14C,0.160000*%
%ADD15C,0.021000*%
%ADD16C,0.010000*%
G04 APERTURE END LIST*
G54D10*
G54D11*
X32500Y-15250D03*
G54D12*
X33500Y-15250D03*
X32500Y-16250D03*
X33500Y-16250D03*
X32500Y-17250D03*
X33500Y-17250D03*
X32500Y-18250D03*
X33500Y-18250D03*
X32500Y-19250D03*
X33500Y-19250D03*
G54D11*
X25750Y-14000D03*
G54D12*
X24750Y-14000D03*
X23750Y-14000D03*
G54D11*
X38000Y-21750D03*
G54D12*
X38000Y-22750D03*
X38000Y-23750D03*
G54D11*
X40500Y-14750D03*
G54D12*
X41500Y-14750D03*
X42500Y-14750D03*
G54D13*
X24250Y-18250D03*
X25250Y-17250D03*
X25250Y-18250D03*
X24250Y-17250D03*
X32500Y-23750D03*
X33500Y-22750D03*
X33500Y-23750D03*
X32500Y-22750D03*
X41000Y-18250D03*
X42000Y-17250D03*
X42000Y-18250D03*
X41000Y-17250D03*
G54D14*
X43000Y-23250D03*
X23250Y-23250D03*
G54D13*
X31100Y-19240D03*
X38500Y-18250D03*
X22500Y-13750D03*
X36000Y-22750D03*
X41500Y-13500D03*
X36820Y-17260D03*
X43750Y-20000D03*
X35500Y-16250D03*
G54D15*
X32500Y-19250D02*
X31110Y-19250D01*
X31110Y-19250D02*
X31100Y-19240D01*
X33500Y-18250D02*
X38500Y-18250D01*
X25750Y-14000D02*
X29000Y-14000D01*
X31250Y-16250D02*
X32500Y-16250D01*
X29000Y-14000D02*
X31250Y-16250D01*
X24750Y-14000D02*
X25750Y-14000D01*
X24750Y-13500D02*
X24750Y-14000D01*
X24500Y-13250D02*
X24750Y-13500D01*
X23000Y-13250D02*
X24500Y-13250D01*
X22500Y-13750D02*
X23000Y-13250D01*
X32500Y-17250D02*
X31250Y-17250D01*
X36000Y-22000D02*
X36000Y-22750D01*
X34750Y-20750D02*
X36000Y-22000D01*
X31250Y-20750D02*
X34750Y-20750D01*
X30500Y-20000D02*
X31250Y-20750D01*
X30500Y-18000D02*
X30500Y-20000D01*
X31250Y-17250D02*
X30500Y-18000D01*
X36000Y-22750D02*
X38000Y-22750D01*
X38000Y-22750D02*
X38000Y-21750D01*
X41500Y-13500D02*
X33250Y-13500D01*
X32500Y-14250D02*
X32500Y-15250D01*
X33250Y-13500D02*
X32500Y-14250D01*
X41500Y-14750D02*
X40500Y-14750D01*
X41500Y-13500D02*
X41500Y-14750D01*
X36810Y-17250D02*
X33500Y-17250D01*
X36820Y-17260D02*
X36810Y-17250D01*
X33500Y-15250D02*
X34250Y-14500D01*
X43750Y-16500D02*
X43750Y-20000D01*
X43000Y-15750D02*
X43750Y-16500D01*
X40000Y-15750D02*
X43000Y-15750D01*
X38750Y-14500D02*
X40000Y-15750D01*
X34250Y-14500D02*
X38750Y-14500D01*
X35500Y-16250D02*
X33500Y-16250D01*
G54D10*
G36*
X44700Y-25450D02*
X44260Y-25450D01*
X44260Y-19899D01*
X44182Y-19711D01*
X44115Y-19643D01*
X44115Y-16500D01*
X44115Y-16500D01*
X44115Y-16500D01*
X44087Y-16360D01*
X44008Y-16241D01*
X43258Y-15491D01*
X43139Y-15412D01*
X43054Y-15395D01*
X43054Y-14831D01*
X43043Y-14613D01*
X42981Y-14462D01*
X42885Y-14434D01*
X42815Y-14505D01*
X42815Y-14364D01*
X42787Y-14268D01*
X42581Y-14195D01*
X42363Y-14206D01*
X42212Y-14268D01*
X42184Y-14364D01*
X42500Y-14679D01*
X42815Y-14364D01*
X42815Y-14505D01*
X42570Y-14750D01*
X42885Y-15065D01*
X42981Y-15037D01*
X43054Y-14831D01*
X43054Y-15395D01*
X43000Y-15385D01*
X42815Y-15385D01*
X42815Y-15135D01*
X42500Y-14820D01*
X42184Y-15135D01*
X42212Y-15231D01*
X42418Y-15304D01*
X42636Y-15293D01*
X42787Y-15231D01*
X42815Y-15135D01*
X42815Y-15385D01*
X40151Y-15385D01*
X39008Y-14241D01*
X38889Y-14162D01*
X38750Y-14135D01*
X34250Y-14135D01*
X34250Y-14134D01*
X34110Y-14162D01*
X33991Y-14241D01*
X33543Y-14690D01*
X33389Y-14689D01*
X33183Y-14774D01*
X33059Y-14898D01*
X33020Y-14802D01*
X32947Y-14729D01*
X32865Y-14695D01*
X32865Y-14401D01*
X33401Y-13865D01*
X41135Y-13865D01*
X41135Y-14323D01*
X41072Y-14385D01*
X41054Y-14385D01*
X41020Y-14302D01*
X40947Y-14229D01*
X40851Y-14190D01*
X40748Y-14190D01*
X40148Y-14190D01*
X40052Y-14229D01*
X39979Y-14302D01*
X39940Y-14398D01*
X39940Y-14501D01*
X39940Y-15101D01*
X39979Y-15197D01*
X40052Y-15270D01*
X40148Y-15310D01*
X40251Y-15310D01*
X40851Y-15310D01*
X40947Y-15270D01*
X41020Y-15197D01*
X41054Y-15115D01*
X41073Y-15115D01*
X41182Y-15224D01*
X41388Y-15309D01*
X41610Y-15310D01*
X41816Y-15225D01*
X41974Y-15067D01*
X42002Y-14999D01*
X42018Y-15037D01*
X42114Y-15065D01*
X42429Y-14750D01*
X42114Y-14434D01*
X42018Y-14462D01*
X42004Y-14503D01*
X41975Y-14433D01*
X41865Y-14322D01*
X41865Y-13856D01*
X41932Y-13789D01*
X42009Y-13601D01*
X42010Y-13399D01*
X41932Y-13211D01*
X41789Y-13067D01*
X41601Y-12990D01*
X41399Y-12989D01*
X41211Y-13067D01*
X41143Y-13135D01*
X33250Y-13135D01*
X33250Y-13134D01*
X33110Y-13162D01*
X32991Y-13241D01*
X32241Y-13991D01*
X32162Y-14110D01*
X32135Y-14250D01*
X32135Y-14695D01*
X32052Y-14729D01*
X31979Y-14802D01*
X31940Y-14898D01*
X31940Y-15001D01*
X31940Y-15601D01*
X31979Y-15697D01*
X32052Y-15770D01*
X32148Y-15809D01*
X32072Y-15885D01*
X31401Y-15885D01*
X29258Y-13741D01*
X29139Y-13662D01*
X29000Y-13635D01*
X26304Y-13635D01*
X26270Y-13552D01*
X26197Y-13479D01*
X26101Y-13440D01*
X25998Y-13440D01*
X25398Y-13440D01*
X25302Y-13479D01*
X25229Y-13552D01*
X25195Y-13635D01*
X25176Y-13635D01*
X25115Y-13572D01*
X25115Y-13500D01*
X25115Y-13500D01*
X25115Y-13500D01*
X25087Y-13360D01*
X25008Y-13241D01*
X25008Y-13241D01*
X25008Y-13241D01*
X24758Y-12991D01*
X24639Y-12912D01*
X24500Y-12885D01*
X23000Y-12885D01*
X22860Y-12912D01*
X22741Y-12991D01*
X22493Y-13239D01*
X22399Y-13239D01*
X22211Y-13317D01*
X22067Y-13460D01*
X21990Y-13648D01*
X21989Y-13851D01*
X22067Y-14038D01*
X22210Y-14182D01*
X22398Y-14259D01*
X22601Y-14260D01*
X22788Y-14182D01*
X22932Y-14039D01*
X23009Y-13851D01*
X23009Y-13756D01*
X23151Y-13615D01*
X23343Y-13615D01*
X23318Y-13639D01*
X23364Y-13684D01*
X23268Y-13712D01*
X23195Y-13918D01*
X23206Y-14136D01*
X23268Y-14287D01*
X23364Y-14315D01*
X23679Y-14000D01*
X23673Y-13994D01*
X23744Y-13923D01*
X23750Y-13929D01*
X23755Y-13923D01*
X23826Y-13994D01*
X23820Y-14000D01*
X24135Y-14315D01*
X24231Y-14287D01*
X24245Y-14246D01*
X24274Y-14316D01*
X24432Y-14474D01*
X24638Y-14559D01*
X24860Y-14560D01*
X25066Y-14475D01*
X25177Y-14365D01*
X25195Y-14365D01*
X25229Y-14447D01*
X25302Y-14520D01*
X25398Y-14560D01*
X25501Y-14560D01*
X26101Y-14560D01*
X26197Y-14520D01*
X26270Y-14447D01*
X26304Y-14365D01*
X28848Y-14365D01*
X30991Y-16508D01*
X30991Y-16508D01*
X30991Y-16508D01*
X31110Y-16587D01*
X31250Y-16615D01*
X31250Y-16615D01*
X31250Y-16615D01*
X32073Y-16615D01*
X32182Y-16724D01*
X32243Y-16749D01*
X32183Y-16774D01*
X32072Y-16885D01*
X31250Y-16885D01*
X31250Y-16884D01*
X31110Y-16912D01*
X30991Y-16991D01*
X30241Y-17741D01*
X30162Y-17860D01*
X30135Y-18000D01*
X30135Y-20000D01*
X30162Y-20139D01*
X30241Y-20258D01*
X30991Y-21008D01*
X31110Y-21087D01*
X31250Y-21115D01*
X31250Y-21115D01*
X31250Y-21115D01*
X34598Y-21115D01*
X35635Y-22151D01*
X35635Y-22393D01*
X35567Y-22460D01*
X35490Y-22648D01*
X35489Y-22851D01*
X35567Y-23038D01*
X35710Y-23182D01*
X35898Y-23259D01*
X36101Y-23260D01*
X36288Y-23182D01*
X36356Y-23115D01*
X37573Y-23115D01*
X37682Y-23224D01*
X37750Y-23252D01*
X37712Y-23268D01*
X37684Y-23364D01*
X38000Y-23679D01*
X38315Y-23364D01*
X38287Y-23268D01*
X38246Y-23254D01*
X38316Y-23225D01*
X38474Y-23067D01*
X38559Y-22861D01*
X38560Y-22639D01*
X38475Y-22433D01*
X38365Y-22322D01*
X38365Y-22304D01*
X38447Y-22270D01*
X38520Y-22197D01*
X38560Y-22101D01*
X38560Y-21998D01*
X38560Y-21398D01*
X38520Y-21302D01*
X38447Y-21229D01*
X38351Y-21190D01*
X38248Y-21190D01*
X37648Y-21190D01*
X37552Y-21229D01*
X37479Y-21302D01*
X37440Y-21398D01*
X37440Y-21501D01*
X37440Y-22101D01*
X37479Y-22197D01*
X37552Y-22270D01*
X37635Y-22304D01*
X37635Y-22323D01*
X37572Y-22385D01*
X36365Y-22385D01*
X36365Y-22000D01*
X36337Y-21860D01*
X36258Y-21741D01*
X35008Y-20491D01*
X34889Y-20412D01*
X34750Y-20385D01*
X34054Y-20385D01*
X34054Y-19331D01*
X34043Y-19113D01*
X33981Y-18962D01*
X33885Y-18934D01*
X33570Y-19250D01*
X33885Y-19565D01*
X33981Y-19537D01*
X34054Y-19331D01*
X34054Y-20385D01*
X33815Y-20385D01*
X33815Y-19635D01*
X33500Y-19320D01*
X33184Y-19635D01*
X33212Y-19731D01*
X33418Y-19804D01*
X33636Y-19793D01*
X33787Y-19731D01*
X33815Y-19635D01*
X33815Y-20385D01*
X31401Y-20385D01*
X30865Y-19848D01*
X30865Y-19694D01*
X30998Y-19749D01*
X31201Y-19750D01*
X31388Y-19672D01*
X31446Y-19615D01*
X32073Y-19615D01*
X32182Y-19724D01*
X32388Y-19809D01*
X32610Y-19810D01*
X32816Y-19725D01*
X32974Y-19567D01*
X33002Y-19499D01*
X33018Y-19537D01*
X33114Y-19565D01*
X33429Y-19250D01*
X33114Y-18934D01*
X33018Y-18962D01*
X33004Y-19003D01*
X32975Y-18933D01*
X32817Y-18775D01*
X32756Y-18750D01*
X32816Y-18725D01*
X32974Y-18567D01*
X32999Y-18506D01*
X33024Y-18566D01*
X33182Y-18724D01*
X33250Y-18752D01*
X33212Y-18768D01*
X33184Y-18864D01*
X33500Y-19179D01*
X33815Y-18864D01*
X33787Y-18768D01*
X33746Y-18754D01*
X33816Y-18725D01*
X33927Y-18615D01*
X38143Y-18615D01*
X38210Y-18682D01*
X38398Y-18759D01*
X38601Y-18760D01*
X38788Y-18682D01*
X38932Y-18539D01*
X39009Y-18351D01*
X39010Y-18149D01*
X38932Y-17961D01*
X38789Y-17817D01*
X38601Y-17740D01*
X38399Y-17739D01*
X38211Y-17817D01*
X38143Y-17885D01*
X33926Y-17885D01*
X33817Y-17775D01*
X33756Y-17750D01*
X33816Y-17725D01*
X33927Y-17615D01*
X36453Y-17615D01*
X36530Y-17692D01*
X36718Y-17769D01*
X36921Y-17770D01*
X37108Y-17692D01*
X37252Y-17549D01*
X37329Y-17361D01*
X37330Y-17159D01*
X37252Y-16971D01*
X37109Y-16827D01*
X36921Y-16750D01*
X36719Y-16749D01*
X36531Y-16827D01*
X36473Y-16885D01*
X33926Y-16885D01*
X33817Y-16775D01*
X33756Y-16750D01*
X33816Y-16725D01*
X33927Y-16615D01*
X35143Y-16615D01*
X35210Y-16682D01*
X35398Y-16759D01*
X35601Y-16760D01*
X35788Y-16682D01*
X35932Y-16539D01*
X36009Y-16351D01*
X36010Y-16149D01*
X35932Y-15961D01*
X35789Y-15817D01*
X35601Y-15740D01*
X35399Y-15739D01*
X35211Y-15817D01*
X35143Y-15885D01*
X33926Y-15885D01*
X33817Y-15775D01*
X33756Y-15750D01*
X33816Y-15725D01*
X33974Y-15567D01*
X34059Y-15361D01*
X34060Y-15206D01*
X34401Y-14865D01*
X38598Y-14865D01*
X39741Y-16008D01*
X39860Y-16087D01*
X40000Y-16115D01*
X42848Y-16115D01*
X43385Y-16651D01*
X43385Y-19643D01*
X43317Y-19710D01*
X43240Y-19898D01*
X43239Y-20101D01*
X43317Y-20288D01*
X43460Y-20432D01*
X43648Y-20509D01*
X43851Y-20510D01*
X44038Y-20432D01*
X44182Y-20289D01*
X44259Y-20101D01*
X44260Y-19899D01*
X44260Y-25450D01*
X44060Y-25450D01*
X44060Y-23040D01*
X43899Y-22650D01*
X43601Y-22351D01*
X43211Y-22190D01*
X42790Y-22189D01*
X42510Y-22305D01*
X42510Y-18149D01*
X42432Y-17961D01*
X42289Y-17817D01*
X42125Y-17749D01*
X42288Y-17682D01*
X42432Y-17539D01*
X42509Y-17351D01*
X42510Y-17149D01*
X42432Y-16961D01*
X42289Y-16817D01*
X42101Y-16740D01*
X41899Y-16739D01*
X41711Y-16817D01*
X41567Y-16960D01*
X41499Y-17124D01*
X41432Y-16961D01*
X41289Y-16817D01*
X41101Y-16740D01*
X40899Y-16739D01*
X40711Y-16817D01*
X40567Y-16960D01*
X40490Y-17148D01*
X40489Y-17351D01*
X40567Y-17538D01*
X40710Y-17682D01*
X40874Y-17750D01*
X40711Y-17817D01*
X40567Y-17960D01*
X40490Y-18148D01*
X40489Y-18351D01*
X40567Y-18538D01*
X40710Y-18682D01*
X40898Y-18759D01*
X41101Y-18760D01*
X41288Y-18682D01*
X41432Y-18539D01*
X41500Y-18375D01*
X41567Y-18538D01*
X41710Y-18682D01*
X41898Y-18759D01*
X42101Y-18760D01*
X42288Y-18682D01*
X42432Y-18539D01*
X42509Y-18351D01*
X42510Y-18149D01*
X42510Y-22305D01*
X42400Y-22350D01*
X42101Y-22648D01*
X41940Y-23038D01*
X41939Y-23459D01*
X42100Y-23849D01*
X42398Y-24148D01*
X42788Y-24309D01*
X43209Y-24310D01*
X43599Y-24149D01*
X43898Y-23851D01*
X44059Y-23461D01*
X44060Y-23040D01*
X44060Y-25450D01*
X38554Y-25450D01*
X38554Y-23831D01*
X38543Y-23613D01*
X38481Y-23462D01*
X38385Y-23434D01*
X38070Y-23750D01*
X38385Y-24065D01*
X38481Y-24037D01*
X38554Y-23831D01*
X38554Y-25450D01*
X38315Y-25450D01*
X38315Y-24135D01*
X38000Y-23820D01*
X37929Y-23891D01*
X37929Y-23750D01*
X37614Y-23434D01*
X37518Y-23462D01*
X37445Y-23668D01*
X37456Y-23886D01*
X37518Y-24037D01*
X37614Y-24065D01*
X37929Y-23750D01*
X37929Y-23891D01*
X37684Y-24135D01*
X37712Y-24231D01*
X37918Y-24304D01*
X38136Y-24293D01*
X38287Y-24231D01*
X38315Y-24135D01*
X38315Y-25450D01*
X34010Y-25450D01*
X34010Y-23649D01*
X33932Y-23461D01*
X33789Y-23317D01*
X33625Y-23249D01*
X33788Y-23182D01*
X33932Y-23039D01*
X34009Y-22851D01*
X34010Y-22649D01*
X33932Y-22461D01*
X33789Y-22317D01*
X33601Y-22240D01*
X33399Y-22239D01*
X33211Y-22317D01*
X33067Y-22460D01*
X32999Y-22624D01*
X32932Y-22461D01*
X32789Y-22317D01*
X32601Y-22240D01*
X32399Y-22239D01*
X32211Y-22317D01*
X32067Y-22460D01*
X31990Y-22648D01*
X31989Y-22851D01*
X32067Y-23038D01*
X32210Y-23182D01*
X32374Y-23250D01*
X32211Y-23317D01*
X32067Y-23460D01*
X31990Y-23648D01*
X31989Y-23851D01*
X32067Y-24038D01*
X32210Y-24182D01*
X32398Y-24259D01*
X32601Y-24260D01*
X32788Y-24182D01*
X32932Y-24039D01*
X33000Y-23875D01*
X33067Y-24038D01*
X33210Y-24182D01*
X33398Y-24259D01*
X33601Y-24260D01*
X33788Y-24182D01*
X33932Y-24039D01*
X34009Y-23851D01*
X34010Y-23649D01*
X34010Y-25450D01*
X25760Y-25450D01*
X25760Y-18149D01*
X25682Y-17961D01*
X25539Y-17817D01*
X25375Y-17749D01*
X25538Y-17682D01*
X25682Y-17539D01*
X25759Y-17351D01*
X25760Y-17149D01*
X25682Y-16961D01*
X25539Y-16817D01*
X25351Y-16740D01*
X25149Y-16739D01*
X24961Y-16817D01*
X24817Y-16960D01*
X24749Y-17124D01*
X24682Y-16961D01*
X24539Y-16817D01*
X24351Y-16740D01*
X24149Y-16739D01*
X24065Y-16774D01*
X24065Y-14385D01*
X23750Y-14070D01*
X23679Y-14141D01*
X23434Y-14385D01*
X23462Y-14481D01*
X23668Y-14554D01*
X23886Y-14543D01*
X24037Y-14481D01*
X24065Y-14385D01*
X24065Y-16774D01*
X23961Y-16817D01*
X23817Y-16960D01*
X23740Y-17148D01*
X23739Y-17351D01*
X23817Y-17538D01*
X23960Y-17682D01*
X24124Y-17750D01*
X23961Y-17817D01*
X23817Y-17960D01*
X23740Y-18148D01*
X23739Y-18351D01*
X23817Y-18538D01*
X23960Y-18682D01*
X24148Y-18759D01*
X24351Y-18760D01*
X24538Y-18682D01*
X24682Y-18539D01*
X24750Y-18375D01*
X24817Y-18538D01*
X24960Y-18682D01*
X25148Y-18759D01*
X25351Y-18760D01*
X25538Y-18682D01*
X25682Y-18539D01*
X25759Y-18351D01*
X25760Y-18149D01*
X25760Y-25450D01*
X24310Y-25450D01*
X24310Y-23040D01*
X24149Y-22650D01*
X23851Y-22351D01*
X23461Y-22190D01*
X23040Y-22189D01*
X22650Y-22350D01*
X22351Y-22648D01*
X22190Y-23038D01*
X22189Y-23459D01*
X22350Y-23849D01*
X22648Y-24148D01*
X23038Y-24309D01*
X23459Y-24310D01*
X23849Y-24149D01*
X24148Y-23851D01*
X24309Y-23461D01*
X24310Y-23040D01*
X24310Y-25450D01*
X21800Y-25450D01*
X21800Y-12750D01*
X21800Y-12550D01*
X44700Y-12550D01*
X44700Y-25450D01*
X44700Y-25450D01*
G37*
G54D16*
X44700Y-25450D02*
X44260Y-25450D01*
X44260Y-19899D01*
X44182Y-19711D01*
X44115Y-19643D01*
X44115Y-16500D01*
X44115Y-16500D01*
X44115Y-16500D01*
X44087Y-16360D01*
X44008Y-16241D01*
X43258Y-15491D01*
X43139Y-15412D01*
X43054Y-15395D01*
X43054Y-14831D01*
X43043Y-14613D01*
X42981Y-14462D01*
X42885Y-14434D01*
X42815Y-14505D01*
X42815Y-14364D01*
X42787Y-14268D01*
X42581Y-14195D01*
X42363Y-14206D01*
X42212Y-14268D01*
X42184Y-14364D01*
X42500Y-14679D01*
X42815Y-14364D01*
X42815Y-14505D01*
X42570Y-14750D01*
X42885Y-15065D01*
X42981Y-15037D01*
X43054Y-14831D01*
X43054Y-15395D01*
X43000Y-15385D01*
X42815Y-15385D01*
X42815Y-15135D01*
X42500Y-14820D01*
X42184Y-15135D01*
X42212Y-15231D01*
X42418Y-15304D01*
X42636Y-15293D01*
X42787Y-15231D01*
X42815Y-15135D01*
X42815Y-15385D01*
X40151Y-15385D01*
X39008Y-14241D01*
X38889Y-14162D01*
X38750Y-14135D01*
X34250Y-14135D01*
X34250Y-14134D01*
X34110Y-14162D01*
X33991Y-14241D01*
X33543Y-14690D01*
X33389Y-14689D01*
X33183Y-14774D01*
X33059Y-14898D01*
X33020Y-14802D01*
X32947Y-14729D01*
X32865Y-14695D01*
X32865Y-14401D01*
X33401Y-13865D01*
X41135Y-13865D01*
X41135Y-14323D01*
X41072Y-14385D01*
X41054Y-14385D01*
X41020Y-14302D01*
X40947Y-14229D01*
X40851Y-14190D01*
X40748Y-14190D01*
X40148Y-14190D01*
X40052Y-14229D01*
X39979Y-14302D01*
X39940Y-14398D01*
X39940Y-14501D01*
X39940Y-15101D01*
X39979Y-15197D01*
X40052Y-15270D01*
X40148Y-15310D01*
X40251Y-15310D01*
X40851Y-15310D01*
X40947Y-15270D01*
X41020Y-15197D01*
X41054Y-15115D01*
X41073Y-15115D01*
X41182Y-15224D01*
X41388Y-15309D01*
X41610Y-15310D01*
X41816Y-15225D01*
X41974Y-15067D01*
X42002Y-14999D01*
X42018Y-15037D01*
X42114Y-15065D01*
X42429Y-14750D01*
X42114Y-14434D01*
X42018Y-14462D01*
X42004Y-14503D01*
X41975Y-14433D01*
X41865Y-14322D01*
X41865Y-13856D01*
X41932Y-13789D01*
X42009Y-13601D01*
X42010Y-13399D01*
X41932Y-13211D01*
X41789Y-13067D01*
X41601Y-12990D01*
X41399Y-12989D01*
X41211Y-13067D01*
X41143Y-13135D01*
X33250Y-13135D01*
X33250Y-13134D01*
X33110Y-13162D01*
X32991Y-13241D01*
X32241Y-13991D01*
X32162Y-14110D01*
X32135Y-14250D01*
X32135Y-14695D01*
X32052Y-14729D01*
X31979Y-14802D01*
X31940Y-14898D01*
X31940Y-15001D01*
X31940Y-15601D01*
X31979Y-15697D01*
X32052Y-15770D01*
X32148Y-15809D01*
X32072Y-15885D01*
X31401Y-15885D01*
X29258Y-13741D01*
X29139Y-13662D01*
X29000Y-13635D01*
X26304Y-13635D01*
X26270Y-13552D01*
X26197Y-13479D01*
X26101Y-13440D01*
X25998Y-13440D01*
X25398Y-13440D01*
X25302Y-13479D01*
X25229Y-13552D01*
X25195Y-13635D01*
X25176Y-13635D01*
X25115Y-13572D01*
X25115Y-13500D01*
X25115Y-13500D01*
X25115Y-13500D01*
X25087Y-13360D01*
X25008Y-13241D01*
X25008Y-13241D01*
X25008Y-13241D01*
X24758Y-12991D01*
X24639Y-12912D01*
X24500Y-12885D01*
X23000Y-12885D01*
X22860Y-12912D01*
X22741Y-12991D01*
X22493Y-13239D01*
X22399Y-13239D01*
X22211Y-13317D01*
X22067Y-13460D01*
X21990Y-13648D01*
X21989Y-13851D01*
X22067Y-14038D01*
X22210Y-14182D01*
X22398Y-14259D01*
X22601Y-14260D01*
X22788Y-14182D01*
X22932Y-14039D01*
X23009Y-13851D01*
X23009Y-13756D01*
X23151Y-13615D01*
X23343Y-13615D01*
X23318Y-13639D01*
X23364Y-13684D01*
X23268Y-13712D01*
X23195Y-13918D01*
X23206Y-14136D01*
X23268Y-14287D01*
X23364Y-14315D01*
X23679Y-14000D01*
X23673Y-13994D01*
X23744Y-13923D01*
X23750Y-13929D01*
X23755Y-13923D01*
X23826Y-13994D01*
X23820Y-14000D01*
X24135Y-14315D01*
X24231Y-14287D01*
X24245Y-14246D01*
X24274Y-14316D01*
X24432Y-14474D01*
X24638Y-14559D01*
X24860Y-14560D01*
X25066Y-14475D01*
X25177Y-14365D01*
X25195Y-14365D01*
X25229Y-14447D01*
X25302Y-14520D01*
X25398Y-14560D01*
X25501Y-14560D01*
X26101Y-14560D01*
X26197Y-14520D01*
X26270Y-14447D01*
X26304Y-14365D01*
X28848Y-14365D01*
X30991Y-16508D01*
X30991Y-16508D01*
X30991Y-16508D01*
X31110Y-16587D01*
X31250Y-16615D01*
X31250Y-16615D01*
X31250Y-16615D01*
X32073Y-16615D01*
X32182Y-16724D01*
X32243Y-16749D01*
X32183Y-16774D01*
X32072Y-16885D01*
X31250Y-16885D01*
X31250Y-16884D01*
X31110Y-16912D01*
X30991Y-16991D01*
X30241Y-17741D01*
X30162Y-17860D01*
X30135Y-18000D01*
X30135Y-20000D01*
X30162Y-20139D01*
X30241Y-20258D01*
X30991Y-21008D01*
X31110Y-21087D01*
X31250Y-21115D01*
X31250Y-21115D01*
X31250Y-21115D01*
X34598Y-21115D01*
X35635Y-22151D01*
X35635Y-22393D01*
X35567Y-22460D01*
X35490Y-22648D01*
X35489Y-22851D01*
X35567Y-23038D01*
X35710Y-23182D01*
X35898Y-23259D01*
X36101Y-23260D01*
X36288Y-23182D01*
X36356Y-23115D01*
X37573Y-23115D01*
X37682Y-23224D01*
X37750Y-23252D01*
X37712Y-23268D01*
X37684Y-23364D01*
X38000Y-23679D01*
X38315Y-23364D01*
X38287Y-23268D01*
X38246Y-23254D01*
X38316Y-23225D01*
X38474Y-23067D01*
X38559Y-22861D01*
X38560Y-22639D01*
X38475Y-22433D01*
X38365Y-22322D01*
X38365Y-22304D01*
X38447Y-22270D01*
X38520Y-22197D01*
X38560Y-22101D01*
X38560Y-21998D01*
X38560Y-21398D01*
X38520Y-21302D01*
X38447Y-21229D01*
X38351Y-21190D01*
X38248Y-21190D01*
X37648Y-21190D01*
X37552Y-21229D01*
X37479Y-21302D01*
X37440Y-21398D01*
X37440Y-21501D01*
X37440Y-22101D01*
X37479Y-22197D01*
X37552Y-22270D01*
X37635Y-22304D01*
X37635Y-22323D01*
X37572Y-22385D01*
X36365Y-22385D01*
X36365Y-22000D01*
X36337Y-21860D01*
X36258Y-21741D01*
X35008Y-20491D01*
X34889Y-20412D01*
X34750Y-20385D01*
X34054Y-20385D01*
X34054Y-19331D01*
X34043Y-19113D01*
X33981Y-18962D01*
X33885Y-18934D01*
X33570Y-19250D01*
X33885Y-19565D01*
X33981Y-19537D01*
X34054Y-19331D01*
X34054Y-20385D01*
X33815Y-20385D01*
X33815Y-19635D01*
X33500Y-19320D01*
X33184Y-19635D01*
X33212Y-19731D01*
X33418Y-19804D01*
X33636Y-19793D01*
X33787Y-19731D01*
X33815Y-19635D01*
X33815Y-20385D01*
X31401Y-20385D01*
X30865Y-19848D01*
X30865Y-19694D01*
X30998Y-19749D01*
X31201Y-19750D01*
X31388Y-19672D01*
X31446Y-19615D01*
X32073Y-19615D01*
X32182Y-19724D01*
X32388Y-19809D01*
X32610Y-19810D01*
X32816Y-19725D01*
X32974Y-19567D01*
X33002Y-19499D01*
X33018Y-19537D01*
X33114Y-19565D01*
X33429Y-19250D01*
X33114Y-18934D01*
X33018Y-18962D01*
X33004Y-19003D01*
X32975Y-18933D01*
X32817Y-18775D01*
X32756Y-18750D01*
X32816Y-18725D01*
X32974Y-18567D01*
X32999Y-18506D01*
X33024Y-18566D01*
X33182Y-18724D01*
X33250Y-18752D01*
X33212Y-18768D01*
X33184Y-18864D01*
X33500Y-19179D01*
X33815Y-18864D01*
X33787Y-18768D01*
X33746Y-18754D01*
X33816Y-18725D01*
X33927Y-18615D01*
X38143Y-18615D01*
X38210Y-18682D01*
X38398Y-18759D01*
X38601Y-18760D01*
X38788Y-18682D01*
X38932Y-18539D01*
X39009Y-18351D01*
X39010Y-18149D01*
X38932Y-17961D01*
X38789Y-17817D01*
X38601Y-17740D01*
X38399Y-17739D01*
X38211Y-17817D01*
X38143Y-17885D01*
X33926Y-17885D01*
X33817Y-17775D01*
X33756Y-17750D01*
X33816Y-17725D01*
X33927Y-17615D01*
X36453Y-17615D01*
X36530Y-17692D01*
X36718Y-17769D01*
X36921Y-17770D01*
X37108Y-17692D01*
X37252Y-17549D01*
X37329Y-17361D01*
X37330Y-17159D01*
X37252Y-16971D01*
X37109Y-16827D01*
X36921Y-16750D01*
X36719Y-16749D01*
X36531Y-16827D01*
X36473Y-16885D01*
X33926Y-16885D01*
X33817Y-16775D01*
X33756Y-16750D01*
X33816Y-16725D01*
X33927Y-16615D01*
X35143Y-16615D01*
X35210Y-16682D01*
X35398Y-16759D01*
X35601Y-16760D01*
X35788Y-16682D01*
X35932Y-16539D01*
X36009Y-16351D01*
X36010Y-16149D01*
X35932Y-15961D01*
X35789Y-15817D01*
X35601Y-15740D01*
X35399Y-15739D01*
X35211Y-15817D01*
X35143Y-15885D01*
X33926Y-15885D01*
X33817Y-15775D01*
X33756Y-15750D01*
X33816Y-15725D01*
X33974Y-15567D01*
X34059Y-15361D01*
X34060Y-15206D01*
X34401Y-14865D01*
X38598Y-14865D01*
X39741Y-16008D01*
X39860Y-16087D01*
X40000Y-16115D01*
X42848Y-16115D01*
X43385Y-16651D01*
X43385Y-19643D01*
X43317Y-19710D01*
X43240Y-19898D01*
X43239Y-20101D01*
X43317Y-20288D01*
X43460Y-20432D01*
X43648Y-20509D01*
X43851Y-20510D01*
X44038Y-20432D01*
X44182Y-20289D01*
X44259Y-20101D01*
X44260Y-19899D01*
X44260Y-25450D01*
X44060Y-25450D01*
X44060Y-23040D01*
X43899Y-22650D01*
X43601Y-22351D01*
X43211Y-22190D01*
X42790Y-22189D01*
X42510Y-22305D01*
X42510Y-18149D01*
X42432Y-17961D01*
X42289Y-17817D01*
X42125Y-17749D01*
X42288Y-17682D01*
X42432Y-17539D01*
X42509Y-17351D01*
X42510Y-17149D01*
X42432Y-16961D01*
X42289Y-16817D01*
X42101Y-16740D01*
X41899Y-16739D01*
X41711Y-16817D01*
X41567Y-16960D01*
X41499Y-17124D01*
X41432Y-16961D01*
X41289Y-16817D01*
X41101Y-16740D01*
X40899Y-16739D01*
X40711Y-16817D01*
X40567Y-16960D01*
X40490Y-17148D01*
X40489Y-17351D01*
X40567Y-17538D01*
X40710Y-17682D01*
X40874Y-17750D01*
X40711Y-17817D01*
X40567Y-17960D01*
X40490Y-18148D01*
X40489Y-18351D01*
X40567Y-18538D01*
X40710Y-18682D01*
X40898Y-18759D01*
X41101Y-18760D01*
X41288Y-18682D01*
X41432Y-18539D01*
X41500Y-18375D01*
X41567Y-18538D01*
X41710Y-18682D01*
X41898Y-18759D01*
X42101Y-18760D01*
X42288Y-18682D01*
X42432Y-18539D01*
X42509Y-18351D01*
X42510Y-18149D01*
X42510Y-22305D01*
X42400Y-22350D01*
X42101Y-22648D01*
X41940Y-23038D01*
X41939Y-23459D01*
X42100Y-23849D01*
X42398Y-24148D01*
X42788Y-24309D01*
X43209Y-24310D01*
X43599Y-24149D01*
X43898Y-23851D01*
X44059Y-23461D01*
X44060Y-23040D01*
X44060Y-25450D01*
X38554Y-25450D01*
X38554Y-23831D01*
X38543Y-23613D01*
X38481Y-23462D01*
X38385Y-23434D01*
X38070Y-23750D01*
X38385Y-24065D01*
X38481Y-24037D01*
X38554Y-23831D01*
X38554Y-25450D01*
X38315Y-25450D01*
X38315Y-24135D01*
X38000Y-23820D01*
X37929Y-23891D01*
X37929Y-23750D01*
X37614Y-23434D01*
X37518Y-23462D01*
X37445Y-23668D01*
X37456Y-23886D01*
X37518Y-24037D01*
X37614Y-24065D01*
X37929Y-23750D01*
X37929Y-23891D01*
X37684Y-24135D01*
X37712Y-24231D01*
X37918Y-24304D01*
X38136Y-24293D01*
X38287Y-24231D01*
X38315Y-24135D01*
X38315Y-25450D01*
X34010Y-25450D01*
X34010Y-23649D01*
X33932Y-23461D01*
X33789Y-23317D01*
X33625Y-23249D01*
X33788Y-23182D01*
X33932Y-23039D01*
X34009Y-22851D01*
X34010Y-22649D01*
X33932Y-22461D01*
X33789Y-22317D01*
X33601Y-22240D01*
X33399Y-22239D01*
X33211Y-22317D01*
X33067Y-22460D01*
X32999Y-22624D01*
X32932Y-22461D01*
X32789Y-22317D01*
X32601Y-22240D01*
X32399Y-22239D01*
X32211Y-22317D01*
X32067Y-22460D01*
X31990Y-22648D01*
X31989Y-22851D01*
X32067Y-23038D01*
X32210Y-23182D01*
X32374Y-23250D01*
X32211Y-23317D01*
X32067Y-23460D01*
X31990Y-23648D01*
X31989Y-23851D01*
X32067Y-24038D01*
X32210Y-24182D01*
X32398Y-24259D01*
X32601Y-24260D01*
X32788Y-24182D01*
X32932Y-24039D01*
X33000Y-23875D01*
X33067Y-24038D01*
X33210Y-24182D01*
X33398Y-24259D01*
X33601Y-24260D01*
X33788Y-24182D01*
X33932Y-24039D01*
X34009Y-23851D01*
X34010Y-23649D01*
X34010Y-25450D01*
X25760Y-25450D01*
X25760Y-18149D01*
X25682Y-17961D01*
X25539Y-17817D01*
X25375Y-17749D01*
X25538Y-17682D01*
X25682Y-17539D01*
X25759Y-17351D01*
X25760Y-17149D01*
X25682Y-16961D01*
X25539Y-16817D01*
X25351Y-16740D01*
X25149Y-16739D01*
X24961Y-16817D01*
X24817Y-16960D01*
X24749Y-17124D01*
X24682Y-16961D01*
X24539Y-16817D01*
X24351Y-16740D01*
X24149Y-16739D01*
X24065Y-16774D01*
X24065Y-14385D01*
X23750Y-14070D01*
X23679Y-14141D01*
X23434Y-14385D01*
X23462Y-14481D01*
X23668Y-14554D01*
X23886Y-14543D01*
X24037Y-14481D01*
X24065Y-14385D01*
X24065Y-16774D01*
X23961Y-16817D01*
X23817Y-16960D01*
X23740Y-17148D01*
X23739Y-17351D01*
X23817Y-17538D01*
X23960Y-17682D01*
X24124Y-17750D01*
X23961Y-17817D01*
X23817Y-17960D01*
X23740Y-18148D01*
X23739Y-18351D01*
X23817Y-18538D01*
X23960Y-18682D01*
X24148Y-18759D01*
X24351Y-18760D01*
X24538Y-18682D01*
X24682Y-18539D01*
X24750Y-18375D01*
X24817Y-18538D01*
X24960Y-18682D01*
X25148Y-18759D01*
X25351Y-18760D01*
X25538Y-18682D01*
X25682Y-18539D01*
X25759Y-18351D01*
X25760Y-18149D01*
X25760Y-25450D01*
X24310Y-25450D01*
X24310Y-23040D01*
X24149Y-22650D01*
X23851Y-22351D01*
X23461Y-22190D01*
X23040Y-22189D01*
X22650Y-22350D01*
X22351Y-22648D01*
X22190Y-23038D01*
X22189Y-23459D01*
X22350Y-23849D01*
X22648Y-24148D01*
X23038Y-24309D01*
X23459Y-24310D01*
X23849Y-24149D01*
X24148Y-23851D01*
X24309Y-23461D01*
X24310Y-23040D01*
X24310Y-25450D01*
X21800Y-25450D01*
X21800Y-12750D01*
X21800Y-12550D01*
X44700Y-12550D01*
X44700Y-25450D01*
M02*
