G04 (created by PCBNEW (2013-mar-13)-testing) date Sun 26 May 2013 10:53:20 PM ART*
%MOIN*%
G04 Gerber Fmt 3.4, Leading zero omitted, Abs format*
%FSLAX34Y34*%
G01*
G70*
G90*
G04 APERTURE LIST*
%ADD10C,0.005906*%
%ADD11C,0.011811*%
%ADD12R,0.060000X0.060000*%
%ADD13C,0.060000*%
%ADD14C,0.050000*%
%ADD15C,0.160000*%
%ADD16C,0.021000*%
%ADD17C,0.010000*%
G04 APERTURE END LIST*
G54D10*
G54D11*
X25226Y-20176D02*
X25564Y-20176D01*
X25395Y-20767D02*
X25395Y-20176D01*
X26098Y-20710D02*
X26070Y-20739D01*
X25985Y-20767D01*
X25929Y-20767D01*
X25845Y-20739D01*
X25789Y-20682D01*
X25760Y-20626D01*
X25732Y-20514D01*
X25732Y-20429D01*
X25760Y-20317D01*
X25789Y-20260D01*
X25845Y-20204D01*
X25929Y-20176D01*
X25985Y-20176D01*
X26070Y-20204D01*
X26098Y-20232D01*
X26464Y-20176D02*
X26576Y-20176D01*
X26632Y-20204D01*
X26688Y-20260D01*
X26717Y-20373D01*
X26717Y-20570D01*
X26688Y-20682D01*
X26632Y-20739D01*
X26576Y-20767D01*
X26464Y-20767D01*
X26407Y-20739D01*
X26351Y-20682D01*
X26323Y-20570D01*
X26323Y-20373D01*
X26351Y-20260D01*
X26407Y-20204D01*
X26464Y-20176D01*
X24101Y-21655D02*
X24073Y-21683D01*
X23989Y-21712D01*
X23933Y-21712D01*
X23848Y-21683D01*
X23792Y-21627D01*
X23764Y-21571D01*
X23736Y-21458D01*
X23736Y-21374D01*
X23764Y-21262D01*
X23792Y-21205D01*
X23848Y-21149D01*
X23933Y-21121D01*
X23989Y-21121D01*
X24073Y-21149D01*
X24101Y-21177D01*
X24607Y-21712D02*
X24607Y-21402D01*
X24579Y-21346D01*
X24523Y-21318D01*
X24411Y-21318D01*
X24354Y-21346D01*
X24607Y-21683D02*
X24551Y-21712D01*
X24411Y-21712D01*
X24354Y-21683D01*
X24326Y-21627D01*
X24326Y-21571D01*
X24354Y-21515D01*
X24411Y-21487D01*
X24551Y-21487D01*
X24607Y-21458D01*
X24889Y-21712D02*
X24889Y-21318D01*
X24889Y-21430D02*
X24917Y-21374D01*
X24945Y-21346D01*
X25001Y-21318D01*
X25057Y-21318D01*
X25254Y-21712D02*
X25254Y-21121D01*
X25254Y-21346D02*
X25311Y-21318D01*
X25423Y-21318D01*
X25479Y-21346D01*
X25507Y-21374D01*
X25535Y-21430D01*
X25535Y-21599D01*
X25507Y-21655D01*
X25479Y-21683D01*
X25423Y-21712D01*
X25311Y-21712D01*
X25254Y-21683D01*
X26042Y-21712D02*
X26042Y-21402D01*
X26014Y-21346D01*
X25957Y-21318D01*
X25845Y-21318D01*
X25789Y-21346D01*
X26042Y-21683D02*
X25985Y-21712D01*
X25845Y-21712D01*
X25789Y-21683D01*
X25760Y-21627D01*
X25760Y-21571D01*
X25789Y-21515D01*
X25845Y-21487D01*
X25985Y-21487D01*
X26042Y-21458D01*
X26407Y-21712D02*
X26351Y-21683D01*
X26323Y-21627D01*
X26323Y-21121D01*
X26717Y-21712D02*
X26660Y-21683D01*
X26632Y-21627D01*
X26632Y-21121D01*
X27167Y-21683D02*
X27110Y-21712D01*
X26998Y-21712D01*
X26942Y-21683D01*
X26913Y-21627D01*
X26913Y-21402D01*
X26942Y-21346D01*
X26998Y-21318D01*
X27110Y-21318D01*
X27167Y-21346D01*
X27195Y-21402D01*
X27195Y-21458D01*
X26913Y-21515D01*
X27701Y-21712D02*
X27701Y-21121D01*
X27701Y-21683D02*
X27645Y-21712D01*
X27532Y-21712D01*
X27476Y-21683D01*
X27448Y-21655D01*
X27420Y-21599D01*
X27420Y-21430D01*
X27448Y-21374D01*
X27476Y-21346D01*
X27532Y-21318D01*
X27645Y-21318D01*
X27701Y-21346D01*
X28235Y-21712D02*
X28235Y-21402D01*
X28207Y-21346D01*
X28151Y-21318D01*
X28038Y-21318D01*
X27982Y-21346D01*
X28235Y-21683D02*
X28179Y-21712D01*
X28038Y-21712D01*
X27982Y-21683D01*
X27954Y-21627D01*
X27954Y-21571D01*
X27982Y-21515D01*
X28038Y-21487D01*
X28179Y-21487D01*
X28235Y-21458D01*
X24959Y-22600D02*
X24931Y-22628D01*
X24847Y-22656D01*
X24790Y-22656D01*
X24706Y-22628D01*
X24650Y-22572D01*
X24622Y-22516D01*
X24593Y-22403D01*
X24593Y-22319D01*
X24622Y-22206D01*
X24650Y-22150D01*
X24706Y-22094D01*
X24790Y-22066D01*
X24847Y-22066D01*
X24931Y-22094D01*
X24959Y-22122D01*
X25437Y-22628D02*
X25381Y-22656D01*
X25268Y-22656D01*
X25212Y-22628D01*
X25184Y-22572D01*
X25184Y-22347D01*
X25212Y-22291D01*
X25268Y-22263D01*
X25381Y-22263D01*
X25437Y-22291D01*
X25465Y-22347D01*
X25465Y-22403D01*
X25184Y-22460D01*
X25718Y-22656D02*
X25718Y-22263D01*
X25718Y-22375D02*
X25746Y-22319D01*
X25775Y-22291D01*
X25831Y-22263D01*
X25887Y-22263D01*
X26168Y-22656D02*
X26112Y-22628D01*
X26084Y-22600D01*
X26056Y-22544D01*
X26056Y-22375D01*
X26084Y-22319D01*
X26112Y-22291D01*
X26168Y-22263D01*
X26253Y-22263D01*
X26309Y-22291D01*
X26337Y-22319D01*
X26365Y-22375D01*
X26365Y-22544D01*
X26337Y-22600D01*
X26309Y-22628D01*
X26253Y-22656D01*
X26168Y-22656D01*
X26618Y-22263D02*
X26618Y-22656D01*
X26618Y-22319D02*
X26646Y-22291D01*
X26703Y-22263D01*
X26787Y-22263D01*
X26843Y-22291D01*
X26871Y-22347D01*
X26871Y-22656D01*
X27377Y-22628D02*
X27321Y-22656D01*
X27209Y-22656D01*
X27152Y-22628D01*
X27124Y-22572D01*
X27124Y-22347D01*
X27152Y-22291D01*
X27209Y-22263D01*
X27321Y-22263D01*
X27377Y-22291D01*
X27406Y-22347D01*
X27406Y-22403D01*
X27124Y-22460D01*
X24861Y-23292D02*
X24664Y-23292D01*
X24664Y-23601D02*
X24664Y-23011D01*
X24945Y-23011D01*
X25423Y-23601D02*
X25423Y-23292D01*
X25395Y-23236D01*
X25339Y-23208D01*
X25226Y-23208D01*
X25170Y-23236D01*
X25423Y-23573D02*
X25367Y-23601D01*
X25226Y-23601D01*
X25170Y-23573D01*
X25142Y-23517D01*
X25142Y-23461D01*
X25170Y-23404D01*
X25226Y-23376D01*
X25367Y-23376D01*
X25423Y-23348D01*
X25704Y-23601D02*
X25704Y-23208D01*
X25704Y-23320D02*
X25732Y-23264D01*
X25760Y-23236D01*
X25817Y-23208D01*
X25873Y-23208D01*
X26323Y-23601D02*
X26323Y-23292D01*
X26295Y-23236D01*
X26239Y-23208D01*
X26126Y-23208D01*
X26070Y-23236D01*
X26323Y-23573D02*
X26267Y-23601D01*
X26126Y-23601D01*
X26070Y-23573D01*
X26042Y-23517D01*
X26042Y-23461D01*
X26070Y-23404D01*
X26126Y-23376D01*
X26267Y-23376D01*
X26323Y-23348D01*
X26857Y-23573D02*
X26801Y-23601D01*
X26688Y-23601D01*
X26632Y-23573D01*
X26604Y-23545D01*
X26576Y-23489D01*
X26576Y-23320D01*
X26604Y-23264D01*
X26632Y-23236D01*
X26688Y-23208D01*
X26801Y-23208D01*
X26857Y-23236D01*
X27335Y-23573D02*
X27279Y-23601D01*
X27167Y-23601D01*
X27110Y-23573D01*
X27082Y-23517D01*
X27082Y-23292D01*
X27110Y-23236D01*
X27167Y-23208D01*
X27279Y-23208D01*
X27335Y-23236D01*
X27363Y-23292D01*
X27363Y-23348D01*
X27082Y-23404D01*
X31168Y-15517D02*
X30831Y-15517D01*
X31000Y-15517D02*
X31000Y-14926D01*
X30943Y-15010D01*
X30887Y-15067D01*
X30831Y-15095D01*
G54D12*
X32500Y-15250D03*
G54D13*
X33500Y-15250D03*
X32500Y-16250D03*
X33500Y-16250D03*
X32500Y-17250D03*
X33500Y-17250D03*
X32500Y-18250D03*
X33500Y-18250D03*
X32500Y-19250D03*
X33500Y-19250D03*
G54D12*
X25750Y-14000D03*
G54D13*
X24750Y-14000D03*
X23750Y-14000D03*
G54D12*
X38000Y-21750D03*
G54D13*
X38000Y-22750D03*
X38000Y-23750D03*
G54D12*
X40500Y-14750D03*
G54D13*
X41500Y-14750D03*
X42500Y-14750D03*
G54D14*
X24250Y-18250D03*
X25250Y-17250D03*
X25250Y-18250D03*
X24250Y-17250D03*
X32500Y-23750D03*
X33500Y-22750D03*
X33500Y-23750D03*
X32500Y-22750D03*
X41000Y-18250D03*
X42000Y-17250D03*
X42000Y-18250D03*
X41000Y-17250D03*
G54D15*
X43000Y-23250D03*
X23250Y-23250D03*
G54D14*
X31100Y-19240D03*
X38500Y-18250D03*
X22500Y-13750D03*
X36000Y-22750D03*
X41500Y-13500D03*
X36820Y-17260D03*
X43750Y-20000D03*
X35500Y-16250D03*
G54D16*
X38750Y-18500D02*
X38500Y-18250D01*
X38750Y-18500D02*
X39750Y-18500D01*
X30000Y-22750D02*
X32000Y-24750D01*
X39750Y-18500D02*
X41000Y-17250D01*
X39750Y-23500D02*
X39750Y-18500D01*
X38500Y-24750D02*
X39750Y-23500D01*
X32000Y-24750D02*
X38500Y-24750D01*
X24250Y-17250D02*
X24250Y-16000D01*
X30000Y-22750D02*
X32500Y-22750D01*
X29000Y-21750D02*
X30000Y-22750D01*
X29000Y-18250D02*
X29000Y-21750D01*
X26250Y-15500D02*
X29000Y-18250D01*
X24750Y-15500D02*
X26250Y-15500D01*
X24250Y-16000D02*
X24750Y-15500D01*
X25250Y-18250D02*
X25250Y-18500D01*
X22500Y-18000D02*
X22500Y-13750D01*
X23750Y-19250D02*
X22500Y-18000D01*
X24500Y-19250D02*
X23750Y-19250D01*
X25250Y-18500D02*
X24500Y-19250D01*
X33500Y-23750D02*
X35000Y-23750D01*
X35000Y-23750D02*
X36000Y-22750D01*
X42000Y-18250D02*
X42750Y-18250D01*
X42750Y-13500D02*
X41500Y-13500D01*
X43500Y-14250D02*
X42750Y-13500D01*
X43500Y-17500D02*
X43500Y-14250D01*
X42750Y-18250D02*
X43500Y-17500D01*
X32500Y-23750D02*
X32520Y-23750D01*
X36820Y-23380D02*
X36820Y-17260D01*
X35870Y-24329D02*
X36820Y-23380D01*
X33100Y-24329D02*
X35870Y-24329D01*
X32520Y-23750D02*
X33100Y-24329D01*
X41000Y-19250D02*
X41000Y-18250D01*
X41750Y-20000D02*
X41000Y-19250D01*
X43750Y-20000D02*
X41750Y-20000D01*
X24250Y-18250D02*
X24000Y-18250D01*
X35500Y-14750D02*
X35500Y-16250D01*
X34250Y-13500D02*
X35500Y-14750D01*
X27500Y-13500D02*
X34250Y-13500D01*
X26250Y-14750D02*
X27500Y-13500D01*
X23750Y-14750D02*
X26250Y-14750D01*
X23250Y-15250D02*
X23750Y-14750D01*
X23250Y-17500D02*
X23250Y-15250D01*
X24000Y-18250D02*
X23250Y-17500D01*
G54D10*
G36*
X44700Y-25450D02*
X44260Y-25450D01*
X44260Y-19899D01*
X44182Y-19711D01*
X44039Y-19567D01*
X43851Y-19490D01*
X43649Y-19489D01*
X43461Y-19567D01*
X43393Y-19635D01*
X41901Y-19635D01*
X41365Y-19098D01*
X41365Y-18606D01*
X41432Y-18539D01*
X41500Y-18375D01*
X41567Y-18538D01*
X41710Y-18682D01*
X41898Y-18759D01*
X42101Y-18760D01*
X42288Y-18682D01*
X42356Y-18615D01*
X42750Y-18615D01*
X42889Y-18587D01*
X43008Y-18508D01*
X43758Y-17758D01*
X43837Y-17639D01*
X43865Y-17500D01*
X43865Y-17500D01*
X43865Y-17499D01*
X43865Y-14250D01*
X43865Y-14250D01*
X43865Y-14250D01*
X43837Y-14110D01*
X43758Y-13991D01*
X43008Y-13241D01*
X42889Y-13162D01*
X42750Y-13135D01*
X41856Y-13135D01*
X41789Y-13067D01*
X41601Y-12990D01*
X41399Y-12989D01*
X41211Y-13067D01*
X41067Y-13210D01*
X40990Y-13398D01*
X40989Y-13601D01*
X41067Y-13788D01*
X41210Y-13932D01*
X41398Y-14009D01*
X41601Y-14010D01*
X41788Y-13932D01*
X41856Y-13865D01*
X42598Y-13865D01*
X43135Y-14401D01*
X43135Y-17348D01*
X43060Y-17423D01*
X43060Y-14639D01*
X42975Y-14433D01*
X42817Y-14275D01*
X42611Y-14190D01*
X42389Y-14189D01*
X42183Y-14274D01*
X42025Y-14432D01*
X42000Y-14493D01*
X41975Y-14433D01*
X41817Y-14275D01*
X41611Y-14190D01*
X41389Y-14189D01*
X41183Y-14274D01*
X41059Y-14398D01*
X41020Y-14302D01*
X40947Y-14229D01*
X40851Y-14190D01*
X40748Y-14190D01*
X40148Y-14190D01*
X40052Y-14229D01*
X39979Y-14302D01*
X39940Y-14398D01*
X39940Y-14501D01*
X39940Y-15101D01*
X39979Y-15197D01*
X40052Y-15270D01*
X40148Y-15310D01*
X40251Y-15310D01*
X40851Y-15310D01*
X40947Y-15270D01*
X41020Y-15197D01*
X41059Y-15101D01*
X41182Y-15224D01*
X41388Y-15309D01*
X41610Y-15310D01*
X41816Y-15225D01*
X41974Y-15067D01*
X41999Y-15006D01*
X42024Y-15066D01*
X42182Y-15224D01*
X42388Y-15309D01*
X42610Y-15310D01*
X42816Y-15225D01*
X42974Y-15067D01*
X43059Y-14861D01*
X43060Y-14639D01*
X43060Y-17423D01*
X42598Y-17885D01*
X42504Y-17885D01*
X42504Y-17319D01*
X42493Y-17121D01*
X42439Y-16992D01*
X42349Y-16971D01*
X42278Y-17041D01*
X42278Y-16900D01*
X42257Y-16810D01*
X42069Y-16745D01*
X41871Y-16756D01*
X41742Y-16810D01*
X41721Y-16900D01*
X42000Y-17179D01*
X42278Y-16900D01*
X42278Y-17041D01*
X42070Y-17250D01*
X42349Y-17528D01*
X42439Y-17507D01*
X42504Y-17319D01*
X42504Y-17885D01*
X42356Y-17885D01*
X42289Y-17817D01*
X42111Y-17744D01*
X42128Y-17743D01*
X42257Y-17689D01*
X42278Y-17599D01*
X42000Y-17320D01*
X41721Y-17599D01*
X41742Y-17689D01*
X41893Y-17742D01*
X41711Y-17817D01*
X41567Y-17960D01*
X41499Y-18124D01*
X41432Y-17961D01*
X41289Y-17817D01*
X41125Y-17749D01*
X41288Y-17682D01*
X41432Y-17539D01*
X41505Y-17361D01*
X41506Y-17378D01*
X41560Y-17507D01*
X41650Y-17528D01*
X41929Y-17250D01*
X41650Y-16971D01*
X41560Y-16992D01*
X41507Y-17143D01*
X41432Y-16961D01*
X41289Y-16817D01*
X41101Y-16740D01*
X40899Y-16739D01*
X40711Y-16817D01*
X40567Y-16960D01*
X40490Y-17148D01*
X40490Y-17243D01*
X39598Y-18135D01*
X39004Y-18135D01*
X38932Y-17961D01*
X38789Y-17817D01*
X38601Y-17740D01*
X38399Y-17739D01*
X38211Y-17817D01*
X38067Y-17960D01*
X37990Y-18148D01*
X37989Y-18351D01*
X38067Y-18538D01*
X38210Y-18682D01*
X38398Y-18759D01*
X38494Y-18759D01*
X38494Y-18759D01*
X38610Y-18837D01*
X38750Y-18865D01*
X38750Y-18865D01*
X38750Y-18865D01*
X39385Y-18865D01*
X39385Y-23348D01*
X38560Y-24173D01*
X38560Y-23639D01*
X38475Y-23433D01*
X38317Y-23275D01*
X38256Y-23250D01*
X38316Y-23225D01*
X38474Y-23067D01*
X38559Y-22861D01*
X38560Y-22639D01*
X38475Y-22433D01*
X38351Y-22309D01*
X38447Y-22270D01*
X38520Y-22197D01*
X38560Y-22101D01*
X38560Y-21998D01*
X38560Y-21398D01*
X38520Y-21302D01*
X38447Y-21229D01*
X38351Y-21190D01*
X38248Y-21190D01*
X37648Y-21190D01*
X37552Y-21229D01*
X37479Y-21302D01*
X37440Y-21398D01*
X37440Y-21501D01*
X37440Y-22101D01*
X37479Y-22197D01*
X37552Y-22270D01*
X37648Y-22309D01*
X37525Y-22432D01*
X37440Y-22638D01*
X37439Y-22860D01*
X37524Y-23066D01*
X37682Y-23224D01*
X37743Y-23249D01*
X37683Y-23274D01*
X37525Y-23432D01*
X37440Y-23638D01*
X37439Y-23860D01*
X37524Y-24066D01*
X37682Y-24224D01*
X37888Y-24309D01*
X38110Y-24310D01*
X38316Y-24225D01*
X38474Y-24067D01*
X38559Y-23861D01*
X38560Y-23639D01*
X38560Y-24173D01*
X38348Y-24385D01*
X36331Y-24385D01*
X37078Y-23638D01*
X37078Y-23638D01*
X37078Y-23638D01*
X37157Y-23519D01*
X37185Y-23380D01*
X37185Y-17616D01*
X37252Y-17549D01*
X37329Y-17361D01*
X37330Y-17159D01*
X37252Y-16971D01*
X37109Y-16827D01*
X36921Y-16750D01*
X36719Y-16749D01*
X36531Y-16827D01*
X36387Y-16970D01*
X36310Y-17158D01*
X36309Y-17361D01*
X36387Y-17548D01*
X36455Y-17616D01*
X36455Y-22515D01*
X36432Y-22461D01*
X36289Y-22317D01*
X36101Y-22240D01*
X35899Y-22239D01*
X35711Y-22317D01*
X35567Y-22460D01*
X35490Y-22648D01*
X35490Y-22743D01*
X34848Y-23385D01*
X34060Y-23385D01*
X34060Y-19139D01*
X33975Y-18933D01*
X33817Y-18775D01*
X33756Y-18750D01*
X33816Y-18725D01*
X33974Y-18567D01*
X34059Y-18361D01*
X34060Y-18139D01*
X33975Y-17933D01*
X33817Y-17775D01*
X33756Y-17750D01*
X33816Y-17725D01*
X33974Y-17567D01*
X34059Y-17361D01*
X34060Y-17139D01*
X33975Y-16933D01*
X33817Y-16775D01*
X33756Y-16750D01*
X33816Y-16725D01*
X33974Y-16567D01*
X34059Y-16361D01*
X34060Y-16139D01*
X33975Y-15933D01*
X33817Y-15775D01*
X33756Y-15750D01*
X33816Y-15725D01*
X33974Y-15567D01*
X34059Y-15361D01*
X34060Y-15139D01*
X33975Y-14933D01*
X33817Y-14775D01*
X33611Y-14690D01*
X33389Y-14689D01*
X33183Y-14774D01*
X33059Y-14898D01*
X33020Y-14802D01*
X32947Y-14729D01*
X32851Y-14690D01*
X32748Y-14690D01*
X32148Y-14690D01*
X32052Y-14729D01*
X31979Y-14802D01*
X31940Y-14898D01*
X31940Y-15001D01*
X31940Y-15601D01*
X31979Y-15697D01*
X32052Y-15770D01*
X32148Y-15809D01*
X32025Y-15932D01*
X31940Y-16138D01*
X31939Y-16360D01*
X32024Y-16566D01*
X32182Y-16724D01*
X32243Y-16749D01*
X32183Y-16774D01*
X32025Y-16932D01*
X31940Y-17138D01*
X31939Y-17360D01*
X32024Y-17566D01*
X32182Y-17724D01*
X32243Y-17749D01*
X32183Y-17774D01*
X32025Y-17932D01*
X31940Y-18138D01*
X31939Y-18360D01*
X32024Y-18566D01*
X32182Y-18724D01*
X32250Y-18752D01*
X32212Y-18768D01*
X32184Y-18864D01*
X32500Y-19179D01*
X32815Y-18864D01*
X32787Y-18768D01*
X32746Y-18754D01*
X32816Y-18725D01*
X32974Y-18567D01*
X32999Y-18506D01*
X33024Y-18566D01*
X33182Y-18724D01*
X33243Y-18749D01*
X33183Y-18774D01*
X33025Y-18932D01*
X32997Y-19000D01*
X32981Y-18962D01*
X32885Y-18934D01*
X32570Y-19250D01*
X32885Y-19565D01*
X32981Y-19537D01*
X32995Y-19496D01*
X33024Y-19566D01*
X33182Y-19724D01*
X33388Y-19809D01*
X33610Y-19810D01*
X33816Y-19725D01*
X33974Y-19567D01*
X34059Y-19361D01*
X34060Y-19139D01*
X34060Y-23385D01*
X34004Y-23385D01*
X34004Y-22819D01*
X33993Y-22621D01*
X33939Y-22492D01*
X33849Y-22471D01*
X33778Y-22541D01*
X33778Y-22400D01*
X33757Y-22310D01*
X33569Y-22245D01*
X33371Y-22256D01*
X33242Y-22310D01*
X33221Y-22400D01*
X33500Y-22679D01*
X33778Y-22400D01*
X33778Y-22541D01*
X33570Y-22750D01*
X33849Y-23028D01*
X33939Y-23007D01*
X34004Y-22819D01*
X34004Y-23385D01*
X33856Y-23385D01*
X33789Y-23317D01*
X33611Y-23244D01*
X33628Y-23243D01*
X33757Y-23189D01*
X33778Y-23099D01*
X33500Y-22820D01*
X33221Y-23099D01*
X33242Y-23189D01*
X33393Y-23242D01*
X33211Y-23317D01*
X33067Y-23460D01*
X32999Y-23624D01*
X32932Y-23461D01*
X32789Y-23317D01*
X32625Y-23249D01*
X32788Y-23182D01*
X32932Y-23039D01*
X33005Y-22861D01*
X33006Y-22878D01*
X33060Y-23007D01*
X33150Y-23028D01*
X33429Y-22750D01*
X33150Y-22471D01*
X33060Y-22492D01*
X33007Y-22643D01*
X32932Y-22461D01*
X32815Y-22343D01*
X32815Y-19635D01*
X32500Y-19320D01*
X32429Y-19391D01*
X32429Y-19250D01*
X32114Y-18934D01*
X32018Y-18962D01*
X31945Y-19168D01*
X31956Y-19386D01*
X32018Y-19537D01*
X32114Y-19565D01*
X32429Y-19250D01*
X32429Y-19391D01*
X32184Y-19635D01*
X32212Y-19731D01*
X32418Y-19804D01*
X32636Y-19793D01*
X32787Y-19731D01*
X32815Y-19635D01*
X32815Y-22343D01*
X32789Y-22317D01*
X32601Y-22240D01*
X32399Y-22239D01*
X32211Y-22317D01*
X32143Y-22385D01*
X31590Y-22385D01*
X31590Y-15972D01*
X31590Y-14409D01*
X30409Y-14409D01*
X30409Y-15972D01*
X31590Y-15972D01*
X31590Y-22385D01*
X30151Y-22385D01*
X29365Y-21598D01*
X29365Y-18250D01*
X29365Y-18250D01*
X29365Y-18250D01*
X29337Y-18110D01*
X29258Y-17991D01*
X26508Y-15241D01*
X26389Y-15162D01*
X26250Y-15135D01*
X24750Y-15135D01*
X24610Y-15162D01*
X24491Y-15241D01*
X23991Y-15741D01*
X23912Y-15860D01*
X23885Y-16000D01*
X23885Y-16893D01*
X23817Y-16960D01*
X23740Y-17148D01*
X23739Y-17351D01*
X23817Y-17538D01*
X23960Y-17682D01*
X24124Y-17750D01*
X24047Y-17781D01*
X23615Y-17348D01*
X23615Y-15401D01*
X23901Y-15115D01*
X26250Y-15115D01*
X26389Y-15087D01*
X26508Y-15008D01*
X27651Y-13865D01*
X34098Y-13865D01*
X35135Y-14901D01*
X35135Y-15893D01*
X35067Y-15960D01*
X34990Y-16148D01*
X34989Y-16351D01*
X35067Y-16538D01*
X35210Y-16682D01*
X35398Y-16759D01*
X35601Y-16760D01*
X35788Y-16682D01*
X35932Y-16539D01*
X36009Y-16351D01*
X36010Y-16149D01*
X35932Y-15961D01*
X35865Y-15893D01*
X35865Y-14750D01*
X35837Y-14610D01*
X35758Y-14491D01*
X34508Y-13241D01*
X34389Y-13162D01*
X34250Y-13135D01*
X27500Y-13135D01*
X27360Y-13162D01*
X27241Y-13241D01*
X26310Y-14173D01*
X26310Y-13648D01*
X26270Y-13552D01*
X26197Y-13479D01*
X26101Y-13440D01*
X25998Y-13440D01*
X25398Y-13440D01*
X25302Y-13479D01*
X25229Y-13552D01*
X25190Y-13648D01*
X25067Y-13525D01*
X24861Y-13440D01*
X24639Y-13439D01*
X24433Y-13524D01*
X24275Y-13682D01*
X24250Y-13743D01*
X24225Y-13683D01*
X24067Y-13525D01*
X23861Y-13440D01*
X23639Y-13439D01*
X23433Y-13524D01*
X23275Y-13682D01*
X23190Y-13888D01*
X23189Y-14110D01*
X23274Y-14316D01*
X23432Y-14474D01*
X23486Y-14497D01*
X22991Y-14991D01*
X22912Y-15110D01*
X22885Y-15250D01*
X22885Y-17500D01*
X22912Y-17639D01*
X22991Y-17758D01*
X23741Y-18508D01*
X23860Y-18587D01*
X23867Y-18588D01*
X23960Y-18682D01*
X24148Y-18759D01*
X24351Y-18760D01*
X24538Y-18682D01*
X24682Y-18539D01*
X24750Y-18375D01*
X24781Y-18452D01*
X24348Y-18885D01*
X23901Y-18885D01*
X22865Y-17848D01*
X22865Y-14106D01*
X22932Y-14039D01*
X23009Y-13851D01*
X23010Y-13649D01*
X22932Y-13461D01*
X22789Y-13317D01*
X22601Y-13240D01*
X22399Y-13239D01*
X22211Y-13317D01*
X22067Y-13460D01*
X21990Y-13648D01*
X21989Y-13851D01*
X22067Y-14038D01*
X22135Y-14106D01*
X22135Y-18000D01*
X22162Y-18139D01*
X22241Y-18258D01*
X23491Y-19508D01*
X23610Y-19587D01*
X23750Y-19615D01*
X24500Y-19615D01*
X24639Y-19587D01*
X24758Y-19508D01*
X25508Y-18758D01*
X25587Y-18639D01*
X25588Y-18632D01*
X25682Y-18539D01*
X25759Y-18351D01*
X25760Y-18149D01*
X25754Y-18136D01*
X25754Y-17319D01*
X25743Y-17121D01*
X25689Y-16992D01*
X25599Y-16971D01*
X25528Y-17041D01*
X25528Y-16900D01*
X25507Y-16810D01*
X25319Y-16745D01*
X25121Y-16756D01*
X24992Y-16810D01*
X24971Y-16900D01*
X25250Y-17179D01*
X25528Y-16900D01*
X25528Y-17041D01*
X25320Y-17250D01*
X25599Y-17528D01*
X25689Y-17507D01*
X25754Y-17319D01*
X25754Y-18136D01*
X25682Y-17961D01*
X25539Y-17817D01*
X25361Y-17744D01*
X25378Y-17743D01*
X25507Y-17689D01*
X25528Y-17599D01*
X25250Y-17320D01*
X24971Y-17599D01*
X24992Y-17689D01*
X25143Y-17742D01*
X24961Y-17817D01*
X24817Y-17960D01*
X24749Y-18124D01*
X24682Y-17961D01*
X24539Y-17817D01*
X24375Y-17749D01*
X24538Y-17682D01*
X24682Y-17539D01*
X24755Y-17361D01*
X24756Y-17378D01*
X24810Y-17507D01*
X24900Y-17528D01*
X25179Y-17250D01*
X24900Y-16971D01*
X24810Y-16992D01*
X24757Y-17143D01*
X24682Y-16961D01*
X24615Y-16893D01*
X24615Y-16151D01*
X24901Y-15865D01*
X26098Y-15865D01*
X28635Y-18401D01*
X28635Y-19659D01*
X23314Y-19659D01*
X23314Y-22190D01*
X23040Y-22189D01*
X22650Y-22350D01*
X22351Y-22648D01*
X22190Y-23038D01*
X22189Y-23459D01*
X22350Y-23849D01*
X22648Y-24148D01*
X23038Y-24309D01*
X23459Y-24310D01*
X23849Y-24149D01*
X23941Y-24057D01*
X28685Y-24057D01*
X28685Y-21923D01*
X28741Y-22008D01*
X29741Y-23008D01*
X29741Y-23008D01*
X31741Y-25008D01*
X31860Y-25087D01*
X32000Y-25115D01*
X32000Y-25115D01*
X32000Y-25115D01*
X38500Y-25115D01*
X38639Y-25087D01*
X38758Y-25008D01*
X40008Y-23758D01*
X40087Y-23639D01*
X40115Y-23500D01*
X40115Y-18651D01*
X40489Y-18276D01*
X40489Y-18351D01*
X40567Y-18538D01*
X40635Y-18606D01*
X40635Y-19250D01*
X40662Y-19389D01*
X40741Y-19508D01*
X41491Y-20258D01*
X41610Y-20337D01*
X41750Y-20365D01*
X41750Y-20365D01*
X41750Y-20365D01*
X43393Y-20365D01*
X43460Y-20432D01*
X43648Y-20509D01*
X43851Y-20510D01*
X44038Y-20432D01*
X44182Y-20289D01*
X44259Y-20101D01*
X44260Y-19899D01*
X44260Y-25450D01*
X44060Y-25450D01*
X44060Y-23040D01*
X43899Y-22650D01*
X43601Y-22351D01*
X43211Y-22190D01*
X42790Y-22189D01*
X42400Y-22350D01*
X42101Y-22648D01*
X41940Y-23038D01*
X41939Y-23459D01*
X42100Y-23849D01*
X42398Y-24148D01*
X42788Y-24309D01*
X43209Y-24310D01*
X43599Y-24149D01*
X43898Y-23851D01*
X44059Y-23461D01*
X44060Y-23040D01*
X44060Y-25450D01*
X21800Y-25450D01*
X21800Y-12550D01*
X44700Y-12550D01*
X44700Y-25450D01*
X44700Y-25450D01*
G37*
G54D17*
X44700Y-25450D02*
X44260Y-25450D01*
X44260Y-19899D01*
X44182Y-19711D01*
X44039Y-19567D01*
X43851Y-19490D01*
X43649Y-19489D01*
X43461Y-19567D01*
X43393Y-19635D01*
X41901Y-19635D01*
X41365Y-19098D01*
X41365Y-18606D01*
X41432Y-18539D01*
X41500Y-18375D01*
X41567Y-18538D01*
X41710Y-18682D01*
X41898Y-18759D01*
X42101Y-18760D01*
X42288Y-18682D01*
X42356Y-18615D01*
X42750Y-18615D01*
X42889Y-18587D01*
X43008Y-18508D01*
X43758Y-17758D01*
X43837Y-17639D01*
X43865Y-17500D01*
X43865Y-17500D01*
X43865Y-17499D01*
X43865Y-14250D01*
X43865Y-14250D01*
X43865Y-14250D01*
X43837Y-14110D01*
X43758Y-13991D01*
X43008Y-13241D01*
X42889Y-13162D01*
X42750Y-13135D01*
X41856Y-13135D01*
X41789Y-13067D01*
X41601Y-12990D01*
X41399Y-12989D01*
X41211Y-13067D01*
X41067Y-13210D01*
X40990Y-13398D01*
X40989Y-13601D01*
X41067Y-13788D01*
X41210Y-13932D01*
X41398Y-14009D01*
X41601Y-14010D01*
X41788Y-13932D01*
X41856Y-13865D01*
X42598Y-13865D01*
X43135Y-14401D01*
X43135Y-17348D01*
X43060Y-17423D01*
X43060Y-14639D01*
X42975Y-14433D01*
X42817Y-14275D01*
X42611Y-14190D01*
X42389Y-14189D01*
X42183Y-14274D01*
X42025Y-14432D01*
X42000Y-14493D01*
X41975Y-14433D01*
X41817Y-14275D01*
X41611Y-14190D01*
X41389Y-14189D01*
X41183Y-14274D01*
X41059Y-14398D01*
X41020Y-14302D01*
X40947Y-14229D01*
X40851Y-14190D01*
X40748Y-14190D01*
X40148Y-14190D01*
X40052Y-14229D01*
X39979Y-14302D01*
X39940Y-14398D01*
X39940Y-14501D01*
X39940Y-15101D01*
X39979Y-15197D01*
X40052Y-15270D01*
X40148Y-15310D01*
X40251Y-15310D01*
X40851Y-15310D01*
X40947Y-15270D01*
X41020Y-15197D01*
X41059Y-15101D01*
X41182Y-15224D01*
X41388Y-15309D01*
X41610Y-15310D01*
X41816Y-15225D01*
X41974Y-15067D01*
X41999Y-15006D01*
X42024Y-15066D01*
X42182Y-15224D01*
X42388Y-15309D01*
X42610Y-15310D01*
X42816Y-15225D01*
X42974Y-15067D01*
X43059Y-14861D01*
X43060Y-14639D01*
X43060Y-17423D01*
X42598Y-17885D01*
X42504Y-17885D01*
X42504Y-17319D01*
X42493Y-17121D01*
X42439Y-16992D01*
X42349Y-16971D01*
X42278Y-17041D01*
X42278Y-16900D01*
X42257Y-16810D01*
X42069Y-16745D01*
X41871Y-16756D01*
X41742Y-16810D01*
X41721Y-16900D01*
X42000Y-17179D01*
X42278Y-16900D01*
X42278Y-17041D01*
X42070Y-17250D01*
X42349Y-17528D01*
X42439Y-17507D01*
X42504Y-17319D01*
X42504Y-17885D01*
X42356Y-17885D01*
X42289Y-17817D01*
X42111Y-17744D01*
X42128Y-17743D01*
X42257Y-17689D01*
X42278Y-17599D01*
X42000Y-17320D01*
X41721Y-17599D01*
X41742Y-17689D01*
X41893Y-17742D01*
X41711Y-17817D01*
X41567Y-17960D01*
X41499Y-18124D01*
X41432Y-17961D01*
X41289Y-17817D01*
X41125Y-17749D01*
X41288Y-17682D01*
X41432Y-17539D01*
X41505Y-17361D01*
X41506Y-17378D01*
X41560Y-17507D01*
X41650Y-17528D01*
X41929Y-17250D01*
X41650Y-16971D01*
X41560Y-16992D01*
X41507Y-17143D01*
X41432Y-16961D01*
X41289Y-16817D01*
X41101Y-16740D01*
X40899Y-16739D01*
X40711Y-16817D01*
X40567Y-16960D01*
X40490Y-17148D01*
X40490Y-17243D01*
X39598Y-18135D01*
X39004Y-18135D01*
X38932Y-17961D01*
X38789Y-17817D01*
X38601Y-17740D01*
X38399Y-17739D01*
X38211Y-17817D01*
X38067Y-17960D01*
X37990Y-18148D01*
X37989Y-18351D01*
X38067Y-18538D01*
X38210Y-18682D01*
X38398Y-18759D01*
X38494Y-18759D01*
X38494Y-18759D01*
X38610Y-18837D01*
X38750Y-18865D01*
X38750Y-18865D01*
X38750Y-18865D01*
X39385Y-18865D01*
X39385Y-23348D01*
X38560Y-24173D01*
X38560Y-23639D01*
X38475Y-23433D01*
X38317Y-23275D01*
X38256Y-23250D01*
X38316Y-23225D01*
X38474Y-23067D01*
X38559Y-22861D01*
X38560Y-22639D01*
X38475Y-22433D01*
X38351Y-22309D01*
X38447Y-22270D01*
X38520Y-22197D01*
X38560Y-22101D01*
X38560Y-21998D01*
X38560Y-21398D01*
X38520Y-21302D01*
X38447Y-21229D01*
X38351Y-21190D01*
X38248Y-21190D01*
X37648Y-21190D01*
X37552Y-21229D01*
X37479Y-21302D01*
X37440Y-21398D01*
X37440Y-21501D01*
X37440Y-22101D01*
X37479Y-22197D01*
X37552Y-22270D01*
X37648Y-22309D01*
X37525Y-22432D01*
X37440Y-22638D01*
X37439Y-22860D01*
X37524Y-23066D01*
X37682Y-23224D01*
X37743Y-23249D01*
X37683Y-23274D01*
X37525Y-23432D01*
X37440Y-23638D01*
X37439Y-23860D01*
X37524Y-24066D01*
X37682Y-24224D01*
X37888Y-24309D01*
X38110Y-24310D01*
X38316Y-24225D01*
X38474Y-24067D01*
X38559Y-23861D01*
X38560Y-23639D01*
X38560Y-24173D01*
X38348Y-24385D01*
X36331Y-24385D01*
X37078Y-23638D01*
X37078Y-23638D01*
X37078Y-23638D01*
X37157Y-23519D01*
X37185Y-23380D01*
X37185Y-17616D01*
X37252Y-17549D01*
X37329Y-17361D01*
X37330Y-17159D01*
X37252Y-16971D01*
X37109Y-16827D01*
X36921Y-16750D01*
X36719Y-16749D01*
X36531Y-16827D01*
X36387Y-16970D01*
X36310Y-17158D01*
X36309Y-17361D01*
X36387Y-17548D01*
X36455Y-17616D01*
X36455Y-22515D01*
X36432Y-22461D01*
X36289Y-22317D01*
X36101Y-22240D01*
X35899Y-22239D01*
X35711Y-22317D01*
X35567Y-22460D01*
X35490Y-22648D01*
X35490Y-22743D01*
X34848Y-23385D01*
X34060Y-23385D01*
X34060Y-19139D01*
X33975Y-18933D01*
X33817Y-18775D01*
X33756Y-18750D01*
X33816Y-18725D01*
X33974Y-18567D01*
X34059Y-18361D01*
X34060Y-18139D01*
X33975Y-17933D01*
X33817Y-17775D01*
X33756Y-17750D01*
X33816Y-17725D01*
X33974Y-17567D01*
X34059Y-17361D01*
X34060Y-17139D01*
X33975Y-16933D01*
X33817Y-16775D01*
X33756Y-16750D01*
X33816Y-16725D01*
X33974Y-16567D01*
X34059Y-16361D01*
X34060Y-16139D01*
X33975Y-15933D01*
X33817Y-15775D01*
X33756Y-15750D01*
X33816Y-15725D01*
X33974Y-15567D01*
X34059Y-15361D01*
X34060Y-15139D01*
X33975Y-14933D01*
X33817Y-14775D01*
X33611Y-14690D01*
X33389Y-14689D01*
X33183Y-14774D01*
X33059Y-14898D01*
X33020Y-14802D01*
X32947Y-14729D01*
X32851Y-14690D01*
X32748Y-14690D01*
X32148Y-14690D01*
X32052Y-14729D01*
X31979Y-14802D01*
X31940Y-14898D01*
X31940Y-15001D01*
X31940Y-15601D01*
X31979Y-15697D01*
X32052Y-15770D01*
X32148Y-15809D01*
X32025Y-15932D01*
X31940Y-16138D01*
X31939Y-16360D01*
X32024Y-16566D01*
X32182Y-16724D01*
X32243Y-16749D01*
X32183Y-16774D01*
X32025Y-16932D01*
X31940Y-17138D01*
X31939Y-17360D01*
X32024Y-17566D01*
X32182Y-17724D01*
X32243Y-17749D01*
X32183Y-17774D01*
X32025Y-17932D01*
X31940Y-18138D01*
X31939Y-18360D01*
X32024Y-18566D01*
X32182Y-18724D01*
X32250Y-18752D01*
X32212Y-18768D01*
X32184Y-18864D01*
X32500Y-19179D01*
X32815Y-18864D01*
X32787Y-18768D01*
X32746Y-18754D01*
X32816Y-18725D01*
X32974Y-18567D01*
X32999Y-18506D01*
X33024Y-18566D01*
X33182Y-18724D01*
X33243Y-18749D01*
X33183Y-18774D01*
X33025Y-18932D01*
X32997Y-19000D01*
X32981Y-18962D01*
X32885Y-18934D01*
X32570Y-19250D01*
X32885Y-19565D01*
X32981Y-19537D01*
X32995Y-19496D01*
X33024Y-19566D01*
X33182Y-19724D01*
X33388Y-19809D01*
X33610Y-19810D01*
X33816Y-19725D01*
X33974Y-19567D01*
X34059Y-19361D01*
X34060Y-19139D01*
X34060Y-23385D01*
X34004Y-23385D01*
X34004Y-22819D01*
X33993Y-22621D01*
X33939Y-22492D01*
X33849Y-22471D01*
X33778Y-22541D01*
X33778Y-22400D01*
X33757Y-22310D01*
X33569Y-22245D01*
X33371Y-22256D01*
X33242Y-22310D01*
X33221Y-22400D01*
X33500Y-22679D01*
X33778Y-22400D01*
X33778Y-22541D01*
X33570Y-22750D01*
X33849Y-23028D01*
X33939Y-23007D01*
X34004Y-22819D01*
X34004Y-23385D01*
X33856Y-23385D01*
X33789Y-23317D01*
X33611Y-23244D01*
X33628Y-23243D01*
X33757Y-23189D01*
X33778Y-23099D01*
X33500Y-22820D01*
X33221Y-23099D01*
X33242Y-23189D01*
X33393Y-23242D01*
X33211Y-23317D01*
X33067Y-23460D01*
X32999Y-23624D01*
X32932Y-23461D01*
X32789Y-23317D01*
X32625Y-23249D01*
X32788Y-23182D01*
X32932Y-23039D01*
X33005Y-22861D01*
X33006Y-22878D01*
X33060Y-23007D01*
X33150Y-23028D01*
X33429Y-22750D01*
X33150Y-22471D01*
X33060Y-22492D01*
X33007Y-22643D01*
X32932Y-22461D01*
X32815Y-22343D01*
X32815Y-19635D01*
X32500Y-19320D01*
X32429Y-19391D01*
X32429Y-19250D01*
X32114Y-18934D01*
X32018Y-18962D01*
X31945Y-19168D01*
X31956Y-19386D01*
X32018Y-19537D01*
X32114Y-19565D01*
X32429Y-19250D01*
X32429Y-19391D01*
X32184Y-19635D01*
X32212Y-19731D01*
X32418Y-19804D01*
X32636Y-19793D01*
X32787Y-19731D01*
X32815Y-19635D01*
X32815Y-22343D01*
X32789Y-22317D01*
X32601Y-22240D01*
X32399Y-22239D01*
X32211Y-22317D01*
X32143Y-22385D01*
X31590Y-22385D01*
X31590Y-15972D01*
X31590Y-14409D01*
X30409Y-14409D01*
X30409Y-15972D01*
X31590Y-15972D01*
X31590Y-22385D01*
X30151Y-22385D01*
X29365Y-21598D01*
X29365Y-18250D01*
X29365Y-18250D01*
X29365Y-18250D01*
X29337Y-18110D01*
X29258Y-17991D01*
X26508Y-15241D01*
X26389Y-15162D01*
X26250Y-15135D01*
X24750Y-15135D01*
X24610Y-15162D01*
X24491Y-15241D01*
X23991Y-15741D01*
X23912Y-15860D01*
X23885Y-16000D01*
X23885Y-16893D01*
X23817Y-16960D01*
X23740Y-17148D01*
X23739Y-17351D01*
X23817Y-17538D01*
X23960Y-17682D01*
X24124Y-17750D01*
X24047Y-17781D01*
X23615Y-17348D01*
X23615Y-15401D01*
X23901Y-15115D01*
X26250Y-15115D01*
X26389Y-15087D01*
X26508Y-15008D01*
X27651Y-13865D01*
X34098Y-13865D01*
X35135Y-14901D01*
X35135Y-15893D01*
X35067Y-15960D01*
X34990Y-16148D01*
X34989Y-16351D01*
X35067Y-16538D01*
X35210Y-16682D01*
X35398Y-16759D01*
X35601Y-16760D01*
X35788Y-16682D01*
X35932Y-16539D01*
X36009Y-16351D01*
X36010Y-16149D01*
X35932Y-15961D01*
X35865Y-15893D01*
X35865Y-14750D01*
X35837Y-14610D01*
X35758Y-14491D01*
X34508Y-13241D01*
X34389Y-13162D01*
X34250Y-13135D01*
X27500Y-13135D01*
X27360Y-13162D01*
X27241Y-13241D01*
X26310Y-14173D01*
X26310Y-13648D01*
X26270Y-13552D01*
X26197Y-13479D01*
X26101Y-13440D01*
X25998Y-13440D01*
X25398Y-13440D01*
X25302Y-13479D01*
X25229Y-13552D01*
X25190Y-13648D01*
X25067Y-13525D01*
X24861Y-13440D01*
X24639Y-13439D01*
X24433Y-13524D01*
X24275Y-13682D01*
X24250Y-13743D01*
X24225Y-13683D01*
X24067Y-13525D01*
X23861Y-13440D01*
X23639Y-13439D01*
X23433Y-13524D01*
X23275Y-13682D01*
X23190Y-13888D01*
X23189Y-14110D01*
X23274Y-14316D01*
X23432Y-14474D01*
X23486Y-14497D01*
X22991Y-14991D01*
X22912Y-15110D01*
X22885Y-15250D01*
X22885Y-17500D01*
X22912Y-17639D01*
X22991Y-17758D01*
X23741Y-18508D01*
X23860Y-18587D01*
X23867Y-18588D01*
X23960Y-18682D01*
X24148Y-18759D01*
X24351Y-18760D01*
X24538Y-18682D01*
X24682Y-18539D01*
X24750Y-18375D01*
X24781Y-18452D01*
X24348Y-18885D01*
X23901Y-18885D01*
X22865Y-17848D01*
X22865Y-14106D01*
X22932Y-14039D01*
X23009Y-13851D01*
X23010Y-13649D01*
X22932Y-13461D01*
X22789Y-13317D01*
X22601Y-13240D01*
X22399Y-13239D01*
X22211Y-13317D01*
X22067Y-13460D01*
X21990Y-13648D01*
X21989Y-13851D01*
X22067Y-14038D01*
X22135Y-14106D01*
X22135Y-18000D01*
X22162Y-18139D01*
X22241Y-18258D01*
X23491Y-19508D01*
X23610Y-19587D01*
X23750Y-19615D01*
X24500Y-19615D01*
X24639Y-19587D01*
X24758Y-19508D01*
X25508Y-18758D01*
X25587Y-18639D01*
X25588Y-18632D01*
X25682Y-18539D01*
X25759Y-18351D01*
X25760Y-18149D01*
X25754Y-18136D01*
X25754Y-17319D01*
X25743Y-17121D01*
X25689Y-16992D01*
X25599Y-16971D01*
X25528Y-17041D01*
X25528Y-16900D01*
X25507Y-16810D01*
X25319Y-16745D01*
X25121Y-16756D01*
X24992Y-16810D01*
X24971Y-16900D01*
X25250Y-17179D01*
X25528Y-16900D01*
X25528Y-17041D01*
X25320Y-17250D01*
X25599Y-17528D01*
X25689Y-17507D01*
X25754Y-17319D01*
X25754Y-18136D01*
X25682Y-17961D01*
X25539Y-17817D01*
X25361Y-17744D01*
X25378Y-17743D01*
X25507Y-17689D01*
X25528Y-17599D01*
X25250Y-17320D01*
X24971Y-17599D01*
X24992Y-17689D01*
X25143Y-17742D01*
X24961Y-17817D01*
X24817Y-17960D01*
X24749Y-18124D01*
X24682Y-17961D01*
X24539Y-17817D01*
X24375Y-17749D01*
X24538Y-17682D01*
X24682Y-17539D01*
X24755Y-17361D01*
X24756Y-17378D01*
X24810Y-17507D01*
X24900Y-17528D01*
X25179Y-17250D01*
X24900Y-16971D01*
X24810Y-16992D01*
X24757Y-17143D01*
X24682Y-16961D01*
X24615Y-16893D01*
X24615Y-16151D01*
X24901Y-15865D01*
X26098Y-15865D01*
X28635Y-18401D01*
X28635Y-19659D01*
X23314Y-19659D01*
X23314Y-22190D01*
X23040Y-22189D01*
X22650Y-22350D01*
X22351Y-22648D01*
X22190Y-23038D01*
X22189Y-23459D01*
X22350Y-23849D01*
X22648Y-24148D01*
X23038Y-24309D01*
X23459Y-24310D01*
X23849Y-24149D01*
X23941Y-24057D01*
X28685Y-24057D01*
X28685Y-21923D01*
X28741Y-22008D01*
X29741Y-23008D01*
X29741Y-23008D01*
X31741Y-25008D01*
X31860Y-25087D01*
X32000Y-25115D01*
X32000Y-25115D01*
X32000Y-25115D01*
X38500Y-25115D01*
X38639Y-25087D01*
X38758Y-25008D01*
X40008Y-23758D01*
X40087Y-23639D01*
X40115Y-23500D01*
X40115Y-18651D01*
X40489Y-18276D01*
X40489Y-18351D01*
X40567Y-18538D01*
X40635Y-18606D01*
X40635Y-19250D01*
X40662Y-19389D01*
X40741Y-19508D01*
X41491Y-20258D01*
X41610Y-20337D01*
X41750Y-20365D01*
X41750Y-20365D01*
X41750Y-20365D01*
X43393Y-20365D01*
X43460Y-20432D01*
X43648Y-20509D01*
X43851Y-20510D01*
X44038Y-20432D01*
X44182Y-20289D01*
X44259Y-20101D01*
X44260Y-19899D01*
X44260Y-25450D01*
X44060Y-25450D01*
X44060Y-23040D01*
X43899Y-22650D01*
X43601Y-22351D01*
X43211Y-22190D01*
X42790Y-22189D01*
X42400Y-22350D01*
X42101Y-22648D01*
X41940Y-23038D01*
X41939Y-23459D01*
X42100Y-23849D01*
X42398Y-24148D01*
X42788Y-24309D01*
X43209Y-24310D01*
X43599Y-24149D01*
X43898Y-23851D01*
X44059Y-23461D01*
X44060Y-23040D01*
X44060Y-25450D01*
X21800Y-25450D01*
X21800Y-12550D01*
X44700Y-12550D01*
X44700Y-25450D01*
M02*
