M48
;DRILL file {Pcbnew (2013-mar-13)-testing} date Sun 26 May 2013 10:53:31 PM ART
;FORMAT={-:-/ absolute / inch / decimal}
FMAT,2
INCH,TZ
T1C0.024
T2C0.025
T3C0.040
T4C0.120
%
G90
G05
M72
T1
X2.425Y-1.725
X2.425Y-1.825
X2.525Y-1.725
X2.525Y-1.825
X3.25Y-2.275
X3.25Y-2.375
X3.35Y-2.275
X3.35Y-2.375
X4.1Y-1.725
X4.1Y-1.825
X4.2Y-1.725
X4.2Y-1.825
T2
X2.25Y-1.375
X3.11Y-1.924
X3.55Y-1.625
X3.6Y-2.275
X3.682Y-1.726
X3.85Y-1.825
X4.15Y-1.35
X4.375Y-2.
T3
X2.375Y-1.4
X2.475Y-1.4
X2.575Y-1.4
X3.25Y-1.525
X3.25Y-1.625
X3.25Y-1.725
X3.25Y-1.825
X3.25Y-1.925
X3.35Y-1.525
X3.35Y-1.625
X3.35Y-1.725
X3.35Y-1.825
X3.35Y-1.925
X3.8Y-2.175
X3.8Y-2.275
X3.8Y-2.375
X4.05Y-1.475
X4.15Y-1.475
X4.25Y-1.475
T4
X2.325Y-2.325
X4.3Y-2.325
T0
M30
