M48
;DRILL file {Pcbnew (2012-apr-16-27)-stable} date lun 29 abr 2013 18:07:54 ART
;FORMAT={-:-/ absolute / inch / decimal}
FMAT,2
INCH,TZ
T1C0.028
T2C0.032
T3C0.040
T4C0.118
T5C0.120
%
G90
G05
M72
T1
X4.671Y3.105
X5.087Y4.034
X5.109Y3.948
X5.118Y3.516
X5.121Y3.222
X5.123Y3.700
X5.131Y4.075
X5.177Y3.303
X5.185Y3.764
X5.283Y3.545
X5.292Y3.934
X5.329Y3.975
X5.386Y3.295
X5.435Y3.345
X5.446Y3.769
X5.488Y3.736
X5.565Y3.395
X5.570Y3.841
X5.588Y3.171
X5.595Y3.891
X5.617Y3.295
X5.638Y3.244
X5.740Y3.284
X5.740Y4.003
X5.742Y4.318
X5.750Y3.183
X5.773Y3.242
X5.820Y4.062
X5.823Y3.143
X5.880Y3.159
X5.887Y3.974
X5.894Y3.299
X5.968Y3.222
X5.972Y3.167
X5.987Y3.305
X6.003Y3.367
X6.030Y3.160
X6.057Y4.044
X6.085Y4.307
X6.095Y3.705
X6.170Y3.159
X6.175Y4.311
X6.244Y3.845
X6.304Y3.693
X6.305Y3.548
X6.350Y3.584
X6.378Y3.164
X6.402Y3.392
X6.405Y3.594
X6.494Y3.171
X6.533Y4.049
X6.547Y3.167
X6.880Y3.850
X6.922Y3.892
X6.973Y3.932
X7.070Y3.889
T2
X4.653Y3.936
X4.653Y4.136
X4.721Y2.996
X4.721Y3.196
X4.941Y3.480
X4.941Y3.680
X4.953Y3.936
X4.953Y4.136
X5.021Y2.996
X5.021Y3.196
X5.541Y3.082
X5.641Y2.982
X5.641Y3.082
X6.324Y3.857
X6.724Y3.857
T3
X4.686Y3.347
X4.686Y3.447
X5.087Y4.143
X5.087Y4.243
X5.136Y3.021
X5.136Y3.121
X5.187Y4.143
X5.187Y4.243
X5.236Y3.021
X5.236Y3.121
X5.287Y4.143
X5.287Y4.243
X5.336Y3.021
X5.336Y3.121
X5.387Y4.143
X5.387Y4.243
X5.487Y4.143
X5.487Y4.243
X5.587Y4.143
X5.587Y4.243
X5.687Y4.143
X5.687Y4.243
X5.871Y2.982
X5.871Y3.082
X5.971Y2.982
X5.971Y3.082
X6.024Y4.143
X6.024Y4.243
X6.071Y2.982
X6.071Y3.082
X6.124Y4.143
X6.124Y4.243
X6.171Y2.982
X6.171Y3.082
X6.224Y4.143
X6.224Y4.243
X6.271Y2.982
X6.271Y3.082
X6.324Y4.143
X6.324Y4.243
X6.371Y2.982
X6.371Y3.082
X6.424Y4.143
X6.424Y4.243
X6.471Y2.982
X6.471Y3.082
X6.571Y2.982
X6.571Y3.082
X6.694Y4.143
X6.694Y4.243
X6.794Y4.143
X6.794Y4.243
X6.894Y4.143
X6.894Y4.243
X6.994Y4.143
X6.994Y4.243
X7.094Y4.143
X7.094Y4.243
T4
X7.142Y2.957
T5
X4.677Y4.319
T0
M30
