M48
;DRILL file {PCBnew (2010-03-14)-final} date Thu 02 May 2013 12:13:06 AM ART
;FORMAT={-.-/ absolute / inch / decimal}
R,T
VER,1
FMAT,2
INCH,TZ
TCST,OFF
ICI,OFF
ATC,ON
T1C0.028
T2C0.032
T3C0.040
T4C0.118
T5C0.120
%
M47
G05
M72
T1
X4.671Y-3.105
X5.087Y-4.033
X5.109Y-3.948
X5.118Y-3.516
X5.121Y-3.222
X5.123Y-3.700
X5.131Y-4.075
X5.177Y-3.303
X5.185Y-3.764
X5.282Y-3.545
X5.292Y-3.934
X5.329Y-3.975
X5.386Y-3.295
X5.435Y-3.344
X5.446Y-3.769
X5.488Y-3.736
X5.565Y-3.395
X5.570Y-3.841
X5.588Y-3.171
X5.595Y-3.891
X5.617Y-3.295
X5.638Y-3.244
X5.740Y-3.283
X5.740Y-4.003
X5.742Y-4.318
X5.750Y-3.183
X5.773Y-3.242
X5.820Y-4.062
X5.823Y-3.143
X5.880Y-3.159
X5.887Y-3.974
X5.894Y-3.299
X5.967Y-3.222
X5.972Y-3.167
X5.987Y-3.305
X6.003Y-3.367
X6.030Y-3.160
X6.057Y-4.044
X6.085Y-4.307
X6.095Y-3.705
X6.170Y-3.158
X6.175Y-4.311
X6.244Y-3.844
X6.304Y-3.693
X6.305Y-3.548
X6.350Y-3.584
X6.378Y-3.164
X6.402Y-3.392
X6.405Y-3.593
X6.494Y-3.171
X6.532Y-4.049
X6.547Y-3.167
X6.880Y-3.850
X6.922Y-3.892
X6.973Y-3.932
X7.070Y-3.889
T2
X4.653Y-3.935
X4.653Y-4.135
X4.721Y-2.995
X4.721Y-3.195
X4.941Y-3.480
X4.941Y-3.680
X4.953Y-3.935
X4.953Y-4.135
X5.021Y-2.995
X5.021Y-3.195
X5.541Y-3.081
X5.641Y-2.981
X5.641Y-3.081
X6.324Y-3.857
X6.724Y-3.857
T3
X4.686Y-3.347
X4.686Y-3.447
X5.087Y-4.143
X5.087Y-4.243
X5.136Y-3.021
X5.136Y-3.121
X5.187Y-4.143
X5.187Y-4.243
X5.236Y-3.021
X5.236Y-3.121
X5.287Y-4.143
X5.287Y-4.243
X5.336Y-3.021
X5.336Y-3.121
X5.387Y-4.143
X5.387Y-4.243
X5.487Y-4.143
X5.487Y-4.243
X5.587Y-4.143
X5.587Y-4.243
X5.687Y-4.143
X5.687Y-4.243
X5.871Y-2.981
X5.871Y-3.081
X5.970Y-2.981
X5.970Y-3.081
X6.024Y-4.143
X6.024Y-4.243
X6.070Y-2.981
X6.070Y-3.081
X6.124Y-4.143
X6.124Y-4.243
X6.170Y-2.981
X6.170Y-3.081
X6.224Y-4.143
X6.224Y-4.243
X6.270Y-2.981
X6.270Y-3.081
X6.324Y-4.143
X6.324Y-4.243
X6.370Y-2.981
X6.370Y-3.081
X6.424Y-4.143
X6.424Y-4.243
X6.470Y-2.981
X6.470Y-3.081
X6.570Y-2.981
X6.570Y-3.081
X6.694Y-4.143
X6.694Y-4.243
X6.794Y-4.143
X6.794Y-4.243
X6.894Y-4.143
X6.894Y-4.243
X6.994Y-4.143
X6.994Y-4.243
X7.094Y-4.143
X7.094Y-4.243
T4
X7.142Y-2.957
T5
X4.677Y-4.319
T0
M30
