G04 (created by PCBNEW-RS274X (2010-03-14)-final) date Thu 02 May 2013 12:12:38 AM ART*
G01*
G70*
G90*
%MOIN*%
G04 Gerber Fmt 3.4, Leading zero omitted, Abs format*
%FSLAX34Y34*%
G04 APERTURE LIST*
%ADD10C,0.006000*%
%ADD11C,0.010000*%
%ADD12C,0.015000*%
%ADD13R,0.060000X0.060000*%
%ADD14C,0.060000*%
%ADD15R,0.055000X0.055000*%
%ADD16C,0.055000*%
%ADD17C,0.070000*%
%ADD18C,0.157500*%
%ADD19C,0.160000*%
%ADD20C,0.039400*%
%ADD21C,0.012500*%
G04 APERTURE END LIST*
G54D10*
G54D11*
X68959Y-31548D02*
X68997Y-31519D01*
X69035Y-31433D01*
X69035Y-31376D01*
X68997Y-31291D01*
X68921Y-31233D01*
X68844Y-31205D01*
X68692Y-31176D01*
X68578Y-31176D01*
X68425Y-31205D01*
X68349Y-31233D01*
X68273Y-31291D01*
X68235Y-31376D01*
X68235Y-31433D01*
X68273Y-31519D01*
X68311Y-31548D01*
X69035Y-32062D02*
X68616Y-32062D01*
X68540Y-32033D01*
X68501Y-31976D01*
X68501Y-31862D01*
X68540Y-31805D01*
X68997Y-32062D02*
X69035Y-32005D01*
X69035Y-31862D01*
X68997Y-31805D01*
X68921Y-31776D01*
X68844Y-31776D01*
X68768Y-31805D01*
X68730Y-31862D01*
X68730Y-32005D01*
X68692Y-32062D01*
X69035Y-32348D02*
X68501Y-32348D01*
X68654Y-32348D02*
X68578Y-32376D01*
X68540Y-32405D01*
X68501Y-32462D01*
X68501Y-32519D01*
X69035Y-32719D02*
X68235Y-32719D01*
X68540Y-32719D02*
X68501Y-32776D01*
X68501Y-32890D01*
X68540Y-32947D01*
X68578Y-32976D01*
X68654Y-33005D01*
X68882Y-33005D01*
X68959Y-32976D01*
X68997Y-32947D01*
X69035Y-32890D01*
X69035Y-32776D01*
X68997Y-32719D01*
X69035Y-33519D02*
X68616Y-33519D01*
X68540Y-33490D01*
X68501Y-33433D01*
X68501Y-33319D01*
X68540Y-33262D01*
X68997Y-33519D02*
X69035Y-33462D01*
X69035Y-33319D01*
X68997Y-33262D01*
X68921Y-33233D01*
X68844Y-33233D01*
X68768Y-33262D01*
X68730Y-33319D01*
X68730Y-33462D01*
X68692Y-33519D01*
X69035Y-33891D02*
X68997Y-33833D01*
X68921Y-33805D01*
X68235Y-33805D01*
X69035Y-34205D02*
X68997Y-34147D01*
X68921Y-34119D01*
X68235Y-34119D01*
X68997Y-34661D02*
X69035Y-34604D01*
X69035Y-34490D01*
X68997Y-34433D01*
X68921Y-34404D01*
X68616Y-34404D01*
X68540Y-34433D01*
X68501Y-34490D01*
X68501Y-34604D01*
X68540Y-34661D01*
X68616Y-34690D01*
X68692Y-34690D01*
X68768Y-34404D01*
X69035Y-34947D02*
X68501Y-34947D01*
X68654Y-34947D02*
X68578Y-34975D01*
X68540Y-35004D01*
X68501Y-35061D01*
X68501Y-35118D01*
X69035Y-35575D02*
X68235Y-35575D01*
X68997Y-35575D02*
X69035Y-35518D01*
X69035Y-35404D01*
X68997Y-35346D01*
X68959Y-35318D01*
X68882Y-35289D01*
X68654Y-35289D01*
X68578Y-35318D01*
X68540Y-35346D01*
X68501Y-35404D01*
X68501Y-35518D01*
X68540Y-35575D01*
X69035Y-36118D02*
X68616Y-36118D01*
X68540Y-36089D01*
X68501Y-36032D01*
X68501Y-35918D01*
X68540Y-35861D01*
X68997Y-36118D02*
X69035Y-36061D01*
X69035Y-35918D01*
X68997Y-35861D01*
X68921Y-35832D01*
X68844Y-35832D01*
X68768Y-35861D01*
X68730Y-35918D01*
X68730Y-36061D01*
X68692Y-36118D01*
X70199Y-32605D02*
X70237Y-32576D01*
X70275Y-32490D01*
X70275Y-32433D01*
X70237Y-32348D01*
X70161Y-32290D01*
X70084Y-32262D01*
X69932Y-32233D01*
X69818Y-32233D01*
X69665Y-32262D01*
X69589Y-32290D01*
X69513Y-32348D01*
X69475Y-32433D01*
X69475Y-32490D01*
X69513Y-32576D01*
X69551Y-32605D01*
X70237Y-33090D02*
X70275Y-33033D01*
X70275Y-32919D01*
X70237Y-32862D01*
X70161Y-32833D01*
X69856Y-32833D01*
X69780Y-32862D01*
X69741Y-32919D01*
X69741Y-33033D01*
X69780Y-33090D01*
X69856Y-33119D01*
X69932Y-33119D01*
X70008Y-32833D01*
X70275Y-33376D02*
X69741Y-33376D01*
X69894Y-33376D02*
X69818Y-33404D01*
X69780Y-33433D01*
X69741Y-33490D01*
X69741Y-33547D01*
X70275Y-33833D02*
X70237Y-33775D01*
X70199Y-33747D01*
X70122Y-33718D01*
X69894Y-33718D01*
X69818Y-33747D01*
X69780Y-33775D01*
X69741Y-33833D01*
X69741Y-33918D01*
X69780Y-33975D01*
X69818Y-34004D01*
X69894Y-34033D01*
X70122Y-34033D01*
X70199Y-34004D01*
X70237Y-33975D01*
X70275Y-33918D01*
X70275Y-33833D01*
X69741Y-34290D02*
X70275Y-34290D01*
X69818Y-34290D02*
X69780Y-34318D01*
X69741Y-34376D01*
X69741Y-34461D01*
X69780Y-34518D01*
X69856Y-34547D01*
X70275Y-34547D01*
X70237Y-35061D02*
X70275Y-35004D01*
X70275Y-34890D01*
X70237Y-34833D01*
X70161Y-34804D01*
X69856Y-34804D01*
X69780Y-34833D01*
X69741Y-34890D01*
X69741Y-35004D01*
X69780Y-35061D01*
X69856Y-35090D01*
X69932Y-35090D01*
X70008Y-34804D01*
X71096Y-32505D02*
X71096Y-32305D01*
X71515Y-32305D02*
X70715Y-32305D01*
X70715Y-32591D01*
X71515Y-33076D02*
X71096Y-33076D01*
X71020Y-33047D01*
X70981Y-32990D01*
X70981Y-32876D01*
X71020Y-32819D01*
X71477Y-33076D02*
X71515Y-33019D01*
X71515Y-32876D01*
X71477Y-32819D01*
X71401Y-32790D01*
X71324Y-32790D01*
X71248Y-32819D01*
X71210Y-32876D01*
X71210Y-33019D01*
X71172Y-33076D01*
X71515Y-33362D02*
X70981Y-33362D01*
X71134Y-33362D02*
X71058Y-33390D01*
X71020Y-33419D01*
X70981Y-33476D01*
X70981Y-33533D01*
X71515Y-33990D02*
X71096Y-33990D01*
X71020Y-33961D01*
X70981Y-33904D01*
X70981Y-33790D01*
X71020Y-33733D01*
X71477Y-33990D02*
X71515Y-33933D01*
X71515Y-33790D01*
X71477Y-33733D01*
X71401Y-33704D01*
X71324Y-33704D01*
X71248Y-33733D01*
X71210Y-33790D01*
X71210Y-33933D01*
X71172Y-33990D01*
X71477Y-34533D02*
X71515Y-34476D01*
X71515Y-34362D01*
X71477Y-34304D01*
X71439Y-34276D01*
X71362Y-34247D01*
X71134Y-34247D01*
X71058Y-34276D01*
X71020Y-34304D01*
X70981Y-34362D01*
X70981Y-34476D01*
X71020Y-34533D01*
X71477Y-35018D02*
X71515Y-34961D01*
X71515Y-34847D01*
X71477Y-34790D01*
X71401Y-34761D01*
X71096Y-34761D01*
X71020Y-34790D01*
X70981Y-34847D01*
X70981Y-34961D01*
X71020Y-35018D01*
X71096Y-35047D01*
X71172Y-35047D01*
X71248Y-34761D01*
X66955Y-29651D02*
X66955Y-29994D01*
X67755Y-29823D02*
X66955Y-29823D01*
X67679Y-30537D02*
X67717Y-30508D01*
X67755Y-30422D01*
X67755Y-30365D01*
X67717Y-30280D01*
X67641Y-30222D01*
X67564Y-30194D01*
X67412Y-30165D01*
X67298Y-30165D01*
X67145Y-30194D01*
X67069Y-30222D01*
X66993Y-30280D01*
X66955Y-30365D01*
X66955Y-30422D01*
X66993Y-30508D01*
X67031Y-30537D01*
X66955Y-30908D02*
X66955Y-31022D01*
X66993Y-31080D01*
X67069Y-31137D01*
X67221Y-31165D01*
X67488Y-31165D01*
X67641Y-31137D01*
X67717Y-31080D01*
X67755Y-31022D01*
X67755Y-30908D01*
X67717Y-30851D01*
X67641Y-30794D01*
X67488Y-30765D01*
X67221Y-30765D01*
X67069Y-30794D01*
X66993Y-30851D01*
X66955Y-30908D01*
X67450Y-31880D02*
X67450Y-32337D01*
X67679Y-33423D02*
X67717Y-33394D01*
X67755Y-33308D01*
X67755Y-33251D01*
X67717Y-33166D01*
X67641Y-33108D01*
X67564Y-33080D01*
X67412Y-33051D01*
X67298Y-33051D01*
X67145Y-33080D01*
X67069Y-33108D01*
X66993Y-33166D01*
X66955Y-33251D01*
X66955Y-33308D01*
X66993Y-33394D01*
X67031Y-33423D01*
X67755Y-33680D02*
X66955Y-33680D01*
X66955Y-33823D01*
X66993Y-33908D01*
X67069Y-33966D01*
X67145Y-33994D01*
X67298Y-34023D01*
X67412Y-34023D01*
X67564Y-33994D01*
X67641Y-33966D01*
X67717Y-33908D01*
X67755Y-33823D01*
X67755Y-33680D01*
X67755Y-34623D02*
X67374Y-34423D01*
X67755Y-34280D02*
X66955Y-34280D01*
X66955Y-34508D01*
X66993Y-34566D01*
X67031Y-34594D01*
X67107Y-34623D01*
X67221Y-34623D01*
X67298Y-34594D01*
X67336Y-34566D01*
X67374Y-34508D01*
X67374Y-34280D01*
X67031Y-34851D02*
X66993Y-34880D01*
X66955Y-34937D01*
X66955Y-35080D01*
X66993Y-35137D01*
X67031Y-35166D01*
X67107Y-35194D01*
X67183Y-35194D01*
X67298Y-35166D01*
X67755Y-34823D01*
X67755Y-35194D01*
X66955Y-35565D02*
X66955Y-35622D01*
X66993Y-35679D01*
X67031Y-35708D01*
X67107Y-35737D01*
X67260Y-35765D01*
X67450Y-35765D01*
X67602Y-35737D01*
X67679Y-35708D01*
X67717Y-35679D01*
X67755Y-35622D01*
X67755Y-35565D01*
X67717Y-35508D01*
X67679Y-35479D01*
X67602Y-35451D01*
X67450Y-35422D01*
X67260Y-35422D01*
X67107Y-35451D01*
X67031Y-35479D01*
X66993Y-35508D01*
X66955Y-35565D01*
X67755Y-36336D02*
X67755Y-35993D01*
X67755Y-36165D02*
X66955Y-36165D01*
X67069Y-36108D01*
X67145Y-36050D01*
X67183Y-35993D01*
X66955Y-36536D02*
X66955Y-36907D01*
X67260Y-36707D01*
X67260Y-36793D01*
X67298Y-36850D01*
X67336Y-36879D01*
X67412Y-36907D01*
X67602Y-36907D01*
X67679Y-36879D01*
X67717Y-36850D01*
X67755Y-36793D01*
X67755Y-36621D01*
X67717Y-36564D01*
X67679Y-36536D01*
G54D12*
X45708Y-28544D02*
X45708Y-44292D01*
G54D13*
X50869Y-42430D03*
G54D14*
X50869Y-41430D03*
X51869Y-42430D03*
X51869Y-41430D03*
X52869Y-42430D03*
X52869Y-41430D03*
X53869Y-42430D03*
X53869Y-41430D03*
X54869Y-42430D03*
X54869Y-41430D03*
X55869Y-42430D03*
X55869Y-41430D03*
X56869Y-42430D03*
X56869Y-41430D03*
G54D15*
X55406Y-30815D03*
G54D16*
X56406Y-30815D03*
X56406Y-29815D03*
X47211Y-31955D03*
X47211Y-29955D03*
X50211Y-31955D03*
X50211Y-29955D03*
X49530Y-39355D03*
X49530Y-41355D03*
X46530Y-39355D03*
X46530Y-41355D03*
G54D13*
X66936Y-42430D03*
G54D14*
X66936Y-41430D03*
X67936Y-42430D03*
X67936Y-41430D03*
X68936Y-42430D03*
X68936Y-41430D03*
X69936Y-42430D03*
X69936Y-41430D03*
X70936Y-42430D03*
X70936Y-41430D03*
G54D13*
X60243Y-42430D03*
G54D14*
X60243Y-41430D03*
X61243Y-42430D03*
X61243Y-41430D03*
X62243Y-42430D03*
X62243Y-41430D03*
X63243Y-42430D03*
X63243Y-41430D03*
X64243Y-42430D03*
X64243Y-41430D03*
G54D13*
X53362Y-30209D03*
G54D14*
X53362Y-31209D03*
X52362Y-30209D03*
X52362Y-31209D03*
X51362Y-30209D03*
X51362Y-31209D03*
G54D13*
X46859Y-33467D03*
G54D14*
X46859Y-34467D03*
G54D17*
X49409Y-36797D03*
X49409Y-34797D03*
G54D18*
X71416Y-29568D03*
G54D19*
X46771Y-43190D03*
G54D14*
X67236Y-38573D03*
X63236Y-38573D03*
G54D13*
X58705Y-30815D03*
G54D14*
X58705Y-29815D03*
X59705Y-30815D03*
X59705Y-29815D03*
X60705Y-30815D03*
X60705Y-29815D03*
X61705Y-30815D03*
X61705Y-29815D03*
X62705Y-30815D03*
X62705Y-29815D03*
X63705Y-30815D03*
X63705Y-29815D03*
X64705Y-30815D03*
X64705Y-29815D03*
X65705Y-30815D03*
X65705Y-29815D03*
G54D20*
X52825Y-35453D03*
X57500Y-31831D03*
X70699Y-38888D03*
X51211Y-32224D03*
X46713Y-31053D03*
X64016Y-33917D03*
X69222Y-38917D03*
X68799Y-38504D03*
X55876Y-31713D03*
X54350Y-33445D03*
X55650Y-33947D03*
X56378Y-32441D03*
X51309Y-40748D03*
X57402Y-32835D03*
X55699Y-38406D03*
X53287Y-39754D03*
X63504Y-35837D03*
X56171Y-32953D03*
X50866Y-40335D03*
X60945Y-37047D03*
X55945Y-38907D03*
X52923Y-39341D03*
X63051Y-35482D03*
X51772Y-33031D03*
X51093Y-39478D03*
X54459Y-37687D03*
X63041Y-36929D03*
X59724Y-31673D03*
X61703Y-31585D03*
X64941Y-31713D03*
X60295Y-31604D03*
X63780Y-31644D03*
X65472Y-31673D03*
X53858Y-32953D03*
X59675Y-32224D03*
X60030Y-33671D03*
X59872Y-33051D03*
X58799Y-31594D03*
X58937Y-32992D03*
X58228Y-31427D03*
X58868Y-39744D03*
X57421Y-43179D03*
X65325Y-40492D03*
X60846Y-43071D03*
X61752Y-43110D03*
X54882Y-37362D03*
X64055Y-35935D03*
X69734Y-39321D03*
X51181Y-35157D03*
X57726Y-32421D03*
X58199Y-40620D03*
X60571Y-40443D03*
X57402Y-40030D03*
X51230Y-36998D03*
X51850Y-37638D03*
X62441Y-38445D03*
G54D21*
X59469Y-40265D02*
X59737Y-39997D01*
X61243Y-40416D02*
X61243Y-41430D01*
X59469Y-42156D02*
X59469Y-40265D01*
X51348Y-29262D02*
X51299Y-29262D01*
X52854Y-29970D02*
X52146Y-29262D01*
X52854Y-30590D02*
X52854Y-29970D01*
X60719Y-39997D02*
X60824Y-39997D01*
X46859Y-33467D02*
X46859Y-33121D01*
X52146Y-29262D02*
X51348Y-29262D01*
X60824Y-39997D02*
X61243Y-40416D01*
X50334Y-32470D02*
X52825Y-34961D01*
X52825Y-34961D02*
X52825Y-35453D01*
X46859Y-33121D02*
X47510Y-32470D01*
X47510Y-32470D02*
X48839Y-32470D01*
X53362Y-31098D02*
X52854Y-30590D01*
X64006Y-39380D02*
X64006Y-39397D01*
X70699Y-38888D02*
X70177Y-38888D01*
X57331Y-42430D02*
X57883Y-42982D01*
X57883Y-42982D02*
X59016Y-42982D01*
X59016Y-42982D02*
X59469Y-42529D01*
X59469Y-42529D02*
X59469Y-42156D01*
X56869Y-42430D02*
X57331Y-42430D01*
X59737Y-39997D02*
X60719Y-39997D01*
X48839Y-32470D02*
X50334Y-32470D01*
X58514Y-33907D02*
X58514Y-32642D01*
X58514Y-32642D02*
X57703Y-31831D01*
X57703Y-31831D02*
X57500Y-31831D01*
X58815Y-34208D02*
X58514Y-33907D01*
X51211Y-32224D02*
X50965Y-32470D01*
X63963Y-39397D02*
X63989Y-39397D01*
X64787Y-38573D02*
X63963Y-39397D01*
X61929Y-39997D02*
X62582Y-39997D01*
X63182Y-39397D02*
X64006Y-39397D01*
X62582Y-39997D02*
X63182Y-39397D01*
X60719Y-39997D02*
X61929Y-39997D01*
X67236Y-38573D02*
X64787Y-38573D01*
X70177Y-38888D02*
X69340Y-38051D01*
X69340Y-38051D02*
X68632Y-38051D01*
X68632Y-38051D02*
X68110Y-38573D01*
X68110Y-38573D02*
X67236Y-38573D01*
X63989Y-39397D02*
X64006Y-39380D01*
X50965Y-32470D02*
X50334Y-32470D01*
X47027Y-29262D02*
X51348Y-29262D01*
X46575Y-30857D02*
X46713Y-30995D01*
X53362Y-31209D02*
X53362Y-31098D01*
X47027Y-29262D02*
X46575Y-29714D01*
X46575Y-29714D02*
X46575Y-30857D01*
X46713Y-30995D02*
X46713Y-31053D01*
X63494Y-34439D02*
X64016Y-33917D01*
X59046Y-34439D02*
X63494Y-34439D01*
X58815Y-34208D02*
X59046Y-34439D01*
X67936Y-43038D02*
X67844Y-43130D01*
X69222Y-39755D02*
X69222Y-38917D01*
X66260Y-42973D02*
X66260Y-40866D01*
X67936Y-42430D02*
X67936Y-43038D01*
X66506Y-40620D02*
X68357Y-40620D01*
X66260Y-40866D02*
X66506Y-40620D01*
X66417Y-43130D02*
X66260Y-42973D01*
X68357Y-40620D02*
X69222Y-39755D01*
X67844Y-43130D02*
X66417Y-43130D01*
X66401Y-40367D02*
X68252Y-40367D01*
X68595Y-43383D02*
X66312Y-43383D01*
X66007Y-43078D02*
X66007Y-40761D01*
X68936Y-42430D02*
X68936Y-43042D01*
X68936Y-43042D02*
X68595Y-43383D01*
X66007Y-40761D02*
X66401Y-40367D01*
X68252Y-40367D02*
X68799Y-39820D01*
X68799Y-39820D02*
X68799Y-38504D01*
X66312Y-43383D02*
X66007Y-43078D01*
X52608Y-37815D02*
X52608Y-36732D01*
X55650Y-32805D02*
X55650Y-31939D01*
X55886Y-35778D02*
X56122Y-35542D01*
X52608Y-36732D02*
X53562Y-35778D01*
X51555Y-38189D02*
X52234Y-38189D01*
X55650Y-33101D02*
X55650Y-32805D01*
X49530Y-40214D02*
X51555Y-38189D01*
X53562Y-35778D02*
X55886Y-35778D01*
X46530Y-41355D02*
X49530Y-41355D01*
X55650Y-31939D02*
X55876Y-31713D01*
X56122Y-33573D02*
X55650Y-33101D01*
X56122Y-35542D02*
X56122Y-33573D01*
X49530Y-41355D02*
X49530Y-40214D01*
X52234Y-38189D02*
X52608Y-37815D01*
X53910Y-30209D02*
X53362Y-30209D01*
X54341Y-33436D02*
X54341Y-30640D01*
X54341Y-30640D02*
X53910Y-30209D01*
X54350Y-33445D02*
X54341Y-33436D01*
X52362Y-32077D02*
X54134Y-33849D01*
X54134Y-33849D02*
X55552Y-33849D01*
X52362Y-31209D02*
X52362Y-32077D01*
X55552Y-33849D02*
X55650Y-33947D01*
X56644Y-33563D02*
X56644Y-32707D01*
X54124Y-36299D02*
X56093Y-36299D01*
X56644Y-35748D02*
X56644Y-34508D01*
X52372Y-42067D02*
X52372Y-39016D01*
X52372Y-39016D02*
X53297Y-38091D01*
X56644Y-32707D02*
X56378Y-32441D01*
X53297Y-38091D02*
X53297Y-37126D01*
X56644Y-34508D02*
X56644Y-33563D01*
X56093Y-36299D02*
X56644Y-35748D01*
X53297Y-37126D02*
X54124Y-36299D01*
X52009Y-42430D02*
X52372Y-42067D01*
X51869Y-42430D02*
X52009Y-42430D01*
X51309Y-40748D02*
X51368Y-40807D01*
X51368Y-40807D02*
X51368Y-41931D01*
X51368Y-41931D02*
X50869Y-42430D01*
X56368Y-40915D02*
X56368Y-40680D01*
X55315Y-43179D02*
X56073Y-43179D01*
X57667Y-33947D02*
X57402Y-33682D01*
X58511Y-34790D02*
X63573Y-34790D01*
X54869Y-42733D02*
X55315Y-43179D01*
X54869Y-42430D02*
X54869Y-42733D01*
X59518Y-38543D02*
X58780Y-39281D01*
X57579Y-40482D02*
X56566Y-40482D01*
X56073Y-43179D02*
X56368Y-42884D01*
X56368Y-42884D02*
X56368Y-40915D01*
X56368Y-40680D02*
X56566Y-40482D01*
X57668Y-33947D02*
X58511Y-34790D01*
X58780Y-39281D02*
X57579Y-40482D01*
X64095Y-34790D02*
X64810Y-35505D01*
X64810Y-36937D02*
X63873Y-37874D01*
X64810Y-35505D02*
X64810Y-36937D01*
X57402Y-33682D02*
X57402Y-32835D01*
X63873Y-37874D02*
X62165Y-37874D01*
X63573Y-34790D02*
X64095Y-34790D01*
X62165Y-37874D02*
X61496Y-38543D01*
X61496Y-38543D02*
X59518Y-38543D01*
X57668Y-33947D02*
X57667Y-33947D01*
X55845Y-42430D02*
X55374Y-41959D01*
X55374Y-38731D02*
X55699Y-38406D01*
X55374Y-41959D02*
X55374Y-38731D01*
X55869Y-42430D02*
X55845Y-42430D01*
X53287Y-39754D02*
X53366Y-39833D01*
X53366Y-41933D02*
X52869Y-42430D01*
X53366Y-39833D02*
X53366Y-41933D01*
X54065Y-37362D02*
X54065Y-39291D01*
X57851Y-35945D02*
X56837Y-36959D01*
X63396Y-35945D02*
X57851Y-35945D01*
X56837Y-36959D02*
X54468Y-36959D01*
X54370Y-39596D02*
X54370Y-41929D01*
X54370Y-41929D02*
X53869Y-42430D01*
X54065Y-39291D02*
X54370Y-39596D01*
X63504Y-35837D02*
X63396Y-35945D01*
X54468Y-36959D02*
X54065Y-37362D01*
X53935Y-36046D02*
X52943Y-37038D01*
X56171Y-32953D02*
X56378Y-33160D01*
X55989Y-36046D02*
X53935Y-36046D01*
X56378Y-33160D02*
X56378Y-35657D01*
X56378Y-35657D02*
X55989Y-36046D01*
X51869Y-39047D02*
X51869Y-41430D01*
X52943Y-37038D02*
X52943Y-37973D01*
X52943Y-37973D02*
X51869Y-39047D01*
X50869Y-40338D02*
X50869Y-41430D01*
X50866Y-40335D02*
X50869Y-40338D01*
X60664Y-36766D02*
X58146Y-36766D01*
X55512Y-37982D02*
X54872Y-38622D01*
X60945Y-37047D02*
X60664Y-36766D01*
X56930Y-37982D02*
X55512Y-37982D01*
X54872Y-38622D02*
X54872Y-39508D01*
X54872Y-41427D02*
X54869Y-41430D01*
X54872Y-39508D02*
X54872Y-41427D01*
X58146Y-36766D02*
X56930Y-37982D01*
X55869Y-40702D02*
X55866Y-40699D01*
X55866Y-40699D02*
X55866Y-38986D01*
X55866Y-38986D02*
X55945Y-38907D01*
X55869Y-41430D02*
X55869Y-40702D01*
X52923Y-39341D02*
X52869Y-39395D01*
X52869Y-39395D02*
X52869Y-41430D01*
X53869Y-41430D02*
X53869Y-39489D01*
X57894Y-35482D02*
X63051Y-35482D01*
X53750Y-39370D02*
X53750Y-37224D01*
X53750Y-37224D02*
X54311Y-36663D01*
X53869Y-39489D02*
X53750Y-39370D01*
X56713Y-36663D02*
X57894Y-35482D01*
X54311Y-36663D02*
X56713Y-36663D01*
X51860Y-32943D02*
X51860Y-30707D01*
X50157Y-40984D02*
X50157Y-40414D01*
X51860Y-30707D02*
X51362Y-30209D01*
X51108Y-29955D02*
X51362Y-30209D01*
X50211Y-29955D02*
X51108Y-29955D01*
X47211Y-29955D02*
X50211Y-29955D01*
X50157Y-40414D02*
X51093Y-39478D01*
X62243Y-41430D02*
X62247Y-41430D01*
X50157Y-43405D02*
X50157Y-40984D01*
X50679Y-43927D02*
X50157Y-43405D01*
X62038Y-43927D02*
X50679Y-43927D01*
X62746Y-43219D02*
X62038Y-43927D01*
X62746Y-41929D02*
X62746Y-43219D01*
X62247Y-41430D02*
X62746Y-41929D01*
X51772Y-33031D02*
X51860Y-32943D01*
X56825Y-37687D02*
X56496Y-37687D01*
X55109Y-37687D02*
X55011Y-37785D01*
X61713Y-36513D02*
X57999Y-36513D01*
X61713Y-36513D02*
X62625Y-36513D01*
X55011Y-37785D02*
X54557Y-37785D01*
X57999Y-36513D02*
X56825Y-37687D01*
X54557Y-37785D02*
X54459Y-37687D01*
X62625Y-36513D02*
X63041Y-36929D01*
X56496Y-37687D02*
X55109Y-37687D01*
X65648Y-30815D02*
X65148Y-30315D01*
X65148Y-30315D02*
X64410Y-30315D01*
X64213Y-30118D02*
X64213Y-29577D01*
X64213Y-29577D02*
X63704Y-29068D01*
X57593Y-29815D02*
X58340Y-29068D01*
X65705Y-30815D02*
X65648Y-30815D01*
X64410Y-30315D02*
X64213Y-30118D01*
X56406Y-29815D02*
X57593Y-29815D01*
X58340Y-29068D02*
X63704Y-29068D01*
X59724Y-31673D02*
X59705Y-31654D01*
X59705Y-31654D02*
X59705Y-30815D01*
X61705Y-31583D02*
X61705Y-30815D01*
X61703Y-31585D02*
X61705Y-31583D01*
X64459Y-31713D02*
X63705Y-30959D01*
X64941Y-31713D02*
X64459Y-31713D01*
X63705Y-30959D02*
X63705Y-30815D01*
X60207Y-30317D02*
X59705Y-29815D01*
X60207Y-31516D02*
X60207Y-30317D01*
X60295Y-31604D02*
X60207Y-31516D01*
X62254Y-30315D02*
X63022Y-30315D01*
X61705Y-29815D02*
X61754Y-29815D01*
X63199Y-31063D02*
X63780Y-31644D01*
X61754Y-29815D02*
X62254Y-30315D01*
X63022Y-30315D02*
X63199Y-30492D01*
X63199Y-30492D02*
X63199Y-31063D01*
X64508Y-31309D02*
X65108Y-31309D01*
X63705Y-30112D02*
X64205Y-30612D01*
X64458Y-31309D02*
X64508Y-31309D01*
X65108Y-31309D02*
X65472Y-31673D01*
X64205Y-31056D02*
X64458Y-31309D01*
X63705Y-29815D02*
X63705Y-30112D01*
X64205Y-30612D02*
X64205Y-31056D01*
X52854Y-31348D02*
X52854Y-30993D01*
X52362Y-30501D02*
X52362Y-30209D01*
X52854Y-30993D02*
X52362Y-30501D01*
X52854Y-31348D02*
X52854Y-31949D01*
X52854Y-31949D02*
X53858Y-32953D01*
X59203Y-31752D02*
X59675Y-32224D01*
X58772Y-29815D02*
X59203Y-30246D01*
X59203Y-30246D02*
X59203Y-31752D01*
X58705Y-29815D02*
X58772Y-29815D01*
X61181Y-32520D02*
X60030Y-33671D01*
X60789Y-29815D02*
X61211Y-30237D01*
X61211Y-32520D02*
X61181Y-32520D01*
X60705Y-29815D02*
X60789Y-29815D01*
X61211Y-30237D02*
X61211Y-32520D01*
X58484Y-32254D02*
X57717Y-31487D01*
X58796Y-32254D02*
X58484Y-32254D01*
X59593Y-33051D02*
X58796Y-32254D01*
X62705Y-29815D02*
X62705Y-29585D01*
X62441Y-29321D02*
X58445Y-29321D01*
X62705Y-29585D02*
X62441Y-29321D01*
X58445Y-29321D02*
X58110Y-29656D01*
X59872Y-33051D02*
X59593Y-33051D01*
X57717Y-30049D02*
X58110Y-29656D01*
X57717Y-31487D02*
X57717Y-30049D01*
X58799Y-31594D02*
X58799Y-30909D01*
X58799Y-30909D02*
X58705Y-30815D01*
X58937Y-32992D02*
X58937Y-33582D01*
X60236Y-34124D02*
X62705Y-31655D01*
X59479Y-34124D02*
X60236Y-34124D01*
X62705Y-31655D02*
X62705Y-30815D01*
X58937Y-33582D02*
X59479Y-34124D01*
X58406Y-31605D02*
X58406Y-31753D01*
X58641Y-31988D02*
X59054Y-31988D01*
X58228Y-31427D02*
X58406Y-31605D01*
X58406Y-31753D02*
X58641Y-31988D01*
X59281Y-32215D02*
X59281Y-32381D01*
X59054Y-31988D02*
X59281Y-32215D01*
X60705Y-31992D02*
X60705Y-30815D01*
X59281Y-32381D02*
X59518Y-32618D01*
X59518Y-32618D02*
X60079Y-32618D01*
X60079Y-32618D02*
X60705Y-31992D01*
X58868Y-39744D02*
X60994Y-39744D01*
X62933Y-39144D02*
X63396Y-39144D01*
X65006Y-29815D02*
X65506Y-30315D01*
X65506Y-30315D02*
X65994Y-30315D01*
X64705Y-29815D02*
X65006Y-29815D01*
X62333Y-39744D02*
X62933Y-39144D01*
X66290Y-30611D02*
X65994Y-30315D01*
X66290Y-30611D02*
X66290Y-31771D01*
X63858Y-39144D02*
X65063Y-37939D01*
X65063Y-37939D02*
X65063Y-32998D01*
X65063Y-32998D02*
X66290Y-31771D01*
X63396Y-39144D02*
X63858Y-39144D01*
X60994Y-39744D02*
X62333Y-39744D01*
X57500Y-43258D02*
X59415Y-43258D01*
X59415Y-43258D02*
X60243Y-42430D01*
X57421Y-43179D02*
X57500Y-43258D01*
X65325Y-40492D02*
X65335Y-40502D01*
X65335Y-40502D02*
X65335Y-41840D01*
X65335Y-41840D02*
X64745Y-42430D01*
X64745Y-42430D02*
X64243Y-42430D01*
X61243Y-42674D02*
X60846Y-43071D01*
X61243Y-42430D02*
X61243Y-42674D01*
X62243Y-42430D02*
X62243Y-42619D01*
X62243Y-42619D02*
X61752Y-43110D01*
X57894Y-36260D02*
X56871Y-37283D01*
X62549Y-36260D02*
X57894Y-36260D01*
X56871Y-37283D02*
X56545Y-37283D01*
X56545Y-37283D02*
X54961Y-37283D01*
X54961Y-37283D02*
X54882Y-37362D01*
X62549Y-36260D02*
X63730Y-36260D01*
X63730Y-36260D02*
X64055Y-35935D01*
X47679Y-34467D02*
X46859Y-34467D01*
X63744Y-41929D02*
X63744Y-43055D01*
X46053Y-42352D02*
X46053Y-39832D01*
X65232Y-28815D02*
X65010Y-28815D01*
X70936Y-42430D02*
X72018Y-41348D01*
X51181Y-35157D02*
X51093Y-35069D01*
X46598Y-28815D02*
X46093Y-29320D01*
X65010Y-28815D02*
X70663Y-28815D01*
X72018Y-38268D02*
X72018Y-30170D01*
X46530Y-39355D02*
X49530Y-39355D01*
X46525Y-34467D02*
X46859Y-34467D01*
X65010Y-28815D02*
X55900Y-28815D01*
X72018Y-38268D02*
X72018Y-38484D01*
X46771Y-43070D02*
X46053Y-42352D01*
X46093Y-34016D02*
X46093Y-34035D01*
X51093Y-33652D02*
X50492Y-33051D01*
X46093Y-34035D02*
X46525Y-34467D01*
X47211Y-31955D02*
X50211Y-31955D01*
X55900Y-28815D02*
X46598Y-28815D01*
X70663Y-28815D02*
X71416Y-29568D01*
X51093Y-35069D02*
X51093Y-33652D01*
X57726Y-32421D02*
X57638Y-32333D01*
X69577Y-43789D02*
X70936Y-42430D01*
X63744Y-43055D02*
X64478Y-43789D01*
X55900Y-28815D02*
X55406Y-29309D01*
X65705Y-29288D02*
X65232Y-28815D01*
X63744Y-41929D02*
X64243Y-41430D01*
X60279Y-41430D02*
X60778Y-41929D01*
X60243Y-41430D02*
X60279Y-41430D01*
X55406Y-29309D02*
X55406Y-30815D01*
X64478Y-43789D02*
X69577Y-43789D01*
X72018Y-38484D02*
X71181Y-39321D01*
X46093Y-31595D02*
X46093Y-34016D01*
X46093Y-38918D02*
X46530Y-39355D01*
X46093Y-34016D02*
X46093Y-38918D01*
X65705Y-29815D02*
X65705Y-29288D01*
X50616Y-31955D02*
X51362Y-31209D01*
X50211Y-31955D02*
X50616Y-31955D01*
X46453Y-31955D02*
X46093Y-31595D01*
X47211Y-31955D02*
X46453Y-31955D01*
X57018Y-30502D02*
X56831Y-30315D01*
X56831Y-30315D02*
X55906Y-30315D01*
X55906Y-30315D02*
X55406Y-30815D01*
X57638Y-32333D02*
X57500Y-32333D01*
X57500Y-32333D02*
X57333Y-32333D01*
X57333Y-32333D02*
X57018Y-32018D01*
X57018Y-32018D02*
X57018Y-30502D01*
X60778Y-41929D02*
X61624Y-41929D01*
X63640Y-40827D02*
X64243Y-41430D01*
X62057Y-40827D02*
X63640Y-40827D01*
X46093Y-29320D02*
X46093Y-30423D01*
X61624Y-41929D02*
X61742Y-41811D01*
X61742Y-41142D02*
X62057Y-40827D01*
X61742Y-41811D02*
X61742Y-41142D01*
X46093Y-30869D02*
X46093Y-31595D01*
X46093Y-30423D02*
X46093Y-30869D01*
X72018Y-41348D02*
X72018Y-38268D01*
X71181Y-39321D02*
X69734Y-39321D01*
X49095Y-33051D02*
X47679Y-34467D01*
X46771Y-43190D02*
X46771Y-43070D01*
X46053Y-39832D02*
X46530Y-39355D01*
X72018Y-30170D02*
X71416Y-29568D01*
X57389Y-41430D02*
X58199Y-40620D01*
X50492Y-33051D02*
X49095Y-33051D01*
X56869Y-41430D02*
X57389Y-41430D01*
X60243Y-41430D02*
X60243Y-40771D01*
X60243Y-40771D02*
X60571Y-40443D01*
X57982Y-37638D02*
X57402Y-38218D01*
X58740Y-37638D02*
X58711Y-37638D01*
X57402Y-38218D02*
X57402Y-40030D01*
X56998Y-34607D02*
X57480Y-35089D01*
X56998Y-33317D02*
X56998Y-34607D01*
X57480Y-35089D02*
X63268Y-35089D01*
X64557Y-36831D02*
X63898Y-37490D01*
X61751Y-37638D02*
X59331Y-37638D01*
X63268Y-35089D02*
X64036Y-35089D01*
X59331Y-37638D02*
X57982Y-37638D01*
X59331Y-37638D02*
X58740Y-37638D01*
X64557Y-35610D02*
X64557Y-36831D01*
X64036Y-35089D02*
X64557Y-35610D01*
X63898Y-37490D02*
X61899Y-37490D01*
X61899Y-37490D02*
X61751Y-37638D01*
X56998Y-33317D02*
X56998Y-32480D01*
X56406Y-31888D02*
X56406Y-30815D01*
X56998Y-32480D02*
X56406Y-31888D01*
X51230Y-36998D02*
X49610Y-36998D01*
X49610Y-36998D02*
X49409Y-36797D01*
X49409Y-34797D02*
X49984Y-34797D01*
X49984Y-34797D02*
X51850Y-36663D01*
X51850Y-36663D02*
X51850Y-37638D01*
X63236Y-38573D02*
X62569Y-38573D01*
X62569Y-38573D02*
X62441Y-38445D01*
G54D10*
G36*
X58643Y-34478D02*
X58640Y-34478D01*
X57889Y-33726D01*
X57883Y-33722D01*
X57714Y-33552D01*
X57714Y-33153D01*
X57780Y-33088D01*
X57848Y-32924D01*
X57848Y-32747D01*
X57780Y-32583D01*
X57655Y-32457D01*
X57491Y-32389D01*
X57314Y-32389D01*
X57293Y-32397D01*
X57286Y-32361D01*
X57286Y-32360D01*
X57259Y-32319D01*
X57219Y-32259D01*
X57216Y-32257D01*
X56718Y-31758D01*
X56718Y-31245D01*
X56851Y-31113D01*
X56931Y-30920D01*
X56931Y-30711D01*
X56851Y-30518D01*
X56704Y-30370D01*
X56570Y-30314D01*
X56703Y-30260D01*
X56836Y-30127D01*
X57405Y-30127D01*
X57405Y-31387D01*
X57248Y-31453D01*
X57122Y-31578D01*
X57054Y-31742D01*
X57054Y-31919D01*
X57122Y-32083D01*
X57247Y-32209D01*
X57411Y-32277D01*
X57588Y-32277D01*
X57672Y-32242D01*
X58202Y-32771D01*
X58202Y-33902D01*
X58201Y-33907D01*
X58226Y-34027D01*
X58293Y-34128D01*
X58592Y-34426D01*
X58594Y-34429D01*
X58643Y-34478D01*
X58643Y-34478D01*
G37*
G54D11*
X58643Y-34478D02*
X58640Y-34478D01*
X57889Y-33726D01*
X57883Y-33722D01*
X57714Y-33552D01*
X57714Y-33153D01*
X57780Y-33088D01*
X57848Y-32924D01*
X57848Y-32747D01*
X57780Y-32583D01*
X57655Y-32457D01*
X57491Y-32389D01*
X57314Y-32389D01*
X57293Y-32397D01*
X57286Y-32361D01*
X57286Y-32360D01*
X57259Y-32319D01*
X57219Y-32259D01*
X57216Y-32257D01*
X56718Y-31758D01*
X56718Y-31245D01*
X56851Y-31113D01*
X56931Y-30920D01*
X56931Y-30711D01*
X56851Y-30518D01*
X56704Y-30370D01*
X56570Y-30314D01*
X56703Y-30260D01*
X56836Y-30127D01*
X57405Y-30127D01*
X57405Y-31387D01*
X57248Y-31453D01*
X57122Y-31578D01*
X57054Y-31742D01*
X57054Y-31919D01*
X57122Y-32083D01*
X57247Y-32209D01*
X57411Y-32277D01*
X57588Y-32277D01*
X57672Y-32242D01*
X58202Y-32771D01*
X58202Y-33902D01*
X58201Y-33907D01*
X58226Y-34027D01*
X58293Y-34128D01*
X58592Y-34426D01*
X58594Y-34429D01*
X58643Y-34478D01*
G54D10*
G36*
X59240Y-40056D02*
X59181Y-40145D01*
X59156Y-40265D01*
X59157Y-40269D01*
X59157Y-42156D01*
X59157Y-42399D01*
X58886Y-42670D01*
X58012Y-42670D01*
X57552Y-42209D01*
X57451Y-42142D01*
X57412Y-42133D01*
X57412Y-41509D01*
X57401Y-41296D01*
X57341Y-41149D01*
X57247Y-41122D01*
X56940Y-41430D01*
X57247Y-41738D01*
X57341Y-41711D01*
X57412Y-41509D01*
X57412Y-42133D01*
X57332Y-42117D01*
X57180Y-41965D01*
X57088Y-41927D01*
X57150Y-41902D01*
X57177Y-41808D01*
X56904Y-41536D01*
X56869Y-41501D01*
X56798Y-41430D01*
X56869Y-41359D01*
X56904Y-41324D01*
X57177Y-41052D01*
X57150Y-40958D01*
X56948Y-40887D01*
X56735Y-40898D01*
X56680Y-40920D01*
X56680Y-40915D01*
X56680Y-40810D01*
X56696Y-40794D01*
X57574Y-40794D01*
X57579Y-40795D01*
X57579Y-40794D01*
X57698Y-40770D01*
X57699Y-40770D01*
X57800Y-40703D01*
X58498Y-40004D01*
X58615Y-40122D01*
X58779Y-40190D01*
X58956Y-40190D01*
X59120Y-40122D01*
X59186Y-40056D01*
X59240Y-40056D01*
X59240Y-40056D01*
G37*
G54D11*
X59240Y-40056D02*
X59181Y-40145D01*
X59156Y-40265D01*
X59157Y-40269D01*
X59157Y-42156D01*
X59157Y-42399D01*
X58886Y-42670D01*
X58012Y-42670D01*
X57552Y-42209D01*
X57451Y-42142D01*
X57412Y-42133D01*
X57412Y-41509D01*
X57401Y-41296D01*
X57341Y-41149D01*
X57247Y-41122D01*
X56940Y-41430D01*
X57247Y-41738D01*
X57341Y-41711D01*
X57412Y-41509D01*
X57412Y-42133D01*
X57332Y-42117D01*
X57180Y-41965D01*
X57088Y-41927D01*
X57150Y-41902D01*
X57177Y-41808D01*
X56904Y-41536D01*
X56869Y-41501D01*
X56798Y-41430D01*
X56869Y-41359D01*
X56904Y-41324D01*
X57177Y-41052D01*
X57150Y-40958D01*
X56948Y-40887D01*
X56735Y-40898D01*
X56680Y-40920D01*
X56680Y-40915D01*
X56680Y-40810D01*
X56696Y-40794D01*
X57574Y-40794D01*
X57579Y-40795D01*
X57579Y-40794D01*
X57698Y-40770D01*
X57699Y-40770D01*
X57800Y-40703D01*
X58498Y-40004D01*
X58615Y-40122D01*
X58779Y-40190D01*
X58956Y-40190D01*
X59120Y-40122D01*
X59186Y-40056D01*
X59240Y-40056D01*
G54D10*
G36*
X61016Y-41930D02*
X60932Y-41965D01*
X60792Y-42105D01*
X60792Y-42081D01*
X60754Y-41989D01*
X60684Y-41919D01*
X60593Y-41881D01*
X60530Y-41881D01*
X60551Y-41808D01*
X60243Y-41501D01*
X59935Y-41808D01*
X59955Y-41881D01*
X59894Y-41881D01*
X59802Y-41919D01*
X59781Y-41940D01*
X59781Y-41713D01*
X59865Y-41738D01*
X60172Y-41430D01*
X59865Y-41122D01*
X59781Y-41146D01*
X59781Y-40395D01*
X59867Y-40309D01*
X60694Y-40309D01*
X60931Y-40545D01*
X60931Y-40966D01*
X60778Y-41119D01*
X60740Y-41210D01*
X60715Y-41149D01*
X60621Y-41122D01*
X60551Y-41192D01*
X60551Y-41052D01*
X60524Y-40958D01*
X60322Y-40887D01*
X60109Y-40898D01*
X59962Y-40958D01*
X59935Y-41052D01*
X60243Y-41359D01*
X60551Y-41052D01*
X60551Y-41192D01*
X60314Y-41430D01*
X60621Y-41738D01*
X60715Y-41711D01*
X60738Y-41645D01*
X60778Y-41741D01*
X60932Y-41895D01*
X61016Y-41930D01*
X61016Y-41930D01*
G37*
G54D11*
X61016Y-41930D02*
X60932Y-41965D01*
X60792Y-42105D01*
X60792Y-42081D01*
X60754Y-41989D01*
X60684Y-41919D01*
X60593Y-41881D01*
X60530Y-41881D01*
X60551Y-41808D01*
X60243Y-41501D01*
X59935Y-41808D01*
X59955Y-41881D01*
X59894Y-41881D01*
X59802Y-41919D01*
X59781Y-41940D01*
X59781Y-41713D01*
X59865Y-41738D01*
X60172Y-41430D01*
X59865Y-41122D01*
X59781Y-41146D01*
X59781Y-40395D01*
X59867Y-40309D01*
X60694Y-40309D01*
X60931Y-40545D01*
X60931Y-40966D01*
X60778Y-41119D01*
X60740Y-41210D01*
X60715Y-41149D01*
X60621Y-41122D01*
X60551Y-41192D01*
X60551Y-41052D01*
X60524Y-40958D01*
X60322Y-40887D01*
X60109Y-40898D01*
X59962Y-40958D01*
X59935Y-41052D01*
X60243Y-41359D01*
X60551Y-41052D01*
X60551Y-41192D01*
X60314Y-41430D01*
X60621Y-41738D01*
X60715Y-41711D01*
X60738Y-41645D01*
X60778Y-41741D01*
X60932Y-41895D01*
X61016Y-41930D01*
G54D10*
G36*
X62016Y-41930D02*
X61932Y-41965D01*
X61778Y-42119D01*
X61743Y-42203D01*
X61708Y-42119D01*
X61554Y-41965D01*
X61469Y-41930D01*
X61554Y-41895D01*
X61708Y-41741D01*
X61743Y-41656D01*
X61778Y-41741D01*
X61932Y-41895D01*
X62016Y-41930D01*
X62016Y-41930D01*
G37*
G54D11*
X62016Y-41930D02*
X61932Y-41965D01*
X61778Y-42119D01*
X61743Y-42203D01*
X61708Y-42119D01*
X61554Y-41965D01*
X61469Y-41930D01*
X61554Y-41895D01*
X61708Y-41741D01*
X61743Y-41656D01*
X61778Y-41741D01*
X61932Y-41895D01*
X62016Y-41930D01*
G54D10*
G36*
X68487Y-39690D02*
X68122Y-40055D01*
X66401Y-40055D01*
X66281Y-40079D01*
X66240Y-40105D01*
X66180Y-40146D01*
X66178Y-40148D01*
X65786Y-40540D01*
X65771Y-40562D01*
X65771Y-40404D01*
X65703Y-40240D01*
X65578Y-40114D01*
X65414Y-40046D01*
X65237Y-40046D01*
X65073Y-40114D01*
X64947Y-40239D01*
X64879Y-40403D01*
X64879Y-40580D01*
X64947Y-40744D01*
X65023Y-40820D01*
X65023Y-41710D01*
X64786Y-41947D01*
X64786Y-41509D01*
X64775Y-41296D01*
X64715Y-41149D01*
X64621Y-41122D01*
X64551Y-41192D01*
X64551Y-41052D01*
X64524Y-40958D01*
X64322Y-40887D01*
X64109Y-40898D01*
X63962Y-40958D01*
X63935Y-41052D01*
X64243Y-41359D01*
X64551Y-41052D01*
X64551Y-41192D01*
X64314Y-41430D01*
X64621Y-41738D01*
X64715Y-41711D01*
X64786Y-41509D01*
X64786Y-41947D01*
X64661Y-42072D01*
X64554Y-41965D01*
X64462Y-41927D01*
X64524Y-41902D01*
X64551Y-41808D01*
X64243Y-41501D01*
X63935Y-41808D01*
X63962Y-41902D01*
X64027Y-41925D01*
X63932Y-41965D01*
X63778Y-42119D01*
X63743Y-42203D01*
X63708Y-42119D01*
X63554Y-41965D01*
X63469Y-41930D01*
X63554Y-41895D01*
X63708Y-41741D01*
X63745Y-41649D01*
X63771Y-41711D01*
X63865Y-41738D01*
X64172Y-41430D01*
X63865Y-41122D01*
X63771Y-41149D01*
X63747Y-41214D01*
X63708Y-41119D01*
X63554Y-40965D01*
X63352Y-40881D01*
X63134Y-40881D01*
X62932Y-40965D01*
X62778Y-41119D01*
X62743Y-41203D01*
X62708Y-41119D01*
X62554Y-40965D01*
X62352Y-40881D01*
X62134Y-40881D01*
X61932Y-40965D01*
X61778Y-41119D01*
X61743Y-41203D01*
X61708Y-41119D01*
X61555Y-40966D01*
X61555Y-40416D01*
X61533Y-40309D01*
X61929Y-40309D01*
X62577Y-40309D01*
X62582Y-40310D01*
X62582Y-40309D01*
X62701Y-40285D01*
X62702Y-40285D01*
X62803Y-40218D01*
X63311Y-39709D01*
X63958Y-39709D01*
X63963Y-39710D01*
X63963Y-39709D01*
X63967Y-39709D01*
X63984Y-39709D01*
X63989Y-39710D01*
X63989Y-39709D01*
X63993Y-39709D01*
X64006Y-39709D01*
X64125Y-39685D01*
X64227Y-39618D01*
X64294Y-39516D01*
X64296Y-39505D01*
X64916Y-38885D01*
X66772Y-38885D01*
X66925Y-39038D01*
X67127Y-39122D01*
X67345Y-39122D01*
X67547Y-39038D01*
X67700Y-38885D01*
X68105Y-38885D01*
X68110Y-38886D01*
X68110Y-38885D01*
X68229Y-38861D01*
X68230Y-38861D01*
X68331Y-38794D01*
X68405Y-38719D01*
X68421Y-38756D01*
X68487Y-38822D01*
X68487Y-39690D01*
X68487Y-39690D01*
G37*
G54D11*
X68487Y-39690D02*
X68122Y-40055D01*
X66401Y-40055D01*
X66281Y-40079D01*
X66240Y-40105D01*
X66180Y-40146D01*
X66178Y-40148D01*
X65786Y-40540D01*
X65771Y-40562D01*
X65771Y-40404D01*
X65703Y-40240D01*
X65578Y-40114D01*
X65414Y-40046D01*
X65237Y-40046D01*
X65073Y-40114D01*
X64947Y-40239D01*
X64879Y-40403D01*
X64879Y-40580D01*
X64947Y-40744D01*
X65023Y-40820D01*
X65023Y-41710D01*
X64786Y-41947D01*
X64786Y-41509D01*
X64775Y-41296D01*
X64715Y-41149D01*
X64621Y-41122D01*
X64551Y-41192D01*
X64551Y-41052D01*
X64524Y-40958D01*
X64322Y-40887D01*
X64109Y-40898D01*
X63962Y-40958D01*
X63935Y-41052D01*
X64243Y-41359D01*
X64551Y-41052D01*
X64551Y-41192D01*
X64314Y-41430D01*
X64621Y-41738D01*
X64715Y-41711D01*
X64786Y-41509D01*
X64786Y-41947D01*
X64661Y-42072D01*
X64554Y-41965D01*
X64462Y-41927D01*
X64524Y-41902D01*
X64551Y-41808D01*
X64243Y-41501D01*
X63935Y-41808D01*
X63962Y-41902D01*
X64027Y-41925D01*
X63932Y-41965D01*
X63778Y-42119D01*
X63743Y-42203D01*
X63708Y-42119D01*
X63554Y-41965D01*
X63469Y-41930D01*
X63554Y-41895D01*
X63708Y-41741D01*
X63745Y-41649D01*
X63771Y-41711D01*
X63865Y-41738D01*
X64172Y-41430D01*
X63865Y-41122D01*
X63771Y-41149D01*
X63747Y-41214D01*
X63708Y-41119D01*
X63554Y-40965D01*
X63352Y-40881D01*
X63134Y-40881D01*
X62932Y-40965D01*
X62778Y-41119D01*
X62743Y-41203D01*
X62708Y-41119D01*
X62554Y-40965D01*
X62352Y-40881D01*
X62134Y-40881D01*
X61932Y-40965D01*
X61778Y-41119D01*
X61743Y-41203D01*
X61708Y-41119D01*
X61555Y-40966D01*
X61555Y-40416D01*
X61533Y-40309D01*
X61929Y-40309D01*
X62577Y-40309D01*
X62582Y-40310D01*
X62582Y-40309D01*
X62701Y-40285D01*
X62702Y-40285D01*
X62803Y-40218D01*
X63311Y-39709D01*
X63958Y-39709D01*
X63963Y-39710D01*
X63963Y-39709D01*
X63967Y-39709D01*
X63984Y-39709D01*
X63989Y-39710D01*
X63989Y-39709D01*
X63993Y-39709D01*
X64006Y-39709D01*
X64125Y-39685D01*
X64227Y-39618D01*
X64294Y-39516D01*
X64296Y-39505D01*
X64916Y-38885D01*
X66772Y-38885D01*
X66925Y-39038D01*
X67127Y-39122D01*
X67345Y-39122D01*
X67547Y-39038D01*
X67700Y-38885D01*
X68105Y-38885D01*
X68110Y-38886D01*
X68110Y-38885D01*
X68229Y-38861D01*
X68230Y-38861D01*
X68331Y-38794D01*
X68405Y-38719D01*
X68421Y-38756D01*
X68487Y-38822D01*
X68487Y-39690D01*
G54D10*
G36*
X72429Y-44242D02*
X72069Y-44242D01*
X72069Y-30291D01*
X71416Y-29639D01*
X71345Y-29709D01*
X71345Y-29568D01*
X70693Y-28915D01*
X70550Y-29000D01*
X70398Y-29375D01*
X70402Y-29779D01*
X70550Y-30136D01*
X70693Y-30221D01*
X71345Y-29568D01*
X71345Y-29709D01*
X70763Y-30291D01*
X70848Y-30434D01*
X71223Y-30586D01*
X71627Y-30582D01*
X71984Y-30434D01*
X72069Y-30291D01*
X72069Y-44242D01*
X71479Y-44242D01*
X71479Y-42509D01*
X71468Y-42296D01*
X71408Y-42149D01*
X71314Y-42122D01*
X71007Y-42430D01*
X71314Y-42738D01*
X71408Y-42711D01*
X71479Y-42509D01*
X71479Y-44242D01*
X71244Y-44242D01*
X71244Y-42808D01*
X70936Y-42501D01*
X70628Y-42808D01*
X70655Y-42902D01*
X70857Y-42973D01*
X71070Y-42962D01*
X71217Y-42902D01*
X71244Y-42808D01*
X71244Y-44242D01*
X47801Y-44242D01*
X47801Y-43386D01*
X47798Y-42976D01*
X47648Y-42614D01*
X47504Y-42528D01*
X47433Y-42599D01*
X46842Y-43190D01*
X47504Y-43852D01*
X47648Y-43766D01*
X47801Y-43386D01*
X47801Y-44242D01*
X47433Y-44242D01*
X46033Y-44242D01*
X46033Y-43964D01*
X46086Y-44017D01*
X46135Y-43967D01*
X46195Y-44067D01*
X46575Y-44220D01*
X46985Y-44217D01*
X47347Y-44067D01*
X47433Y-43923D01*
X46806Y-43296D01*
X46771Y-43261D01*
X46700Y-43190D01*
X46771Y-43119D01*
X46806Y-43084D01*
X47433Y-42457D01*
X47347Y-42313D01*
X46967Y-42160D01*
X46557Y-42163D01*
X46195Y-42313D01*
X46135Y-42412D01*
X46086Y-42363D01*
X46033Y-42416D01*
X46033Y-41526D01*
X46085Y-41652D01*
X46232Y-41800D01*
X46425Y-41880D01*
X46634Y-41880D01*
X46827Y-41800D01*
X46960Y-41667D01*
X49099Y-41667D01*
X49232Y-41800D01*
X49425Y-41880D01*
X49634Y-41880D01*
X49827Y-41800D01*
X49845Y-41782D01*
X49845Y-43400D01*
X49844Y-43405D01*
X49869Y-43525D01*
X49936Y-43626D01*
X50456Y-44145D01*
X50458Y-44148D01*
X50518Y-44188D01*
X50559Y-44215D01*
X50560Y-44215D01*
X50679Y-44239D01*
X62033Y-44239D01*
X62038Y-44240D01*
X62038Y-44239D01*
X62157Y-44215D01*
X62158Y-44215D01*
X62259Y-44148D01*
X62964Y-43441D01*
X62966Y-43440D01*
X62967Y-43440D01*
X63007Y-43379D01*
X63034Y-43339D01*
X63034Y-43338D01*
X63058Y-43219D01*
X63058Y-42947D01*
X63134Y-42979D01*
X63352Y-42979D01*
X63554Y-42895D01*
X63708Y-42741D01*
X63743Y-42656D01*
X63778Y-42741D01*
X63932Y-42895D01*
X64134Y-42979D01*
X64352Y-42979D01*
X64554Y-42895D01*
X64707Y-42742D01*
X64740Y-42742D01*
X64745Y-42743D01*
X64745Y-42742D01*
X64864Y-42718D01*
X64865Y-42718D01*
X64966Y-42651D01*
X65553Y-42062D01*
X65555Y-42061D01*
X65556Y-42061D01*
X65596Y-42000D01*
X65623Y-41960D01*
X65623Y-41959D01*
X65647Y-41840D01*
X65647Y-40800D01*
X65695Y-40752D01*
X65694Y-40761D01*
X65695Y-40765D01*
X65695Y-43073D01*
X65694Y-43078D01*
X65719Y-43198D01*
X65786Y-43299D01*
X66089Y-43601D01*
X66091Y-43604D01*
X66151Y-43644D01*
X66192Y-43671D01*
X66193Y-43671D01*
X66312Y-43695D01*
X68590Y-43695D01*
X68595Y-43696D01*
X68595Y-43695D01*
X68714Y-43671D01*
X68715Y-43671D01*
X68816Y-43604D01*
X69154Y-43264D01*
X69156Y-43263D01*
X69157Y-43263D01*
X69197Y-43202D01*
X69224Y-43162D01*
X69224Y-43161D01*
X69248Y-43042D01*
X69248Y-42894D01*
X69401Y-42741D01*
X69436Y-42656D01*
X69471Y-42741D01*
X69625Y-42895D01*
X69827Y-42979D01*
X70045Y-42979D01*
X70247Y-42895D01*
X70401Y-42741D01*
X70438Y-42649D01*
X70464Y-42711D01*
X70558Y-42738D01*
X70865Y-42430D01*
X70558Y-42122D01*
X70464Y-42149D01*
X70440Y-42214D01*
X70401Y-42119D01*
X70247Y-41965D01*
X70162Y-41930D01*
X70247Y-41895D01*
X70401Y-41741D01*
X70436Y-41656D01*
X70471Y-41741D01*
X70625Y-41895D01*
X70716Y-41932D01*
X70655Y-41958D01*
X70628Y-42052D01*
X70936Y-42359D01*
X71244Y-42052D01*
X71217Y-41958D01*
X71151Y-41934D01*
X71247Y-41895D01*
X71401Y-41741D01*
X71485Y-41539D01*
X71485Y-41321D01*
X71401Y-41119D01*
X71247Y-40965D01*
X71045Y-40881D01*
X70827Y-40881D01*
X70625Y-40965D01*
X70471Y-41119D01*
X70436Y-41203D01*
X70401Y-41119D01*
X70247Y-40965D01*
X70045Y-40881D01*
X69827Y-40881D01*
X69625Y-40965D01*
X69471Y-41119D01*
X69436Y-41203D01*
X69401Y-41119D01*
X69247Y-40965D01*
X69045Y-40881D01*
X68827Y-40881D01*
X68625Y-40965D01*
X68471Y-41119D01*
X68436Y-41203D01*
X68401Y-41119D01*
X68247Y-40965D01*
X68167Y-40932D01*
X68352Y-40932D01*
X68357Y-40933D01*
X68357Y-40932D01*
X68476Y-40908D01*
X68477Y-40908D01*
X68578Y-40841D01*
X69440Y-39977D01*
X69442Y-39976D01*
X69443Y-39976D01*
X69483Y-39915D01*
X69510Y-39875D01*
X69510Y-39874D01*
X69534Y-39755D01*
X69534Y-39235D01*
X69600Y-39170D01*
X69668Y-39006D01*
X69668Y-38829D01*
X69661Y-38814D01*
X69954Y-39106D01*
X69956Y-39109D01*
X70057Y-39175D01*
X70058Y-39176D01*
X70177Y-39200D01*
X70380Y-39200D01*
X70446Y-39266D01*
X70610Y-39334D01*
X70787Y-39334D01*
X70951Y-39266D01*
X71077Y-39141D01*
X71145Y-38977D01*
X71145Y-38800D01*
X71077Y-38636D01*
X70952Y-38510D01*
X70788Y-38442D01*
X70611Y-38442D01*
X70447Y-38510D01*
X70380Y-38576D01*
X70306Y-38576D01*
X69561Y-37830D01*
X69460Y-37763D01*
X69340Y-37738D01*
X69335Y-37739D01*
X68632Y-37739D01*
X68512Y-37763D01*
X68471Y-37789D01*
X68411Y-37830D01*
X68409Y-37832D01*
X67980Y-38261D01*
X67700Y-38261D01*
X67547Y-38108D01*
X67345Y-38024D01*
X67127Y-38024D01*
X66925Y-38108D01*
X66772Y-38261D01*
X65183Y-38261D01*
X65284Y-38160D01*
X65351Y-38059D01*
X65351Y-38058D01*
X65375Y-37939D01*
X65375Y-33127D01*
X66441Y-32061D01*
X66441Y-37330D01*
X68301Y-37330D01*
X68301Y-36570D01*
X72061Y-36570D01*
X72061Y-30751D01*
X68301Y-30751D01*
X68301Y-29283D01*
X66441Y-29283D01*
X66441Y-30320D01*
X66215Y-30094D01*
X66184Y-30074D01*
X66184Y-30073D01*
X66248Y-29894D01*
X66237Y-29681D01*
X66177Y-29534D01*
X66083Y-29507D01*
X66013Y-29577D01*
X66013Y-29437D01*
X65986Y-29343D01*
X65784Y-29272D01*
X65571Y-29283D01*
X65424Y-29343D01*
X65397Y-29437D01*
X65705Y-29744D01*
X66013Y-29437D01*
X66013Y-29577D01*
X65776Y-29815D01*
X65705Y-29886D01*
X65634Y-29815D01*
X65599Y-29780D01*
X65327Y-29507D01*
X65233Y-29534D01*
X65214Y-29585D01*
X65200Y-29576D01*
X65199Y-29576D01*
X65170Y-29504D01*
X65016Y-29350D01*
X64814Y-29266D01*
X64596Y-29266D01*
X64417Y-29340D01*
X63925Y-28847D01*
X63824Y-28780D01*
X63704Y-28755D01*
X63699Y-28756D01*
X58340Y-28756D01*
X58221Y-28780D01*
X58119Y-28847D01*
X58117Y-28849D01*
X57463Y-29503D01*
X56836Y-29503D01*
X56704Y-29370D01*
X56511Y-29290D01*
X56302Y-29290D01*
X56109Y-29370D01*
X55961Y-29517D01*
X55881Y-29710D01*
X55881Y-29919D01*
X55961Y-30112D01*
X56108Y-30260D01*
X56241Y-30315D01*
X56109Y-30370D01*
X55961Y-30517D01*
X55930Y-30589D01*
X55930Y-30490D01*
X55892Y-30399D01*
X55822Y-30329D01*
X55730Y-30291D01*
X55518Y-30290D01*
X55456Y-30352D01*
X55456Y-30715D01*
X55456Y-30765D01*
X55456Y-30865D01*
X55456Y-30915D01*
X55456Y-31278D01*
X55518Y-31340D01*
X55619Y-31339D01*
X55498Y-31460D01*
X55430Y-31624D01*
X55430Y-31717D01*
X55429Y-31718D01*
X55362Y-31819D01*
X55356Y-31847D01*
X55356Y-31278D01*
X55356Y-30865D01*
X55356Y-30765D01*
X55356Y-30352D01*
X55294Y-30290D01*
X55082Y-30291D01*
X54990Y-30329D01*
X54920Y-30399D01*
X54882Y-30490D01*
X54882Y-30589D01*
X54881Y-30703D01*
X54943Y-30765D01*
X55356Y-30765D01*
X55356Y-30865D01*
X54943Y-30865D01*
X54881Y-30927D01*
X54882Y-31041D01*
X54882Y-31140D01*
X54920Y-31231D01*
X54990Y-31301D01*
X55082Y-31339D01*
X55294Y-31340D01*
X55356Y-31278D01*
X55356Y-31847D01*
X55337Y-31939D01*
X55338Y-31943D01*
X55338Y-32805D01*
X55338Y-33096D01*
X55337Y-33101D01*
X55362Y-33221D01*
X55429Y-33322D01*
X55608Y-33501D01*
X55562Y-33501D01*
X55475Y-33537D01*
X54794Y-33537D01*
X54796Y-33534D01*
X54796Y-33357D01*
X54728Y-33193D01*
X54653Y-33117D01*
X54653Y-30640D01*
X54629Y-30521D01*
X54628Y-30520D01*
X54562Y-30419D01*
X54559Y-30417D01*
X54131Y-29988D01*
X54030Y-29921D01*
X53911Y-29896D01*
X53911Y-29860D01*
X53873Y-29768D01*
X53803Y-29698D01*
X53712Y-29660D01*
X53613Y-29660D01*
X53013Y-29660D01*
X52993Y-29668D01*
X52367Y-29041D01*
X52266Y-28974D01*
X52146Y-28949D01*
X52141Y-28950D01*
X51348Y-28950D01*
X51299Y-28950D01*
X47027Y-28950D01*
X46907Y-28974D01*
X46866Y-29000D01*
X46806Y-29041D01*
X46804Y-29043D01*
X46354Y-29493D01*
X46287Y-29594D01*
X46262Y-29714D01*
X46263Y-29718D01*
X46263Y-30852D01*
X46262Y-30857D01*
X46278Y-30935D01*
X46278Y-30936D01*
X46267Y-30964D01*
X46267Y-31141D01*
X46335Y-31305D01*
X46460Y-31431D01*
X46624Y-31499D01*
X46801Y-31499D01*
X46965Y-31431D01*
X47091Y-31306D01*
X47159Y-31142D01*
X47159Y-30965D01*
X47091Y-30801D01*
X46966Y-30675D01*
X46887Y-30642D01*
X46887Y-30373D01*
X46913Y-30400D01*
X47106Y-30480D01*
X47315Y-30480D01*
X47508Y-30400D01*
X47641Y-30267D01*
X49780Y-30267D01*
X49913Y-30400D01*
X50106Y-30480D01*
X50315Y-30480D01*
X50508Y-30400D01*
X50641Y-30267D01*
X50813Y-30267D01*
X50813Y-30318D01*
X50897Y-30520D01*
X51051Y-30674D01*
X51142Y-30711D01*
X51081Y-30737D01*
X51054Y-30831D01*
X51327Y-31103D01*
X51362Y-31138D01*
X51433Y-31209D01*
X51362Y-31280D01*
X51291Y-31350D01*
X51291Y-31209D01*
X50984Y-30901D01*
X50890Y-30928D01*
X50819Y-31130D01*
X50830Y-31343D01*
X50890Y-31490D01*
X50984Y-31517D01*
X51291Y-31209D01*
X51291Y-31350D01*
X51054Y-31587D01*
X51081Y-31681D01*
X51283Y-31752D01*
X51496Y-31741D01*
X51548Y-31719D01*
X51548Y-31930D01*
X51464Y-31846D01*
X51300Y-31778D01*
X51123Y-31778D01*
X50959Y-31846D01*
X50833Y-31971D01*
X50765Y-32135D01*
X50765Y-32158D01*
X50685Y-32158D01*
X50730Y-32029D01*
X50719Y-31825D01*
X50663Y-31688D01*
X50572Y-31665D01*
X50501Y-31736D01*
X50501Y-31594D01*
X50478Y-31503D01*
X50285Y-31436D01*
X50081Y-31447D01*
X49944Y-31503D01*
X49921Y-31594D01*
X50211Y-31884D01*
X50501Y-31594D01*
X50501Y-31736D01*
X50317Y-31920D01*
X50282Y-31955D01*
X50211Y-32026D01*
X50140Y-31955D01*
X50105Y-31920D01*
X49850Y-31665D01*
X49759Y-31688D01*
X49692Y-31881D01*
X49703Y-32085D01*
X49732Y-32158D01*
X48839Y-32158D01*
X47685Y-32158D01*
X47730Y-32029D01*
X47719Y-31825D01*
X47663Y-31688D01*
X47572Y-31665D01*
X47501Y-31736D01*
X47501Y-31594D01*
X47478Y-31503D01*
X47285Y-31436D01*
X47081Y-31447D01*
X46944Y-31503D01*
X46921Y-31594D01*
X47211Y-31884D01*
X47501Y-31594D01*
X47501Y-31736D01*
X47317Y-31920D01*
X47282Y-31955D01*
X47211Y-32026D01*
X47176Y-32061D01*
X47140Y-32097D01*
X47140Y-31955D01*
X46850Y-31665D01*
X46759Y-31688D01*
X46692Y-31881D01*
X46703Y-32085D01*
X46759Y-32222D01*
X46850Y-32245D01*
X47140Y-31955D01*
X47140Y-32097D01*
X46921Y-32316D01*
X46944Y-32407D01*
X47083Y-32455D01*
X46638Y-32900D01*
X46626Y-32918D01*
X46510Y-32918D01*
X46418Y-32956D01*
X46348Y-33026D01*
X46310Y-33117D01*
X46310Y-33216D01*
X46310Y-33816D01*
X46348Y-33908D01*
X46418Y-33978D01*
X46509Y-34016D01*
X46571Y-34016D01*
X46551Y-34089D01*
X46859Y-34396D01*
X47167Y-34089D01*
X47146Y-34016D01*
X47208Y-34016D01*
X47300Y-33978D01*
X47370Y-33908D01*
X47408Y-33817D01*
X47408Y-33718D01*
X47408Y-33118D01*
X47377Y-33044D01*
X47639Y-32782D01*
X48839Y-32782D01*
X50204Y-32782D01*
X52513Y-35090D01*
X52513Y-35134D01*
X52447Y-35200D01*
X52379Y-35364D01*
X52379Y-35541D01*
X52447Y-35705D01*
X52572Y-35831D01*
X52736Y-35899D01*
X52913Y-35899D01*
X53059Y-35838D01*
X52387Y-36511D01*
X52320Y-36612D01*
X52295Y-36732D01*
X52296Y-36736D01*
X52296Y-37550D01*
X52228Y-37386D01*
X52162Y-37319D01*
X52162Y-36663D01*
X52161Y-36662D01*
X52162Y-36662D01*
X52156Y-36638D01*
X52138Y-36544D01*
X52137Y-36543D01*
X52071Y-36442D01*
X52068Y-36440D01*
X50205Y-34576D01*
X50104Y-34509D01*
X49984Y-34484D01*
X49979Y-34485D01*
X49928Y-34485D01*
X49917Y-34458D01*
X49748Y-34289D01*
X49528Y-34198D01*
X49290Y-34198D01*
X49070Y-34289D01*
X48901Y-34458D01*
X48810Y-34678D01*
X48810Y-34916D01*
X48901Y-35136D01*
X49070Y-35305D01*
X49290Y-35396D01*
X49528Y-35396D01*
X49748Y-35305D01*
X49899Y-35153D01*
X51297Y-36552D01*
X51142Y-36552D01*
X50978Y-36620D01*
X50911Y-36686D01*
X50008Y-36686D01*
X50008Y-36678D01*
X49917Y-36458D01*
X49748Y-36289D01*
X49528Y-36198D01*
X49290Y-36198D01*
X49070Y-36289D01*
X48901Y-36458D01*
X48810Y-36678D01*
X48810Y-36916D01*
X48901Y-37136D01*
X49070Y-37305D01*
X49290Y-37396D01*
X49528Y-37396D01*
X49735Y-37310D01*
X50911Y-37310D01*
X50977Y-37376D01*
X51141Y-37444D01*
X51318Y-37444D01*
X51480Y-37376D01*
X51472Y-37385D01*
X51404Y-37549D01*
X51404Y-37726D01*
X51472Y-37890D01*
X51475Y-37893D01*
X51436Y-37901D01*
X51334Y-37968D01*
X51332Y-37970D01*
X50040Y-39262D01*
X50038Y-39225D01*
X49982Y-39088D01*
X49891Y-39065D01*
X49820Y-39136D01*
X49820Y-38994D01*
X49797Y-38903D01*
X49604Y-38836D01*
X49400Y-38847D01*
X49263Y-38903D01*
X49240Y-38994D01*
X49530Y-39284D01*
X49820Y-38994D01*
X49820Y-39136D01*
X49636Y-39320D01*
X49601Y-39355D01*
X49530Y-39426D01*
X49495Y-39461D01*
X49459Y-39497D01*
X49459Y-39355D01*
X49169Y-39065D01*
X49078Y-39088D01*
X49011Y-39281D01*
X49022Y-39485D01*
X49078Y-39622D01*
X49169Y-39645D01*
X49459Y-39355D01*
X49459Y-39497D01*
X49240Y-39716D01*
X49263Y-39807D01*
X49435Y-39866D01*
X49309Y-39993D01*
X49242Y-40094D01*
X49217Y-40214D01*
X49218Y-40218D01*
X49218Y-40924D01*
X49099Y-41043D01*
X47402Y-41043D01*
X47402Y-34546D01*
X47391Y-34333D01*
X47331Y-34186D01*
X47237Y-34159D01*
X46930Y-34467D01*
X47237Y-34775D01*
X47331Y-34748D01*
X47402Y-34546D01*
X47402Y-41043D01*
X47167Y-41043D01*
X47167Y-34845D01*
X46859Y-34538D01*
X46788Y-34608D01*
X46788Y-34467D01*
X46481Y-34159D01*
X46387Y-34186D01*
X46316Y-34388D01*
X46327Y-34601D01*
X46387Y-34748D01*
X46481Y-34775D01*
X46788Y-34467D01*
X46788Y-34608D01*
X46551Y-34845D01*
X46578Y-34939D01*
X46780Y-35010D01*
X46993Y-34999D01*
X47140Y-34939D01*
X47167Y-34845D01*
X47167Y-41043D01*
X47049Y-41043D01*
X47049Y-39429D01*
X47038Y-39225D01*
X46982Y-39088D01*
X46891Y-39065D01*
X46820Y-39136D01*
X46820Y-38994D01*
X46797Y-38903D01*
X46604Y-38836D01*
X46400Y-38847D01*
X46263Y-38903D01*
X46240Y-38994D01*
X46530Y-39284D01*
X46820Y-38994D01*
X46820Y-39136D01*
X46601Y-39355D01*
X46891Y-39645D01*
X46982Y-39622D01*
X47049Y-39429D01*
X47049Y-41043D01*
X46960Y-41043D01*
X46828Y-40910D01*
X46820Y-40906D01*
X46820Y-39716D01*
X46530Y-39426D01*
X46240Y-39716D01*
X46263Y-39807D01*
X46456Y-39874D01*
X46660Y-39863D01*
X46797Y-39807D01*
X46820Y-39716D01*
X46820Y-40906D01*
X46635Y-40830D01*
X46426Y-40830D01*
X46233Y-40910D01*
X46085Y-41057D01*
X46033Y-41182D01*
X46033Y-39511D01*
X46078Y-39622D01*
X46169Y-39645D01*
X46459Y-39355D01*
X46169Y-39065D01*
X46078Y-39088D01*
X46033Y-39217D01*
X46033Y-28594D01*
X71108Y-28594D01*
X70848Y-28702D01*
X70763Y-28845D01*
X71416Y-29497D01*
X72069Y-28845D01*
X71984Y-28702D01*
X71717Y-28594D01*
X72429Y-28594D01*
X72429Y-29354D01*
X72282Y-29000D01*
X72139Y-28915D01*
X71487Y-29568D01*
X72139Y-30221D01*
X72282Y-30136D01*
X72429Y-29773D01*
X72429Y-44242D01*
X72429Y-44242D01*
G37*
G54D11*
X72429Y-44242D02*
X72069Y-44242D01*
X72069Y-30291D01*
X71416Y-29639D01*
X71345Y-29709D01*
X71345Y-29568D01*
X70693Y-28915D01*
X70550Y-29000D01*
X70398Y-29375D01*
X70402Y-29779D01*
X70550Y-30136D01*
X70693Y-30221D01*
X71345Y-29568D01*
X71345Y-29709D01*
X70763Y-30291D01*
X70848Y-30434D01*
X71223Y-30586D01*
X71627Y-30582D01*
X71984Y-30434D01*
X72069Y-30291D01*
X72069Y-44242D01*
X71479Y-44242D01*
X71479Y-42509D01*
X71468Y-42296D01*
X71408Y-42149D01*
X71314Y-42122D01*
X71007Y-42430D01*
X71314Y-42738D01*
X71408Y-42711D01*
X71479Y-42509D01*
X71479Y-44242D01*
X71244Y-44242D01*
X71244Y-42808D01*
X70936Y-42501D01*
X70628Y-42808D01*
X70655Y-42902D01*
X70857Y-42973D01*
X71070Y-42962D01*
X71217Y-42902D01*
X71244Y-42808D01*
X71244Y-44242D01*
X47801Y-44242D01*
X47801Y-43386D01*
X47798Y-42976D01*
X47648Y-42614D01*
X47504Y-42528D01*
X47433Y-42599D01*
X46842Y-43190D01*
X47504Y-43852D01*
X47648Y-43766D01*
X47801Y-43386D01*
X47801Y-44242D01*
X47433Y-44242D01*
X46033Y-44242D01*
X46033Y-43964D01*
X46086Y-44017D01*
X46135Y-43967D01*
X46195Y-44067D01*
X46575Y-44220D01*
X46985Y-44217D01*
X47347Y-44067D01*
X47433Y-43923D01*
X46806Y-43296D01*
X46771Y-43261D01*
X46700Y-43190D01*
X46771Y-43119D01*
X46806Y-43084D01*
X47433Y-42457D01*
X47347Y-42313D01*
X46967Y-42160D01*
X46557Y-42163D01*
X46195Y-42313D01*
X46135Y-42412D01*
X46086Y-42363D01*
X46033Y-42416D01*
X46033Y-41526D01*
X46085Y-41652D01*
X46232Y-41800D01*
X46425Y-41880D01*
X46634Y-41880D01*
X46827Y-41800D01*
X46960Y-41667D01*
X49099Y-41667D01*
X49232Y-41800D01*
X49425Y-41880D01*
X49634Y-41880D01*
X49827Y-41800D01*
X49845Y-41782D01*
X49845Y-43400D01*
X49844Y-43405D01*
X49869Y-43525D01*
X49936Y-43626D01*
X50456Y-44145D01*
X50458Y-44148D01*
X50518Y-44188D01*
X50559Y-44215D01*
X50560Y-44215D01*
X50679Y-44239D01*
X62033Y-44239D01*
X62038Y-44240D01*
X62038Y-44239D01*
X62157Y-44215D01*
X62158Y-44215D01*
X62259Y-44148D01*
X62964Y-43441D01*
X62966Y-43440D01*
X62967Y-43440D01*
X63007Y-43379D01*
X63034Y-43339D01*
X63034Y-43338D01*
X63058Y-43219D01*
X63058Y-42947D01*
X63134Y-42979D01*
X63352Y-42979D01*
X63554Y-42895D01*
X63708Y-42741D01*
X63743Y-42656D01*
X63778Y-42741D01*
X63932Y-42895D01*
X64134Y-42979D01*
X64352Y-42979D01*
X64554Y-42895D01*
X64707Y-42742D01*
X64740Y-42742D01*
X64745Y-42743D01*
X64745Y-42742D01*
X64864Y-42718D01*
X64865Y-42718D01*
X64966Y-42651D01*
X65553Y-42062D01*
X65555Y-42061D01*
X65556Y-42061D01*
X65596Y-42000D01*
X65623Y-41960D01*
X65623Y-41959D01*
X65647Y-41840D01*
X65647Y-40800D01*
X65695Y-40752D01*
X65694Y-40761D01*
X65695Y-40765D01*
X65695Y-43073D01*
X65694Y-43078D01*
X65719Y-43198D01*
X65786Y-43299D01*
X66089Y-43601D01*
X66091Y-43604D01*
X66151Y-43644D01*
X66192Y-43671D01*
X66193Y-43671D01*
X66312Y-43695D01*
X68590Y-43695D01*
X68595Y-43696D01*
X68595Y-43695D01*
X68714Y-43671D01*
X68715Y-43671D01*
X68816Y-43604D01*
X69154Y-43264D01*
X69156Y-43263D01*
X69157Y-43263D01*
X69197Y-43202D01*
X69224Y-43162D01*
X69224Y-43161D01*
X69248Y-43042D01*
X69248Y-42894D01*
X69401Y-42741D01*
X69436Y-42656D01*
X69471Y-42741D01*
X69625Y-42895D01*
X69827Y-42979D01*
X70045Y-42979D01*
X70247Y-42895D01*
X70401Y-42741D01*
X70438Y-42649D01*
X70464Y-42711D01*
X70558Y-42738D01*
X70865Y-42430D01*
X70558Y-42122D01*
X70464Y-42149D01*
X70440Y-42214D01*
X70401Y-42119D01*
X70247Y-41965D01*
X70162Y-41930D01*
X70247Y-41895D01*
X70401Y-41741D01*
X70436Y-41656D01*
X70471Y-41741D01*
X70625Y-41895D01*
X70716Y-41932D01*
X70655Y-41958D01*
X70628Y-42052D01*
X70936Y-42359D01*
X71244Y-42052D01*
X71217Y-41958D01*
X71151Y-41934D01*
X71247Y-41895D01*
X71401Y-41741D01*
X71485Y-41539D01*
X71485Y-41321D01*
X71401Y-41119D01*
X71247Y-40965D01*
X71045Y-40881D01*
X70827Y-40881D01*
X70625Y-40965D01*
X70471Y-41119D01*
X70436Y-41203D01*
X70401Y-41119D01*
X70247Y-40965D01*
X70045Y-40881D01*
X69827Y-40881D01*
X69625Y-40965D01*
X69471Y-41119D01*
X69436Y-41203D01*
X69401Y-41119D01*
X69247Y-40965D01*
X69045Y-40881D01*
X68827Y-40881D01*
X68625Y-40965D01*
X68471Y-41119D01*
X68436Y-41203D01*
X68401Y-41119D01*
X68247Y-40965D01*
X68167Y-40932D01*
X68352Y-40932D01*
X68357Y-40933D01*
X68357Y-40932D01*
X68476Y-40908D01*
X68477Y-40908D01*
X68578Y-40841D01*
X69440Y-39977D01*
X69442Y-39976D01*
X69443Y-39976D01*
X69483Y-39915D01*
X69510Y-39875D01*
X69510Y-39874D01*
X69534Y-39755D01*
X69534Y-39235D01*
X69600Y-39170D01*
X69668Y-39006D01*
X69668Y-38829D01*
X69661Y-38814D01*
X69954Y-39106D01*
X69956Y-39109D01*
X70057Y-39175D01*
X70058Y-39176D01*
X70177Y-39200D01*
X70380Y-39200D01*
X70446Y-39266D01*
X70610Y-39334D01*
X70787Y-39334D01*
X70951Y-39266D01*
X71077Y-39141D01*
X71145Y-38977D01*
X71145Y-38800D01*
X71077Y-38636D01*
X70952Y-38510D01*
X70788Y-38442D01*
X70611Y-38442D01*
X70447Y-38510D01*
X70380Y-38576D01*
X70306Y-38576D01*
X69561Y-37830D01*
X69460Y-37763D01*
X69340Y-37738D01*
X69335Y-37739D01*
X68632Y-37739D01*
X68512Y-37763D01*
X68471Y-37789D01*
X68411Y-37830D01*
X68409Y-37832D01*
X67980Y-38261D01*
X67700Y-38261D01*
X67547Y-38108D01*
X67345Y-38024D01*
X67127Y-38024D01*
X66925Y-38108D01*
X66772Y-38261D01*
X65183Y-38261D01*
X65284Y-38160D01*
X65351Y-38059D01*
X65351Y-38058D01*
X65375Y-37939D01*
X65375Y-33127D01*
X66441Y-32061D01*
X66441Y-37330D01*
X68301Y-37330D01*
X68301Y-36570D01*
X72061Y-36570D01*
X72061Y-30751D01*
X68301Y-30751D01*
X68301Y-29283D01*
X66441Y-29283D01*
X66441Y-30320D01*
X66215Y-30094D01*
X66184Y-30074D01*
X66184Y-30073D01*
X66248Y-29894D01*
X66237Y-29681D01*
X66177Y-29534D01*
X66083Y-29507D01*
X66013Y-29577D01*
X66013Y-29437D01*
X65986Y-29343D01*
X65784Y-29272D01*
X65571Y-29283D01*
X65424Y-29343D01*
X65397Y-29437D01*
X65705Y-29744D01*
X66013Y-29437D01*
X66013Y-29577D01*
X65776Y-29815D01*
X65705Y-29886D01*
X65634Y-29815D01*
X65599Y-29780D01*
X65327Y-29507D01*
X65233Y-29534D01*
X65214Y-29585D01*
X65200Y-29576D01*
X65199Y-29576D01*
X65170Y-29504D01*
X65016Y-29350D01*
X64814Y-29266D01*
X64596Y-29266D01*
X64417Y-29340D01*
X63925Y-28847D01*
X63824Y-28780D01*
X63704Y-28755D01*
X63699Y-28756D01*
X58340Y-28756D01*
X58221Y-28780D01*
X58119Y-28847D01*
X58117Y-28849D01*
X57463Y-29503D01*
X56836Y-29503D01*
X56704Y-29370D01*
X56511Y-29290D01*
X56302Y-29290D01*
X56109Y-29370D01*
X55961Y-29517D01*
X55881Y-29710D01*
X55881Y-29919D01*
X55961Y-30112D01*
X56108Y-30260D01*
X56241Y-30315D01*
X56109Y-30370D01*
X55961Y-30517D01*
X55930Y-30589D01*
X55930Y-30490D01*
X55892Y-30399D01*
X55822Y-30329D01*
X55730Y-30291D01*
X55518Y-30290D01*
X55456Y-30352D01*
X55456Y-30715D01*
X55456Y-30765D01*
X55456Y-30865D01*
X55456Y-30915D01*
X55456Y-31278D01*
X55518Y-31340D01*
X55619Y-31339D01*
X55498Y-31460D01*
X55430Y-31624D01*
X55430Y-31717D01*
X55429Y-31718D01*
X55362Y-31819D01*
X55356Y-31847D01*
X55356Y-31278D01*
X55356Y-30865D01*
X55356Y-30765D01*
X55356Y-30352D01*
X55294Y-30290D01*
X55082Y-30291D01*
X54990Y-30329D01*
X54920Y-30399D01*
X54882Y-30490D01*
X54882Y-30589D01*
X54881Y-30703D01*
X54943Y-30765D01*
X55356Y-30765D01*
X55356Y-30865D01*
X54943Y-30865D01*
X54881Y-30927D01*
X54882Y-31041D01*
X54882Y-31140D01*
X54920Y-31231D01*
X54990Y-31301D01*
X55082Y-31339D01*
X55294Y-31340D01*
X55356Y-31278D01*
X55356Y-31847D01*
X55337Y-31939D01*
X55338Y-31943D01*
X55338Y-32805D01*
X55338Y-33096D01*
X55337Y-33101D01*
X55362Y-33221D01*
X55429Y-33322D01*
X55608Y-33501D01*
X55562Y-33501D01*
X55475Y-33537D01*
X54794Y-33537D01*
X54796Y-33534D01*
X54796Y-33357D01*
X54728Y-33193D01*
X54653Y-33117D01*
X54653Y-30640D01*
X54629Y-30521D01*
X54628Y-30520D01*
X54562Y-30419D01*
X54559Y-30417D01*
X54131Y-29988D01*
X54030Y-29921D01*
X53911Y-29896D01*
X53911Y-29860D01*
X53873Y-29768D01*
X53803Y-29698D01*
X53712Y-29660D01*
X53613Y-29660D01*
X53013Y-29660D01*
X52993Y-29668D01*
X52367Y-29041D01*
X52266Y-28974D01*
X52146Y-28949D01*
X52141Y-28950D01*
X51348Y-28950D01*
X51299Y-28950D01*
X47027Y-28950D01*
X46907Y-28974D01*
X46866Y-29000D01*
X46806Y-29041D01*
X46804Y-29043D01*
X46354Y-29493D01*
X46287Y-29594D01*
X46262Y-29714D01*
X46263Y-29718D01*
X46263Y-30852D01*
X46262Y-30857D01*
X46278Y-30935D01*
X46278Y-30936D01*
X46267Y-30964D01*
X46267Y-31141D01*
X46335Y-31305D01*
X46460Y-31431D01*
X46624Y-31499D01*
X46801Y-31499D01*
X46965Y-31431D01*
X47091Y-31306D01*
X47159Y-31142D01*
X47159Y-30965D01*
X47091Y-30801D01*
X46966Y-30675D01*
X46887Y-30642D01*
X46887Y-30373D01*
X46913Y-30400D01*
X47106Y-30480D01*
X47315Y-30480D01*
X47508Y-30400D01*
X47641Y-30267D01*
X49780Y-30267D01*
X49913Y-30400D01*
X50106Y-30480D01*
X50315Y-30480D01*
X50508Y-30400D01*
X50641Y-30267D01*
X50813Y-30267D01*
X50813Y-30318D01*
X50897Y-30520D01*
X51051Y-30674D01*
X51142Y-30711D01*
X51081Y-30737D01*
X51054Y-30831D01*
X51327Y-31103D01*
X51362Y-31138D01*
X51433Y-31209D01*
X51362Y-31280D01*
X51291Y-31350D01*
X51291Y-31209D01*
X50984Y-30901D01*
X50890Y-30928D01*
X50819Y-31130D01*
X50830Y-31343D01*
X50890Y-31490D01*
X50984Y-31517D01*
X51291Y-31209D01*
X51291Y-31350D01*
X51054Y-31587D01*
X51081Y-31681D01*
X51283Y-31752D01*
X51496Y-31741D01*
X51548Y-31719D01*
X51548Y-31930D01*
X51464Y-31846D01*
X51300Y-31778D01*
X51123Y-31778D01*
X50959Y-31846D01*
X50833Y-31971D01*
X50765Y-32135D01*
X50765Y-32158D01*
X50685Y-32158D01*
X50730Y-32029D01*
X50719Y-31825D01*
X50663Y-31688D01*
X50572Y-31665D01*
X50501Y-31736D01*
X50501Y-31594D01*
X50478Y-31503D01*
X50285Y-31436D01*
X50081Y-31447D01*
X49944Y-31503D01*
X49921Y-31594D01*
X50211Y-31884D01*
X50501Y-31594D01*
X50501Y-31736D01*
X50317Y-31920D01*
X50282Y-31955D01*
X50211Y-32026D01*
X50140Y-31955D01*
X50105Y-31920D01*
X49850Y-31665D01*
X49759Y-31688D01*
X49692Y-31881D01*
X49703Y-32085D01*
X49732Y-32158D01*
X48839Y-32158D01*
X47685Y-32158D01*
X47730Y-32029D01*
X47719Y-31825D01*
X47663Y-31688D01*
X47572Y-31665D01*
X47501Y-31736D01*
X47501Y-31594D01*
X47478Y-31503D01*
X47285Y-31436D01*
X47081Y-31447D01*
X46944Y-31503D01*
X46921Y-31594D01*
X47211Y-31884D01*
X47501Y-31594D01*
X47501Y-31736D01*
X47317Y-31920D01*
X47282Y-31955D01*
X47211Y-32026D01*
X47176Y-32061D01*
X47140Y-32097D01*
X47140Y-31955D01*
X46850Y-31665D01*
X46759Y-31688D01*
X46692Y-31881D01*
X46703Y-32085D01*
X46759Y-32222D01*
X46850Y-32245D01*
X47140Y-31955D01*
X47140Y-32097D01*
X46921Y-32316D01*
X46944Y-32407D01*
X47083Y-32455D01*
X46638Y-32900D01*
X46626Y-32918D01*
X46510Y-32918D01*
X46418Y-32956D01*
X46348Y-33026D01*
X46310Y-33117D01*
X46310Y-33216D01*
X46310Y-33816D01*
X46348Y-33908D01*
X46418Y-33978D01*
X46509Y-34016D01*
X46571Y-34016D01*
X46551Y-34089D01*
X46859Y-34396D01*
X47167Y-34089D01*
X47146Y-34016D01*
X47208Y-34016D01*
X47300Y-33978D01*
X47370Y-33908D01*
X47408Y-33817D01*
X47408Y-33718D01*
X47408Y-33118D01*
X47377Y-33044D01*
X47639Y-32782D01*
X48839Y-32782D01*
X50204Y-32782D01*
X52513Y-35090D01*
X52513Y-35134D01*
X52447Y-35200D01*
X52379Y-35364D01*
X52379Y-35541D01*
X52447Y-35705D01*
X52572Y-35831D01*
X52736Y-35899D01*
X52913Y-35899D01*
X53059Y-35838D01*
X52387Y-36511D01*
X52320Y-36612D01*
X52295Y-36732D01*
X52296Y-36736D01*
X52296Y-37550D01*
X52228Y-37386D01*
X52162Y-37319D01*
X52162Y-36663D01*
X52161Y-36662D01*
X52162Y-36662D01*
X52156Y-36638D01*
X52138Y-36544D01*
X52137Y-36543D01*
X52071Y-36442D01*
X52068Y-36440D01*
X50205Y-34576D01*
X50104Y-34509D01*
X49984Y-34484D01*
X49979Y-34485D01*
X49928Y-34485D01*
X49917Y-34458D01*
X49748Y-34289D01*
X49528Y-34198D01*
X49290Y-34198D01*
X49070Y-34289D01*
X48901Y-34458D01*
X48810Y-34678D01*
X48810Y-34916D01*
X48901Y-35136D01*
X49070Y-35305D01*
X49290Y-35396D01*
X49528Y-35396D01*
X49748Y-35305D01*
X49899Y-35153D01*
X51297Y-36552D01*
X51142Y-36552D01*
X50978Y-36620D01*
X50911Y-36686D01*
X50008Y-36686D01*
X50008Y-36678D01*
X49917Y-36458D01*
X49748Y-36289D01*
X49528Y-36198D01*
X49290Y-36198D01*
X49070Y-36289D01*
X48901Y-36458D01*
X48810Y-36678D01*
X48810Y-36916D01*
X48901Y-37136D01*
X49070Y-37305D01*
X49290Y-37396D01*
X49528Y-37396D01*
X49735Y-37310D01*
X50911Y-37310D01*
X50977Y-37376D01*
X51141Y-37444D01*
X51318Y-37444D01*
X51480Y-37376D01*
X51472Y-37385D01*
X51404Y-37549D01*
X51404Y-37726D01*
X51472Y-37890D01*
X51475Y-37893D01*
X51436Y-37901D01*
X51334Y-37968D01*
X51332Y-37970D01*
X50040Y-39262D01*
X50038Y-39225D01*
X49982Y-39088D01*
X49891Y-39065D01*
X49820Y-39136D01*
X49820Y-38994D01*
X49797Y-38903D01*
X49604Y-38836D01*
X49400Y-38847D01*
X49263Y-38903D01*
X49240Y-38994D01*
X49530Y-39284D01*
X49820Y-38994D01*
X49820Y-39136D01*
X49636Y-39320D01*
X49601Y-39355D01*
X49530Y-39426D01*
X49495Y-39461D01*
X49459Y-39497D01*
X49459Y-39355D01*
X49169Y-39065D01*
X49078Y-39088D01*
X49011Y-39281D01*
X49022Y-39485D01*
X49078Y-39622D01*
X49169Y-39645D01*
X49459Y-39355D01*
X49459Y-39497D01*
X49240Y-39716D01*
X49263Y-39807D01*
X49435Y-39866D01*
X49309Y-39993D01*
X49242Y-40094D01*
X49217Y-40214D01*
X49218Y-40218D01*
X49218Y-40924D01*
X49099Y-41043D01*
X47402Y-41043D01*
X47402Y-34546D01*
X47391Y-34333D01*
X47331Y-34186D01*
X47237Y-34159D01*
X46930Y-34467D01*
X47237Y-34775D01*
X47331Y-34748D01*
X47402Y-34546D01*
X47402Y-41043D01*
X47167Y-41043D01*
X47167Y-34845D01*
X46859Y-34538D01*
X46788Y-34608D01*
X46788Y-34467D01*
X46481Y-34159D01*
X46387Y-34186D01*
X46316Y-34388D01*
X46327Y-34601D01*
X46387Y-34748D01*
X46481Y-34775D01*
X46788Y-34467D01*
X46788Y-34608D01*
X46551Y-34845D01*
X46578Y-34939D01*
X46780Y-35010D01*
X46993Y-34999D01*
X47140Y-34939D01*
X47167Y-34845D01*
X47167Y-41043D01*
X47049Y-41043D01*
X47049Y-39429D01*
X47038Y-39225D01*
X46982Y-39088D01*
X46891Y-39065D01*
X46820Y-39136D01*
X46820Y-38994D01*
X46797Y-38903D01*
X46604Y-38836D01*
X46400Y-38847D01*
X46263Y-38903D01*
X46240Y-38994D01*
X46530Y-39284D01*
X46820Y-38994D01*
X46820Y-39136D01*
X46601Y-39355D01*
X46891Y-39645D01*
X46982Y-39622D01*
X47049Y-39429D01*
X47049Y-41043D01*
X46960Y-41043D01*
X46828Y-40910D01*
X46820Y-40906D01*
X46820Y-39716D01*
X46530Y-39426D01*
X46240Y-39716D01*
X46263Y-39807D01*
X46456Y-39874D01*
X46660Y-39863D01*
X46797Y-39807D01*
X46820Y-39716D01*
X46820Y-40906D01*
X46635Y-40830D01*
X46426Y-40830D01*
X46233Y-40910D01*
X46085Y-41057D01*
X46033Y-41182D01*
X46033Y-39511D01*
X46078Y-39622D01*
X46169Y-39645D01*
X46459Y-39355D01*
X46169Y-39065D01*
X46078Y-39088D01*
X46033Y-39217D01*
X46033Y-28594D01*
X71108Y-28594D01*
X70848Y-28702D01*
X70763Y-28845D01*
X71416Y-29497D01*
X72069Y-28845D01*
X71984Y-28702D01*
X71717Y-28594D01*
X72429Y-28594D01*
X72429Y-29354D01*
X72282Y-29000D01*
X72139Y-28915D01*
X71487Y-29568D01*
X72139Y-30221D01*
X72282Y-30136D01*
X72429Y-29773D01*
X72429Y-44242D01*
M02*
